<svg width="375" height="302" viewBox="0 0 375 302" fill="none" xmlns="http://www.w3.org/2000/svg">
<mask id="mask0_246_42008" style="mask-type:alpha" maskUnits="userSpaceOnUse" x="0" y="0" width="375" height="302">
<rect width="375" height="302" fill="white"/>
</mask>
<g mask="url(#mask0_246_42008)">
<path d="M124.747 182.142L42.1714 156.764L124.747 128.401L207.323 156.764L124.747 182.142Z" fill="#274B69"/>
<mask id="mask1_246_42008" style="mask-type:alpha" maskUnits="userSpaceOnUse" x="42" y="128" width="166" height="55">
<path fill-rule="evenodd" clip-rule="evenodd" d="M124.747 182.142L42.1714 156.764L124.747 128.401L207.323 156.764L124.747 182.142Z" fill="white"/>
</mask>
<g mask="url(#mask1_246_42008)">
<path d="M18.5957 151.386C94.9153 184.911 78.4071 148.644 116.597 158.37C154.787 168.096 101.853 186.183 101.853 186.183L48.0828 189.567L29.8702 167.217" fill="#0C273A"/>
<path d="M130.827 121.803C121.58 124.726 124.747 128.401 124.747 128.401L219.793 174.877L205.281 138.639L171.593 132.239" fill="#11314B"/>
</g>
<path d="M124.747 153.923C103.508 153.923 86.2905 158.331 86.2905 163.769V195.831H86.5355C86.5355 193.395 162.959 193.395 162.959 195.831H163.204V163.769C163.204 158.331 145.986 153.923 124.747 153.923Z" fill="#274B69"/>
<mask id="mask2_246_42008" style="mask-type:alpha" maskUnits="userSpaceOnUse" x="86" y="153" width="78" height="43">
<path fill-rule="evenodd" clip-rule="evenodd" d="M124.747 153.923C103.508 153.923 86.2905 158.331 86.2905 163.769V195.831H86.5355C86.5355 193.395 162.959 193.395 162.959 195.831H163.204V163.769C163.204 158.331 145.986 153.923 124.747 153.923Z" fill="white"/>
</mask>
<g mask="url(#mask2_246_42008)">
<path d="M77.4605 188.455C90.5515 151.246 150.616 156.207 162.937 163.649C175.258 171.091 149.846 146.285 149.846 146.285L85.1611 144.631L75.1504 153.727" fill="#11314B"/>
</g>
<rect x="64.4575" y="148.107" width="1.48783" height="34.2595" fill="#FFC562"/>
<path d="M69.0688 204.114L66.9183 184.005H63.4843L61.3337 204.114C60.9678 205.824 61.6148 207.599 62.9641 208.588C64.3134 209.577 66.0892 209.577 67.4385 208.588C68.7878 207.599 69.4349 205.824 69.0689 204.114H69.0688Z" fill="#FFC562"/>
<mask id="mask3_246_42008" style="mask-type:alpha" maskUnits="userSpaceOnUse" x="61" y="184" width="9" height="26">
<path fill-rule="evenodd" clip-rule="evenodd" d="M69.0688 204.114L66.9183 184.005H63.4843L61.3337 204.114C60.9678 205.824 61.6148 207.599 62.9641 208.588C64.3134 209.577 66.0892 209.577 67.4385 208.588C68.7878 207.599 69.4349 205.824 69.0689 204.114H69.0688Z" fill="white"/>
</mask>
<g mask="url(#mask3_246_42008)">
<path d="M55.4999 213.49C62.4304 216.797 68.9904 182.667 68.9904 182.667H61.2898L55.1294 187.628V192.589" fill="#D89D35"/>
</g>
<ellipse cx="65.2012" cy="182.367" rx="3.55425" ry="3.81647" fill="#BB393C"/>
<path d="M139.705 174.587L135.675 177.619L134.524 178.485C134.288 178.663 134.155 179.012 134.326 179.297C134.477 179.548 134.829 179.7 135.082 179.509L139.111 176.477L140.262 175.611C140.498 175.433 140.631 175.084 140.46 174.799C140.309 174.548 139.958 174.396 139.705 174.587Z" fill="#11314B"/>
<path d="M94.6656 146.696C95.228 146.359 95.8005 146.042 96.383 145.746C96.6709 145.6 96.9611 145.459 97.2535 145.323C97.2925 145.305 97.3316 145.287 97.3706 145.269C97.3747 145.267 97.5035 145.209 97.422 145.246C97.3404 145.282 97.4694 145.224 97.4735 145.223C97.5127 145.205 97.552 145.188 97.5912 145.17C97.7484 145.101 97.906 145.033 98.0643 144.967C99.2516 144.469 100.469 144.058 101.707 143.736C102.409 143.553 103.116 143.4 103.83 143.275C104.115 143.225 104.3 142.828 104.215 142.546C104.115 142.213 103.842 142.078 103.536 142.132C100.95 142.59 98.434 143.422 96.0564 144.606C95.3945 144.934 94.7451 145.289 94.1082 145.672C93.9376 145.778 93.833 145.975 93.834 146.187C93.835 146.399 93.9413 146.594 94.1129 146.699C94.2845 146.804 94.4953 146.803 94.6656 146.696L94.6656 146.696Z" fill="#11314B"/>
<path d="M330.011 222.822C312.759 223.397 292.636 223.728 271.141 223.728C249.646 223.728 219.402 223.397 202.149 222.822C200.593 222.822 199.332 226.581 199.332 231.218C199.332 235.854 200.593 239.613 202.149 239.613C219.402 239.038 249.646 238.707 271.141 238.707C292.636 238.707 312.759 239.038 330.011 239.613C331.567 239.613 332.829 235.854 332.829 231.218C332.829 226.581 331.567 222.822 330.011 222.822Z" fill="#D6DCF2"/>
<path d="M325.778 220.131C309.766 220.891 291.09 221.327 271.141 221.327C251.192 221.327 222.395 220.891 206.383 220.131C204.939 220.131 203.768 225.095 203.768 231.217C203.768 237.34 204.939 242.304 206.383 242.304C222.395 241.544 251.192 241.108 271.141 241.108C291.091 241.108 309.766 241.544 325.778 242.304C327.222 242.304 328.393 237.34 328.393 231.218C328.393 225.095 327.222 220.131 325.778 220.131Z" fill="#EFF3FC"/>
<mask id="mask4_246_42008" style="mask-type:alpha" maskUnits="userSpaceOnUse" x="203" y="220" width="126" height="23">
<path fill-rule="evenodd" clip-rule="evenodd" d="M325.778 220.131C309.766 220.891 291.09 221.327 271.141 221.327C251.192 221.327 222.395 220.891 206.383 220.131C204.939 220.131 203.768 225.095 203.768 231.217C203.768 237.34 204.939 242.304 206.383 242.304C222.395 241.544 251.192 241.108 271.141 241.108C291.091 241.108 309.766 241.544 325.778 242.304C327.222 242.304 328.393 237.34 328.393 231.218C328.393 225.095 327.222 220.131 325.778 220.131Z" fill="white"/>
</mask>
<g mask="url(#mask4_246_42008)">
<path d="M210.152 218.307C201.086 235.153 212.671 250.259 212.671 250.259L217.326 234.884" fill="#D6DCF2"/>
</g>
<path d="M321.152 217.379C306.496 218.327 289.402 218.872 271.141 218.872C252.881 218.872 225.665 218.327 211.009 217.379C209.687 217.379 208.615 223.575 208.615 231.218C208.615 238.86 209.687 245.056 211.009 245.056C225.665 244.108 252.881 243.563 271.141 243.563C289.402 243.563 306.496 244.108 321.152 245.056C322.474 245.056 323.546 238.86 323.546 231.218C323.546 223.575 322.474 217.379 321.152 217.379Z" fill="#EFF3FC"/>
<mask id="mask5_246_42008" style="mask-type:alpha" maskUnits="userSpaceOnUse" x="208" y="217" width="116" height="29">
<path fill-rule="evenodd" clip-rule="evenodd" d="M321.152 217.379C306.496 218.327 289.402 218.872 271.141 218.872C252.881 218.872 225.665 218.327 211.009 217.379C209.687 217.379 208.615 223.575 208.615 231.218C208.615 238.86 209.687 245.056 211.009 245.056C225.665 244.108 252.881 243.563 271.141 243.563C289.402 243.563 306.496 244.108 321.152 245.056C322.474 245.056 323.546 238.86 323.546 231.218C323.546 223.575 322.474 217.379 321.152 217.379Z" fill="white"/>
</mask>
<g mask="url(#mask5_246_42008)">
<path d="M258.394 215.381C257.153 237.041 259.861 224.011 257.256 245.056C256.321 252.61 231.292 246.26 232.223 246.483C233.154 246.705 285.91 249.148 285.91 249.148L276.6 239.04C276.6 239.04 279.187 227.711 273.083 225.045L272.463 214.048L257.049 214.937" fill="#D6DCF2"/>
<path d="M215.05 212.271C210.152 218.307 207.378 242.964 218.568 243.595C229.757 244.226 240.498 245.56 240.498 245.56L229.326 255.147L197.879 251.592L203.767 215.159L217.74 206.495" fill="#D6DCF2"/>
</g>
<rect x="260.541" y="218.581" width="11.0796" height="21.9341" fill="#FFC562"/>
<path d="M280.214 249.868L274.752 248.185L273.242 254.068L261.777 232.126L268.749 227.926L280.214 249.868Z" fill="#FFC562"/>
<mask id="mask6_246_42008" style="mask-type:alpha" maskUnits="userSpaceOnUse" x="261" y="227" width="20" height="28">
<path fill-rule="evenodd" clip-rule="evenodd" d="M280.214 249.868L274.752 248.185L273.242 254.068L261.777 232.126L268.749 227.926L280.214 249.868Z" fill="white"/>
</mask>
<g mask="url(#mask6_246_42008)">
<path d="M275.463 237.097C274.428 243.872 269.56 243.647 272.253 252.174C274.945 260.7 264.653 241.151 264.653 241.151L273.601 235.264" fill="#D89D35"/>
</g>
<path d="M251.946 249.868L257.409 248.185L258.918 254.068L270.384 232.126L263.412 227.926L251.946 249.868Z" fill="#FFC562"/>
<mask id="mask7_246_42008" style="mask-type:alpha" maskUnits="userSpaceOnUse" x="251" y="227" width="20" height="28">
<path fill-rule="evenodd" clip-rule="evenodd" d="M251.946 249.868L257.409 248.185L258.918 254.068L270.384 232.126L263.412 227.926L251.946 249.868Z" fill="white"/>
</mask>
<g mask="url(#mask7_246_42008)">
<path d="M250.325 245.56C256.222 238.753 260.452 245.851 264.802 245.056C269.152 244.261 253.015 234.153 253.015 234.153L249.086 238.801" fill="#D89D35"/>
</g>
<ellipse cx="266.08" cy="234.884" rx="9.94297" ry="10.6765" fill="#90282A"/>
<mask id="mask8_246_42008" style="mask-type:alpha" maskUnits="userSpaceOnUse" x="256" y="224" width="21" height="22">
<ellipse cx="266.08" cy="234.884" rx="9.94297" ry="10.6765" fill="white"/>
</mask>
<g mask="url(#mask8_246_42008)">
<ellipse cx="262.336" cy="233.393" rx="9.94297" ry="10.6765" fill="#BB393C"/>
</g>
<path d="M224.273 230.523V232.522C224.273 232.893 224.577 233.249 224.935 233.232C225.297 233.225 225.59 232.911 225.596 232.522V230.523C225.596 230.151 225.292 229.795 224.935 229.812C224.572 229.819 224.279 230.133 224.273 230.523V230.523Z" fill="#D6DCF2"/>
<path d="M306.805 227.858C306.824 228.306 306.805 228.755 306.75 229.2L306.773 229.011C306.721 229.417 306.639 229.819 306.528 230.211C306.472 230.407 306.41 230.601 306.34 230.792C306.326 230.841 306.308 230.889 306.286 230.935C306.289 230.93 306.354 230.766 306.311 230.872C306.304 230.889 306.297 230.907 306.29 230.924C306.249 231.024 306.206 231.123 306.161 231.221C305.993 231.59 305.798 231.944 305.579 232.28C305.527 232.359 305.474 232.436 305.421 232.513C305.372 232.584 305.509 232.392 305.459 232.461C305.444 232.481 305.429 232.501 305.414 232.521C305.381 232.566 305.347 232.611 305.312 232.655C305.19 232.813 305.062 232.965 304.928 233.111C304.782 233.271 304.63 233.424 304.47 233.569C304.43 233.606 304.388 233.643 304.347 233.68C304.328 233.696 304.309 233.711 304.291 233.728C304.203 233.804 304.39 233.647 304.326 233.699C304.235 233.772 304.143 233.844 304.05 233.913C303.904 234.01 303.796 234.161 303.746 234.338C303.7 234.522 303.724 234.719 303.813 234.885C303.995 235.189 304.413 235.365 304.717 235.14C306.43 233.869 307.608 231.926 307.998 229.73C308.107 229.113 308.15 228.485 308.127 227.858C308.111 227.487 307.835 227.13 307.466 227.148C307.121 227.164 306.787 227.46 306.805 227.858L306.805 227.858Z" fill="#D6DCF2"/>
<path d="M321.531 135.482C321.531 132.878 319.566 130.768 317.141 130.768H224.343C221.919 130.768 219.954 132.878 219.954 135.482V141.263H321.531L321.531 135.482Z" fill="#EFF3FC"/>
<mask id="mask9_246_42008" style="mask-type:alpha" maskUnits="userSpaceOnUse" x="219" y="130" width="103" height="12">
<path fill-rule="evenodd" clip-rule="evenodd" d="M321.531 135.482C321.531 132.878 319.566 130.768 317.141 130.768H224.343C221.919 130.768 219.954 132.878 219.954 135.482V141.263H321.531L321.531 135.482Z" fill="white"/>
</mask>
<g mask="url(#mask9_246_42008)">
<path d="M207.439 130.768C319.47 131.491 320.405 130.061 321.351 143.511C322.296 156.961 324.659 124.478 324.659 124.478L290.391 121.941L221.856 126.255" fill="#D6DCF2"/>
</g>
<path d="M219.954 141.263V198.97C219.954 201.573 221.919 203.683 224.343 203.683H317.141C319.566 203.683 321.531 201.573 321.531 198.97V141.263H219.954Z" fill="#589BF7"/>
<mask id="mask10_246_42008" style="mask-type:alpha" maskUnits="userSpaceOnUse" x="219" y="141" width="103" height="63">
<path fill-rule="evenodd" clip-rule="evenodd" d="M219.954 141.263V198.97C219.954 201.573 221.919 203.683 224.343 203.683H317.141C319.566 203.683 321.531 201.573 321.531 198.97V141.263H219.954Z" fill="white"/>
</mask>
<g mask="url(#mask10_246_42008)">
<path d="M217.125 190.093C219.597 211.546 304.047 205.796 304.047 205.796L217.949 214.643L211.152 195.111" fill="#2976DF"/>
</g>
<ellipse cx="225.472" cy="135.89" rx="1.21594" ry="1.30565" fill="#BB393C"/>
<ellipse cx="230.581" cy="135.89" rx="1.21594" ry="1.30565" fill="#FFC562"/>
<ellipse cx="235.691" cy="135.89" rx="1.21594" ry="1.30565" fill="#75AA3C"/>
<rect x="227.946" y="147.078" width="85.5933" height="49.7886" rx="2.54885" fill="#97CC64"/>
<mask id="mask11_246_42008" style="mask-type:alpha" maskUnits="userSpaceOnUse" x="227" y="147" width="87" height="50">
<rect x="227.946" y="147.078" width="85.5933" height="49.7886" rx="2.54885" fill="white"/>
</mask>
<g mask="url(#mask11_246_42008)">
<path d="M324.438 153.319C329.178 223.359 212.993 194.898 212.993 194.898C212.993 194.898 238.162 214.692 239.935 215.073C241.707 215.454 306.934 210.886 306.934 210.886L321.531 192.615V141.263L317.569 138.943" fill="#75AA3C"/>
</g>
<ellipse cx="270.742" cy="169.678" rx="13.5754" ry="14.5951" fill="#EFF3FC"/>
<path d="M266.96 169.678V164.3C266.96 163.974 267.122 163.672 267.385 163.508C267.648 163.345 267.973 163.345 268.236 163.508L272.568 166.197L276.9 168.886C277.163 169.049 277.326 169.351 277.326 169.678C277.326 170.005 277.163 170.307 276.9 170.47L272.568 173.159L268.236 175.848C267.973 176.011 267.648 176.011 267.385 175.848C267.122 175.684 266.96 175.382 266.96 175.056L266.96 169.678Z" fill="#FFC562"/>
<mask id="mask12_246_42008" style="mask-type:alpha" maskUnits="userSpaceOnUse" x="266" y="163" width="12" height="13">
<path fill-rule="evenodd" clip-rule="evenodd" d="M266.96 169.678V164.3C266.96 163.974 267.122 163.672 267.385 163.508C267.648 163.345 267.973 163.345 268.236 163.508L272.568 166.197L276.9 168.886C277.163 169.049 277.326 169.351 277.326 169.678C277.326 170.005 277.163 170.307 276.9 170.47L272.568 173.159L268.236 175.848C267.973 176.011 267.648 176.011 267.385 175.848C267.122 175.684 266.96 175.382 266.96 175.056L266.96 169.678Z" fill="white"/>
</mask>
<g mask="url(#mask12_246_42008)">
<path d="M276.24 166.28C276.515 174.39 260.174 179.919 260.174 179.919L270.742 180.582L284.318 169.678" fill="#D89D35"/>
</g>
<path d="M252.447 137.635L254.924 136.768C255.076 136.723 255.193 136.595 255.233 136.432C255.272 136.269 255.228 136.096 255.116 135.978C255.004 135.86 254.842 135.814 254.691 135.859L252.214 136.726C252.062 136.77 251.944 136.898 251.905 137.062C251.865 137.225 251.909 137.399 252.022 137.517C252.134 137.635 252.296 137.68 252.447 137.635Z" fill="#D6DCF2"/>
<path d="M301.594 166.182L299.764 169.955C299.646 170.18 299.715 170.465 299.921 170.6C300.123 170.714 300.408 170.664 300.522 170.43L302.352 166.657C302.47 166.432 302.4 166.147 302.194 166.012C301.992 165.898 301.707 165.948 301.594 166.182H301.594Z" fill="#75AA3C"/>
<path d="M244.108 183.044C244.285 183.044 244.445 182.93 244.513 182.753C244.581 182.577 244.544 182.375 244.418 182.24C244.293 182.105 244.104 182.065 243.94 182.138C243.776 182.211 243.669 182.382 243.669 182.573C243.672 182.832 243.867 183.041 244.108 183.044Z" fill="#75AA3C"/>
<rect x="181.355" y="248.463" width="118.378" height="23.318" transform="rotate(-180 181.355 248.463)" fill="#BB393C"/>
<mask id="mask13_246_42008" style="mask-type:alpha" maskUnits="userSpaceOnUse" x="62" y="225" width="120" height="24">
<rect x="181.355" y="248.463" width="118.378" height="23.318" transform="rotate(-180 181.355 248.463)" fill="white"/>
</mask>
<g mask="url(#mask13_246_42008)">
<rect x="166.525" y="251.591" width="15.0952" height="30.4272" transform="rotate(-180 166.525 251.591)" fill="#90282A"/>
<rect x="147.549" y="251.591" width="2.82483" height="30.4272" transform="rotate(-180 147.549 251.591)" fill="#90282A"/>
<path d="M61.6853 243.47C57.8011 247.072 137.779 247.072 136.014 248.589C134.248 250.106 64.8632 254.276 64.8632 254.276L58.5073 244.418" fill="#90282A"/>
<path d="M105.484 227.365C99.1635 227.111 141.493 243.052 142.685 243.336C143.877 243.621 140.839 233.195 140.839 233.195L132.364 230.635" fill="#90282A"/>
</g>
<path d="M88.7556 224.559L149.843 239.536C149.843 239.536 151.078 226.076 153.727 224.559H88.7556Z" fill="#EFF3FC"/>
<path d="M169.313 195.46H80.085C83.5597 202.974 80.085 224.559 80.085 224.559H169.313C169.313 224.559 165.838 202.974 169.313 195.46Z" fill="#EFF3FC"/>
<mask id="mask14_246_42008" style="mask-type:alpha" maskUnits="userSpaceOnUse" x="80" y="195" width="90" height="30">
<path fill-rule="evenodd" clip-rule="evenodd" d="M169.313 195.46H80.085C83.5597 202.974 80.085 224.559 80.085 224.559H169.313C169.313 224.559 165.838 202.974 169.313 195.46Z" fill="white"/>
</mask>
<g mask="url(#mask14_246_42008)">
<path d="M78.851 206.723L80.6524 206.798L111.512 208.089L77.0491 210.01" fill="#D6DCF2"/>
<path d="M183.185 215.064L181.384 214.989L150.524 213.698L184.987 211.778" fill="#D6DCF2"/>
<path d="M184.086 201.162L182.284 201.087L85.3586 199.76L185.888 197.876" fill="#D6DCF2"/>
</g>
<rect x="76.6091" y="189.995" width="96.18" height="5.46461" fill="#75AA3C"/>
<mask id="mask15_246_42008" style="mask-type:alpha" maskUnits="userSpaceOnUse" x="76" y="189" width="97" height="7">
<rect x="76.6091" y="189.995" width="96.18" height="5.46461" fill="white"/>
</mask>
<g mask="url(#mask15_246_42008)">
<path d="M70.9766 192.728L188.137 195.46L76.6091 203.53" fill="#97CC64"/>
</g>
<rect x="76.6091" y="219.707" width="96.18" height="5.46461" fill="#75AA3C"/>
<mask id="mask16_246_42008" style="mask-type:alpha" maskUnits="userSpaceOnUse" x="76" y="219" width="97" height="7">
<rect x="76.6091" y="219.707" width="96.18" height="5.46461" fill="white"/>
</mask>
<g mask="url(#mask16_246_42008)">
<path d="M72.9103 224.559C80.0851 224.559 159.068 223.114 159.597 225.172C160.127 227.23 81.5613 230.263 81.5613 230.263L65.6257 224.559" fill="#75AA3C"/>
</g>
<path d="M135.133 212.472L140.264 211.33L141.73 211.003C141.979 210.928 142.125 210.652 142.058 210.383C141.984 210.119 141.729 209.964 141.48 210.031L136.349 211.173L134.883 211.5C134.634 211.575 134.488 211.851 134.555 212.12C134.629 212.384 134.884 212.539 135.133 212.472Z" fill="#D6DCF2"/>
<path d="M88.3007 238.874H94.467C94.7254 238.873 94.9342 238.648 94.9342 238.37C94.9342 238.093 94.7254 237.867 94.467 237.866H88.3007C88.0423 237.867 87.8335 238.093 87.8335 238.37C87.8335 238.648 88.0423 238.873 88.3007 238.874Z" fill="#90282A"/>
<path d="M152.372 248.677L146.535 242.41L166.62 216.866L176.161 227.11L152.372 248.677Z" fill="#9A7ED9"/>
<mask id="mask17_246_42008" style="mask-type:alpha" maskUnits="userSpaceOnUse" x="146" y="216" width="31" height="33">
<path fill-rule="evenodd" clip-rule="evenodd" d="M152.372 248.677L146.535 242.41L166.62 216.866L176.161 227.11L152.372 248.677Z" fill="white"/>
</mask>
<g mask="url(#mask17_246_42008)">
<path d="M155.69 226.16C166.82 224.614 159.88 235.581 168.915 241.908C177.951 248.235 177.034 228.973 177.034 228.973L155.821 221.099" fill="#6F4EB9"/>
</g>
<ellipse cx="151.062" cy="243.817" rx="7.95489" ry="8.54178" fill="#9A7ED9"/>
<mask id="mask18_246_42008" style="mask-type:alpha" maskUnits="userSpaceOnUse" x="143" y="235" width="17" height="18">
<ellipse cx="151.062" cy="243.817" rx="7.95489" ry="8.54178" fill="white"/>
</mask>
<g mask="url(#mask18_246_42008)">
<path d="M147.309 234.175C147.453 255.22 162.892 252.359 162.892 252.359L138.536 254L137.357 240.502" fill="#6F4EB9"/>
</g>
<path d="M240.315 248.677L246.151 242.41L226.066 216.866L216.525 227.11L240.315 248.677Z" fill="#9A7ED9"/>
<mask id="mask19_246_42008" style="mask-type:alpha" maskUnits="userSpaceOnUse" x="216" y="216" width="31" height="33">
<path fill-rule="evenodd" clip-rule="evenodd" d="M240.315 248.677L246.151 242.41L226.066 216.866L216.525 227.11L240.315 248.677Z" fill="white"/>
</mask>
<g mask="url(#mask19_246_42008)">
<path d="M236.996 226.16C225.866 224.614 232.806 235.581 223.771 241.908C214.736 248.235 215.652 228.973 215.652 228.973L236.865 221.099" fill="#6F4EB9"/>
</g>
<ellipse cx="241.625" cy="243.817" rx="7.95489" ry="8.54178" fill="#9A7ED9"/>
<mask id="mask20_246_42008" style="mask-type:alpha" maskUnits="userSpaceOnUse" x="233" y="235" width="17" height="18">
<ellipse cx="241.625" cy="243.817" rx="7.95489" ry="8.54178" fill="white"/>
</mask>
<g mask="url(#mask20_246_42008)">
<path d="M245.377 234.175C245.233 255.22 229.794 252.359 229.794 252.359L254.15 254L255.329 240.502" fill="#6F4EB9"/>
</g>
<rect x="192.468" y="94.7156" width="7.13237" height="14.2011" fill="#EFF3FC"/>
<mask id="mask21_246_42008" style="mask-type:alpha" maskUnits="userSpaceOnUse" x="192" y="94" width="8" height="15">
<rect x="192.468" y="94.7156" width="7.13237" height="14.2011" fill="white"/>
</mask>
<g mask="url(#mask21_246_42008)">
<path d="M190.808 105.732C190.219 97.7422 201.586 98.9827 199.524 96.7681C197.461 94.5536 189.16 93.6434 189.16 93.6434V94.7155" fill="#D6DCF2"/>
</g>
<path d="M202.909 93.6436C202.909 96.9924 199.831 97.4867 196.035 97.4867C192.238 97.4867 189.16 96.9924 189.16 93.6436C189.16 90.2947 192.238 87.58 196.035 87.58C199.831 87.58 202.909 90.2947 202.909 93.6436Z" fill="#EFF3FC"/>
<path d="M230.124 125.583C228.943 124.544 228.769 122.674 229.737 121.405L252.65 91.3628C253.618 90.0943 255.359 89.9082 256.541 90.947C257.722 91.9858 257.895 93.8561 256.928 95.1245L234.014 125.167C233.047 126.436 231.305 126.622 230.124 125.583L230.124 125.583Z" fill="#EFF3FC"/>
<path d="M223.013 88.8848C217.131 96.5967 226.02 105.547 237.623 115.751C249.226 125.955 259.15 133.548 265.032 125.836C270.914 118.124 266.276 103.6 254.672 93.3966C243.069 83.1929 228.895 81.1728 223.013 88.8848Z" fill="#6F4EB9"/>
<mask id="mask22_246_42008" style="mask-type:alpha" maskUnits="userSpaceOnUse" x="221" y="84" width="47" height="45">
<path fill-rule="evenodd" clip-rule="evenodd" d="M223.013 88.8848C217.131 96.5967 226.02 105.547 237.623 115.751C249.226 125.955 259.15 133.548 265.032 125.836C270.914 118.124 266.276 103.6 254.672 93.3966C243.069 83.1929 228.895 81.1728 223.013 88.8848Z" fill="white"/>
</mask>
<g mask="url(#mask22_246_42008)">
<path d="M246.388 80.6866C227.161 87.6529 248.141 125.334 267.582 133.25C287.024 141.166 288.793 118.649 288.793 118.649L262.253 81.3199" fill="#9A7ED9"/>
</g>
<path d="M250.205 89.4682C248.185 92.1174 250.349 94.1689 252.816 96.3385C255.283 98.5082 257.119 99.9744 259.14 97.3252C260.447 95.6114 260.803 93.2791 260.075 91.2067C259.346 89.1344 257.643 87.6368 255.607 87.2782C253.572 86.9196 251.512 87.7544 250.205 89.4682V89.4682Z" fill="#EFF3FC"/>
<mask id="mask23_246_42008" style="mask-type:alpha" maskUnits="userSpaceOnUse" x="249" y="87" width="12" height="12">
<path fill-rule="evenodd" clip-rule="evenodd" d="M250.205 89.4682C248.185 92.1174 250.349 94.1689 252.816 96.3385C255.283 98.5082 257.119 99.9744 259.14 97.3252C260.447 95.6114 260.803 93.2791 260.075 91.2067C259.346 89.1344 257.643 87.6368 255.607 87.2782C253.572 86.9196 251.512 87.7544 250.205 89.4682V89.4682Z" fill="white"/>
</mask>
<g mask="url(#mask23_246_42008)">
<ellipse cx="256.208" cy="86.0405" rx="6.04528" ry="4.72046" fill="#D6DCF2"/>
</g>
<path d="M135.528 90.9471C136.709 89.9083 138.451 90.0945 139.418 91.3629L162.332 121.405C163.299 122.674 163.126 124.544 161.945 125.583C160.763 126.622 159.022 126.436 158.054 125.167L135.141 95.1247C134.173 93.8563 134.347 91.9859 135.528 90.9471Z" fill="#EFF3FC"/>
<path d="M169.056 88.8848C174.938 96.5967 166.049 105.547 154.446 115.751C142.843 125.955 132.919 133.548 127.037 125.836C121.155 118.124 125.793 103.6 137.396 93.3966C149 83.1929 163.174 81.1728 169.056 88.8848Z" fill="#6F4EB9"/>
<mask id="mask24_246_42008" style="mask-type:alpha" maskUnits="userSpaceOnUse" x="124" y="84" width="47" height="45">
<path fill-rule="evenodd" clip-rule="evenodd" d="M169.056 88.8848C174.938 96.5967 166.049 105.547 154.446 115.751C142.843 125.955 132.919 133.548 127.037 125.836C121.155 118.124 125.793 103.6 137.396 93.3966C149 83.1929 163.174 81.1728 169.056 88.8848Z" fill="white"/>
</mask>
<g mask="url(#mask24_246_42008)">
<path d="M145.681 80.6866C164.908 87.6529 143.928 125.334 124.487 133.25C105.045 141.166 103.276 118.649 103.276 118.649L129.816 81.3199" fill="#9A7ED9"/>
</g>
<path d="M141.864 89.4683C143.884 92.1175 141.72 94.1689 139.253 96.3386C136.785 98.5082 134.95 99.9745 132.929 97.3252C130.908 94.676 131.27 90.7695 133.738 88.5999C136.205 86.4302 139.843 86.819 141.864 89.4682V89.4683Z" fill="#EFF3FC"/>
<mask id="mask25_246_42008" style="mask-type:alpha" maskUnits="userSpaceOnUse" x="131" y="87" width="12" height="12">
<path fill-rule="evenodd" clip-rule="evenodd" d="M141.864 89.4683C143.884 92.1175 141.72 94.1689 139.253 96.3386C136.785 98.5082 134.95 99.9745 132.929 97.3252C130.908 94.676 131.27 90.7695 133.738 88.5999C136.205 86.4302 139.843 86.819 141.864 89.4682V89.4683Z" fill="white"/>
</mask>
<g mask="url(#mask25_246_42008)">
<ellipse cx="135.861" cy="86.0405" rx="6.04528" ry="4.72046" fill="#D6DCF2"/>
</g>
<ellipse cx="196.572" cy="171.27" rx="62.9246" ry="67.5671" fill="#9A7ED9"/>
<mask id="mask26_246_42008" style="mask-type:alpha" maskUnits="userSpaceOnUse" x="133" y="103" width="127" height="136">
<ellipse cx="196.572" cy="171.27" rx="62.9246" ry="67.5671" fill="white"/>
</mask>
<g mask="url(#mask26_246_42008)">
<path d="M249.347 134.466C288.795 250.837 108.485 252.359 108.485 252.359L220.442 267.859L288.206 243.817L297.634 174.971" fill="#6F4EB9"/>
<path d="M120.466 205.913C103.967 149.39 172.376 105.278 196.572 103.703C220.769 102.129 151.317 100.19 151.317 100.19L134.938 106.597L114.181 115.223" fill="#6F4EB9"/>
<path d="M218.336 106.597C233.44 116.515 245.711 127.632 249.346 134.466C252.982 141.3 258.35 128.772 258.35 128.772L230.31 105.521" fill="#9A7ED9"/>
</g>
<ellipse cx="196.572" cy="171.27" rx="50.2619" ry="53.9701" fill="#9A7ED9"/>
<ellipse cx="196.572" cy="171.27" rx="45.2554" ry="48.5942" fill="#EFF3FC"/>
<mask id="mask27_246_42008" style="mask-type:alpha" maskUnits="userSpaceOnUse" x="151" y="122" width="91" height="98">
<ellipse cx="196.572" cy="171.27" rx="45.2554" ry="48.5942" fill="white"/>
</mask>
<g mask="url(#mask27_246_42008)">
<path d="M236.571 138.59L148.635 235.688L202.909 255.266L255.994 219.865L253.238 152.343C253.238 152.343 238.155 130.792 238.039 131.655" fill="#D6DCF2"/>
</g>
<rect x="195.347" y="125.89" width="1.37492" height="5.76482" rx="0.687459" fill="#EFF3FC"/>
<rect x="195.347" y="210.886" width="1.37492" height="5.76482" rx="0.687459" fill="#EFF3FC"/>
<rect x="238.296" y="170.532" width="1.47636" height="5.36873" rx="0.738179" transform="rotate(90 238.296 170.532)" fill="#EFF3FC"/>
<rect x="159.141" y="170.532" width="1.47636" height="5.36873" rx="0.738179" transform="rotate(90 159.141 170.532)" fill="#EFF3FC"/>
<rect x="195.347" y="125.89" width="1.37492" height="5.76482" rx="0.687459" fill="#EFF3FC"/>
<rect x="195.347" y="210.886" width="1.37492" height="5.76482" rx="0.687459" fill="#EFF3FC"/>
<rect x="238.296" y="170.532" width="1.47636" height="5.36873" rx="0.738179" transform="rotate(90 238.296 170.532)" fill="#EFF3FC"/>
<rect x="159.141" y="170.532" width="1.47636" height="5.36873" rx="0.738179" transform="rotate(90 159.141 170.532)" fill="#EFF3FC"/>
<rect width="1.40097" height="5.66839" rx="0.700484" transform="matrix(0.849922 -0.526908 0.473568 0.880757 174.308 132.339)" fill="#EFF3FC"/>
<rect width="1.40097" height="5.66839" rx="0.700484" transform="matrix(0.849921 -0.52691 0.47357 0.880756 213.886 205.947)" fill="#EFF3FC"/>
<rect width="1.45166" height="5.47044" rx="0.725831" transform="matrix(0.473568 0.880757 -0.849922 0.526908 232.291 147.941)" fill="#EFF3FC"/>
<rect width="1.45166" height="5.47044" rx="0.725831" transform="matrix(0.473571 0.880755 -0.84992 0.526911 163.74 190.439)" fill="#EFF3FC"/>
<rect width="1.45166" height="5.47044" rx="0.725831" transform="matrix(0.473573 -0.880755 0.849919 0.526913 159.091 149.22)" fill="#EFF3FC"/>
<path d="M227.985 191.078C228.175 190.725 228.595 190.604 228.924 190.808L232.383 192.952C232.712 193.156 232.824 193.608 232.635 193.961C232.445 194.314 232.024 194.435 231.695 194.231L228.237 192.087C227.908 191.883 227.795 191.431 227.985 191.078L227.985 191.078Z" fill="#EFF3FC"/>
<path d="M217.166 131.97C217.324 132.068 217.439 132.229 217.486 132.418C217.533 132.607 217.508 132.809 217.417 132.978L215.42 136.692C215.231 137.045 214.81 137.166 214.481 136.962C214.152 136.758 214.04 136.307 214.23 135.954L216.227 132.24C216.318 132.07 216.468 131.947 216.644 131.896C216.82 131.845 217.008 131.872 217.166 131.97V131.97Z" fill="#EFF3FC"/>
<rect width="1.40097" height="5.66839" rx="0.700483" transform="matrix(0.849926 0.526902 -0.473563 0.88076 176.992 205.209)" fill="#EFF3FC"/>
<ellipse cx="196.034" cy="172.752" rx="2.06695" ry="2.21945" fill="#9A7ED9"/>
<path d="M196.588 181.838H195.223L195.741 135.841H196.07L196.588 181.838Z" fill="#935738"/>
<path d="M214.771 143.294L198.556 165.789C198.546 165.8 198.537 165.813 198.53 165.827L193.131 177.089C193.076 177.176 193.094 177.293 193.172 177.357L193.692 177.727L194.212 178.098C194.297 178.15 194.405 178.123 194.458 178.035L202.026 168.318C202.035 168.306 202.042 168.292 202.049 168.278L215.055 143.496C215.103 143.412 215.081 143.302 215.004 143.248C214.928 143.193 214.825 143.213 214.771 143.294Z" fill="#FFC562"/>
<mask id="mask28_246_42008" style="mask-type:alpha" maskUnits="userSpaceOnUse" x="193" y="143" width="23" height="36">
<path fill-rule="evenodd" clip-rule="evenodd" d="M214.771 143.294L198.556 165.789C198.546 165.8 198.537 165.813 198.53 165.827L193.131 177.089C193.076 177.176 193.094 177.293 193.172 177.357L193.692 177.727L194.212 178.098C194.297 178.15 194.405 178.123 194.458 178.035L202.026 168.318C202.035 168.306 202.042 168.292 202.049 168.278L215.055 143.496C215.103 143.412 215.081 143.302 215.004 143.248C214.928 143.193 214.825 143.213 214.771 143.294Z" fill="white"/>
</mask>
<g mask="url(#mask28_246_42008)">
<path d="M196.034 166.773C198.984 165.999 203.059 171.27 203.059 171.27H197.449" fill="#FFC562"/>
</g>
<path d="M183.153 165.085C182.83 164.021 182.011 163.218 180.996 162.968C179.98 162.719 178.917 163.06 178.196 163.867L172.103 162.371C171.882 162.33 171.742 162.717 171.93 162.848L177.371 166.152C177.397 167.27 177.968 168.292 178.875 168.842C179.782 169.393 180.891 169.392 181.797 168.84L188.16 172.705C188.172 172.713 188.186 172.72 188.2 172.725L199.789 175.453C199.904 175.477 200.016 175.404 200.049 175.284L200.365 174.409L200.68 173.535C200.731 173.422 200.694 173.287 200.595 173.222L190.321 166.849C190.308 166.843 190.293 166.838 190.279 166.835L183.153 165.085Z" fill="#FFC562"/>
<mask id="mask29_246_42008" style="mask-type:alpha" maskUnits="userSpaceOnUse" x="171" y="162" width="30" height="14">
<path fill-rule="evenodd" clip-rule="evenodd" d="M183.153 165.085C182.83 164.021 182.011 163.218 180.995 162.968C179.98 162.719 178.917 163.06 178.196 163.867L172.102 162.371C171.882 162.33 171.742 162.717 171.93 162.848L177.371 166.152C177.397 167.27 177.968 168.292 178.875 168.842C179.782 169.393 180.891 169.392 181.797 168.84L188.16 172.705C188.172 172.713 188.186 172.72 188.2 172.725L199.789 175.453C199.903 175.477 200.016 175.404 200.049 175.284L200.365 174.409L200.68 173.535C200.731 173.422 200.694 173.287 200.595 173.222L190.321 166.849C190.307 166.843 190.293 166.838 190.279 166.835L183.153 165.085Z" fill="white"/>
</mask>
<g mask="url(#mask29_246_42008)">
<path d="M184.792 174.971C188.819 175.226 190.31 167.482 192.756 167.927C195.203 168.371 193.13 177.089 193.13 177.089L185.873 176.913" fill="#D89D35"/>
</g>
<ellipse cx="196.034" cy="172.752" rx="5.56775" ry="5.97852" fill="#FFC562"/>
<ellipse cx="196.035" cy="172.752" rx="2.93568" ry="3.15227" fill="#935738"/>
<path d="M232.225 94.3702C231.268 96.0215 231.591 98.3932 232.948 99.6814L232.225 94.3702Z" fill="#6F4EB9"/>
<path d="M213.065 194.391C211.433 197.559 208.303 199.78 204.949 200.15L213.065 194.391Z" fill="#D6DCF2"/>
<path d="M149.109 207.038C148.759 209.319 149.788 211.776 151.611 213.006L149.109 207.038Z" fill="#6F4EB9"/>
<path d="M185.365 251.191L186.367 247.872V230.599H176.06L177.155 252.212L185.365 251.191Z" fill="#FF9763"/>
<mask id="mask30_246_42008" style="mask-type:alpha" maskUnits="userSpaceOnUse" x="176" y="230" width="11" height="23">
<path fill-rule="evenodd" clip-rule="evenodd" d="M185.365 251.191L186.367 247.872V230.599H176.06L177.155 252.212L185.365 251.191Z" fill="white"/>
</mask>
<g mask="url(#mask30_246_42008)">
<path d="M174.792 245.981C176.871 246.597 186.367 244.039 186.367 244.039L175.412 240.462" fill="#E84B23"/>
</g>
<path d="M157.77 261.827C157.77 261.827 157.315 253.488 167.167 254.51C177.018 255.531 176.105 247.192 176.105 247.192L186.367 247.873V258.983C186.367 260.554 185.343 261.827 184.08 261.827H157.77Z" fill="#BB393C"/>
<path d="M211.393 251.191L209.789 247.873L206.659 230.6H216.965L219.788 252.212L211.393 251.191Z" fill="#FF9763"/>
<mask id="mask31_246_42008" style="mask-type:alpha" maskUnits="userSpaceOnUse" x="206" y="230" width="14" height="23">
<path fill-rule="evenodd" clip-rule="evenodd" d="M211.393 251.191L209.789 247.873L206.659 230.6H216.965L219.788 252.212L211.393 251.191Z" fill="white"/>
</mask>
<g mask="url(#mask31_246_42008)">
<path d="M207.196 246.342C214.179 244.509 218.584 239.37 218.584 239.37L208.282 239.094" fill="#E84B23"/>
</g>
<path d="M240.915 261.827C240.915 261.827 239.859 253.488 230.192 254.509C220.526 255.531 219.928 247.192 219.928 247.192L209.789 247.873L211.803 258.983C212.087 260.554 213.342 261.827 214.605 261.827L240.915 261.827Z" fill="#BB393C"/>
<path d="M204.241 239.647C204.241 239.647 214.092 241.121 219.429 235.761L214.794 185.159L202.453 112.161L179.722 119.69L184.671 141.467L196.626 185.247L204.241 239.647Z" fill="#516DDB"/>
<mask id="mask32_246_42008" style="mask-type:alpha" maskUnits="userSpaceOnUse" x="179" y="112" width="41" height="128">
<path fill-rule="evenodd" clip-rule="evenodd" d="M204.241 239.647C204.241 239.647 214.092 241.121 219.429 235.761L214.794 185.159L202.453 112.161L179.722 119.69L184.671 141.467L196.626 185.247L204.241 239.647Z" fill="white"/>
</mask>
<g mask="url(#mask32_246_42008)">
<path d="M188.509 143.086C193.154 137.02 192.489 145.03 196.416 169.495C200.343 193.96 180.542 175.909 180.542 175.909" fill="#3152BA"/>
<path d="M198.377 123.762L199.598 140.905C199.75 143.037 201.302 144.619 203.07 144.445L214.411 143.326" stroke="#3152BA" stroke-width="1.21489" stroke-linecap="round" stroke-linejoin="round"/>
<g opacity="0.16">
<path fill-rule="evenodd" clip-rule="evenodd" d="M205.534 238.851L200.924 242.519L132.086 162.112L136.695 158.444L205.534 238.851V238.851Z" stroke="#3152BA" stroke-width="1.41124" stroke-linecap="round" stroke-linejoin="round"/>
<path fill-rule="evenodd" clip-rule="evenodd" d="M214.324 231.855L209.714 235.524L140.876 155.116L145.485 151.448L214.324 231.855V231.855Z" stroke="#3152BA" stroke-width="1.41124" stroke-linecap="round" stroke-linejoin="round"/>
<path fill-rule="evenodd" clip-rule="evenodd" d="M223.114 224.86L218.505 228.528L149.666 148.121L154.275 144.453L223.114 224.86V224.86Z" stroke="#3152BA" stroke-width="1.41124" stroke-linecap="round" stroke-linejoin="round"/>
<path fill-rule="evenodd" clip-rule="evenodd" d="M231.904 217.864L227.295 221.533L158.456 141.125L163.065 137.457L231.904 217.864V217.864Z" stroke="#3152BA" stroke-width="1.41124" stroke-linecap="round" stroke-linejoin="round"/>
<path fill-rule="evenodd" clip-rule="evenodd" d="M240.694 210.869L236.085 214.537L167.246 134.13L171.855 130.461L240.694 210.869V210.869Z" stroke="#3152BA" stroke-width="1.41124" stroke-linecap="round" stroke-linejoin="round"/>
<path fill-rule="evenodd" clip-rule="evenodd" d="M249.484 203.873L244.875 207.541L176.036 127.134L180.646 123.466L249.484 203.873V203.873Z" stroke="#3152BA" stroke-width="1.41124" stroke-linecap="round" stroke-linejoin="round"/>
<path fill-rule="evenodd" clip-rule="evenodd" d="M258.274 196.878L253.665 200.546L184.826 120.138L189.436 116.47L258.274 196.878V196.878Z" stroke="#3152BA" stroke-width="1.41124" stroke-linecap="round" stroke-linejoin="round"/>
<path fill-rule="evenodd" clip-rule="evenodd" d="M267.065 189.882L262.456 193.55L193.617 113.143L198.226 109.475L267.065 189.882V189.882Z" stroke="#3152BA" stroke-width="1.41124" stroke-linecap="round" stroke-linejoin="round"/>
</g>
<g opacity="0.46">
<path fill-rule="evenodd" clip-rule="evenodd" d="M127.484 176.539L122.798 171.065L209.105 102.379L213.791 107.853L127.484 176.539V176.539Z" stroke="#3152BA" stroke-width="3.00998" stroke-linecap="round" stroke-linejoin="round"/>
<path fill-rule="evenodd" clip-rule="evenodd" d="M136.421 186.979L131.735 181.505L218.042 112.818L222.728 118.292L136.421 186.979V186.979Z" stroke="#3152BA" stroke-width="3.00998" stroke-linecap="round" stroke-linejoin="round"/>
<path fill-rule="evenodd" clip-rule="evenodd" d="M145.359 197.418L140.673 191.944L226.98 123.258L231.666 128.732L145.359 197.418V197.418Z" stroke="#3152BA" stroke-width="3.00998" stroke-linecap="round" stroke-linejoin="round"/>
<path fill-rule="evenodd" clip-rule="evenodd" d="M154.296 207.857L149.61 202.383L235.917 133.697L240.603 139.171L154.296 207.857V207.857Z" stroke="#3152BA" stroke-width="3.00998" stroke-linecap="round" stroke-linejoin="round"/>
<path fill-rule="evenodd" clip-rule="evenodd" d="M163.233 218.297L158.547 212.823L244.854 144.136L249.54 149.61L163.233 218.297V218.297Z" stroke="#3152BA" stroke-width="3.00998" stroke-linecap="round" stroke-linejoin="round"/>
<path fill-rule="evenodd" clip-rule="evenodd" d="M172.171 228.736L167.485 223.262L253.792 154.576L258.478 160.05L172.171 228.736V228.736Z" stroke="#3152BA" stroke-width="3.00998" stroke-linecap="round" stroke-linejoin="round"/>
<path fill-rule="evenodd" clip-rule="evenodd" d="M181.108 239.175L176.422 233.701L262.729 165.015L267.415 170.489L181.108 239.175V239.175Z" stroke="#3152BA" stroke-width="3.00998" stroke-linecap="round" stroke-linejoin="round"/>
<path fill-rule="evenodd" clip-rule="evenodd" d="M190.046 249.614L185.359 244.141L271.666 175.454L276.353 180.928L190.046 249.614V249.614Z" stroke="#3152BA" stroke-width="3.00998" stroke-linecap="round" stroke-linejoin="round"/>
</g>
</g>
<path d="M189.333 120.92H169.972V183.106L174.041 240.313C174.041 240.313 176.046 244.309 191.053 240.82L189.88 183.545L189.487 138.577" fill="#516DDB"/>
<mask id="mask33_246_42008" style="mask-type:alpha" maskUnits="userSpaceOnUse" x="169" y="120" width="23" height="123">
<path fill-rule="evenodd" clip-rule="evenodd" d="M189.333 120.92H169.972V183.106L174.041 240.313C174.041 240.313 176.046 244.309 191.053 240.82L189.88 183.545L189.487 138.577" fill="white"/>
</mask>
<g mask="url(#mask33_246_42008)">
<path d="M187.506 132.184C188.265 134.66 160.872 140.272 158.891 151.239C158.064 155.819 167.954 126.174 167.954 126.174L178.348 124.146" fill="#3152BA"/>
<path d="M167.549 145.456H175.532C177.846 145.456 179.722 143.442 179.722 140.957V126.795" stroke="#3152BA" stroke-width="1.14629" stroke-linecap="round" stroke-linejoin="round"/>
<g opacity="0.16">
<path fill-rule="evenodd" clip-rule="evenodd" d="M186.47 244.439L181.861 248.107L113.022 167.7L117.632 164.032L186.47 244.439V244.439Z" stroke="#3152BA" stroke-width="1.41124" stroke-linecap="round" stroke-linejoin="round"/>
<path fill-rule="evenodd" clip-rule="evenodd" d="M195.26 237.443L190.651 241.112L121.812 160.704L126.422 157.036L195.26 237.443V237.443Z" stroke="#3152BA" stroke-width="1.41124" stroke-linecap="round" stroke-linejoin="round"/>
<path fill-rule="evenodd" clip-rule="evenodd" d="M204.051 230.448L199.442 234.116L130.603 153.708L135.212 150.04L204.051 230.448V230.448Z" stroke="#3152BA" stroke-width="1.41124" stroke-linecap="round" stroke-linejoin="round"/>
<path fill-rule="evenodd" clip-rule="evenodd" d="M212.841 223.452L208.232 227.121L139.393 146.713L144.002 143.045L212.841 223.452V223.452Z" stroke="#3152BA" stroke-width="1.41124" stroke-linecap="round" stroke-linejoin="round"/>
<path fill-rule="evenodd" clip-rule="evenodd" d="M221.631 216.457L217.022 220.125L148.183 139.717L152.792 136.049L221.631 216.457V216.457Z" stroke="#3152BA" stroke-width="1.41124" stroke-linecap="round" stroke-linejoin="round"/>
<path fill-rule="evenodd" clip-rule="evenodd" d="M230.421 209.461L225.812 213.129L156.973 132.722L161.582 129.054L230.421 209.461V209.461Z" stroke="#3152BA" stroke-width="1.41124" stroke-linecap="round" stroke-linejoin="round"/>
<path fill-rule="evenodd" clip-rule="evenodd" d="M239.211 202.466L234.602 206.134L165.763 125.726L170.372 122.058L239.211 202.466V202.466Z" stroke="#3152BA" stroke-width="1.41124" stroke-linecap="round" stroke-linejoin="round"/>
<path fill-rule="evenodd" clip-rule="evenodd" d="M248.002 195.47L243.393 199.138L174.554 118.731L179.163 115.063L248.002 195.47V195.47Z" stroke="#3152BA" stroke-width="1.41124" stroke-linecap="round" stroke-linejoin="round"/>
</g>
<g opacity="0.46">
<path fill-rule="evenodd" clip-rule="evenodd" d="M108.421 182.127L103.734 176.653L190.041 107.967L194.728 113.441L108.421 182.127V182.127Z" stroke="#3152BA" stroke-width="3.00998" stroke-linecap="round" stroke-linejoin="round"/>
<path fill-rule="evenodd" clip-rule="evenodd" d="M117.358 192.566L112.672 187.093L198.979 118.406L203.665 123.88L117.358 192.566V192.566Z" stroke="#3152BA" stroke-width="3.00998" stroke-linecap="round" stroke-linejoin="round"/>
<path fill-rule="evenodd" clip-rule="evenodd" d="M126.295 203.006L121.609 197.532L207.916 128.846L212.602 134.319L126.295 203.006V203.006Z" stroke="#3152BA" stroke-width="3.00998" stroke-linecap="round" stroke-linejoin="round"/>
<path fill-rule="evenodd" clip-rule="evenodd" d="M135.233 213.445L130.546 207.971L216.853 139.285L221.54 144.759L135.233 213.445V213.445Z" stroke="#3152BA" stroke-width="3.00998" stroke-linecap="round" stroke-linejoin="round"/>
<path fill-rule="evenodd" clip-rule="evenodd" d="M144.17 223.884L139.484 218.411L225.791 149.724L230.477 155.198L144.17 223.884V223.884Z" stroke="#3152BA" stroke-width="3.00998" stroke-linecap="round" stroke-linejoin="round"/>
<path fill-rule="evenodd" clip-rule="evenodd" d="M153.108 234.324L148.421 228.85L234.728 160.164L239.415 165.637L153.108 234.324V234.324Z" stroke="#3152BA" stroke-width="3.00998" stroke-linecap="round" stroke-linejoin="round"/>
<path fill-rule="evenodd" clip-rule="evenodd" d="M162.045 244.763L157.359 239.289L243.666 170.603L248.352 176.077L162.045 244.763V244.763Z" stroke="#3152BA" stroke-width="3.00998" stroke-linecap="round" stroke-linejoin="round"/>
<path fill-rule="evenodd" clip-rule="evenodd" d="M170.982 255.202L166.296 249.729L252.603 181.042L257.289 186.516L170.982 255.202V255.202Z" stroke="#3152BA" stroke-width="3.00998" stroke-linecap="round" stroke-linejoin="round"/>
</g>
</g>
<path d="M166.701 84.3763L169.058 73.7148C169.058 73.7148 182.684 66.9291 198.472 69.9833C198.472 69.9833 206.477 125.865 206.477 128.609C206.477 128.609 186.557 136.551 164.776 127.355C163.1 124.383 171.209 116.627 166.701 84.3763Z" fill="#FFC562"/>
<mask id="mask34_246_42008" style="mask-type:alpha" maskUnits="userSpaceOnUse" x="164" y="69" width="43" height="63">
<path fill-rule="evenodd" clip-rule="evenodd" d="M166.701 84.3763L169.058 73.7148C169.058 73.7148 182.684 66.9291 198.472 69.9833C198.472 69.9833 206.477 125.865 206.477 128.609C206.477 128.609 186.557 136.551 164.776 127.355C163.1 124.383 171.209 116.627 166.701 84.3763Z" fill="white"/>
</mask>
<g mask="url(#mask34_246_42008)">
<path d="M185.88 91.8328C195.925 95.793 178.399 102.477 186.765 110.956L189.127 110.725C179.039 104.086 199.014 95.4917 186.546 91.2067L185.88 91.8328Z" fill="#97CC64"/>
<path d="M186.212 89.5371C181.69 76.4257 194.713 75.6661 187.987 89.0855L186.212 89.5371Z" fill="#F08059"/>
<path d="M187.122 90.8187C191.645 103.93 178.622 104.69 185.347 91.2703L187.122 90.8187Z" fill="#F08059"/>
<path d="M187.417 89.5456C201.621 81.6625 199.29 95.2191 187.448 91.3107L187.417 89.5456Z" fill="#F08059"/>
<path d="M185.917 90.8102C171.713 98.6933 174.044 85.1367 185.886 89.0451L185.917 90.8102Z" fill="#F08059"/>
<path d="M186.875 89.2778C193.722 74.4324 201.282 83.4812 188.152 90.2065L186.875 89.2778Z" fill="#F08059"/>
<path d="M186.459 91.0781C179.613 105.923 172.052 96.8746 185.182 90.1493L186.459 91.0781Z" fill="#F08059"/>
<path d="M187.519 90.1838C200.761 93.8808 189.904 104.004 186.286 91.7512L187.519 90.1838Z" fill="#F08059"/>
<path d="M185.815 90.1718C172.573 86.4748 183.43 76.3517 187.048 88.6044L185.815 90.1718Z" fill="#F08059"/>
<ellipse rx="4.65957" ry="3.71714" transform="matrix(0.749271 -0.662263 0.608393 0.793636 186.755 90.1691)" fill="#F0F3FC"/>
<path d="M188.121 103.998C193.699 107.08 196.63 99.8864 196.63 99.8864C196.63 99.8864 188.631 98.2389 188.121 103.998Z" fill="#97CC64"/>
<ellipse cx="182.985" cy="72.0566" rx="9.77845" ry="10.3908" fill="#BB393C"/>
<ellipse cx="182.985" cy="70.2015" rx="8.89518" ry="10.3908" fill="#FF9763"/>
<path d="M168.908 92.4056C176.521 83.2037 170.681 111.477 174.22 110.904L174.165 120.163C176.107 123.873 164.655 124.132 164.776 127.355C164.897 130.579 160.639 124.13 160.639 124.13L159.641 107.56" fill="#D89D35"/>
<path d="M200.176 81.3756C195.749 79.8902 204.417 99.6739 193.756 101.887C183.095 104.101 199.761 120.164 199.761 120.164L193.715 132.531L206.478 103.804L205.709 94.595" fill="#D89D35"/>
</g>
<path d="M174.058 107.928L178.007 133C178.097 133.565 178.404 134.062 178.852 134.373C179.3 134.683 179.848 134.777 180.364 134.632L207.191 127.147C208.126 126.888 208.731 125.915 208.595 124.888L205.472 101.58C205.396 101.027 205.114 100.532 204.69 100.209C204.266 99.8857 203.737 99.7632 203.227 99.8696L175.574 105.591C174.561 105.798 173.888 106.836 174.058 107.928Z" fill="#F0F3FC"/>
<mask id="mask35_246_42008" style="mask-type:alpha" maskUnits="userSpaceOnUse" x="174" y="99" width="35" height="36">
<path fill-rule="evenodd" clip-rule="evenodd" d="M174.058 107.928L178.007 133C178.097 133.565 178.404 134.062 178.852 134.373C179.3 134.683 179.848 134.777 180.364 134.632L207.191 127.147C208.126 126.888 208.731 125.915 208.595 124.888L205.472 101.58C205.396 101.027 205.114 100.532 204.69 100.209C204.266 99.8857 203.737 99.7632 203.227 99.8696L175.574 105.591C174.561 105.798 173.888 106.836 174.058 107.928Z" fill="white"/>
</mask>
<g mask="url(#mask35_246_42008)">
<path d="M174.792 105.039L180.398 138.767L176.203 137.931L171.926 105.503" fill="#F0F3FC"/>
<ellipse cx="193.811" cy="116.467" rx="3.90809" ry="4.18121" fill="#D6DCF2"/>
<path d="M206.478 113.673C206.807 119.497 191.141 122.973 189.875 125.675C188.61 128.376 182.664 134.213 180.364 134.632C178.064 135.051 210.188 132.498 210.188 132.498L209.633 121.042" fill="#D6DCF2"/>
</g>
<path d="M184.813 69.8926C193.108 70.8062 197.149 67.8372 197.149 67.8372C190.13 62.8129 197.574 58.9304 193.108 54.3628C188.641 49.7952 192.402 42.8043 184.813 41.6877L183.856 44.8851C186.515 53.5635 182.155 62.9841 182.155 62.9841L184.813 69.8926Z" fill="#4B4D5C"/>
<path d="M175.602 72.5005L177.369 58.5879L186.435 60.2436C186.569 63.2535 186.934 67.8935 187.498 71.5343" fill="#FF9763"/>
<mask id="mask36_246_42008" style="mask-type:alpha" maskUnits="userSpaceOnUse" x="175" y="58" width="13" height="15">
<path fill-rule="evenodd" clip-rule="evenodd" d="M175.602 72.5005L177.369 58.5879L186.435 60.2436C186.569 63.2535 186.934 67.8935 187.498 71.5343" fill="white"/>
</mask>
<g mask="url(#mask36_246_42008)">
<path d="M175.716 63.5059C181.304 70.9205 186.158 67.8478 187.498 71.5344C188.838 75.2209 187.498 60.2437 187.498 60.2437L183.422 59.6555L176.479 62.277" fill="#E84B23"/>
</g>
<path d="M188.163 53.792C192.045 51.2227 192.789 56.9608 187.498 60.2437L188.163 53.792Z" fill="#FF9763"/>
<path d="M183.856 44.885C183.856 44.885 176.412 44.9993 179.389 52.5358C181.526 57.9437 178.407 61.7642 178.753 65.8534C179.328 66.2153 180.008 66.3718 180.825 66.2385C187.977 65.0734 188.721 58.5995 188.495 51.1056C183.919 50.0187 183.856 44.885 183.856 44.885Z" fill="#FF9763"/>
<mask id="mask37_246_42008" style="mask-type:alpha" maskUnits="userSpaceOnUse" x="178" y="44" width="11" height="23">
<path fill-rule="evenodd" clip-rule="evenodd" d="M183.856 44.885C183.856 44.885 176.412 44.9993 179.389 52.5358C181.526 57.9437 178.407 61.7642 178.753 65.8534C179.328 66.2153 180.008 66.3718 180.825 66.2385C187.977 65.0734 188.721 58.5995 188.495 51.1056C183.919 50.0187 183.856 44.885 183.856 44.885Z" fill="white"/>
</mask>
<g mask="url(#mask37_246_42008)">
<ellipse opacity="0.27" rx="2.56302" ry="2.09511" transform="matrix(0.998886 -0.0471844 0.0409345 0.999162 187.489 58.038)" fill="#E84B23"/>
<path d="M177.953 51.8714C178.456 51.8864 178.853 52.3364 178.839 52.8765L178.796 54.5282C178.782 55.0683 178.363 55.4939 177.86 55.4789C177.357 55.4638 176.961 55.0138 176.975 54.4737L177.017 52.8221C177.024 52.5627 177.126 52.3168 177.302 52.1385C177.478 51.9602 177.712 51.8641 177.953 51.8714Z" fill="#190000"/>
<path d="M184.963 51.7747C185.466 51.7897 185.862 52.2397 185.848 52.7798L185.805 54.4315C185.791 54.9716 185.372 55.3972 184.869 55.3822C184.366 55.3671 183.97 54.9171 183.984 54.377L184.027 52.7254C184.041 52.1853 184.46 51.7596 184.963 51.7747V51.7747Z" fill="#190000"/>
<path d="M177.786 49.5595C175.912 50.086 176.396 51.1892 177.587 50.9421C178.778 50.695 179.01 49.2155 177.786 49.5595Z" fill="#190000"/>
<path d="M184.97 49.3916C186.813 50.0292 186.416 51.0225 185.24 50.7046C184.063 50.3866 183.765 48.9749 184.97 49.3916Z" fill="#190000"/>
<path d="M182.431 56.0592C182.425 56.7206 181.9 56.4535 181.249 56.4476C180.599 56.4416 180.069 56.6989 180.075 56.0375C180.08 55.376 180.611 54.8447 181.262 54.8506C181.913 54.8566 182.436 55.3977 182.431 56.0592Z" fill="#E84B23"/>
<path d="M178.722 59.7423C179.833 64.443 183.892 62.1673 183.791 59.2057C183.783 59.0525 183.687 58.9208 183.551 58.8759C182.974 58.679 181.31 58.2952 178.932 59.3074C178.771 59.3762 178.682 59.5616 178.722 59.7423Z" fill="#C1525F"/>
<mask id="mask38_246_42008" style="mask-type:alpha" maskUnits="userSpaceOnUse" x="178" y="58" width="6" height="5">
<path fill-rule="evenodd" clip-rule="evenodd" d="M178.722 59.7423C179.833 64.443 183.892 62.1673 183.791 59.2057C183.783 59.0525 183.687 58.9208 183.551 58.8759C182.974 58.679 181.31 58.2952 178.932 59.3074C178.771 59.3762 178.682 59.5616 178.722 59.7423Z" fill="white"/>
</mask>
<g mask="url(#mask38_246_42008)">
<ellipse rx="2.29009" ry="2.14815" transform="matrix(0.911212 -0.411939 0.365033 0.930995 182.049 62.1481)" fill="#993443"/>
<path d="M179.455 58.922C179.481 59.2362 179.543 59.6605 179.626 59.731C180.135 60.1658 182.399 59.7422 182.689 59.4399C182.769 59.3558 182.699 58.3417 182.699 58.3417L179.788 58.7193" fill="#F0F3FC"/>
</g>
</g>
<path d="M184.461 42.8659L184.813 41.6879C181.091 38.148 172.69 40.8886 171.733 49.1101C170.776 57.3319 163.863 54.1344 166.309 59.7297C168.755 65.3251 163.217 68.0807 163.217 68.0807C163.217 68.0807 176.412 72.2907 181.304 70.9205C179.561 69.1143 178.889 67.463 178.753 65.8534C178.407 61.7642 181.526 57.9437 179.389 52.5359C176.412 44.9994 183.856 44.8851 183.856 44.8851C183.856 44.8851 183.919 50.0187 188.495 51.1056C188.666 51.1463 188.829 51.1939 189.013 51.2226" fill="#4B4D5C"/>
<path d="M172.623 55.647C171.945 56.1391 171.508 56.9107 171.313 57.7562C171.094 58.7073 171.174 59.689 171.266 60.6516C171.292 60.9279 171.475 61.1979 171.762 61.1841C172.008 61.1723 172.286 60.9484 172.258 60.6516C172.215 60.1998 172.172 59.7473 172.164 59.293C172.159 59.067 172.165 58.8408 172.182 58.6154C172.185 58.5672 172.191 58.5191 172.195 58.4709C172.202 58.4077 172.201 58.4068 172.194 58.4684C172.197 58.4443 172.2 58.4204 172.204 58.3964C172.217 58.3021 172.234 58.2083 172.253 58.1152C172.289 57.9438 172.336 57.7753 172.394 57.6108C172.402 57.5865 172.411 57.5623 172.42 57.5381C172.441 57.4835 172.438 57.49 172.412 57.5577C172.424 57.5206 172.439 57.4851 172.458 57.4518C172.495 57.3704 172.534 57.2907 172.577 57.2128C172.62 57.1353 172.668 57.0619 172.715 56.9874C172.777 56.89 172.659 57.0557 172.725 56.9735C172.756 56.9347 172.786 56.8953 172.818 56.8576C172.874 56.7918 172.934 56.7293 172.996 56.6703C173.022 56.6433 173.049 56.6187 173.079 56.5966C172.963 56.6716 173.101 56.583 173.123 56.5667C173.338 56.4108 173.453 56.0907 173.301 55.838C173.164 55.6086 172.853 55.48 172.623 55.6469L172.623 55.647Z" fill="#373947"/>
<path d="M193.715 122.789C191.688 123.824 191.067 123.424 188.171 129.243C188.171 129.243 188.792 130.798 190.943 128.932C190.943 128.932 188.543 132.311 188.171 132.71C187.799 133.11 189.235 135.043 191.15 132.797C191.15 132.797 192.093 134.779 194.162 133.002C194.162 133.002 196.51 134.062 197.421 132.044C198.331 130.025 199.341 126.667 199.341 126.667L194.046 123.024" fill="#FF9763"/>
<mask id="mask39_246_42008" style="mask-type:alpha" maskUnits="userSpaceOnUse" x="188" y="122" width="12" height="12">
<path fill-rule="evenodd" clip-rule="evenodd" d="M193.715 122.789C191.688 123.824 191.067 123.424 188.171 129.243C188.171 129.243 188.792 130.798 190.943 128.932C190.943 128.932 188.543 132.311 188.171 132.71C187.799 133.11 189.235 135.043 191.15 132.797C191.15 132.797 192.093 134.779 194.162 133.002C194.162 133.002 196.51 134.062 197.421 132.044C198.331 130.025 199.341 126.667 199.341 126.667L194.046 123.024" fill="white"/>
</mask>
<g mask="url(#mask39_246_42008)">
<path d="M195.472 121.043C192.36 122.519 193.052 123.559 193.052 123.559C193.052 123.559 192.775 125.4 198.516 131.795C204.256 138.189 198.377 123.707 198.377 123.707" fill="#E84B23"/>
</g>
<path d="M199.24 80.2602C199.952 89.7206 200.924 102.438 201.078 103.434C201.327 105.033 192.763 121.398 192.763 121.398C193.88 126.356 199.355 130.571 199.355 130.571C199.355 130.571 212.621 108.764 212.993 103.167C213.365 97.5699 207.592 66.4691 197.912 70.0673" fill="#FFC562"/>
<mask id="mask40_246_42008" style="mask-type:alpha" maskUnits="userSpaceOnUse" x="192" y="69" width="22" height="62">
<path fill-rule="evenodd" clip-rule="evenodd" d="M199.24 80.2602C199.952 89.7206 200.924 102.438 201.078 103.434C201.327 105.033 192.763 121.398 192.763 121.398C193.88 126.356 199.355 130.571 199.355 130.571C199.355 130.571 212.621 108.764 212.993 103.167C213.365 97.5699 207.592 66.4691 197.912 70.0673" fill="white"/>
</mask>
<g mask="url(#mask40_246_42008)">
<path d="M207.246 130.184C199.375 130.04 210.049 120.846 202.326 117.126L200.737 117.899C209.242 119.894 197.296 131.051 206.925 130.792L207.246 130.184Z" fill="#97CC64"/>
<path d="M206.612 131.211C200.518 123.274 209.396 119.366 207.744 130.437L206.612 131.211Z" fill="#F08059"/>
<path d="M207.451 130.904C215.547 121.74 216.979 131.765 207.87 132.123L207.451 130.904Z" fill="#F08059"/>
<path d="M207.015 130.859C208.43 118.766 215.721 123.091 208.112 131.173L207.015 130.859Z" fill="#F08059"/>
<path d="M206.479 131.755C196.445 132.624 201.711 122.771 206.983 130.346L206.479 131.755Z" fill="#F08059"/>
<path d="M207.666 131.321C217.7 130.453 212.435 140.306 207.162 132.731L207.666 131.321Z" fill="#F08059"/>
<ellipse rx="3.50759" ry="2.67171" transform="matrix(0.493604 -0.869687 0.836757 0.547575 207.011 131.572)" fill="#F0F3FC"/>
<path d="M202.951 122.312C198.381 121.618 197.964 127.378 197.964 127.378C197.964 127.378 203.894 126.447 202.951 122.312Z" fill="#97CC64"/>
<ellipse cx="213.375" cy="102.832" rx="4.76054" ry="7.47154" fill="#BB393C"/>
</g>
<path d="M169.309 73.7148C160.025 74.8116 160.053 87.4006 161.046 110.856C161.046 110.856 159.803 117.28 168.884 121.043C172.2 121.043 171.168 110.23 171.168 110.23C171.168 110.23 170.574 105.433 170.188 105.033C169.885 104.719 170.756 93.9526 171.144 89.3556" fill="#FFC562"/>
<mask id="mask41_246_42008" style="mask-type:alpha" maskUnits="userSpaceOnUse" x="160" y="73" width="12" height="49">
<path fill-rule="evenodd" clip-rule="evenodd" d="M169.309 73.7148C160.025 74.8116 160.053 87.4006 161.046 110.856C161.046 110.856 159.803 117.28 168.884 121.043C172.2 121.043 171.168 110.23 171.168 110.23C171.168 110.23 170.574 105.433 170.188 105.033C169.885 104.719 170.756 93.9526 171.144 89.3556" fill="white"/>
</mask>
<g mask="url(#mask41_246_42008)">
<path d="M154.872 75.7484C165.486 74.2897 152.804 88.8971 163.868 92.2795L165.865 90.9056C154.063 90.0087 168.098 72.4931 155.194 74.8631L154.872 75.7484Z" fill="#97CC64"/>
<path d="M155.539 74.2339C165.181 83.6298 153.951 90.7511 154.158 75.5134L155.539 74.2339Z" fill="#F08059"/>
<path d="M155.253 72.9584C164.473 58.931 168.225 72.1149 156.039 74.5094L155.253 72.9584Z" fill="#F08059"/>
<path d="M155.618 73.4741C168.956 70.1992 163.668 84.5571 155.197 75.4756L155.618 73.4741Z" fill="#F08059"/>
<path d="M162.084 85.4348C168.357 85.4078 167.869 77.5731 167.869 77.5731C167.869 77.5731 160.063 80.0715 162.084 85.4348Z" fill="#97CC64"/>
</g>
<path d="M181.809 114.223C181.809 114.223 182.031 114.104 181.993 113.429C180.574 112.514 178.024 112.494 176.368 112.598C177.64 111.732 178.863 110.479 177.759 110.331C176.428 110.153 174.653 110.867 169.938 111.999C169.05 112.714 167.495 116.642 167.551 118.548C167.551 118.548 174.486 120.278 175.596 120.159C176.362 120.077 177.407 119.405 177.988 118.993C177.988 118.992 177.99 118.993 177.99 118.993C177.997 118.988 178.015 118.974 178.028 118.964C178.266 118.794 178.425 118.67 178.425 118.67C178.425 118.67 178.417 118.662 178.416 118.66C179.346 117.922 181.472 116.201 181.679 115.93C181.938 115.593 181.864 114.997 181.864 114.997C181.924 114.739 181.905 114.467 181.809 114.223Z" fill="#FF9763"/>
<mask id="mask42_246_42008" style="mask-type:alpha" maskUnits="userSpaceOnUse" x="167" y="110" width="15" height="11">
<path fill-rule="evenodd" clip-rule="evenodd" d="M181.809 114.223C181.809 114.223 182.031 114.104 181.993 113.429C180.574 112.514 178.024 112.494 176.368 112.598C177.64 111.732 178.863 110.479 177.759 110.331C176.428 110.153 174.653 110.867 169.938 111.999C169.05 112.714 167.495 116.642 167.551 118.548C167.551 118.548 174.486 120.278 175.596 120.159C176.362 120.077 177.407 119.405 177.988 118.993C177.988 118.992 177.99 118.993 177.99 118.993C177.997 118.988 178.015 118.974 178.028 118.964C178.266 118.794 178.425 118.67 178.425 118.67C178.425 118.67 178.417 118.662 178.416 118.66C179.346 117.922 181.472 116.201 181.679 115.93C181.938 115.593 181.864 114.997 181.864 114.997C181.924 114.739 181.905 114.467 181.809 114.223Z" fill="white"/>
</mask>
<g mask="url(#mask42_246_42008)">
<path d="M169.664 111.77C171.875 110.188 169.175 116.205 171.078 119.922C172.981 123.64 163.032 116.914 163.032 116.914" fill="#E84B23"/>
</g>
<path d="M173.553 236.317C172.067 240.538 174.326 242.871 174.326 242.871C174.326 242.871 180.949 247.091 191.112 242.371C191.112 242.371 191.112 239.871 190.965 236.54C175.775 241.76 173.553 236.317 173.553 236.317Z" fill="#589BF7"/>
<path d="M219.61 231.793C221.739 235.684 219.879 238.393 219.879 238.393C219.879 238.393 214.57 243.7 203.811 240.891C203.811 240.891 203.418 238.428 203.039 235.117C218.832 237.507 219.61 231.793 219.61 231.793Z" fill="#589BF7"/>
<path d="M173.234 249.43L174.802 251.041L175.153 250.132C173.313 250.39 171.468 250.605 169.619 250.774C169.361 250.798 169.11 251.002 169.123 251.307C169.134 251.575 169.342 251.865 169.619 251.839C171.468 251.67 173.312 251.456 175.153 251.197C175.356 251.169 175.521 251.086 175.606 250.87C175.685 250.671 175.644 250.442 175.504 250.288L173.936 248.677C173.742 248.47 173.428 248.47 173.235 248.678C173.042 248.885 173.041 249.222 173.234 249.43Z" fill="#373947"/>
<path d="M222.412 246.689L220.165 249.248C220.009 249.421 219.977 249.684 220.088 249.894C220.207 250.095 220.432 250.193 220.648 250.139C222.272 249.839 223.893 249.514 225.509 249.165C225.772 249.085 225.926 248.793 225.855 248.509C225.777 248.23 225.508 248.067 225.245 248.137C223.629 248.487 222.009 248.812 220.384 249.111L220.867 250.002L223.114 247.442C223.239 247.307 223.288 247.111 223.242 246.927C223.196 246.743 223.063 246.6 222.891 246.551C222.72 246.501 222.538 246.554 222.412 246.688L222.412 246.689Z" fill="#373947"/>
<path d="M196.166 184.228C197.479 184.902 198.95 185.14 200.39 184.912C200.77 184.853 201.145 184.759 201.511 184.63C201.757 184.543 201.942 184.258 201.857 183.975C201.777 183.711 201.511 183.51 201.247 183.603C201.042 183.675 200.834 183.737 200.623 183.787C200.531 183.809 200.439 183.829 200.346 183.847C200.293 183.857 200.24 183.866 200.186 183.875C200.16 183.879 200.133 183.884 200.106 183.888C200.171 183.878 200.175 183.878 200.118 183.885C199.709 183.936 199.297 183.949 198.886 183.924C198.785 183.917 198.685 183.908 198.584 183.896C198.56 183.894 198.383 183.871 198.515 183.889C198.462 183.882 198.408 183.872 198.355 183.863C198.156 183.828 197.958 183.784 197.762 183.73C197.566 183.676 197.372 183.613 197.182 183.54C197.081 183.501 196.977 183.463 196.88 183.415C196.993 183.471 196.833 183.392 196.813 183.382C196.764 183.358 196.715 183.334 196.666 183.308C196.433 183.188 196.12 183.231 195.988 183.5C195.871 183.737 195.916 184.1 196.166 184.228H196.166Z" fill="#3152BA"/>
<path d="M187.775 183.632C187.769 183.634 187.702 183.665 187.753 183.642C187.804 183.619 187.737 183.649 187.731 183.652C187.69 183.67 187.65 183.688 187.609 183.706C187.514 183.748 187.418 183.789 187.323 183.83C187.152 183.903 186.981 183.973 186.809 184.042C186.458 184.181 186.104 184.312 185.747 184.434C185.033 184.678 184.31 184.887 183.578 185.059C183.162 185.157 182.744 185.243 182.323 185.317C182.066 185.363 181.9 185.719 181.977 185.973C182.067 186.271 182.312 186.393 182.587 186.345C184.087 186.079 185.562 185.663 186.99 185.101C187.423 184.931 187.851 184.745 188.275 184.551C188.515 184.442 188.586 184.043 188.453 183.823C188.293 183.555 188.031 183.514 187.775 183.632L187.775 183.632Z" fill="#3152BA"/>
<path d="M201.02 103.519C201.494 104.077 202.114 104.467 202.799 104.637C203.052 104.699 203.348 104.555 203.41 104.265C203.467 103.995 203.334 103.676 203.063 103.61C202.891 103.568 202.723 103.51 202.56 103.437L202.679 103.491C202.439 103.381 202.214 103.239 202.007 103.069L202.108 103.152C201.969 103.035 201.84 102.906 201.722 102.766C201.527 102.56 201.215 102.56 201.02 102.766C200.832 102.976 200.832 103.308 201.02 103.519Z" fill="#D89D35"/>
<path d="M179.18 222.905C179.491 223.788 180.211 224.431 181.075 224.599C181.204 224.632 181.34 224.613 181.457 224.545C181.571 224.474 181.654 224.357 181.687 224.22C181.72 224.084 181.702 223.938 181.635 223.816C181.571 223.695 181.465 223.607 181.339 223.572C181.182 223.546 181.028 223.499 180.88 223.434L180.999 223.488C180.838 223.414 180.687 223.32 180.548 223.206L180.648 223.289C180.51 223.174 180.386 223.042 180.278 222.894L180.356 223.002C180.254 222.86 180.17 222.705 180.104 222.54L180.154 222.667C180.148 222.652 180.142 222.637 180.137 222.622C180.098 222.49 180.017 222.377 179.909 222.304C179.795 222.232 179.66 222.213 179.533 222.248C179.405 222.284 179.296 222.373 179.23 222.495C179.161 222.618 179.143 222.767 179.18 222.905L179.18 222.905Z" fill="#3152BA"/>
</g>
</svg>
