<svg width="382" height="299" viewBox="0 0 382 299" fill="none" xmlns="http://www.w3.org/2000/svg">
<mask id="mask0_246_42838" style="mask-type:alpha" maskUnits="userSpaceOnUse" x="0" y="0" width="382" height="299">
<rect width="382" height="299" fill="white"/>
</mask>
<g mask="url(#mask0_246_42838)">
<path d="M209.509 160.735C236.91 178.451 290.873 176.781 271.621 147.729C271.621 147.729 313.189 162.732 297.093 130.227C297.093 130.227 331.479 129.668 307.176 108.694C307.176 108.694 332.831 95.1249 323.888 84.219C314.27 72.4907 295.538 91.7196 295.538 91.7196C295.538 91.7196 281.503 67.7854 271.322 94.867C271.322 94.867 253.067 73.3263 245.622 105.475C245.622 105.475 215.711 80.7731 209.958 132.977C206.947 160.294 209.509 160.735 209.509 160.735Z" fill="#97CC64"/>
<mask id="mask1_246_42838" style="mask-type:alpha" maskUnits="userSpaceOnUse" x="208" y="80" width="118" height="93">
<path fill-rule="evenodd" clip-rule="evenodd" d="M209.509 160.735C236.91 178.451 290.873 176.781 271.621 147.729C271.621 147.729 313.189 162.732 297.093 130.227C297.093 130.227 331.479 129.668 307.176 108.694C307.176 108.694 332.831 95.1249 323.888 84.219C314.27 72.4907 295.538 91.7196 295.538 91.7196C295.538 91.7196 281.503 67.7854 271.322 94.867C271.322 94.867 253.067 73.3263 245.622 105.475C245.622 105.475 215.711 80.7731 209.958 132.977C206.947 160.294 209.509 160.735 209.509 160.735Z" fill="white"/>
</mask>
<g mask="url(#mask1_246_42838)">
<path d="M259.509 -29.741C309.309 -23.2256 318.101 9.89025 273.719 22.9064C229.337 35.9225 288.943 36.3348 303.486 40.9374C303.486 40.9374 233.207 38.5345 286.414 64.1884C339.621 89.8423 269.669 65.005 274.056 99.7581C278.443 134.511 201.126 59.224 198.075 55.8188C195.025 52.4136 249.721 -20.1897 249.721 -20.1897" fill="#75AA3C"/>
<path d="M205.288 163.584C261.65 134.392 282.29 178.295 244.719 206.178C207.149 234.06 263.392 213.457 278.57 212.668C278.57 212.668 211.636 235.156 270.018 240.567C328.399 245.979 254.519 247.233 269.886 278.403C285.252 309.573 188.127 265.93 184.154 263.799C180.182 261.668 208.194 174.061 208.194 174.061" fill="#75AA3C"/>
</g>
<path d="M311.971 89.983C306.938 96.1815 216.372 159.216 209.509 160.735C209.509 160.735 300.045 99.5731 311.971 89.983Z" fill="#75AA3C"/>
<path d="M282.71 87.668C280.084 100.219 281.063 105.369 281.063 105.369L282.71 87.668Z" fill="#75AA3C"/>
<path d="M307.194 117.074C295.059 114.919 290.175 116.178 290.175 116.178L307.194 117.074Z" fill="#75AA3C"/>
<path d="M257.663 92.9064C258.719 112.749 261.955 119.975 261.955 119.975L257.663 92.9064Z" fill="#75AA3C"/>
<path d="M231.812 110.31C232.869 130.152 236.104 137.379 236.104 137.379L231.812 110.31Z" fill="#75AA3C"/>
<path d="M270.535 130.92L292.94 140.649C277.814 131.556 270.535 130.92 270.535 130.92Z" fill="#75AA3C"/>
<path d="M244.663 146.207L267.068 155.937C251.942 146.844 244.663 146.207 244.663 146.207Z" fill="#75AA3C"/>
<path d="M223.722 134.125C223.529 135.338 223.688 136.585 224.18 137.703C224.275 137.922 224.596 137.993 224.782 137.868C224.986 137.735 225.055 137.459 224.94 137.239C224.928 137.212 224.916 137.185 224.905 137.158C224.849 137.029 224.918 137.2 224.891 137.124C224.868 137.061 224.843 136.999 224.821 136.937C224.78 136.818 224.742 136.698 224.709 136.576C224.673 136.448 224.642 136.318 224.615 136.187C224.602 136.121 224.59 136.055 224.579 135.99C224.574 135.96 224.569 135.931 224.565 135.902C224.563 135.891 224.547 135.775 224.554 135.83C224.56 135.877 224.55 135.789 224.549 135.78C224.546 135.751 224.543 135.721 224.54 135.692C224.534 135.625 224.529 135.558 224.525 135.492C224.517 135.358 224.514 135.224 224.515 135.09C224.516 134.964 224.522 134.838 224.532 134.712C224.537 134.645 224.543 134.578 224.55 134.512C224.559 134.426 224.546 134.531 224.554 134.479C224.56 134.442 224.565 134.406 224.571 134.369C224.608 134.133 224.512 133.863 224.263 133.804C224.051 133.754 223.762 133.871 223.722 134.125L223.722 134.125Z" fill="#75AA3C"/>
<path d="M259.149 139.32L263.985 140.593L265.367 140.957C265.6 141.022 265.84 140.878 265.904 140.635C265.968 140.392 265.833 140.141 265.601 140.071L260.765 138.798L259.383 138.434C259.15 138.37 258.91 138.513 258.846 138.756C258.782 138.999 258.917 139.25 259.149 139.32Z" fill="#75AA3C"/>
<path d="M288.618 95.4256C288.566 95.6816 288.503 95.9348 288.427 96.1841C288.389 96.3087 288.348 96.4323 288.303 96.5548C288.281 96.616 288.259 96.6769 288.235 96.7375C288.232 96.7448 288.201 96.8241 288.217 96.7833C288.235 96.7381 288.189 96.8516 288.19 96.8486C287.987 97.3273 287.737 97.7833 287.446 98.2097C287.312 98.4061 287.407 98.7293 287.604 98.8381C287.815 98.9592 288.08 98.8868 288.206 98.6733C288.818 97.7722 289.247 96.7501 289.467 95.6698C289.514 95.4354 289.401 95.1622 289.159 95.1048C288.938 95.0523 288.669 95.1742 288.618 95.4256V95.4256Z" fill="#75AA3C"/>
<path d="M133.324 199.017L60.0496 177.13L133.324 152.668L206.599 177.13L133.324 199.017Z" fill="#274B69"/>
<mask id="mask2_246_42838" style="mask-type:alpha" maskUnits="userSpaceOnUse" x="60" y="152" width="147" height="48">
<path fill-rule="evenodd" clip-rule="evenodd" d="M133.324 199.017L60.0496 177.13L133.324 152.668L206.599 177.13L133.324 199.017Z" fill="white"/>
</mask>
<g mask="url(#mask2_246_42838)">
<path d="M39.1296 172.491C106.853 201.405 92.2039 170.127 126.092 178.515C159.98 186.903 113.009 202.503 113.009 202.503L65.2954 205.421L49.1342 186.145" fill="#0C273A"/>
<path d="M138.719 146.978C130.514 149.499 133.324 152.668 133.324 152.668L217.664 192.751L204.787 161.498L174.894 155.978" fill="#11314B"/>
</g>
<path d="M133.324 174.68C114.478 174.68 99.1995 178.481 99.1995 183.171V210.823H99.4168C99.4168 208.723 167.232 208.723 167.232 210.823H167.45V183.171C167.45 178.481 152.171 174.68 133.324 174.68Z" fill="#274B69"/>
<mask id="mask3_246_42838" style="mask-type:alpha" maskUnits="userSpaceOnUse" x="99" y="174" width="69" height="37">
<path fill-rule="evenodd" clip-rule="evenodd" d="M133.324 174.68C114.478 174.68 99.1995 178.481 99.1995 183.171V210.823H99.4168C99.4168 208.723 167.232 208.723 167.232 210.823H167.45V183.171C167.45 178.481 152.171 174.68 133.324 174.68Z" fill="white"/>
</mask>
<g mask="url(#mask3_246_42838)">
<path d="M91.3644 204.462C102.981 172.371 156.28 176.65 167.213 183.068C178.146 189.486 155.596 168.092 155.596 168.092L98.1976 166.666L89.3145 174.51" fill="#11314B"/>
</g>
<rect x="79.8257" y="169.664" width="1.32024" height="29.5471" fill="#FFC562"/>
<path d="M83.9176 217.967L82.0094 200.624H78.9621L77.0538 217.967C76.7291 219.441 77.3032 220.973 78.5005 221.825C79.6978 222.678 81.2736 222.678 82.4709 221.825C83.6682 220.973 84.2424 219.441 83.9176 217.967Z" fill="#FFC562"/>
<mask id="mask4_246_42838" style="mask-type:alpha" maskUnits="userSpaceOnUse" x="76" y="200" width="9" height="23">
<path fill-rule="evenodd" clip-rule="evenodd" d="M83.9176 217.967L82.0094 200.624H78.9621L77.0538 217.967C76.7291 219.441 77.3032 220.973 78.5005 221.825C79.6978 222.678 81.2736 222.678 82.4709 221.825C83.6682 220.973 84.2424 219.441 83.9176 217.967Z" fill="white"/>
</mask>
<g mask="url(#mask4_246_42838)">
<path d="M71.8769 226.053C78.0267 228.905 83.8478 199.47 83.8478 199.47H77.0146L71.5481 203.749V208.027" fill="#D89D35"/>
</g>
<ellipse cx="80.4857" cy="199.211" rx="3.15391" ry="3.29151" fill="#BB393C"/>
<path d="M146.597 192.501L142 195.863C141.791 196.016 141.673 196.318 141.824 196.563C141.959 196.78 142.27 196.911 142.495 196.746L147.092 193.384C147.302 193.231 147.419 192.93 147.268 192.684C147.134 192.467 146.822 192.337 146.597 192.501L146.597 192.501Z" fill="#11314B"/>
<path d="M106.631 168.446C107.128 168.157 107.635 167.884 108.149 167.63C108.404 167.504 108.66 167.383 108.918 167.267C108.951 167.252 108.984 167.237 109.017 167.222C109.039 167.212 109.128 167.173 109.039 167.212C109.106 167.183 109.172 167.154 109.239 167.126C109.373 167.068 109.506 167.013 109.641 166.958C110.695 166.528 111.776 166.173 112.877 165.894C113.5 165.736 114.129 165.604 114.763 165.496C115.016 165.453 115.18 165.111 115.105 164.867C115.016 164.58 114.774 164.464 114.502 164.51C112.21 164.905 109.979 165.622 107.87 166.642C107.281 166.925 106.703 167.232 106.136 167.563C105.985 167.655 105.892 167.825 105.892 168.008C105.893 168.191 105.988 168.36 106.14 168.45C106.293 168.541 106.48 168.539 106.631 168.446H106.631Z" fill="#11314B"/>
<path d="M242.239 63.5648C242.239 60.1791 239.609 57.4345 236.365 57.4344H112.184C108.939 57.4345 106.31 60.1791 106.31 63.5648V71.0846H242.239V63.5648Z" fill="#EFF3FC"/>
<mask id="mask5_246_42838" style="mask-type:alpha" maskUnits="userSpaceOnUse" x="106" y="57" width="137" height="15">
<path fill-rule="evenodd" clip-rule="evenodd" d="M242.239 63.5648C242.239 60.1791 239.609 57.4345 236.365 57.4344H112.184C108.939 57.4345 106.31 60.1791 106.31 63.5648V71.0846H242.239V63.5648Z" fill="white"/>
</mask>
<g mask="url(#mask5_246_42838)">
<path d="M89.5632 57.4345C239.482 58.3753 240.733 56.5153 241.998 74.0081C243.263 91.5009 246.425 49.2542 246.425 49.2542L200.568 45.9536L108.855 51.5645" fill="#D6DCF2"/>
</g>
<path d="M106.31 71.0847V146.139C106.31 149.524 108.939 152.269 112.184 152.269H236.365C239.609 152.269 242.239 149.524 242.239 146.139V71.0847L106.31 71.0847Z" fill="#589BF7"/>
<mask id="mask6_246_42838" style="mask-type:alpha" maskUnits="userSpaceOnUse" x="106" y="71" width="137" height="82">
<path fill-rule="evenodd" clip-rule="evenodd" d="M106.31 71.0847V146.139C106.31 149.524 108.939 152.269 112.184 152.269H236.365C239.609 152.269 242.239 149.524 242.239 146.139V71.0847L106.31 71.0847Z" fill="white"/>
</mask>
<g mask="url(#mask6_246_42838)">
<path d="M102.524 134.593C105.832 162.496 218.842 155.017 218.842 155.017L103.627 166.524L94.5308 141.12" fill="#2976DF"/>
</g>
<ellipse cx="113.694" cy="64.0965" rx="1.62715" ry="1.69814" fill="#BB393C"/>
<ellipse cx="120.531" cy="64.0965" rx="1.62715" ry="1.69814" fill="#FFC562"/>
<ellipse cx="127.369" cy="64.0965" rx="1.62715" ry="1.69814" fill="#75AA3C"/>
<rect x="117.004" y="78.6472" width="114.54" height="64.7558" rx="3.34833" fill="#97CC64"/>
<mask id="mask7_246_42838" style="mask-type:alpha" maskUnits="userSpaceOnUse" x="117" y="78" width="115" height="66">
<rect x="117.004" y="78.6472" width="114.54" height="64.7558" rx="3.34833" fill="white"/>
</mask>
<g mask="url(#mask7_246_42838)">
<path d="M246.13 86.7652C252.472 177.86 96.9951 140.844 96.9951 140.844C96.9951 140.844 130.676 166.588 133.048 167.083C135.42 167.578 222.706 161.637 222.706 161.637L242.239 137.873V71.0847L236.938 68.0671" fill="#75AA3C"/>
</g>
<ellipse cx="174.274" cy="108.042" rx="18.1665" ry="18.9826" fill="#EFF3FC"/>
<path d="M169.213 108.042V101.047C169.212 100.622 169.429 100.23 169.782 100.017C170.134 99.8045 170.569 99.8044 170.921 100.017L176.718 103.514L182.515 107.011C182.867 107.224 183.084 107.617 183.084 108.042C183.084 108.467 182.867 108.859 182.515 109.072L176.718 112.569L170.921 116.066C170.569 116.279 170.134 116.279 169.782 116.066C169.429 115.853 169.212 115.461 169.213 115.036V108.042Z" fill="#FFC562"/>
<mask id="mask8_246_42838" style="mask-type:alpha" maskUnits="userSpaceOnUse" x="169" y="99" width="15" height="18">
<path fill-rule="evenodd" clip-rule="evenodd" d="M169.213 108.042V101.047C169.212 100.622 169.429 100.23 169.782 100.017C170.134 99.8045 170.569 99.8044 170.921 100.017L176.718 103.514L182.515 107.011C182.867 107.224 183.084 107.617 183.084 108.042C183.084 108.467 182.867 108.859 182.515 109.072L176.718 112.569L170.921 116.066C170.569 116.279 170.134 116.279 169.782 116.066C169.429 115.853 169.212 115.461 169.213 115.036V108.042Z" fill="white"/>
</mask>
<g mask="url(#mask8_246_42838)">
<path d="M181.631 103.622C181.999 114.169 160.132 121.361 160.132 121.361L174.274 122.224L192.441 108.042" fill="#D89D35"/>
</g>
<path d="M149.793 66.3659L153.107 65.2381C153.399 65.1389 153.618 64.8093 153.518 64.484C153.423 64.18 153.108 63.9495 152.795 64.0559L149.48 65.1837C149.189 65.2829 148.969 65.6125 149.07 65.9377C149.164 66.2418 149.48 66.4723 149.793 66.3659Z" fill="#D6DCF2"/>
<path d="M215.559 103.494L213.11 108.401C212.968 108.686 213.031 109.08 213.321 109.24C213.591 109.389 213.973 109.324 214.125 109.02L216.574 104.113C216.716 103.829 216.653 103.434 216.363 103.274C216.093 103.125 215.711 103.19 215.559 103.494L215.559 103.494Z" fill="#75AA3C"/>
<path d="M138.632 125.426C138.957 125.426 139.22 125.151 139.22 124.813C139.22 124.474 138.957 124.2 138.632 124.2C138.308 124.2 138.045 124.474 138.045 124.813C138.049 125.15 138.309 125.422 138.632 125.426Z" fill="#75AA3C"/>
<rect x="219.351" y="224.073" width="18.006" height="27.8634" fill="#935738"/>
<mask id="mask9_246_42838" style="mask-type:alpha" maskUnits="userSpaceOnUse" x="219" y="224" width="19" height="28">
<rect x="219.351" y="224.073" width="18.006" height="27.8634" fill="white"/>
</mask>
<g mask="url(#mask9_246_42838)">
<path d="M215.212 232.086C235.727 233.212 235.039 255.653 235.039 255.653L249.772 250.767L247.293 224.073" fill="#6D3417"/>
</g>
<rect x="149.189" y="132.666" width="158.328" height="100.545" rx="3.36069" fill="#935738"/>
<path d="M151.658 132.666H305.049C306.413 132.666 307.518 133.82 307.518 135.243V224.073H149.189V135.243C149.189 133.82 150.295 132.666 151.658 132.666Z" fill="#FFC562"/>
<mask id="mask10_246_42838" style="mask-type:alpha" maskUnits="userSpaceOnUse" x="149" y="132" width="159" height="93">
<path fill-rule="evenodd" clip-rule="evenodd" d="M151.658 132.666H305.049C306.413 132.666 307.518 133.82 307.518 135.243V224.073H149.189V135.243C149.189 133.82 150.295 132.666 151.658 132.666Z" fill="white"/>
</mask>
<g mask="url(#mask10_246_42838)">
<path d="M316.964 117.129L123.648 251.936L307.518 278.357L322.747 106.783" fill="#D89D35"/>
</g>
<path d="M205.639 250.089H251.068C254.64 250.089 257.536 253.111 257.536 256.839V256.969H199.172V256.839C199.172 253.111 202.067 250.089 205.639 250.089V250.089Z" fill="#935738"/>
<path d="M185.163 141.665L182.97 143.593C182.734 143.8 182.75 144.248 182.97 144.459C183.202 144.689 183.567 144.689 183.8 144.459L185.993 142.531C186.229 142.324 186.213 141.876 185.993 141.665C185.761 141.434 185.396 141.434 185.163 141.665V141.665Z" fill="#D89D35"/>
<path d="M293.091 216.745C292.902 216.908 292.711 217.069 292.518 217.228C292.473 217.265 292.427 217.302 292.382 217.339C292.361 217.36 292.338 217.379 292.313 217.395C292.327 217.388 292.415 217.313 292.329 217.382C292.232 217.46 292.134 217.538 292.036 217.615C291.649 217.918 291.256 218.212 290.856 218.496C290.069 219.057 289.259 219.58 288.425 220.066C287.946 220.345 287.46 220.611 286.968 220.864C286.692 221.006 286.594 221.438 286.757 221.702C286.926 221.987 287.279 222.084 287.56 221.922C289.31 221.022 290.977 219.957 292.542 218.74C293.01 218.376 293.47 217.999 293.921 217.611C294.159 217.406 294.139 216.954 293.921 216.745C293.668 216.503 293.345 216.526 293.091 216.745V216.745Z" fill="#D89D35"/>
<path d="M125.396 139.437L120.643 142.502L119.288 143.376C119.027 143.544 118.903 143.931 119.078 144.213C119.244 144.501 119.6 144.598 119.88 144.433L124.634 141.368L125.989 140.494C126.25 140.326 126.374 139.939 126.199 139.656C126.032 139.369 125.677 139.272 125.396 139.437L125.396 139.437Z" fill="#D89D35"/>
<mask id="mask11_246_42838" style="mask-type:alpha" maskUnits="userSpaceOnUse" x="144" y="101" width="159" height="124">
<rect x="144.434" y="101.632" width="158.444" height="122.486" fill="white"/>
</mask>
<g mask="url(#mask11_246_42838)">
<path d="M210.428 154.862C210.428 154.862 206.52 147.97 205.503 147.558C204.486 147.147 199.743 145.043 198.79 144.704C197.837 144.365 195.579 141.26 195.927 140.554C196.274 139.848 199.091 142.31 200.022 142.588C200.953 142.866 205.851 143.682 204.696 142.473C203.541 141.264 201.575 140.839 201.799 140.311C202.023 139.784 207.541 141.163 208.188 142.221C208.836 143.278 215.174 150.953 215.174 150.953L210.428 154.862Z" fill="#FF9763"/>
<mask id="mask12_246_42838" style="mask-type:alpha" maskUnits="userSpaceOnUse" x="195" y="140" width="21" height="15">
<path fill-rule="evenodd" clip-rule="evenodd" d="M210.428 154.862C210.428 154.862 206.52 147.97 205.503 147.558C204.486 147.147 199.743 145.043 198.79 144.704C197.837 144.365 195.579 141.26 195.927 140.554C196.274 139.848 199.091 142.31 200.022 142.588C200.953 142.866 205.851 143.682 204.696 142.473C203.541 141.264 201.575 140.839 201.799 140.311C202.023 139.784 207.541 141.163 208.188 142.221C208.836 143.278 215.174 150.953 215.174 150.953L210.428 154.862Z" fill="white"/>
</mask>
<g mask="url(#mask12_246_42838)">
<path d="M215.907 148.369C212.278 145.983 208.633 148.465 205.503 147.558C202.373 146.652 207.565 151.309 207.565 151.309L210.389 150.044" fill="#E84B23"/>
</g>
<path d="M212.303 146.823C208.057 148.102 205.532 155.759 205.532 155.759C205.532 155.759 218.212 173.161 222.851 173.196C227.49 173.231 241.677 159.14 241.677 159.14C241.677 159.14 246.545 137.712 241.129 138.735C238.394 139.251 223.494 157.682 223.494 157.682L212.303 146.823Z" fill="#F0F3FC"/>
<mask id="mask13_246_42838" style="mask-type:alpha" maskUnits="userSpaceOnUse" x="205" y="138" width="39" height="36">
<path fill-rule="evenodd" clip-rule="evenodd" d="M212.303 146.823C208.057 148.102 205.532 155.759 205.532 155.759C205.532 155.759 218.212 173.161 222.851 173.196C227.49 173.231 241.677 159.14 241.677 159.14C241.677 159.14 246.545 137.712 241.129 138.735C238.394 139.251 223.494 157.682 223.494 157.682L212.303 146.823Z" fill="white"/>
</mask>
<g mask="url(#mask13_246_42838)">
<path d="M235.839 152.216C230.148 172.386 220.352 174.403 217.18 179.121C211.436 187.664 241.182 176.673 241.182 176.673L235.839 152.216Z" fill="#D6DCF2"/>
<path d="M208.196 161.394C207.507 153.875 216.319 149.076 216.319 149.076" stroke="#D6DCF2" stroke-width="0.99853" stroke-linecap="round" stroke-linejoin="round"/>
</g>
<path d="M223.494 271.23C223.494 273.329 241.129 268.098 241.129 268.098L246.177 216.253L258.764 171.82L234.836 169.184L223.494 271.23Z" fill="#516DDB"/>
<mask id="mask14_246_42838" style="mask-type:alpha" maskUnits="userSpaceOnUse" x="223" y="169" width="36" height="103">
<path fill-rule="evenodd" clip-rule="evenodd" d="M223.494 271.23C223.494 273.329 241.129 268.098 241.129 268.098L246.177 216.253L258.764 171.82L234.836 169.184L223.494 271.23Z" fill="white"/>
</mask>
<g mask="url(#mask14_246_42838)">
<path d="M241.129 184.125C236.535 182.03 249.249 203.212 245.011 231.378C240.773 259.543 258.59 215.084 258.59 215.084" fill="#3152BA"/>
<path d="M249.01 199.762L243.476 214.707L237.878 267.396" stroke="#3152BA" stroke-width="0.99853" stroke-linecap="round" stroke-linejoin="round"/>
</g>
<path d="M239.57 182.147L254.905 224.132L272.891 270.207C287.671 273.405 287.671 269.242 287.671 269.242L269.931 213.414L258.764 171.82L234.835 169.184" fill="#516DDB"/>
<mask id="mask15_246_42838" style="mask-type:alpha" maskUnits="userSpaceOnUse" x="234" y="169" width="54" height="103">
<path fill-rule="evenodd" clip-rule="evenodd" d="M239.57 182.147L254.905 224.132L272.891 270.207C287.671 273.405 287.671 269.242 287.671 269.242L269.931 213.414L258.764 171.82L234.835 169.184" fill="white"/>
</mask>
<g mask="url(#mask15_246_42838)">
<path d="M239.435 175.512C237.651 181.409 262.346 176.769 265.611 197.323C268.876 217.877 274.973 189.944 274.973 189.944L262.185 175.357" fill="#3152BA"/>
<path d="M256.618 173.067L265.249 206.33L266.155 209.822L285.248 267.533" stroke="#3152BA" stroke-width="0.665691" stroke-linecap="round" stroke-linejoin="round" stroke-dasharray="1.33"/>
<path d="M255.41 173.067L264.946 209.822L284.039 267.533" stroke="#3152BA" stroke-width="0.99853" stroke-linecap="round" stroke-linejoin="round"/>
</g>
<path d="M233.944 173.897L233.241 178.639C233.241 178.639 248.171 182.764 254.78 179.121L253.817 177.01L233.485 173.897" fill="#FFC562"/>
<path d="M237.121 148.257C233.496 160.451 233.241 174.876 233.241 174.876C246.021 181.919 261.454 178.073 261.454 178.073C257.864 166.983 267.415 140.759 264.048 138.699C260.682 136.639 254.483 132.141 241.129 138.735" fill="#F0F3FC"/>
<mask id="mask16_246_42838" style="mask-type:alpha" maskUnits="userSpaceOnUse" x="233" y="135" width="32" height="45">
<path fill-rule="evenodd" clip-rule="evenodd" d="M237.121 148.257C233.496 160.451 233.241 174.876 233.241 174.876C246.021 181.919 261.454 178.073 261.454 178.073C257.864 166.983 267.415 140.759 264.048 138.699C260.682 136.639 254.483 132.141 241.129 138.735" fill="white"/>
</mask>
<g mask="url(#mask16_246_42838)">
<path d="M247.617 135.224C240.476 147.269 253.103 147.114 260.223 137.028C263.709 132.089 257.23 135.224 257.23 135.224" fill="#FFC562"/>
<path d="M248.546 133.851C241.405 145.896 253.809 144.941 261.152 135.655C264.894 130.924 258.159 133.851 258.159 133.851" fill="#FF9763"/>
<path d="M255.009 150.14C249.249 153.399 262.986 165.501 260.914 175.893C258.841 186.285 265.606 154.863 265.606 154.863L260.914 152.678" fill="#D6DCF2"/>
<path d="M232.016 171.406C241.929 175.573 259.973 176.71 261.622 173.196L232.016 171.406Z" fill="#F0F3FC"/>
</g>
<path d="M263.668 182.147C262.74 184.726 262.227 185.577 262.227 185.577C262.227 185.577 259.298 186.031 258.841 186.285C258.384 186.54 256.404 188.408 256.257 188.431C256.111 188.454 256.673 190.432 258.303 189.846L257.611 192.072C257.611 192.072 258.961 193.453 260.201 193.316C260.201 193.316 263.1 195.873 266.625 192.919C266.625 192.919 269.742 185.104 270.298 184.558C270.855 184.012 263.668 182.147 263.668 182.147Z" fill="#FF9763"/>
<mask id="mask17_246_42838" style="mask-type:alpha" maskUnits="userSpaceOnUse" x="256" y="182" width="15" height="13">
<path fill-rule="evenodd" clip-rule="evenodd" d="M263.668 182.147C262.74 184.726 262.227 185.577 262.227 185.577C262.227 185.577 259.298 186.031 258.841 186.285C258.384 186.54 256.404 188.408 256.257 188.431C256.111 188.454 256.673 190.432 258.303 189.846L257.611 192.072C257.611 192.072 258.961 193.453 260.201 193.316C260.201 193.316 263.1 195.873 266.625 192.919C266.625 192.919 269.742 185.104 270.298 184.558C270.855 184.012 263.668 182.147 263.668 182.147Z" fill="white"/>
</mask>
<g mask="url(#mask17_246_42838)">
<path d="M263.668 182.147C261.586 182.329 269.917 190.254 269.917 190.254L270.298 184.558" fill="#E84B23"/>
</g>
<path d="M253.103 149.079L264.941 164.97L262.556 181.138C265.862 184.337 270.846 188.474 271.705 186.824C272.481 185.334 277.035 163.029 276.421 161.025C274.015 153.17 267.998 142.402 264.048 138.699" fill="#F0F3FC"/>
<mask id="mask18_246_42838" style="mask-type:alpha" maskUnits="userSpaceOnUse" x="253" y="138" width="24" height="50">
<path fill-rule="evenodd" clip-rule="evenodd" d="M253.103 149.079L264.941 164.97L262.556 181.138C265.862 184.337 270.846 188.474 271.705 186.824C272.481 185.334 277.035 163.029 276.421 161.025C274.015 153.17 267.998 142.402 264.048 138.699" fill="white"/>
</mask>
<g mask="url(#mask18_246_42838)">
<path d="M262.185 175.357C269.33 181.609 272.611 184.051 276.478 182.758" stroke="#D6DCF2" stroke-width="0.99853" stroke-linecap="round" stroke-linejoin="round"/>
</g>
<path d="M257.129 136.619L258.019 127.852L250.888 127.273L248.028 137.19" fill="#FF9763"/>
<mask id="mask19_246_42838" style="mask-type:alpha" maskUnits="userSpaceOnUse" x="248" y="127" width="11" height="11">
<path fill-rule="evenodd" clip-rule="evenodd" d="M257.129 136.619L258.019 127.852L250.888 127.273L248.028 137.19" fill="white"/>
</mask>
<g mask="url(#mask19_246_42838)">
<path d="M245.406 135.374C253.981 137.171 247.83 132.294 251.206 132.123C252.135 132.076 252.467 127.574 252.467 127.574L249.73 128.117" fill="#E84B23"/>
</g>
<path d="M256.638 126.944L256.59 120.523L252.385 112.761C249.13 118.232 237.009 132.313 251.856 131.28" fill="#FF9763"/>
<path d="M257.336 127.671C254.618 127.632 253.308 121.403 255.303 120.434C255.303 120.434 250.715 120.389 248.89 116.799C238.986 114.012 244.378 102.221 251.261 109.226C256.531 108.61 260.347 113.104 259.046 115.774C268.869 114.895 265.434 127.79 257.336 127.671Z" fill="#4B4D5C"/>
<path d="M256.707 130.459C262.383 128.565 261.427 121.664 253.967 126.298L256.707 130.459Z" fill="#FF9763"/>
<path d="M250.745 112.315C250.677 113.172 250.834 114.031 251.2 114.801C251.324 115.019 251.592 115.093 251.802 114.966C252.007 114.834 252.077 114.558 251.96 114.338C251.938 114.29 251.916 114.241 251.895 114.193C251.843 114.073 251.926 114.278 251.88 114.155C251.847 114.068 251.816 113.981 251.789 113.892C251.734 113.714 251.69 113.533 251.658 113.349C251.651 113.309 251.645 113.27 251.639 113.23C251.631 113.177 251.631 113.178 251.638 113.234C251.635 113.207 251.632 113.181 251.63 113.154C251.62 113.061 251.614 112.968 251.61 112.875C251.604 112.688 251.609 112.501 251.626 112.315C251.647 112.075 251.408 111.846 251.185 111.856C250.945 111.862 250.751 112.064 250.745 112.315H250.745Z" fill="#373947"/>
<path d="M260.8 120.968L260.824 121.066C260.859 121.18 260.931 121.277 261.026 121.341C261.075 121.374 261.132 121.393 261.19 121.395C261.248 121.409 261.309 121.406 261.366 121.387L261.471 121.341C261.536 121.301 261.59 121.244 261.629 121.176L261.673 121.066C261.694 120.987 261.694 120.902 261.673 120.822L261.649 120.724C261.614 120.611 261.542 120.514 261.446 120.449C261.398 120.416 261.341 120.398 261.283 120.395C261.225 120.381 261.164 120.384 261.107 120.403L261.002 120.449C260.937 120.489 260.883 120.546 260.844 120.614L260.8 120.724C260.779 120.804 260.779 120.888 260.8 120.968Z" fill="#373947"/>
<path d="M249.119 122.449C248.991 122.335 248.911 122.174 248.897 121.999C248.884 121.824 248.937 121.651 249.045 121.518L249.736 120.666C249.962 120.388 250.362 120.354 250.629 120.589C250.895 120.825 250.928 121.242 250.702 121.52L250.011 122.372C249.903 122.505 249.748 122.589 249.58 122.603C249.413 122.617 249.247 122.562 249.119 122.449L249.119 122.449Z" fill="#190000"/>
<path d="M251.567 118.523C253.081 119.746 252.893 120.664 251.899 119.964C250.906 119.264 250.579 117.725 251.567 118.523Z" fill="#190000"/>
<path d="M248.532 120.416C245.789 120.033 244.86 122.568 246.47 123.194L248.532 120.416Z" fill="#FF9763"/>
<ellipse opacity="0.27" rx="1.09749" ry="1.45798" transform="matrix(0.492765 -0.870162 0.851127 0.524961 250.644 124.284)" fill="#E84B23"/>
<path d="M249.183 125.091C248.385 125.374 247.502 125.181 246.88 124.587" stroke="#993443" stroke-width="0.99853" stroke-linecap="round" stroke-linejoin="round"/>
<path d="M256.775 127.491C256.792 127.482 256.809 127.473 256.826 127.465L256.721 127.511C256.765 127.493 256.81 127.48 256.857 127.473L256.74 127.489C256.796 127.482 256.853 127.482 256.909 127.49L256.792 127.473C256.849 127.482 256.904 127.497 256.957 127.52L256.852 127.473C256.909 127.498 256.963 127.531 257.012 127.57L256.923 127.498C256.964 127.532 257.001 127.571 257.032 127.613L256.964 127.52C256.992 127.56 257.015 127.603 257.034 127.648L256.99 127.538C257.006 127.581 257.017 127.626 257.024 127.671L257.008 127.549C257.014 127.6 257.014 127.651 257.008 127.702L257.024 127.58C257.016 127.641 257 127.701 256.977 127.758L257.021 127.648C256.997 127.705 256.967 127.759 256.93 127.808L256.999 127.715C256.965 127.759 256.926 127.799 256.884 127.835L256.973 127.763C256.934 127.794 256.891 127.82 256.847 127.841L256.952 127.795C256.906 127.815 256.859 127.829 256.81 127.837L256.927 127.82L256.912 127.822C256.796 127.826 256.686 127.874 256.601 127.957C256.429 128.136 256.429 128.427 256.601 128.606C256.683 128.694 256.795 128.743 256.912 128.741C257.058 128.728 257.2 128.685 257.331 128.615C257.427 128.56 257.514 128.49 257.588 128.406C257.763 128.208 257.869 127.955 257.89 127.687C257.935 127.183 257.564 126.739 257.117 126.607C256.854 126.53 256.571 126.562 256.331 126.698C256.122 126.827 256.052 127.107 256.173 127.326C256.299 127.541 256.564 127.614 256.775 127.491L256.775 127.491Z" fill="#373947"/>
<path d="M243.962 156.603C250.591 159.876 237.966 165.4 243.084 172.408L244.733 172.218C238.283 166.731 252.748 159.627 244.471 156.085L243.962 156.603Z" fill="#97CC64"/>
<path d="M244.37 154.705C242.268 143.868 251.322 143.241 245.631 154.332L244.37 154.705Z" fill="#F08059"/>
<path d="M244.899 155.765C247.001 166.602 237.947 167.23 243.638 156.138L244.899 155.765Z" fill="#F08059"/>
<path d="M245.201 154.713C255.626 148.197 252.96 159.402 245.085 156.171L245.201 154.713Z" fill="#F08059"/>
<path d="M244.067 155.758C233.643 162.273 236.309 151.068 244.183 154.299L244.067 155.758Z" fill="#F08059"/>
<path d="M244.848 154.491C250.733 142.221 255.25 149.7 245.658 155.259L244.848 154.491Z" fill="#F08059"/>
<path d="M244.42 155.979C238.535 168.249 234.019 160.77 243.611 155.211L244.42 155.979Z" fill="#F08059"/>
<path d="M245.222 155.24C254.08 158.296 245.793 166.663 244.249 156.536L245.222 155.24Z" fill="#F08059"/>
<path d="M244.046 155.23C235.189 152.174 243.476 143.807 245.02 153.935L244.046 155.23Z" fill="#F08059"/>
<ellipse rx="3.81689" ry="2.58619" transform="matrix(0.547908 -0.836539 0.814086 0.580744 244.695 155.228)" fill="#F0F3FC"/>
<path d="M244.562 166.658C248.174 169.205 250.759 163.259 250.759 163.259C250.759 163.259 245.362 161.898 244.562 166.658Z" fill="#97CC64"/>
<path d="M252.313 181.494C252.938 187.574 258.492 185.664 258.492 185.664" stroke="#3152BA" stroke-width="0.912119" stroke-linecap="round" stroke-linejoin="round"/>
<ellipse cx="233.668" cy="219.933" rx="3.57992" ry="1.62356" fill="#FF9763"/>
<path d="M264.954 165.642C265.694 165.932 266.474 166.094 267.264 166.123C267.506 166.121 267.702 165.917 267.704 165.664C267.699 165.412 267.505 165.21 267.264 165.204C267.073 165.197 266.884 165.179 266.694 165.158C266.596 165.147 266.755 165.169 266.649 165.152C266.608 165.146 266.568 165.14 266.528 165.133C266.433 165.117 266.34 165.099 266.246 165.079C265.886 165.001 265.532 164.893 265.188 164.756C264.973 164.671 264.696 164.851 264.647 165.077C264.589 165.321 264.724 165.569 264.954 165.642V165.642Z" fill="#D6DCF2"/>
<path d="M223.061 157.588L223.706 160.33C223.772 160.573 224.013 160.715 224.247 160.65C224.478 160.579 224.614 160.329 224.555 160.085L223.91 157.344C223.843 157.101 223.602 156.958 223.368 157.023C223.137 157.095 223.001 157.344 223.061 157.588Z" fill="#D6DCF2"/>
</g>
<rect x="183.556" y="256.215" width="105.044" height="20.1106" transform="rotate(-180 183.556 256.215)" fill="#BB393C"/>
<mask id="mask20_246_42838" style="mask-type:alpha" maskUnits="userSpaceOnUse" x="78" y="236" width="106" height="21">
<rect x="183.556" y="256.215" width="105.044" height="20.1106" transform="rotate(-180 183.556 256.215)" fill="white"/>
</mask>
<g mask="url(#mask20_246_42838)">
<rect x="170.396" y="258.913" width="13.3949" height="26.2418" transform="rotate(-180 170.396 258.913)" fill="#90282A"/>
<rect x="153.558" y="258.913" width="2.50665" height="26.2418" transform="rotate(-180 153.558 258.913)" fill="#90282A"/>
<path d="M77.3656 251.91C73.919 255.016 144.888 255.016 143.322 256.324C141.755 257.632 80.1856 261.229 80.1856 261.229L74.5457 252.727" fill="#90282A"/>
<path d="M116.231 238.019C110.622 237.8 148.184 251.548 149.241 251.794C150.299 252.039 147.603 243.047 147.603 243.047L140.083 240.84" fill="#90282A"/>
</g>
<path d="M101.387 235.599L155.593 248.516C155.593 248.516 156.689 236.907 159.039 235.599H101.387Z" fill="#EFF3FC"/>
<path d="M172.87 210.503H93.6926C96.776 216.983 93.6926 235.599 93.6926 235.599H172.87C172.87 235.599 169.787 216.983 172.87 210.503Z" fill="#EFF3FC"/>
<mask id="mask21_246_42838" style="mask-type:alpha" maskUnits="userSpaceOnUse" x="93" y="210" width="80" height="26">
<path fill-rule="evenodd" clip-rule="evenodd" d="M172.87 210.503H93.6926C96.776 216.983 93.6926 235.599 93.6926 235.599H172.87C172.87 235.599 169.787 216.983 172.87 210.503Z" fill="white"/>
</mask>
<g mask="url(#mask21_246_42838)">
<path d="M92.5981 220.217L94.1966 220.282L121.58 221.395L90.999 223.051" fill="#D6DCF2"/>
<path d="M185.18 227.41L183.581 227.345L156.198 226.232L186.778 224.576" fill="#D6DCF2"/>
<path d="M185.979 215.421L184.38 215.356L98.3726 214.211L187.578 212.587" fill="#D6DCF2"/>
</g>
<rect x="90.6082" y="205.79" width="85.3464" height="4.71294" fill="#75AA3C"/>
<mask id="mask22_246_42838" style="mask-type:alpha" maskUnits="userSpaceOnUse" x="90" y="205" width="86" height="6">
<rect x="90.6082" y="205.79" width="85.3464" height="4.71294" fill="white"/>
</mask>
<g mask="url(#mask22_246_42838)">
<path d="M85.6101 208.146L189.573 210.503L90.6081 217.463" fill="#97CC64"/>
</g>
<rect x="90.6082" y="231.415" width="85.3464" height="4.71294" fill="#75AA3C"/>
<mask id="mask23_246_42838" style="mask-type:alpha" maskUnits="userSpaceOnUse" x="90" y="231" width="86" height="6">
<rect x="90.6082" y="231.415" width="85.3464" height="4.71294" fill="white"/>
</mask>
<g mask="url(#mask23_246_42838)">
<path d="M87.326 235.599C93.6927 235.599 163.779 234.353 164.249 236.128C164.719 237.903 95.0026 240.519 95.0026 240.519L80.8621 235.599" fill="#75AA3C"/>
</g>
<path d="M142.54 225.175L148.394 223.908C148.615 223.843 148.745 223.605 148.685 223.374C148.62 223.146 148.394 223.012 148.173 223.07L142.319 224.337C142.098 224.402 141.968 224.64 142.028 224.871C142.094 225.099 142.319 225.233 142.54 225.175Z" fill="#D6DCF2"/>
<path d="M100.983 247.945H106.455C106.685 247.945 106.872 247.751 106.872 247.511C106.872 247.271 106.685 247.076 106.455 247.076H100.983C100.753 247.076 100.567 247.271 100.567 247.511C100.567 247.751 100.753 247.945 100.983 247.945Z" fill="#90282A"/>
<path d="M124.472 41.1256H78.4974C75.0391 41.1362 72.2381 44.0594 72.228 47.6685V78.2016C72.2381 81.8108 75.0391 84.7339 78.4974 84.7445H91.7871L100.262 93.0835C100.949 93.7588 102.02 93.7586 102.706 93.0831L111.176 84.7445H124.472C127.93 84.7339 130.731 81.8108 130.742 78.2016V47.6685C130.736 44.0574 127.932 41.1314 124.472 41.1256H124.472Z" fill="#9A7ED9"/>
<mask id="mask24_246_42838" style="mask-type:alpha" maskUnits="userSpaceOnUse" x="72" y="41" width="59" height="53">
<path fill-rule="evenodd" clip-rule="evenodd" d="M124.472 41.1256H78.4974C75.0391 41.1362 72.2381 44.0594 72.228 47.6685V78.2016C72.2381 81.8108 75.0391 84.7339 78.4974 84.7445H91.7871L100.262 93.0835C100.949 93.7588 102.02 93.7586 102.706 93.0831L111.176 84.7445H124.472C127.93 84.7339 130.731 81.8108 130.742 78.2016V47.6685C130.736 44.0574 127.932 41.1314 124.472 41.1256H124.472Z" fill="white"/>
</mask>
<g mask="url(#mask24_246_42838)">
<path d="M132.444 69.2859C131.588 84.2189 111.176 84.7445 111.176 84.7445L123.231 94.4959L137.76 79.8057" fill="#6F4EB9"/>
<path d="M69.5073 60.9843C68.4369 43.1114 90.658 41.1256 90.658 41.1256L65.4399 37.9012" fill="#6F4EB9"/>
</g>
<path d="M113.434 54.876C110.188 51.488 105.064 51.199 101.485 53.9887C97.9454 51.2299 92.8945 51.482 89.6434 54.7646C85.9641 58.4798 86.08 64.784 89.7001 68.562L99.2438 78.5222C100.484 79.8085 102.486 79.8085 103.726 78.5222L113.435 68.3898C116.995 64.6735 116.995 58.5922 113.435 54.876H113.434Z" fill="#EFF3FC"/>
<path d="M121.788 51.3273C122.64 52.4138 123.219 53.7057 123.47 55.0853C123.505 55.2113 123.63 55.2852 123.751 55.2516C123.871 55.2144 123.941 55.0852 123.91 54.9588C123.637 53.4999 123.018 52.1357 122.11 50.9906C122.021 50.8986 121.877 50.8986 121.788 50.9906C121.701 51.0848 121.701 51.2332 121.788 51.3273Z" fill="#6F4EB9"/>
<path d="M99.4722 68.579C99.5325 69.0932 99.7501 69.5734 100.093 69.9482C100.182 70.0408 100.326 70.0406 100.415 69.9478C100.504 69.855 100.504 69.7045 100.415 69.6115C100.38 69.5738 100.347 69.535 100.315 69.4947C100.307 69.4846 100.299 69.4744 100.291 69.4643C100.253 69.4155 100.306 69.4878 100.286 69.4581C100.272 69.4367 100.256 69.4159 100.242 69.3943C100.183 69.3054 100.131 69.2119 100.085 69.1147C100.074 69.0911 100.064 69.0673 100.054 69.0434C100.044 69.0206 100.047 69.0266 100.055 69.0461C100.05 69.0339 100.045 69.0218 100.041 69.0096C100.022 68.9607 100.006 68.9112 99.9913 68.8611C99.9758 68.8078 99.9622 68.754 99.9508 68.6996C99.9454 68.674 99.9404 68.6483 99.936 68.6226C99.9332 68.6067 99.9212 68.522 99.9283 68.579C99.9261 68.5164 99.9024 68.4567 99.8615 68.4107C99.8185 68.3664 99.7606 68.3414 99.7002 68.3409C99.59 68.3461 99.4554 68.4467 99.4721 68.579L99.4722 68.579Z" fill="#D6DCF2"/>
<path d="M299.378 175.083C299.378 175.083 301.592 171.691 301.926 171.524C302.26 171.358 304.785 169.457 305.015 169.419C305.245 169.381 304.625 168.624 303.129 169.722C303.129 169.722 303.783 167.556 304.629 166.791C305.474 166.027 303.272 165.285 300.698 168.974C299.56 170.586 298.235 172.044 296.754 173.317L299.378 175.083Z" fill="#FF9763"/>
<mask id="mask25_246_42838" style="mask-type:alpha" maskUnits="userSpaceOnUse" x="296" y="166" width="10" height="10">
<path fill-rule="evenodd" clip-rule="evenodd" d="M299.378 175.083C299.378 175.083 301.592 171.691 301.926 171.524C302.26 171.358 304.785 169.457 305.015 169.419C305.245 169.381 304.625 168.624 303.129 169.722C303.129 169.722 303.783 167.556 304.629 166.791C305.474 166.027 303.272 165.285 300.698 168.974C299.56 170.586 298.235 172.044 296.754 173.317L299.378 175.083Z" fill="white"/>
</mask>
<g mask="url(#mask25_246_42838)">
<path d="M299.141 170.625C299.511 170.002 301.757 172.709 301.953 173.323C302.073 173.666 301.957 174.049 301.67 174.256L299.816 173.392" fill="#E84B23"/>
</g>
<path d="M302.188 155.939L296.982 165.713L332.256 188.04C333.676 188.938 335.41 188.571 336.129 187.221L338.73 182.339C339.449 180.988 338.882 179.164 337.462 178.266L302.188 155.939Z" fill="#FFC562"/>
<mask id="mask26_246_42838" style="mask-type:alpha" maskUnits="userSpaceOnUse" x="296" y="155" width="44" height="34">
<path fill-rule="evenodd" clip-rule="evenodd" d="M302.188 155.939L296.982 165.713L332.256 188.04C333.676 188.938 335.41 188.571 336.129 187.221L338.73 182.339C339.449 180.988 338.882 179.164 337.462 178.266L302.188 155.939Z" fill="white"/>
</mask>
<g mask="url(#mask26_246_42838)">
<path d="M297.474 161.689L296.667 163.204L330.109 184.372L330.916 182.857L297.474 161.689Z" fill="#D89D35"/>
<path d="M298.926 158.964L298.119 160.48L331.561 181.647L332.368 180.132L298.926 158.964Z" fill="#D89D35"/>
<path d="M300.318 156.35L299.511 157.865L332.953 179.033L333.76 177.518L300.318 156.35Z" fill="#D89D35"/>
<path d="M336.28 175.356L329.318 188.427L334.714 191.843L341.676 178.772L336.28 175.356Z" fill="#935738"/>
<path d="M335.793 176.749L329.453 188.653L328.239 187.884L334.579 175.98L335.793 176.749Z" fill="#F0F3FC"/>
</g>
<path d="M292.423 156.293C292.236 156.624 292.226 157.033 292.395 157.374L296.982 165.713L302.188 155.939L293.271 155.731C292.94 155.723 292.61 155.941 292.423 156.293Z" fill="#FFCCCC"/>
<mask id="mask27_246_42838" style="mask-type:alpha" maskUnits="userSpaceOnUse" x="292" y="155" width="11" height="11">
<path fill-rule="evenodd" clip-rule="evenodd" d="M292.423 156.293C292.236 156.624 292.226 157.033 292.395 157.374L296.982 165.713L302.188 155.939L293.271 155.731C292.94 155.723 292.61 155.941 292.423 156.293Z" fill="white"/>
</mask>
<g mask="url(#mask27_246_42838)">
<path d="M302.217 153.297L294.907 167.021L296.968 168.326L304.278 154.601L302.217 153.297Z" fill="#FF999A"/>
<ellipse rx="4.89649" ry="4.30334" transform="matrix(0.303266 -0.952906 0.944847 0.327513 290.719 156.032)" fill="#3A3531"/>
</g>
<path d="M296.12 159.631L296.632 159.467C296.683 159.453 296.723 159.41 296.737 159.356C296.75 159.302 296.735 159.244 296.697 159.205C296.659 159.166 296.603 159.151 296.552 159.166L296.04 159.329C295.988 159.344 295.948 159.386 295.935 159.44C295.921 159.495 295.936 159.552 295.975 159.591C296.013 159.631 296.068 159.646 296.12 159.631Z" fill="#FF999A"/>
<path d="M310.377 241.375L311.361 248.025L309.507 251.675L308.962 249.869L307.383 242.444L310.377 241.375Z" fill="#FF9763"/>
<mask id="mask28_246_42838" style="mask-type:alpha" maskUnits="userSpaceOnUse" x="307" y="241" width="5" height="11">
<path fill-rule="evenodd" clip-rule="evenodd" d="M310.377 241.375L311.361 248.025L309.507 251.675L308.962 249.869L307.383 242.444L310.377 241.375Z" fill="white"/>
</mask>
<g mask="url(#mask28_246_42838)">
<path d="M307.653 245.023C306.712 246.958 311.606 245.679 311.606 245.679L311.165 243.986L307.8 244.608" fill="#E84B23"/>
</g>
<path d="M308.729 249.125C308.729 249.125 310.897 249.768 311.101 246.268L311.957 247.737C312.372 248.449 312.422 249.329 312.09 250.087L308.683 257.874C307.901 257.554 307.479 256.627 307.722 255.755C308.138 254.265 309.266 251.133 308.729 249.125Z" fill="#3A3530"/>
<path d="M316.642 225.679L322.715 226.836L325.254 229.942H323.401L316.646 228.833L316.642 225.679Z" fill="#FF9763"/>
<mask id="mask29_246_42838" style="mask-type:alpha" maskUnits="userSpaceOnUse" x="316" y="225" width="10" height="5">
<path fill-rule="evenodd" clip-rule="evenodd" d="M316.642 225.679L322.715 226.836L325.254 229.942H323.401L316.646 228.833L316.642 225.679Z" fill="white"/>
</mask>
<g mask="url(#mask29_246_42838)">
<path d="M318.863 226.259C321.039 225.533 320.07 228.834 320.835 229.767C321.599 230.7 318.149 230.25 318.149 230.25L318.302 226.691" fill="#E84B23"/>
</g>
<path d="M322.792 229.912C322.792 229.912 323.901 227.772 320.945 226.418L323.236 225.944C323.629 225.863 324.034 225.996 324.312 226.296L330.338 232.818C329.823 233.518 328.861 233.651 328.188 233.116C327.039 232.201 324.706 230.013 322.792 229.912Z" fill="#3A3530"/>
<path d="M306.553 245.725C308.271 246.625 313.125 244.06 313.125 244.06L307.996 226.751L308.315 201.19L300.217 202.127L300.763 225.875C300.777 226.208 300.832 226.537 300.927 226.856L306.553 245.725Z" fill="#97CC64"/>
<mask id="mask30_246_42838" style="mask-type:alpha" maskUnits="userSpaceOnUse" x="300" y="201" width="14" height="45">
<path fill-rule="evenodd" clip-rule="evenodd" d="M306.553 245.725C308.271 246.625 313.125 244.06 313.125 244.06L307.996 226.751L308.315 201.19L300.217 202.127L300.763 225.875C300.777 226.208 300.832 226.537 300.927 226.856L306.553 245.725Z" fill="white"/>
</mask>
<g mask="url(#mask30_246_42838)">
<path d="M311.361 248.025L304.52 223.553" stroke="#2F7F48" stroke-width="0.65" stroke-linecap="round" stroke-linejoin="round"/>
<path d="M312.547 248.025L305.705 223.553" stroke="#2F7F48" stroke-width="0.65" stroke-linecap="round" stroke-linejoin="round"/>
<path d="M307.329 209.565C303.389 221.573 299.173 222.455 297.967 225.074C296.762 227.692 294.369 230.157 310.861 232.782C327.352 235.408 315.116 219.535 315.116 219.535" fill="#75AA3C"/>
</g>
<path d="M304.133 203.001L308.315 201.19C310.697 202.024 312.508 207.225 312.193 209.815L309.436 224.027L319.759 224.727C319.759 224.727 320.068 230.231 319.45 231.131L305.067 230.438C304.158 230.405 303.303 229.982 302.704 229.27C302.104 228.557 301.814 227.617 301.9 226.673L303.275 212.102" fill="#97CC64"/>
<mask id="mask31_246_42838" style="mask-type:alpha" maskUnits="userSpaceOnUse" x="301" y="201" width="19" height="31">
<path fill-rule="evenodd" clip-rule="evenodd" d="M304.133 203.001L308.315 201.19C310.697 202.024 312.508 207.225 312.193 209.815L309.436 224.027L319.759 224.727C319.759 224.727 320.068 230.231 319.45 231.131L305.067 230.438C304.158 230.405 303.303 229.982 302.704 229.27C302.104 228.557 301.814 227.617 301.9 226.673L303.275 212.102" fill="white"/>
</mask>
<g mask="url(#mask31_246_42838)">
<path d="M301.884 205.868C320.239 200.891 305.739 223.715 310.043 224.303C314.347 224.89 315.141 200.204 315.141 200.204L313.125 198.647H300.217" fill="#75AA3C"/>
<path d="M321.03 226.949L307.824 226.282C307.467 226.264 307.135 226.083 306.918 225.787C306.701 225.49 306.62 225.109 306.696 224.745L309.768 210.098C310.009 209.015 309.948 207.883 309.591 206.835L307.924 201.933" stroke="#2F7F48" stroke-width="0.65" stroke-linecap="round" stroke-linejoin="round"/>
<path d="M322.27 226.029L308.497 225.334C308.281 225.323 308.081 225.213 307.95 225.034C307.818 224.855 307.769 224.624 307.815 224.404L311.008 209.179C311.249 208.096 311.188 206.963 310.832 205.916L309.165 201.013" stroke="#2F7F48" stroke-width="0.65" stroke-linecap="round" stroke-linejoin="round"/>
</g>
<path d="M326.229 186.111C326.229 186.111 327.575 184.515 327.692 184.214C327.81 183.912 329.257 181.571 329.272 181.37C329.286 181.169 329.995 181.634 329.162 183.018C329.162 183.018 330.993 182.26 331.589 181.465C332.185 180.67 333.069 182.99 330.07 185.534C327.955 187.328 325.688 190.299 325.688 190.299L326.229 186.111Z" fill="#FF9763"/>
<mask id="mask32_246_42838" style="mask-type:alpha" maskUnits="userSpaceOnUse" x="325" y="181" width="8" height="10">
<path fill-rule="evenodd" clip-rule="evenodd" d="M326.229 186.111C326.229 186.111 327.575 184.515 327.692 184.214C327.81 183.912 329.257 181.571 329.272 181.37C329.286 181.169 329.995 181.634 329.162 183.018C329.162 183.018 330.993 182.26 331.589 181.465C332.185 180.67 333.069 182.99 330.07 185.534C327.955 187.328 325.688 190.299 325.688 190.299L326.229 186.111Z" fill="white"/>
</mask>
<g mask="url(#mask32_246_42838)">
<path d="M326.229 184.699C327.932 187.086 328.833 187.02 328.833 187.02L327.918 188.258L325.738 188.817L324.909 185.484" fill="#E84B23"/>
</g>
<path d="M299.17 170.089C299.904 170.089 301.507 173.975 301.507 173.975L297.944 180.032L303.66 186.872L300.251 193.654L292.749 181.406C292.085 180.465 292.121 179.172 292.836 178.271L299.17 170.089Z" fill="#F0F3FC"/>
<mask id="mask33_246_42838" style="mask-type:alpha" maskUnits="userSpaceOnUse" x="292" y="170" width="12" height="24">
<path fill-rule="evenodd" clip-rule="evenodd" d="M299.17 170.089C299.904 170.089 301.507 173.975 301.507 173.975L297.944 180.032L303.66 186.872L300.251 193.654L292.749 181.406C292.085 180.465 292.121 179.172 292.836 178.271L299.17 170.089Z" fill="white"/>
</mask>
<g mask="url(#mask33_246_42838)">
<path d="M291.51 182.608C303.283 194.619 301.884 189.255 301.884 189.255L302.677 195.65H296.754L293.516 188.258" fill="#D6DCF2"/>
<ellipse cx="291.44" cy="179.611" rx="2.04542" ry="2.99638" fill="#D6DCF2"/>
<path d="M296.49 171.516C298.869 169.255 300.526 176.792 300.526 176.792L296.49 171.516Z" fill="#F0F3FC"/>
</g>
<path d="M304.388 199.278C310.42 204.937 296.175 208.041 299.23 212.985" stroke="#190000" stroke-width="0.65" stroke-linecap="round" stroke-linejoin="round"/>
<rect width="0.483317" height="1.09479" rx="0.241658" transform="matrix(0.761126 -0.648605 0.616208 0.787584 298.933 212.991)" fill="#F0F3FC"/>
<path d="M304.502 196.871C311.41 201.309 297.929 207.029 301.784 211.322" stroke="#190000" stroke-width="0.65" stroke-linecap="round" stroke-linejoin="round"/>
<rect width="0.487034" height="1.08645" rx="0.243517" transform="matrix(0.632429 -0.774619 0.747281 0.664509 301.493 211.382)" fill="#F0F3FC"/>
<path d="M299.682 189.988C299.682 189.988 296.511 203.197 298.854 205.441C301.457 207.933 310.852 203.212 310.852 203.212C310.852 203.212 309.023 195.467 312.037 192.31L312.664 189.706C312.538 188.888 311.94 188.238 311.163 188.073L302.93 186.327" fill="#F0F3FC"/>
<mask id="mask34_246_42838" style="mask-type:alpha" maskUnits="userSpaceOnUse" x="297" y="186" width="16" height="21">
<path fill-rule="evenodd" clip-rule="evenodd" d="M299.682 189.988C299.682 189.988 296.511 203.197 298.854 205.441C301.457 207.933 310.852 203.212 310.852 203.212C310.852 203.212 309.023 195.467 312.037 192.31L312.664 189.706C312.538 188.888 311.94 188.238 311.163 188.073L302.93 186.327" fill="white"/>
</mask>
<g mask="url(#mask34_246_42838)">
<path d="M307.925 194.07C313.841 201.084 302.76 207.578 298.4 201.19C294.039 194.801 295.348 206.45 295.348 206.45L304.504 207.634L312.664 204.539L313.098 200.08L312.178 193.654" fill="#D6DCF2"/>
<path d="M303.734 185.927C300.436 189.801 302.811 191.857 309.742 186.769C316.672 181.681 303.734 185.927 303.734 185.927Z" fill="#FF9763"/>
</g>
<path d="M311.447 188.158L319.02 189.258L326.304 185.534C326.304 185.534 326.872 185.534 328.269 189.518L321.44 194.047C320.732 194.589 319.849 194.823 318.979 194.699L307.328 194.036" fill="#F0F3FC"/>
<mask id="mask35_246_42838" style="mask-type:alpha" maskUnits="userSpaceOnUse" x="307" y="185" width="22" height="10">
<path fill-rule="evenodd" clip-rule="evenodd" d="M311.447 188.158L319.02 189.258L326.304 185.534C326.304 185.534 326.872 185.534 328.269 189.518L321.44 194.047C320.732 194.589 319.849 194.823 318.979 194.699L307.328 194.036" fill="white"/>
</mask>
<g mask="url(#mask35_246_42838)">
<ellipse cx="320.449" cy="194.951" rx="3.02715" ry="1.29646" fill="#D6DCF2"/>
<path d="M323.872 185.534C324.828 185.062 326.676 187.357 326.676 191.181L323.872 185.534Z" fill="#F0F3FC"/>
</g>
<path d="M307.637 187.539L307.925 183.107L304.569 182.709L303.59 187.356" fill="#FF9763"/>
<mask id="mask36_246_42838" style="mask-type:alpha" maskUnits="userSpaceOnUse" x="303" y="182" width="5" height="6">
<path fill-rule="evenodd" clip-rule="evenodd" d="M307.637 187.539L307.925 183.107L304.569 182.709L303.59 187.356" fill="white"/>
</mask>
<g mask="url(#mask36_246_42838)">
<path d="M307.336 183.185C304.871 182.941 304.956 186.138 303.681 186.673C302.406 187.209 304.367 182.609 304.367 182.609L306.348 183.128" fill="#E84B23"/>
</g>
<path d="M306.678 182.137C301.98 177.99 306.21 174.037 307.196 176.231C308.181 178.426 308.962 179.296 308.962 179.296L306.678 182.137Z" fill="#3A3530"/>
<path d="M305.94 184.053C299.2 184.608 304.708 177.584 306.476 177.644C308.303 177.705 308.648 183.408 308.648 183.408" fill="#FF9763"/>
<path d="M307.938 185.534C307.938 185.534 307.167 181.504 307.518 180.913C307.518 180.913 305.2 178.77 307.196 176.231C312.354 177.47 314.575 180.054 312.059 184.628C311.799 184.552 311.578 184.37 311.447 184.123C310.58 185.739 309.003 184.599 307.938 185.534Z" fill="#3A3530"/>
<path d="M307.182 181.385C310.279 181.127 309.961 184.27 307.207 183.797L307.182 181.385Z" fill="#FF9763"/>
<path d="M303.274 192.109L300.101 195.591L304.577 196.718L303.274 192.109Z" fill="#274B69"/>
<ellipse cx="301.364" cy="192.764" rx="1.70283" ry="1.77713" fill="#935738"/>
<rect width="2.48803" height="2.57447" transform="matrix(0.944448 0.32866 -0.304346 0.952561 304.11 192.027)" fill="#FE7578"/>
<path d="M304.734 179.929C304.604 179.829 304.577 179.637 304.674 179.502L304.969 179.087C305.065 178.951 305.249 178.923 305.379 179.024C305.509 179.125 305.536 179.316 305.439 179.452L305.144 179.866C305.098 179.931 305.028 179.975 304.952 179.986C304.875 179.998 304.796 179.978 304.734 179.929Z" fill="#190000"/>
<path d="M305.754 178.041C306.488 178.559 306.427 178.989 305.948 178.696C305.469 178.403 305.274 177.702 305.754 178.041Z" fill="#190000"/>
<path d="M304.405 179.009C303.128 178.916 302.77 180.116 303.532 180.355L304.405 179.009Z" fill="#FF9763"/>
<ellipse cx="306.055" cy="181.682" rx="0.983956" ry="1.02689" fill="#E84B23"/>
<path d="M304.554 181.288C304.245 181.458 303.866 181.41 303.605 181.167" stroke="#993443" stroke-width="0.65" stroke-linecap="round" stroke-linejoin="round"/>
<path d="M308.185 182.515C308.197 182.507 308.211 182.499 308.224 182.493L308.183 182.512C308.205 182.503 308.227 182.497 308.25 182.494L308.204 182.5C308.229 182.497 308.255 182.497 308.28 182.501L308.234 182.494C308.261 182.498 308.288 182.506 308.314 182.517L308.273 182.499C308.298 182.51 308.322 182.524 308.344 182.542L308.309 182.514C308.327 182.529 308.343 182.546 308.357 182.565L308.331 182.529C308.343 182.546 308.354 182.565 308.362 182.585L308.345 182.543C308.353 182.564 308.359 182.586 308.362 182.608L308.356 182.561C308.358 182.586 308.358 182.611 308.355 182.636L308.361 182.588C308.357 182.615 308.35 182.642 308.34 182.667L308.357 182.624C308.347 182.65 308.333 182.674 308.317 182.696L308.344 182.659C308.328 182.681 308.31 182.701 308.289 182.718L308.324 182.69C308.306 182.704 308.287 182.715 308.268 182.725L308.309 182.707C308.291 182.715 308.272 182.72 308.252 182.724C308.209 182.737 308.172 182.766 308.149 182.807C308.126 182.848 308.12 182.897 308.132 182.943C308.143 182.989 308.172 183.028 308.211 183.052C308.252 183.074 308.299 183.081 308.343 183.07C308.551 183.017 308.698 182.824 308.701 182.602C308.699 182.384 308.552 182.196 308.347 182.152C308.233 182.124 308.113 182.143 308.011 182.205C307.929 182.255 307.902 182.365 307.95 182.45C307.998 182.536 308.103 182.565 308.185 182.515V182.515Z" fill="#190000"/>
<path d="M309.007 178.455C309.025 179 309.244 179.516 309.618 179.896C309.685 179.966 309.793 179.966 309.86 179.896C309.927 179.826 309.927 179.713 309.861 179.643C309.55 179.33 309.368 178.905 309.35 178.455C309.351 178.391 309.318 178.331 309.265 178.299C309.212 178.266 309.146 178.266 309.092 178.299C309.039 178.331 309.006 178.391 309.007 178.455Z" fill="#190000"/>
<path d="M318.861 189.294C319.01 189.889 318.956 190.52 318.708 191.078C318.663 191.164 318.69 191.271 318.77 191.323C318.852 191.372 318.957 191.343 319.005 191.259C319.296 190.616 319.363 189.887 319.193 189.199C319.137 188.976 318.806 189.07 318.861 189.294Z" fill="#D6DCF2"/>
<path d="M298.023 179.799C297.341 179.97 296.635 180.012 295.939 179.922C295.844 179.923 295.768 180.003 295.767 180.101C295.77 180.199 295.845 180.278 295.939 180.281C296.666 180.372 297.403 180.326 298.114 180.144C298.329 180.09 298.238 179.744 298.023 179.799Z" fill="#D6DCF2"/>
<path d="M300.276 199.231C300.408 199.654 300.744 199.972 301.159 200.068C301.251 200.095 301.346 200.038 301.371 199.943C301.396 199.847 301.342 199.749 301.251 199.722C301.207 199.713 301.165 199.701 301.123 199.686C301.112 199.682 301.102 199.678 301.092 199.674C301.083 199.671 301.057 199.668 301.082 199.67C301.095 199.676 301.095 199.676 301.082 199.67C301.077 199.668 301.072 199.665 301.067 199.663C301.059 199.659 301.05 199.655 301.042 199.65C301.003 199.629 300.965 199.606 300.928 199.58C300.919 199.573 300.91 199.567 300.901 199.56L300.892 199.553C300.88 199.544 300.88 199.544 300.892 199.553C300.903 199.562 300.903 199.562 300.892 199.553C300.887 199.549 300.883 199.546 300.879 199.542C300.871 199.534 300.862 199.527 300.854 199.519C300.822 199.49 300.792 199.458 300.764 199.425C300.757 199.416 300.75 199.407 300.743 199.399L300.736 199.39C300.725 199.375 300.727 199.378 300.742 199.399C300.729 199.382 300.718 199.365 300.707 199.347C300.684 199.31 300.663 199.272 300.644 199.232C300.639 199.222 300.635 199.211 300.63 199.201C300.616 199.169 300.643 199.237 300.63 199.201C300.622 199.179 300.615 199.158 300.608 199.136C300.591 199.074 300.545 199.026 300.485 199.01C300.426 198.994 300.363 199.012 300.32 199.058C300.277 199.103 300.26 199.17 300.276 199.231H300.276Z" fill="#D6DCF2"/>
<path d="M309.28 223.868L309.111 223.957C309.05 223.993 309.017 224.064 309.029 224.136C309.03 224.16 309.037 224.183 309.049 224.203L309.076 224.239C309.097 224.261 309.123 224.277 309.152 224.285L309.197 224.291C309.228 224.291 309.258 224.283 309.284 224.267L309.454 224.178C309.514 224.142 309.547 224.071 309.536 223.999C309.535 223.975 309.528 223.952 309.515 223.933L309.489 223.896C309.468 223.874 309.441 223.858 309.413 223.85L309.367 223.844C309.337 223.844 309.307 223.852 309.28 223.868Z" fill="#75AA3C"/>
<path d="M323.826 230.316C324.208 230.831 324.49 231.418 324.658 232.045C324.685 232.138 324.778 232.191 324.868 232.165C324.957 232.139 325.011 232.044 324.989 231.949C324.815 231.292 324.521 230.676 324.123 230.135C324.073 230.052 323.97 230.024 323.887 230.071C323.806 230.121 323.779 230.23 323.826 230.316Z" fill="#190000"/>
<path d="M323.47 230.174C323.458 230.246 323.442 230.318 323.422 230.389C323.411 230.424 323.4 230.459 323.388 230.493C323.382 230.511 323.376 230.528 323.37 230.545C323.366 230.553 323.363 230.562 323.36 230.57C323.368 230.551 323.369 230.547 323.364 230.559C323.307 230.691 323.237 230.817 323.155 230.933C323.107 231.019 323.135 231.129 323.216 231.179C323.299 231.226 323.402 231.197 323.451 231.114C323.629 230.865 323.749 230.576 323.801 230.269C323.824 230.174 323.771 230.077 323.681 230.049C323.59 230.024 323.496 230.079 323.47 230.174V230.174Z" fill="#190000"/>
<path d="M308.648 250.05C308.525 250.186 308.392 250.313 308.252 250.429C308.244 250.435 308.236 250.442 308.228 250.448C308.241 250.438 308.239 250.439 308.227 250.449C308.209 250.463 308.191 250.477 308.173 250.491C308.137 250.518 308.1 250.545 308.063 250.571C307.987 250.625 307.909 250.676 307.829 250.724C307.747 250.774 307.719 250.884 307.767 250.97C307.815 251.055 307.92 251.084 308.002 251.034C308.331 250.836 308.63 250.59 308.891 250.304C308.935 250.258 308.952 250.192 308.936 250.13C308.921 250.068 308.874 250.02 308.815 250.003C308.755 249.986 308.692 250.004 308.648 250.05H308.648Z" fill="#190000"/>
<path d="M308.463 249.806L307.617 249.998C307.526 250.025 307.472 250.123 307.497 250.219C307.524 250.313 307.617 250.368 307.708 250.344L308.555 250.151C308.646 250.124 308.699 250.026 308.675 249.931C308.648 249.837 308.555 249.782 308.463 249.806Z" fill="#190000"/>
<path d="M302.953 169.576L302.697 169.706C302.636 169.742 302.603 169.813 302.615 169.885C302.616 169.909 302.623 169.932 302.635 169.952C302.658 169.992 302.695 170.021 302.738 170.034L302.783 170.04C302.814 170.04 302.844 170.032 302.87 170.016L303.127 169.886C303.187 169.85 303.22 169.779 303.209 169.707C303.208 169.684 303.201 169.661 303.188 169.641C303.166 169.601 303.129 169.571 303.086 169.558L303.04 169.552C303.009 169.552 302.98 169.56 302.953 169.576Z" fill="#E84B23"/>
<path d="M329.073 183.085L328.988 183.262C328.975 183.282 328.968 183.305 328.967 183.329C328.959 183.4 328.991 183.469 329.049 183.507L329.09 183.525C329.12 183.534 329.152 183.534 329.182 183.525L329.223 183.507C329.248 183.492 329.27 183.469 329.284 183.443L329.369 183.266C329.382 183.246 329.389 183.223 329.39 183.199C329.398 183.128 329.366 183.058 329.308 183.02L329.267 183.002C329.237 182.994 329.205 182.994 329.175 183.002L329.134 183.02C329.109 183.036 329.088 183.058 329.073 183.085V183.085Z" fill="#E84B23"/>
<path d="M304.71 208.268C304.587 208.93 304.712 209.617 305.058 210.187C305.177 210.381 305.474 210.201 305.354 210.006C305.054 209.52 304.942 208.932 305.042 208.363C305.064 208.268 305.011 208.171 304.922 208.143C304.83 208.117 304.736 208.173 304.71 208.268V208.268Z" fill="#75AA3C"/>
<path d="M307.156 237.216C306.751 237.546 306.271 237.76 305.763 237.836C305.672 237.863 305.619 237.961 305.643 238.057C305.67 238.151 305.763 238.206 305.854 238.182C306.42 238.09 306.953 237.844 307.399 237.469C307.465 237.399 307.465 237.286 307.399 237.216C307.331 237.148 307.224 237.148 307.156 237.216Z" fill="#75AA3C"/>
<path d="M58.9506 182.423C58.9506 182.423 59.8932 180.054 61.931 178.229L65.6892 176.443L64.1031 172.45L58.6864 174.995L56.481 180.747L57.2771 183.595L58.9506 182.423Z" fill="#FF9763"/>
<mask id="mask37_246_42838" style="mask-type:alpha" maskUnits="userSpaceOnUse" x="56" y="172" width="10" height="12">
<path fill-rule="evenodd" clip-rule="evenodd" d="M58.9506 182.423C58.9506 182.423 59.8932 180.054 61.931 178.229L65.6892 176.443L64.1031 172.45L58.6864 174.995L56.481 180.747L57.2771 183.595L58.9506 182.423Z" fill="white"/>
</mask>
<g mask="url(#mask37_246_42838)">
<path d="M61.5371 173.5C60.2107 173.381 61.5371 177.774 61.2719 179.183C61.0066 180.592 64.4331 177.679 64.4331 177.679L61.9129 174.336" fill="#E84B23"/>
</g>
<path d="M57.2551 174.8L55.5376 187.993L55.5635 187.988C56.6223 187.79 57.5274 187.078 58.0005 186.07L60.2921 180.607C60.2921 180.607 58.7042 180.499 57.9597 182.325L59.6993 174.336L57.2551 174.8Z" fill="#3A3530"/>
<path d="M60.9683 173.575C60.9683 173.575 62.1215 178.355 63.9051 178.905L80.3099 168.189L91.8198 142.905L83.724 140.498L74.7414 163.24L60.9683 173.575Z" fill="#935738"/>
<mask id="mask38_246_42838" style="mask-type:alpha" maskUnits="userSpaceOnUse" x="60" y="140" width="32" height="39">
<path fill-rule="evenodd" clip-rule="evenodd" d="M60.9683 173.575C60.9683 173.575 62.1215 178.355 63.9051 178.905L80.3099 168.189L91.8198 142.905L83.724 140.498L74.7414 163.24L60.9683 173.575Z" fill="white"/>
</mask>
<g mask="url(#mask38_246_42838)">
<g opacity="0.16">
<rect width="2.21054" height="41.5919" transform="matrix(0.976768 -0.2143 0.197469 0.980309 57.6675 142.525)" stroke="#190000" stroke-width="0.65" stroke-linecap="round" stroke-linejoin="round"/>
<rect width="2.21054" height="41.5919" transform="matrix(0.976768 -0.2143 0.197469 0.980309 61.7854 141.622)" stroke="#190000" stroke-width="0.65" stroke-linecap="round" stroke-linejoin="round"/>
<rect width="2.21054" height="41.5919" transform="matrix(0.976768 -0.2143 0.197469 0.980309 65.9033 140.718)" stroke="#190000" stroke-width="0.65" stroke-linecap="round" stroke-linejoin="round"/>
<rect width="2.21054" height="41.5919" transform="matrix(0.976768 -0.2143 0.197469 0.980309 70.021 139.815)" stroke="#190000" stroke-width="0.65" stroke-linecap="round" stroke-linejoin="round"/>
<rect width="2.21054" height="41.5919" transform="matrix(0.976768 -0.2143 0.197469 0.980309 74.1389 138.911)" stroke="#190000" stroke-width="0.65" stroke-linecap="round" stroke-linejoin="round"/>
<rect width="2.21054" height="41.5919" transform="matrix(0.976768 -0.2143 0.197469 0.980309 78.2568 138.008)" stroke="#190000" stroke-width="0.65" stroke-linecap="round" stroke-linejoin="round"/>
<rect width="2.21054" height="41.5919" transform="matrix(0.976768 -0.2143 0.197469 0.980309 82.3748 137.104)" stroke="#190000" stroke-width="0.65" stroke-linecap="round" stroke-linejoin="round"/>
<rect width="2.21054" height="41.5919" transform="matrix(0.976768 -0.2143 0.197469 0.980309 86.4924 136.201)" stroke="#190000" stroke-width="0.65" stroke-linecap="round" stroke-linejoin="round"/>
</g>
<g opacity="0.16">
<rect width="2.29866" height="39.9976" transform="matrix(0.197469 0.980309 -0.976768 0.2143 92.5642 139.274)" stroke="#190000" stroke-width="2.05602" stroke-linecap="round" stroke-linejoin="round"/>
<rect width="2.29866" height="39.9976" transform="matrix(0.197469 0.980309 -0.976768 0.2143 93.4299 143.571)" stroke="#190000" stroke-width="2.05602" stroke-linecap="round" stroke-linejoin="round"/>
<rect width="2.29866" height="39.9976" transform="matrix(0.197469 0.980309 -0.976768 0.2143 94.2954 147.869)" stroke="#190000" stroke-width="2.05602" stroke-linecap="round" stroke-linejoin="round"/>
<rect width="2.29866" height="39.9976" transform="matrix(0.197469 0.980309 -0.976768 0.2143 95.1611 152.166)" stroke="#190000" stroke-width="2.05602" stroke-linecap="round" stroke-linejoin="round"/>
<rect width="2.29866" height="39.9976" transform="matrix(0.197469 0.980309 -0.976768 0.2143 96.0269 156.464)" stroke="#190000" stroke-width="2.05602" stroke-linecap="round" stroke-linejoin="round"/>
<rect width="2.29866" height="39.9976" transform="matrix(0.197469 0.980309 -0.976768 0.2143 96.8926 160.761)" stroke="#190000" stroke-width="2.05602" stroke-linecap="round" stroke-linejoin="round"/>
<rect width="2.29866" height="39.9976" transform="matrix(0.197469 0.980309 -0.976768 0.2143 97.7583 165.059)" stroke="#190000" stroke-width="2.05602" stroke-linecap="round" stroke-linejoin="round"/>
<rect width="2.29866" height="39.9976" transform="matrix(0.197469 0.980309 -0.976768 0.2143 98.624 169.356)" stroke="#190000" stroke-width="2.05602" stroke-linecap="round" stroke-linejoin="round"/>
</g>
<path d="M72.6946 160.804C78.7983 159.075 82.1255 148.168 84.7898 146.094C87.454 144.02 77.9497 148.714 77.9497 148.714L74.4027 152.233" fill="#6D3417"/>
</g>
<path d="M64.6432 134.388L63.015 135.802C63.015 135.802 62.9727 136.863 62.867 137.354C62.7613 137.845 60.9639 138.336 60.6044 138.611C60.2449 138.886 60.2872 137.982 60.6044 137.727C60.6044 137.727 60.0334 137.59 60.2026 137.216C60.2026 137.216 59.8854 136.796 60.0123 136.525C60.0123 136.525 59.6352 136.175 59.9823 135.822C60.3295 135.468 60.1603 135.704 60.1603 135.704L60.3506 135.206L63.2688 132.582L64.6432 134.388Z" fill="#FF9763"/>
<mask id="mask39_246_42838" style="mask-type:alpha" maskUnits="userSpaceOnUse" x="59" y="132" width="6" height="7">
<path fill-rule="evenodd" clip-rule="evenodd" d="M64.6432 134.388L63.015 135.802C63.015 135.802 62.9727 136.863 62.867 137.354C62.7613 137.845 60.9639 138.336 60.6044 138.611C60.2449 138.886 60.2872 137.982 60.6044 137.727C60.6044 137.727 60.0334 137.59 60.2026 137.216C60.2026 137.216 59.8854 136.796 60.0123 136.525C60.0123 136.525 59.6352 136.175 59.9823 135.822C60.3295 135.468 60.1603 135.704 60.1603 135.704L60.3506 135.206L63.2688 132.582L64.6432 134.388Z" fill="white"/>
</mask>
<g mask="url(#mask39_246_42838)">
<path d="M63.0085 132.582C60.399 133.08 63.995 136.084 63.454 138.508C62.913 140.933 64.886 133.294 64.886 133.294L63.2688 132.582" fill="#E84B23"/>
</g>
<path d="M46.7987 170.208C46.7987 170.208 47.9251 167.946 50.0992 166.337L53.9836 164.943L52.7202 160.804L47.1239 162.784L44.4719 168.286L45.0392 171.204L46.7987 170.208Z" fill="#FF9763"/>
<mask id="mask40_246_42838" style="mask-type:alpha" maskUnits="userSpaceOnUse" x="44" y="160" width="10" height="12">
<path fill-rule="evenodd" clip-rule="evenodd" d="M46.7987 170.208C46.7987 170.208 47.9251 167.946 50.0992 166.337L53.9836 164.943L52.7202 160.804L47.1239 162.784L44.4719 168.286L45.0392 171.204L46.7987 170.208Z" fill="white"/>
</mask>
<g mask="url(#mask40_246_42838)">
<path d="M50.9701 161.274C49.6216 160.892 49.6658 166.17 49.3563 167.674C49.0468 169.178 51.3459 166.599 51.3459 166.599L51.6112 162.946" fill="#E84B23"/>
</g>
<path d="M45.714 162.443L42.9585 175.406L42.9847 175.404C44.0511 175.318 45.0118 174.699 45.5638 173.743L48.2786 168.537C48.2786 168.537 46.7058 168.267 45.8197 170.009L48.185 162.231L45.714 162.443Z" fill="#3A3530"/>
<path d="M89.5939 141.814L80.7105 137.743L66.9134 153.016L50.3658 161.151C50.3658 161.151 49.3479 166.461 51.1319 168.679L69.5888 160.492L84.2027 146.847" fill="#935738"/>
<mask id="mask41_246_42838" style="mask-type:alpha" maskUnits="userSpaceOnUse" x="50" y="137" width="40" height="32">
<path fill-rule="evenodd" clip-rule="evenodd" d="M89.5939 141.814L80.7105 137.743L66.9134 153.016L50.3658 161.151C50.3658 161.151 49.3479 166.461 51.1319 168.679L69.5888 160.492L84.2027 146.847" fill="white"/>
</mask>
<g mask="url(#mask41_246_42838)">
<path d="M89.0199 143.216C81.9645 145.389 81.0917 136.257 71.5458 147.888C64.7084 156.219 76.6588 134.811 76.6588 134.811L80.9918 133.265L83.114 134.715" fill="#6D3417"/>
<g opacity="0.16">
<rect width="2.59292" height="48.5821" transform="matrix(0.949339 0.314255 -0.290792 0.956786 60.354 124.493)" stroke="#190000" stroke-width="0.65" stroke-linecap="round" stroke-linejoin="round"/>
<rect width="2.59292" height="48.5821" transform="matrix(0.949339 0.314255 -0.290792 0.956786 65.0483 126.047)" stroke="#190000" stroke-width="0.65" stroke-linecap="round" stroke-linejoin="round"/>
<rect width="2.59292" height="48.5821" transform="matrix(0.949339 0.314255 -0.290792 0.956786 69.7429 127.601)" stroke="#190000" stroke-width="0.65" stroke-linecap="round" stroke-linejoin="round"/>
<rect width="2.59292" height="48.5821" transform="matrix(0.949339 0.314255 -0.290792 0.956786 74.4375 129.155)" stroke="#190000" stroke-width="0.65" stroke-linecap="round" stroke-linejoin="round"/>
<rect width="2.59292" height="48.5821" transform="matrix(0.949339 0.314255 -0.290792 0.956786 79.1321 130.708)" stroke="#190000" stroke-width="0.65" stroke-linecap="round" stroke-linejoin="round"/>
<rect width="2.59292" height="48.5821" transform="matrix(0.949339 0.314255 -0.290792 0.956786 83.8264 132.263)" stroke="#190000" stroke-width="0.65" stroke-linecap="round" stroke-linejoin="round"/>
<rect width="2.59292" height="48.5821" transform="matrix(0.949339 0.314255 -0.290792 0.956786 88.521 133.817)" stroke="#190000" stroke-width="0.65" stroke-linecap="round" stroke-linejoin="round"/>
<rect width="2.59288" height="48.5816" transform="matrix(0.949352 0.314216 -0.290755 0.956797 93.2207 135.367)" stroke="#190000" stroke-width="0.65" stroke-linecap="round" stroke-linejoin="round"/>
</g>
<g opacity="0.16">
<rect width="2.68498" height="46.9163" transform="matrix(-0.290792 0.956786 -0.949339 -0.314255 97.707 142.15)" stroke="#190000" stroke-width="2.40643" stroke-linecap="round" stroke-linejoin="round"/>
<rect width="2.68498" height="46.9163" transform="matrix(-0.290792 0.956786 -0.949339 -0.314255 96.218 147.05)" stroke="#190000" stroke-width="2.40643" stroke-linecap="round" stroke-linejoin="round"/>
<rect width="2.68495" height="46.9157" transform="matrix(-0.290755 0.956797 -0.949352 -0.314216 94.7319 151.954)" stroke="#190000" stroke-width="2.4064" stroke-linecap="round" stroke-linejoin="round"/>
<rect width="2.68498" height="46.9163" transform="matrix(-0.290792 0.956786 -0.949339 -0.314255 93.24 156.849)" stroke="#190000" stroke-width="2.40643" stroke-linecap="round" stroke-linejoin="round"/>
<rect width="2.68498" height="46.9163" transform="matrix(-0.290792 0.956786 -0.949339 -0.314255 91.751 161.748)" stroke="#190000" stroke-width="2.40643" stroke-linecap="round" stroke-linejoin="round"/>
<rect width="2.68498" height="46.9163" transform="matrix(-0.290792 0.956786 -0.949339 -0.314255 90.262 166.647)" stroke="#190000" stroke-width="2.40643" stroke-linecap="round" stroke-linejoin="round"/>
<rect width="2.68495" height="46.9157" transform="matrix(-0.290755 0.956797 -0.949352 -0.314216 88.7756 171.552)" stroke="#190000" stroke-width="2.4064" stroke-linecap="round" stroke-linejoin="round"/>
<rect width="2.68495" height="46.9157" transform="matrix(-0.290755 0.956797 -0.949352 -0.314216 87.2866 176.452)" stroke="#190000" stroke-width="2.4064" stroke-linecap="round" stroke-linejoin="round"/>
</g>
</g>
<path d="M113.63 121.404L115.563 119.923C115.563 119.923 115.613 118.812 115.739 118.298C115.864 117.784 117.998 117.269 118.424 116.981C118.851 116.693 118.801 117.64 118.424 117.907C118.424 117.907 119.102 118.051 118.901 118.442C118.901 118.442 119.278 118.882 119.127 119.166C119.127 119.166 119.575 119.532 119.163 119.902C118.751 120.273 118.951 120.026 118.951 120.026L118.726 120.548L115.262 123.295L113.63 121.404Z" fill="#FF9763"/>
<mask id="mask42_246_42838" style="mask-type:alpha" maskUnits="userSpaceOnUse" x="113" y="116" width="7" height="8">
<path fill-rule="evenodd" clip-rule="evenodd" d="M113.63 121.404L115.563 119.923C115.563 119.923 115.613 118.812 115.739 118.298C115.864 117.784 117.998 117.269 118.424 116.981C118.851 116.693 118.801 117.64 118.424 117.907C118.424 117.907 119.102 118.051 118.901 118.442C118.901 118.442 119.278 118.882 119.127 119.166C119.127 119.166 119.575 119.532 119.163 119.902C118.751 120.273 118.951 120.026 118.951 120.026L118.726 120.548L115.262 123.295L113.63 121.404Z" fill="white"/>
</mask>
<g mask="url(#mask42_246_42838)">
<path d="M114.097 120.744C114.665 120.611 116.972 121.931 117.256 122.052C117.539 122.174 116.297 122.894 116.297 122.894L114.144 122.252" fill="#E84B23"/>
</g>
<path d="M114.389 120.547C114.389 120.547 116.452 123.606 116.484 123.885L110.194 129.106C108.966 130.008 107.577 130.643 106.109 130.972L92.8352 132.789L96.8721 125.396L106.859 125.617L114.389 120.547Z" fill="#97CC64"/>
<mask id="mask43_246_42838" style="mask-type:alpha" maskUnits="userSpaceOnUse" x="92" y="120" width="25" height="13">
<path fill-rule="evenodd" clip-rule="evenodd" d="M114.389 120.547C114.389 120.547 116.452 123.606 116.484 123.885L110.194 129.106C108.966 130.008 107.577 130.643 106.109 130.972L92.8352 132.789L96.8721 125.396L106.859 125.617L114.389 120.547Z" fill="white"/>
</mask>
<g mask="url(#mask43_246_42838)">
<path d="M96.5212 127.595C97.3171 132.987 104.131 131.167 107.048 130.714C109.965 130.262 98.5308 135.134 98.5308 135.134L92.4502 134.7L92.8353 132.789L95.4792 127.866" fill="#75AA3C"/>
<ellipse cx="108.432" cy="130.93" rx="2.38668" ry="1.68839" fill="#75AA3C"/>
</g>
<path d="M97.2269 125.46L88.5636 122.544C88.5636 122.544 84.0525 122.214 82.4327 122.227C80.813 122.24 81.7028 124.738 81.7028 124.738C81.7028 124.738 84.4591 133.061 79.8623 137.916C79.8623 137.916 85.2781 145.102 91.3171 144.229C92.0227 144.127 96.7997 134.848 97.4298 128.717" fill="#97CC64"/>
<mask id="mask44_246_42838" style="mask-type:alpha" maskUnits="userSpaceOnUse" x="79" y="122" width="19" height="23">
<path fill-rule="evenodd" clip-rule="evenodd" d="M97.2269 125.46L88.5636 122.544C88.5636 122.544 84.0525 122.214 82.4327 122.227C80.813 122.24 81.7028 124.738 81.7028 124.738C81.7028 124.738 84.4591 133.061 79.8623 137.916C79.8623 137.916 85.2781 145.102 91.3171 144.229C92.0227 144.127 96.7997 134.848 97.4298 128.717" fill="white"/>
</mask>
<g mask="url(#mask44_246_42838)">
<path d="M84.8731 128.819C82.5211 130.403 82.1105 136.759 84.5943 140.769C93.2265 154.705 76.6311 142.33 76.3261 141.508C76.3261 141.508 75.6322 135.105 75.7198 134.743C75.8074 134.381 79.4137 127.939 79.4137 127.939L82.396 127.722L84.873 128.819" fill="#75AA3C"/>
<path d="M92.6186 125.822C93.6587 141.043 82.6147 146.056 82.6147 146.056" stroke="#75AA3C" stroke-width="0.65" stroke-linecap="round" stroke-linejoin="round"/>
</g>
<path d="M90.5489 118.339L89.8542 120.299L89.002 122.491L92.7607 126.414L94.442 120.44L90.5489 118.339Z" fill="#FF9763"/>
<mask id="mask45_246_42838" style="mask-type:alpha" maskUnits="userSpaceOnUse" x="89" y="118" width="6" height="9">
<path fill-rule="evenodd" clip-rule="evenodd" d="M90.5489 118.339L89.8542 120.299L89.002 122.491L92.7607 126.414L94.442 120.44L90.5489 118.339Z" fill="white"/>
</mask>
<g mask="url(#mask45_246_42838)">
<path d="M93.1146 125.17C93.49 122.462 92.1248 121.607 92.1248 121.607C92.1248 121.607 95.1203 121.133 95.2424 121.133C95.3645 121.133 92.6318 128.652 93.1146 125.17Z" fill="#E84B23"/>
</g>
<path d="M92.1248 121.607C93.5315 122.033 96.463 122.581 96.3094 119.68C96.1077 115.87 94.081 113.766 94.081 113.766L89.2065 117.638L90.7995 119.66" fill="#FF9763"/>
<path d="M90.7993 119.66C92.7071 119.504 91.8962 115.827 91.8962 115.827C91.8962 115.827 95.9409 114.835 96.5128 112.986C97.1638 110.881 94.8302 109.141 90.5811 113.63C90.5811 113.63 89.7967 112.432 88.4795 114.652C87.3235 116.6 87.5598 119.63 90.0079 121.133L90.7993 119.66Z" fill="#3A3530"/>
<path d="M91.152 120.354C91.0617 120.342 90.9722 120.324 90.8838 120.301C89.9832 120.072 89.3732 119.372 89.5215 118.74C89.6697 118.107 90.5199 117.781 91.4205 118.011C91.8047 118.102 92.1581 118.3 92.4433 118.584" fill="#FF9763"/>
<path d="M82.1726 122.227L73.4273 125.407C72.7473 125.651 72.1005 125.985 71.5032 126.402C71.5032 126.402 62.6101 131.848 62.0975 132.972C61.5848 134.096 64.6434 136.257 64.6434 136.257L74.4678 130.812L85.7 128.81" fill="#97CC64"/>
<mask id="mask46_246_42838" style="mask-type:alpha" maskUnits="userSpaceOnUse" x="62" y="122" width="24" height="15">
<path fill-rule="evenodd" clip-rule="evenodd" d="M82.1726 122.227L73.4273 125.407C72.7473 125.651 72.1005 125.985 71.5032 126.402C71.5032 126.402 62.6101 131.848 62.0975 132.972C61.5848 134.096 64.6434 136.257 64.6434 136.257L74.4678 130.812L85.7 128.81" fill="white"/>
</mask>
<g mask="url(#mask46_246_42838)">
<ellipse rx="2.62039" ry="1.66942" transform="matrix(0.856532 -0.516095 0.484076 0.875026 72.5848 125.281)" fill="#75AA3C"/>
</g>
<rect width="0.587538" height="1.12226" rx="0.293769" transform="matrix(0.949949 -0.312405 0.289054 0.957313 94.4507 116.676)" fill="#190000"/>
<path d="M94.684 115.529C93.8293 115.767 93.7518 116.193 94.2954 116.081C94.839 115.968 95.2425 115.373 94.684 115.529Z" fill="#190000"/>
<path d="M95.6531 116.902C96.8876 117.252 96.8487 118.505 96.0552 118.471L95.6531 116.902Z" fill="#FF9763"/>
<ellipse cx="93.251" cy="118.339" rx="0.939701" ry="0.9807" fill="#E84B23"/>
<path d="M94.6353 118.826C95.0563 119.282 95.5049 119.034 95.5049 119.034" stroke="#993443" stroke-width="0.65" stroke-linecap="round" stroke-linejoin="round"/>
<path d="M91.1436 118.67C91.0813 118.594 90.9957 118.542 90.9012 118.524C90.7929 118.502 90.6807 118.517 90.5816 118.568C90.3977 118.674 90.3106 118.901 90.3732 119.11C90.4045 119.228 90.4783 119.328 90.5789 119.39C90.6191 119.414 90.6664 119.42 90.7111 119.408C90.7776 119.389 90.8267 119.33 90.8356 119.259C90.8446 119.187 90.8116 119.117 90.7521 119.081C90.7412 119.074 90.7307 119.067 90.7207 119.059L90.7554 119.087C90.7387 119.073 90.7236 119.058 90.7104 119.04L90.7372 119.077C90.7221 119.056 90.7094 119.033 90.6994 119.009L90.7167 119.052C90.7056 119.025 90.698 118.995 90.6941 118.966L90.7002 119.013C90.6968 118.985 90.6968 118.957 90.7 118.929L90.6939 118.977C90.6973 118.951 90.7037 118.926 90.7131 118.902L90.6958 118.945C90.7043 118.924 90.7151 118.905 90.728 118.887L90.7011 118.924C90.7136 118.907 90.7278 118.892 90.7435 118.879L90.7088 118.907C90.7275 118.892 90.748 118.88 90.7697 118.87L90.7287 118.888C90.7524 118.878 90.7772 118.871 90.8025 118.867L90.7569 118.874C90.786 118.87 90.8156 118.87 90.8447 118.874L90.7991 118.868C90.8245 118.871 90.8492 118.879 90.873 118.889L90.832 118.87C90.8537 118.88 90.8742 118.892 90.893 118.907L90.8583 118.879C90.8741 118.892 90.8884 118.907 90.901 118.923C90.9332 118.957 90.9768 118.976 91.0223 118.976C91.0677 118.975 91.1112 118.957 91.1436 118.923C91.1757 118.89 91.1937 118.844 91.1939 118.797L91.1877 118.749C91.1798 118.719 91.1646 118.692 91.1436 118.67H91.1436Z" fill="#190000"/>
<path d="M93.4439 128.235C93.4439 128.235 93.3293 126.507 92.7607 126.413L93.7833 123.165L95.1125 124.748L93.4439 128.235Z" fill="#F0F3FC"/>
<path d="M63.865 131.008L61.8125 132.802C61.8125 132.802 63.3691 136.076 64.6434 136.257L66.2273 135.379C66.2273 135.379 63.3877 132.735 63.865 131.008Z" fill="#F0F3FC"/>
<path d="M112.741 121.592C114.09 122.24 115.076 124.778 115.163 125.7L116.801 124.017C116.801 124.017 116.232 121.059 114.339 120.531L112.741 121.592Z" fill="#F0F3FC"/>
<path d="M83.2693 137.474C85.2868 137.601 86.0929 135.386 86.0929 135.386" stroke="#75AA3C" stroke-width="0.65" stroke-linecap="round" stroke-linejoin="round"/>
<path d="M92.2246 126.414C94.2188 129.028 89.827 133.8 94.6749 133.412C100.295 132.963 97.2574 136.8 97.2574 136.8L99.6392 139.324L101.294 137.132C100.689 132.549 98.6638 131.408 94.442 132.46C91.7716 133.125 94.2188 128.807 92.4473 126.205L92.2246 126.414Z" fill="#FFC562"/>
<mask id="mask47_246_42838" style="mask-type:alpha" maskUnits="userSpaceOnUse" x="92" y="126" width="10" height="14">
<path fill-rule="evenodd" clip-rule="evenodd" d="M92.2246 126.414C94.2188 129.028 89.827 133.8 94.6749 133.412C100.295 132.963 97.2574 136.8 97.2574 136.8L99.6392 139.324L101.294 137.132C100.689 132.549 98.6638 131.408 94.442 132.46C91.7716 133.125 94.2188 128.807 92.4473 126.205L92.2246 126.414Z" fill="white"/>
</mask>
<g mask="url(#mask47_246_42838)">
<path d="M96.0735 134.785L100.344 131.761L100.838 133.265L96.3152 135.98L96.0735 134.785Z" fill="#F0F3FC"/>
</g>
<path d="M87.5754 122.476C87.5754 122.476 88.8468 122.048 89.2885 121.754L92.7608 126.414C92.7608 126.414 91.5028 127.305 91.3543 128.102L87.5754 122.476Z" fill="#F0F3FC"/>
<path d="M66.96 153.073C67.1908 153.406 67.3874 153.764 67.5469 154.14C67.5949 154.225 67.6997 154.253 67.7816 154.204C67.8611 154.152 67.8881 154.045 67.8431 153.959C67.6837 153.583 67.487 153.225 67.2563 152.892C67.2071 152.809 67.1037 152.78 67.0216 152.828C66.9407 152.879 66.9133 152.987 66.96 153.073Z" fill="#6D3417"/>
<path d="M74.6823 163.496C75.2412 164.132 76.0368 164.484 76.8634 164.46C77.0837 164.453 77.0846 164.095 76.8634 164.102C76.1279 164.125 75.4198 163.811 74.9249 163.242C74.7762 163.071 74.5341 163.325 74.6823 163.496Z" fill="#6D3417"/>
<path d="M78.3177 143.008C78.9788 143.303 79.5396 143.789 80.275 143.879C80.936 143.953 81.5977 143.748 82.113 143.309C82.1793 143.239 82.1793 143.127 82.113 143.056C82.0452 142.989 81.9383 142.989 81.8705 143.056C81.4109 143.435 80.8228 143.602 80.2428 143.516C79.5942 143.418 79.0791 142.961 78.491 142.698C78.4087 142.652 78.3061 142.68 78.2562 142.763C78.209 142.848 78.2365 142.957 78.3178 143.008H78.3177Z" fill="#6D3417"/>
<path d="M44.5315 171.848V172.025C44.534 172.123 44.6094 172.202 44.7031 172.204L44.7487 172.198C44.7773 172.19 44.8034 172.174 44.8244 172.152C44.8559 172.118 44.8739 172.072 44.8746 172.025V171.848C44.8721 171.75 44.7968 171.672 44.7031 171.669L44.6574 171.675C44.6288 171.684 44.6027 171.699 44.5817 171.721C44.5502 171.755 44.5322 171.801 44.5315 171.848L44.5315 171.848Z" fill="#190000"/>
<path d="M74.2544 129.956C74.2058 130.051 74.1723 130.155 74.155 130.262C74.1336 130.382 74.1339 130.505 74.1558 130.625C74.1677 130.67 74.196 130.709 74.2346 130.732C74.2739 130.756 74.3207 130.763 74.3647 130.751C74.4088 130.739 74.4464 130.709 74.4694 130.668C74.4902 130.626 74.4964 130.577 74.4867 130.53C74.4853 130.521 74.484 130.512 74.4828 130.502L74.489 130.55C74.4803 130.476 74.4805 130.402 74.4895 130.328L74.4834 130.376C74.4934 130.299 74.513 130.224 74.5415 130.152L74.5242 130.195C74.5324 130.175 74.5413 130.156 74.5507 130.136C74.573 130.094 74.5792 130.045 74.568 129.998C74.5496 129.929 74.4932 129.878 74.4248 129.868C74.3564 129.859 74.2892 129.893 74.2544 129.956L74.2544 129.956Z" fill="#75AA3C"/>
<path d="M92.9023 113.509C93.6823 113.526 94.373 112.986 94.5761 112.2C94.6292 111.976 94.2984 111.881 94.2452 112.104C94.0833 112.735 93.5279 113.168 92.9023 113.151C92.8407 113.15 92.7836 113.184 92.7527 113.24C92.7218 113.295 92.7218 113.364 92.7527 113.42C92.7836 113.475 92.8407 113.509 92.9023 113.509Z" fill="#190000"/>
<path d="M106.836 125.798C106.778 126.235 106.636 126.656 106.419 127.034C106.306 127.233 106.602 127.413 106.715 127.215C106.96 126.781 107.118 126.298 107.179 125.798C107.179 125.699 107.102 125.619 107.008 125.619C106.914 125.621 106.838 125.7 106.836 125.798Z" fill="#75AA3C"/>
</g>
</svg>
