<svg width="331" height="231" viewBox="0 0 331 231" fill="none" xmlns="http://www.w3.org/2000/svg">
<rect x="288.299" y="206.421" width="202.249" height="38.3543" transform="rotate(-180 288.299 206.421)" fill="#BB393C"/>
<mask id="mask0_754_37752" style="mask-type:alpha" maskUnits="userSpaceOnUse" x="86" y="168" width="203" height="39">
<rect x="288.299" y="206.421" width="202.249" height="38.3543" transform="rotate(-180 288.299 206.421)" fill="white"/>
</mask>
<g mask="url(#mask0_754_37752)">
<rect x="262.962" y="211.566" width="25.7901" height="50.0477" transform="rotate(-180 262.962 211.566)" fill="#90282A"/>
<rect x="230.542" y="211.566" width="4.82622" height="50.0477" transform="rotate(-180 230.542 211.566)" fill="#90282A"/>
<path d="M83.8438 198.21C77.2078 204.134 213.85 204.134 210.834 206.629C207.817 209.123 89.2733 215.984 89.2733 215.984L78.4143 199.769" fill="#90282A"/>
<path d="M158.674 171.719C147.875 171.3 220.195 197.521 222.231 197.989C224.267 198.456 219.077 181.307 219.077 181.307L204.598 177.098" fill="#90282A"/>
</g>
<path d="M130.093 167.103L234.46 191.737C234.46 191.737 236.571 169.598 241.096 167.103H130.093Z" fill="#EFF3FC"/>
<path d="M267.725 119.24H115.279C121.216 131.599 115.279 167.103 115.279 167.103H267.725C267.725 167.103 261.789 131.599 267.725 119.24Z" fill="#EFF3FC"/>
<mask id="mask1_754_37752" style="mask-type:alpha" maskUnits="userSpaceOnUse" x="115" y="119" width="153" height="49">
<path fill-rule="evenodd" clip-rule="evenodd" d="M267.725 119.24H115.279C121.216 131.599 115.279 167.103 115.279 167.103H267.725C267.725 167.103 261.789 131.599 267.725 119.24Z" fill="white"/>
</mask>
<g mask="url(#mask1_754_37752)">
<path d="M113.171 137.766L116.249 137.89L168.972 140.013L110.093 143.172" fill="#D6DCF2"/>
<path d="M291.425 151.486L288.347 151.362L235.625 149.238L294.504 146.08" fill="#D6DCF2"/>
<path d="M292.965 128.62L289.887 128.496L124.29 126.313L296.043 123.214" fill="#D6DCF2"/>
</g>
<rect x="109.34" y="110.252" width="164.324" height="8.98838" fill="#75AA3C"/>
<mask id="mask2_754_37752" style="mask-type:alpha" maskUnits="userSpaceOnUse" x="109" y="110" width="165" height="10">
<rect x="109.34" y="110.252" width="164.324" height="8.98838" fill="white"/>
</mask>
<g mask="url(#mask2_754_37752)">
<path d="M99.7173 114.746L299.885 119.24L109.341 132.514" fill="#97CC64"/>
</g>
<rect x="109.34" y="159.123" width="164.324" height="8.98838" fill="#75AA3C"/>
<mask id="mask3_754_37752" style="mask-type:alpha" maskUnits="userSpaceOnUse" x="109" y="159" width="165" height="10">
<rect x="109.34" y="159.123" width="164.324" height="8.98838" fill="white"/>
</mask>
<g mask="url(#mask3_754_37752)">
<path d="M103.021 167.103C115.279 167.103 250.221 164.726 251.126 168.111C252.031 171.497 117.801 176.486 117.801 176.486L90.5754 167.103" fill="#75AA3C"/>
</g>
<path d="M209.329 147.222L218.121 145.338L220.6 144.806C221.011 144.718 221.287 144.194 221.16 143.787C221.034 143.352 220.599 143.098 220.174 143.208L211.381 145.092L208.902 145.623C208.491 145.711 208.215 146.236 208.342 146.643C208.469 147.077 208.903 147.332 209.329 147.222V147.222Z" fill="#D6DCF2"/>
<path d="M129.316 190.649H139.851C140.271 190.649 140.672 190.268 140.653 189.82C140.646 189.366 140.291 188.999 139.851 188.992H129.316C128.897 188.992 128.495 189.373 128.514 189.82C128.522 190.275 128.876 190.642 129.316 190.649V190.649Z" fill="#90282A"/>
<path d="M237.896 6.60181C237.896 2.95573 235.037 6.09537e-06 231.51 0H96.5029C92.9759 6.09539e-06 90.1167 2.95573 90.1167 6.60181V14.6999H237.896V6.60181Z" fill="#EFF3FC"/>
<mask id="mask4_754_37752" style="mask-type:alpha" maskUnits="userSpaceOnUse" x="90" y="0" width="148" height="15">
<path fill-rule="evenodd" clip-rule="evenodd" d="M237.896 6.60181C237.896 2.95573 235.037 6.09537e-06 231.51 0H96.5029C92.9759 6.09539e-06 90.1167 2.95573 90.1167 6.60181V14.6999H237.896V6.60181Z" fill="white"/>
</mask>
<g mask="url(#mask4_754_37752)">
<path d="M71.9102 -5.09852e-05C234.898 1.01312 236.259 -0.990044 237.634 17.848C239.009 36.6861 242.447 -8.80955 242.447 -8.80955L192.593 -12.3639L92.8835 -6.32152" fill="#D6DCF2"/>
</g>
<path d="M90.1167 14.7V95.5258C90.1167 99.1719 92.9759 102.128 96.5029 102.128H231.51C235.037 102.128 237.896 99.1719 237.896 95.5258V14.7H90.1167Z" fill="#589BF7"/>
<mask id="mask5_754_37752" style="mask-type:alpha" maskUnits="userSpaceOnUse" x="90" y="14" width="148" height="89">
<path fill-rule="evenodd" clip-rule="evenodd" d="M90.1167 14.7V95.5258C90.1167 99.1719 92.9759 102.128 96.5029 102.128H231.51C235.037 102.128 237.896 99.1719 237.896 95.5258V14.7H90.1167Z" fill="white"/>
</mask>
<g mask="url(#mask5_754_37752)">
<path d="M86.0013 83.0927C89.5972 113.142 212.459 105.087 212.459 105.087L87.1999 117.478L77.311 90.1215" fill="#2976DF"/>
</g>
<ellipse cx="98.1452" cy="7.17419" rx="1.769" ry="1.82873" fill="#BB393C"/>
<ellipse cx="105.578" cy="7.17419" rx="1.769" ry="1.82873" fill="#FFC562"/>
<ellipse cx="113.011" cy="7.17419" rx="1.769" ry="1.82873" fill="#75AA3C"/>
<rect x="101.743" y="22.844" width="124.525" height="69.7357" rx="3.25623" fill="#97CC64"/>
<mask id="mask6_754_37752" style="mask-type:alpha" maskUnits="userSpaceOnUse" x="101" y="22" width="126" height="71">
<rect x="101.743" y="22.844" width="124.525" height="69.7357" rx="3.25623" fill="white"/>
</mask>
<g mask="url(#mask6_754_37752)">
<path d="M242.126 31.5862C249.021 129.686 79.99 89.8235 79.99 89.8235C79.99 89.8235 116.607 117.547 119.186 118.081C121.765 118.614 216.66 112.216 216.66 112.216L237.896 86.6246V14.6998L232.133 11.4502" fill="#75AA3C"/>
</g>
<ellipse cx="164.006" cy="54.4989" rx="19.7502" ry="20.4424" fill="#EFF3FC"/>
<path d="M158.503 54.4989V46.9668C158.503 46.5093 158.739 46.0863 159.122 45.8574C159.505 45.6284 159.977 45.6283 160.361 45.857L166.663 49.6231L172.965 53.3891C173.348 53.6184 173.584 54.0413 173.584 54.4989C173.584 54.9566 173.348 55.3795 172.965 55.6087L166.663 59.3748L160.361 63.1409C159.977 63.3696 159.505 63.3695 159.122 63.1405C158.739 62.9116 158.503 62.4886 158.503 62.0311L158.503 54.4989Z" fill="#FFC562"/>
<mask id="mask7_754_37752" style="mask-type:alpha" maskUnits="userSpaceOnUse" x="158" y="45" width="16" height="19">
<path fill-rule="evenodd" clip-rule="evenodd" d="M158.503 54.4989V46.9668C158.503 46.5093 158.739 46.0863 159.122 45.8574C159.505 45.6284 159.977 45.6283 160.361 45.857L166.663 49.6231L172.965 53.3891C173.348 53.6184 173.584 54.0413 173.584 54.4989C173.584 54.9566 173.348 55.3795 172.965 55.6087L166.663 59.3748L160.361 63.1409C159.977 63.3696 159.505 63.3695 159.122 63.1405C158.739 62.9116 158.503 62.4886 158.503 62.0311L158.503 54.4989Z" fill="white"/>
</mask>
<g mask="url(#mask7_754_37752)">
<path d="M172.005 49.7394C172.404 61.0981 148.631 68.8426 148.631 68.8426L164.006 69.7719L183.756 54.4988" fill="#D89D35"/>
</g>
<path d="M137.39 9.61829L140.994 8.4038C141.311 8.29696 141.55 7.94197 141.44 7.59175C141.338 7.26431 140.995 7.01607 140.655 7.13068L137.051 8.34517C136.734 8.45202 136.495 8.807 136.605 9.15722C136.707 9.48466 137.05 9.73291 137.39 9.61829Z" fill="#D6DCF2"/>
<path d="M208.891 49.6016L206.228 54.8864C206.074 55.1925 206.142 55.6176 206.457 55.7896C206.751 55.95 207.166 55.8798 207.331 55.5528L209.993 50.268C210.147 49.962 210.079 49.5369 209.764 49.3648C209.471 49.2044 209.055 49.2746 208.891 49.6016Z" fill="#75AA3C"/>
<path d="M125.257 73.2201C125.515 73.2201 125.748 73.0592 125.847 72.8126C125.946 72.5659 125.891 72.2819 125.709 72.0931C125.526 71.9044 125.251 71.8479 125.013 71.95C124.774 72.0522 124.618 72.2929 124.618 72.5599C124.622 72.9228 124.906 73.2161 125.257 73.2201V73.2201Z" fill="#75AA3C"/>
<path d="M199.429 39.1561C197.416 34.1264 199.897 29.8129 191.436 28.9311C174.834 19.3348 183.125 37.9141 172.627 43.4944C162.13 49.0747 176.27 60.7922 192.207 53.9741C210.793 46.0228 202.309 46.3526 199.429 39.1561Z" fill="#516DDB"/>
<path d="M177.917 75.1873L171.17 90.8293L165.627 83.4698L171.608 74.8438L175.483 72.8022" fill="#FF9763"/>
<path d="M162.266 72.8024C168.05 82.2688 176.831 80.4821 176.831 80.4821L184.83 59.0269C184.83 59.0269 180.701 50.1611 177.315 49.261C173.098 48.1399 162.266 72.8024 162.266 72.8024Z" fill="#BB393C"/>
<mask id="mask8_754_37752" style="mask-type:alpha" maskUnits="userSpaceOnUse" x="162" y="49" width="23" height="32">
<path fill-rule="evenodd" clip-rule="evenodd" d="M162.266 72.8024C168.05 82.2688 176.831 80.4821 176.831 80.4821L184.83 59.0269C184.83 59.0269 180.701 50.1611 177.315 49.261C173.098 48.1399 162.266 72.8024 162.266 72.8024Z" fill="white"/>
</mask>
<g mask="url(#mask8_754_37752)">
<path d="M166.474 59.4336C167.789 66.2307 175.784 65.9718 175.784 65.9718L170.034 71.893C170.034 71.893 159.758 68.2661 159.556 63.4818" fill="#F0F3FC"/>
</g>
<path d="M186.442 90.7091L214.171 89.7437C214.171 89.7437 212.07 57.5254 205.968 55.3794C200.301 53.3869 189.371 49.5148 176.556 50.9568C174.933 51.1395 176.388 53.2343 176.684 54.8941C177.061 57.006 175.111 60.0813 176.212 66.2473C178.938 81.525 186.442 90.7091 186.442 90.7091Z" fill="#BB393C"/>
<mask id="mask9_754_37752" style="mask-type:alpha" maskUnits="userSpaceOnUse" x="175" y="50" width="40" height="41">
<path fill-rule="evenodd" clip-rule="evenodd" d="M186.442 90.7091L214.171 89.7437C214.171 89.7437 212.07 57.5254 205.968 55.3794C200.301 53.3869 189.371 49.5148 176.556 50.9568C174.933 51.1395 176.388 53.2343 176.684 54.8941C177.061 57.006 175.111 60.0813 176.212 66.2473C178.938 81.525 186.442 90.7091 186.442 90.7091Z" fill="white"/>
</mask>
<g mask="url(#mask9_754_37752)">
<path d="M203.875 66.8063C190.612 66.571 207.084 78.0532 197.609 79.7348C188.133 81.4163 183.01 82.8355 184.726 86.7724C186.443 90.7092 201.716 86.2118 202.258 86.3987C202.8 86.5855 214.171 82.3191 214.171 82.3191V71.5484L207.138 63.5845" fill="#90282A"/>
<path d="M182.26 50.4316C177.58 65.9061 185.568 65.7586 198.836 54.1484C212.105 42.5382 194.828 48.027 194.828 48.027L182.211 49.7737" fill="#F0F3FC"/>
<path d="M183.103 50.0646C178.529 65.539 185.923 64.1704 198.893 52.5602C211.862 40.95 194.975 46.4389 194.975 46.4389L182.642 48.1856" fill="#FF9763"/>
</g>
<path d="M184.138 76.32L184.051 76.8678H178.539L178.59 76.32L179.934 76.2317L178.409 72.9976L175.921 76.161L177.154 76.3201L177.067 76.8679H173.434L173.521 76.3201L174.946 76.161L178.169 72.5028L175.948 67.8549L175.043 67.7489L175.127 67.2186H180.569L180.484 67.7489L179.242 67.8726L180.693 70.8946L183.047 67.9079L181.831 67.7489L181.916 67.2186H185.319L185.235 67.7489L184.019 67.9256L180.934 71.3893L183.281 76.2493L184.138 76.32Z" fill="#F0F3FC"/>
<path d="M196.226 76.3202L196.139 76.868H190.999L191.086 76.3202L192.22 76.2141C192.4 75.1891 192.657 73.6869 192.82 72.6619L193.224 70.1171C193.443 68.7386 193.132 68.2438 192.299 68.2438C191.767 68.2438 190.987 68.5795 190.118 69.2511L189.576 72.6619C189.419 73.6515 189.192 75.1891 189.044 76.2318L190.04 76.3201L189.953 76.8679H184.831L184.918 76.3201L186.122 76.2141C186.306 75.1714 186.565 73.6515 186.722 72.6619L186.955 71.1951C187.138 70.0463 187.213 69.4631 187.312 68.6149L186.005 68.4735L186.073 68.0494L190.096 66.936L190.316 67.1127L190.175 68.6679C191.559 67.3248 192.598 66.9183 193.768 66.9183C195.452 66.9183 196.43 68.014 196.062 70.3292L195.691 72.6619C195.525 73.7046 195.304 75.2068 195.177 76.2318L196.226 76.3202Z" fill="#F0F3FC"/>
<path d="M185.522 54.3743C186.039 51.6979 186.657 48.1385 186.546 46.9249L193.858 41.0231L195.702 53.172" fill="#FF9763"/>
<mask id="mask10_754_37752" style="mask-type:alpha" maskUnits="userSpaceOnUse" x="185" y="41" width="11" height="14">
<path fill-rule="evenodd" clip-rule="evenodd" d="M185.522 54.3743C186.039 51.6979 186.657 48.1385 186.546 46.9249L193.858 41.0231L195.702 53.172" fill="white"/>
</mask>
<g mask="url(#mask10_754_37752)">
<path d="M191.14 45.1825C193.314 45.1593 190.213 50.35 184.83 54.3743C183.058 55.6986 182.525 46.9036 182.525 46.9036L184.88 45.2436" fill="#E84B23"/>
</g>
<path d="M195.056 39.6051C191.807 37.8443 191.6 34.151 189.239 33.6664C187.096 36.0353 183.388 33.0331 181.389 36.1175C180.224 52.9528 187.628 50.0602 192.108 44.6295" fill="#FF9763"/>
<mask id="mask11_754_37752" style="mask-type:alpha" maskUnits="userSpaceOnUse" x="181" y="33" width="15" height="16">
<path fill-rule="evenodd" clip-rule="evenodd" d="M195.056 39.6051C191.807 37.8443 191.6 34.151 189.239 33.6664C187.096 36.0353 183.388 33.0331 181.389 36.1175C180.224 52.9528 187.628 50.0602 192.108 44.6295" fill="white"/>
</mask>
<g mask="url(#mask11_754_37752)">
<ellipse opacity="0.27" rx="1.72222" ry="1.35545" transform="matrix(0.998389 -0.0567457 0.0531099 0.998589 181.497 42.8974)" fill="#E84B23"/>
<ellipse opacity="0.27" rx="1.72222" ry="1.35545" transform="matrix(0.998389 -0.0567457 0.0531099 0.998589 189.618 42.4359)" fill="#E84B23"/>
<rect width="1.22449" height="2.33472" rx="0.612245" transform="matrix(0.999848 0.0174462 -0.0163254 0.999867 182.638 38.67)" fill="#190000"/>
<rect width="1.22449" height="2.33472" rx="0.612245" transform="matrix(0.999848 0.0174372 -0.016317 0.999867 187.193 38.3934)" fill="#190000"/>
<path d="M183.122 37.1866C181.867 37.5415 182.199 38.2514 182.998 38.0825C183.797 37.9135 183.942 36.9547 183.122 37.1866Z" fill="#190000"/>
<path d="M187.793 36.8626C189.036 37.261 188.776 37.9067 187.983 37.7099C187.19 37.5131 186.981 36.6022 187.793 36.8626Z" fill="#190000"/>
<path d="M185.904 40.9714C185.943 41.3974 185.575 41.2637 185.14 41.3072C184.704 41.3507 184.367 41.5548 184.328 41.1288C184.31 40.694 184.624 40.3207 185.043 40.2789C185.463 40.237 185.84 40.5411 185.904 40.9714V40.9714Z" fill="#E84B23"/>
<path d="M183.621 43.4758C184.4 46.5083 187.112 45.0052 187.023 43.0901C187.017 42.9911 186.952 42.9066 186.86 42.8786C186.471 42.7556 185.35 42.52 183.759 43.1929C183.652 43.2387 183.593 43.3593 183.621 43.4758Z" fill="#C1525F"/>
<mask id="mask12_754_37752" style="mask-type:alpha" maskUnits="userSpaceOnUse" x="183" y="42" width="5" height="4">
<path fill-rule="evenodd" clip-rule="evenodd" d="M183.621 43.4758C184.4 46.5083 187.112 45.0052 187.023 43.0901C187.017 42.9911 186.952 42.9066 186.86 42.8786C186.471 42.7556 185.35 42.52 183.759 43.1929C183.652 43.2387 183.593 43.3593 183.621 43.4758Z" fill="white"/>
</mask>
<g mask="url(#mask12_754_37752)">
<ellipse rx="1.52973" ry="1.39666" transform="matrix(0.912387 -0.40933 0.387082 0.922046 185.873 45.0068)" fill="#993443"/>
<path d="M184.107 42.9396C184.127 43.1427 184.172 43.4166 184.228 43.4616C184.573 43.739 186.091 43.4478 186.284 43.25C186.337 43.195 186.284 42.5394 186.284 42.5394L184.33 42.8059" fill="#F0F3FC"/>
</g>
</g>
<path d="M193.557 38.8248C200.558 34.8573 197.963 43.2807 193.633 43.2807Z" fill="#FF9763"/>
<path d="M160.306 91.1915C157.532 91.284 155.751 88.1735 157.167 85.7057C163.959 73.8711 174.894 52.7707 174.945 52.1329C175.042 50.9356 170.045 47.7704 169.659 47.0386C169.272 46.3069 171.653 39.9876 172.168 39.7881C172.683 39.5885 176.029 40.7194 176.286 40.5863C176.544 40.4533 177.01 42.9477 173.358 42.1163C173.358 42.1163 174.999 42.9477 175.224 43.4466C175.224 43.4466 177.058 43.8956 176.914 45.1429C176.914 45.1429 178.072 46.2404 177.927 47.1384C177.927 47.1384 180.549 50.2315 180.404 51.6284C180.287 52.7605 174.295 77.804 172.027 87.2588C171.52 89.3712 169.717 90.8782 167.613 90.9479L160.306 91.1915Z" fill="#FF9763"/>
<mask id="mask13_754_37752" style="mask-type:alpha" maskUnits="userSpaceOnUse" x="156" y="39" width="25" height="53">
<path fill-rule="evenodd" clip-rule="evenodd" d="M160.306 91.1915C157.532 91.284 155.751 88.1735 157.167 85.7057C163.959 73.8711 174.894 52.7707 174.945 52.1329C175.042 50.9356 170.045 47.7704 169.659 47.0386C169.272 46.3069 171.653 39.9876 172.168 39.7881C172.683 39.5885 176.029 40.7194 176.286 40.5863C176.544 40.4533 177.01 42.9477 173.358 42.1163C173.358 42.1163 174.999 42.9477 175.224 43.4466C175.224 43.4466 177.058 43.8956 176.914 45.1429C176.914 45.1429 178.072 46.2404 177.927 47.1384C177.927 47.1384 180.549 50.2315 180.404 51.6284C180.287 52.7605 174.295 77.804 172.027 87.2588C171.52 89.3712 169.717 90.8782 167.613 90.9479L160.306 91.1915Z" fill="white"/>
</mask>
<g mask="url(#mask13_754_37752)">
<path d="M159.556 68.0972C170.895 60.2888 173.379 64.1943 175.142 69.7123C176.905 75.2302 168.54 73.6151 168.54 73.6151L165.627 72.8021" fill="#E84B23"/>
</g>
<path d="M224.798 83.5888L221.692 75.7386L214.142 79.5719L214.2 79.7592C202.686 83.5251 183.098 88.9307 180.85 89.8368C177.648 89.2547 176.12 89.0077 175.518 89.0872C174.916 89.1667 169.252 91.0537 168.845 90.9066C168.437 90.7594 168.041 92.9555 170.474 92.8352C172.907 92.7148 174.032 92.3653 174.032 92.3653C174.032 92.3653 174.162 93.42 174.625 93.5598C174.625 93.5598 175.43 95.1283 176.44 95.1959C177.45 95.2636 181.384 95.5477 181.384 95.5477L217.966 91.9674L220.496 91.5391C222.189 91.2523 223.663 90.1836 224.5 88.6359C225.338 87.0882 225.448 85.2302 224.798 83.5888Z" fill="#FF9763"/>
<mask id="mask14_754_37752" style="mask-type:alpha" maskUnits="userSpaceOnUse" x="168" y="75" width="58" height="21">
<path fill-rule="evenodd" clip-rule="evenodd" d="M224.798 83.5888L221.692 75.7386L214.142 79.5719L214.2 79.7592C202.686 83.5251 183.098 88.9307 180.85 89.8368C177.648 89.2547 176.12 89.0077 175.518 89.0872C174.916 89.1667 169.252 91.0537 168.845 90.9066C168.437 90.7594 168.041 92.9555 170.474 92.8352C172.907 92.7148 174.032 92.3653 174.032 92.3653C174.032 92.3653 174.162 93.42 174.625 93.5598C174.625 93.5598 175.43 95.1283 176.44 95.1959C177.45 95.2636 181.384 95.5477 181.384 95.5477L217.966 91.9674L220.496 91.5391C222.189 91.2523 223.663 90.1836 224.5 88.6359C225.338 87.0882 225.448 85.2302 224.798 83.5888Z" fill="white"/>
</mask>
<g mask="url(#mask14_754_37752)">
<path d="M207.185 81.6951C215.038 82.1598 222.782 79.6565 220.56 77.0845C218.338 74.5126 212.136 75.7388 212.136 75.7388" fill="#E84B23"/>
</g>
<path d="M201.665 66.2181C203.373 72.2192 205.662 80.6921 205.662 80.6921C217.229 82.1868 222.725 75.0446 222.725 75.0446C222.725 75.0446 214.964 56.646 205.969 55.3668" fill="#BB393C"/>
<mask id="mask15_754_37752" style="mask-type:alpha" maskUnits="userSpaceOnUse" x="201" y="55" width="22" height="26">
<path fill-rule="evenodd" clip-rule="evenodd" d="M201.665 66.2181C203.373 72.2192 205.662 80.6921 205.662 80.6921C217.229 82.1868 222.725 75.0446 222.725 75.0446C222.725 75.0446 214.964 56.646 205.969 55.3668" fill="white"/>
</mask>
<g mask="url(#mask15_754_37752)">
<path d="M201.204 71.8932C215.76 73.2958 219.083 64.4485 219.083 64.4485L220.982 68.1323C220.982 68.1323 214.626 77.7121 201.665 74.1137" fill="#F0F3FC"/>
</g>
<path d="M186.629 94.8549H143.633L132.523 65.266C132.453 65.0813 132.477 64.8731 132.585 64.7096C132.693 64.5461 132.872 64.4484 133.064 64.4484H173.631C174.584 64.4484 175.439 65.0535 175.784 65.9718L186.629 94.8549Z" fill="#6F4EB9"/>
<mask id="mask16_754_37752" style="mask-type:alpha" maskUnits="userSpaceOnUse" x="132" y="64" width="55" height="31">
<path fill-rule="evenodd" clip-rule="evenodd" d="M186.629 94.8549H143.633L132.523 65.266C132.453 65.0813 132.477 64.8731 132.585 64.7096C132.693 64.5461 132.872 64.4484 133.064 64.4484H173.631C174.584 64.4484 175.439 65.0535 175.784 65.9718L186.629 94.8549Z" fill="white"/>
</mask>
<g mask="url(#mask16_754_37752)">
<path d="M134.959 79.6516C147.474 98.0756 176.716 90.9937 182.292 95.047C187.868 99.1004 155.528 98.7161 155.156 98.7161C154.785 98.7161 141.898 99.8689 141.898 99.8689L135.703 97.5633" fill="#97CC64"/>
</g>
<path d="M171.918 94.0864H213.09C213.687 94.0864 214.171 94.5867 214.171 95.2038V95.6235H171.918V94.0864Z" fill="#6F4EB9"/>
<rect x="188.646" y="94.855" width="4.39872" height="0.384276" fill="#97CC64"/>
<rect x="194.036" y="94.855" width="4.39872" height="0.384276" fill="#97CC64"/>
<rect x="142.738" y="94.855" width="43.0579" height="0.768553" fill="#6F4EB9"/>
<path d="M185.796 94.8549H142.8L131.69 65.266C131.62 65.0813 131.644 64.8731 131.752 64.7096C131.86 64.5461 132.039 64.4484 132.231 64.4484H172.798C173.751 64.4484 174.606 65.0535 174.951 65.9718L185.796 94.8549Z" fill="#9A7ED9"/>
<mask id="mask17_754_37752" style="mask-type:alpha" maskUnits="userSpaceOnUse" x="131" y="64" width="55" height="31">
<path fill-rule="evenodd" clip-rule="evenodd" d="M185.796 94.8549H142.8L131.69 65.266C131.62 65.0813 131.644 64.8731 131.752 64.7096C131.86 64.5461 132.039 64.4484 132.231 64.4484H172.798C173.751 64.4484 174.606 65.0535 174.951 65.9718L185.796 94.8549Z" fill="white"/>
</mask>
<g mask="url(#mask17_754_37752)">
<path d="M134.126 79.6516C146.641 98.0756 175.883 90.9937 181.459 95.047C187.035 99.1004 154.695 98.7161 154.323 98.7161C153.951 98.7161 141.065 99.8689 141.065 99.8689L134.87 97.5633" fill="#6F4EB9"/>
</g>
<ellipse rx="2.5514" ry="3.43809" transform="matrix(0.550065 -0.835122 0.817733 0.575598 155.975 78.6486)" fill="#F0F3FC"/>
<path d="M154.288 71.2468H151.024C150.22 67.0253 147.978 66.8097 147.978 66.8097C147.073 66.8097 147.577 67.4567 147.562 67.5646C148.573 69.6291 146.94 71.2468 146.94 71.2468L149.809 77.1013C150.092 77.6792 151.065 77.8874 151.407 77.8874H156.311C156.773 77.8874 156.613 76.7935 156.613 76.7935C155.999 73.0649 155.455 71.9556 155.455 71.9556C155.232 71.505 154.777 71.2287 154.288 71.2468H154.288Z" fill="#FE7578"/>
<path d="M145.115 71.2487H143.16C142.757 71.2487 142.926 71.6069 142.926 71.6069L146.223 77.5115C146.345 77.7375 146.573 77.8803 146.824 77.8873H148.515C148.868 77.8873 148.743 77.6387 148.743 77.6387L145.831 71.6964C145.687 71.4254 145.414 71.2546 145.115 71.2487L145.115 71.2487Z" fill="#FFC562"/>
<path d="M167.693 79.4642L167.274 85.2805C167.257 85.5174 167.337 85.751 167.493 85.925C167.649 86.0991 167.869 86.1981 168.098 86.1981H175.487C175.837 86.1981 176.149 85.9698 176.266 85.6284C176.382 85.2871 176.278 84.9068 176.006 84.6793L169.036 78.863C168.797 78.6635 168.471 78.6176 168.189 78.7438C167.907 78.87 167.716 79.1475 167.693 79.4642Z" fill="#516DDB"/>
<path d="M195.418 39.85L195.38 40.234C195.385 40.4416 195.547 40.6085 195.748 40.6141L195.845 40.6005C195.907 40.583 195.963 40.5493 196.008 40.5027L196.065 40.4258C196.098 40.3677 196.115 40.3014 196.115 40.234L196.153 39.85C196.148 39.6425 195.987 39.4755 195.786 39.47L195.688 39.4836C195.627 39.501 195.571 39.5347 195.526 39.5813L195.468 39.6582C195.435 39.7164 195.418 39.7826 195.418 39.85H195.418Z" fill="#373947"/>
<path d="M184.053 29.7536L183.697 29.9371C183.547 30.0245 183.466 30.1997 183.494 30.3755C183.497 30.4337 183.514 30.4902 183.545 30.5391L183.611 30.6281C183.663 30.682 183.728 30.721 183.799 30.7413L183.912 30.757C183.988 30.7571 184.062 30.7364 184.127 30.6969L184.482 30.5134C184.632 30.4259 184.714 30.2508 184.685 30.075C184.683 30.0168 184.666 29.9603 184.635 29.9114L184.568 29.8223C184.516 29.7685 184.452 29.7295 184.381 29.7092L184.267 29.6935C184.192 29.6934 184.118 29.7141 184.053 29.7536V29.7536Z" fill="#3152BA"/>
<path d="M198.902 46.8882L198.813 47.0717C198.782 47.1206 198.765 47.1771 198.762 47.2353C198.742 47.4099 198.821 47.5809 198.966 47.6737L199.067 47.7181C199.141 47.739 199.22 47.739 199.294 47.7181L199.395 47.6737C199.458 47.6355 199.511 47.5811 199.548 47.5159L199.637 47.3324C199.667 47.2834 199.685 47.227 199.687 47.1688C199.708 46.9942 199.629 46.8232 199.484 46.7304L199.382 46.686C199.308 46.665 199.23 46.665 199.156 46.686L199.054 46.7304C198.991 46.7686 198.939 46.823 198.902 46.8882V46.8882Z" fill="#3152BA"/>
<path d="M200.31 88.7377L201.021 88.9212C201.131 88.9506 201.249 88.9347 201.348 88.8769C201.496 88.7875 201.578 88.6154 201.556 88.4399C201.534 88.2644 201.412 88.1197 201.247 88.0727L200.537 87.8891C200.426 87.8598 200.308 87.8757 200.209 87.9335C200.061 88.0228 199.979 88.195 200.001 88.3705C200.024 88.546 200.145 88.6906 200.31 88.7377V88.7377Z" fill="#E84B23"/>
<path d="M149.078 86.3075L151.741 87.9593C151.872 88.0389 152.035 88.04 152.167 87.9621C152.299 87.8842 152.381 87.7392 152.382 87.5819C152.383 87.4245 152.302 87.2787 152.171 87.1995L149.507 85.5477C149.304 85.4255 149.044 85.4963 148.926 85.7059C148.807 85.9154 148.875 86.1847 149.078 86.3075V86.3075Z" fill="#6F4EB9"/>
<path d="M197.224 61.4832C196.839 62.3891 196.358 63.2482 195.79 64.0444C195.657 64.2303 195.754 64.5435 195.942 64.6464C196.146 64.762 196.402 64.6927 196.525 64.4886C197.093 63.6923 197.574 62.8333 197.959 61.9273C198.049 61.7172 198.026 61.445 197.807 61.3253C197.622 61.2246 197.32 61.2582 197.224 61.4832V61.4832Z" fill="#90282A"/>
<path d="M251.337 205.233L171.675 181.663L251.337 155.32L331 181.663L251.337 205.233V205.233Z" fill="#274B69"/>
<mask id="mask18_754_37752" style="mask-type:alpha" maskUnits="userSpaceOnUse" x="171" y="155" width="161" height="51">
<path fill-rule="evenodd" clip-rule="evenodd" d="M251.337 205.233L171.675 181.663L251.337 155.32L331 181.663L251.337 205.233V205.233Z" fill="white"/>
</mask>
<g mask="url(#mask18_754_37752)">
<path d="M148.93 176.667C222.557 207.805 206.632 174.121 243.474 183.154C280.317 192.187 229.251 208.986 229.251 208.986L177.377 212.129L159.807 191.371" fill="#0C273A"/>
<path d="M257.202 149.192C248.281 151.907 251.337 155.32 251.337 155.32L343.03 198.486L329.03 164.828L296.53 158.884" fill="#11314B"/>
</g>
<path d="M251.337 179.024C230.847 179.024 214.237 183.118 214.237 188.168V217.947H214.473C214.473 215.685 288.201 215.685 288.201 217.947H288.437V188.168C288.437 183.118 271.827 179.024 251.337 179.024Z" fill="#274B69"/>
<mask id="mask19_754_37752" style="mask-type:alpha" maskUnits="userSpaceOnUse" x="214" y="179" width="75" height="39">
<path fill-rule="evenodd" clip-rule="evenodd" d="M251.337 179.024C230.847 179.024 214.237 183.118 214.237 188.168V217.947H214.473C214.473 215.685 288.201 215.685 288.201 217.947H288.437V188.168C288.437 183.118 271.827 179.024 251.337 179.024Z" fill="white"/>
</mask>
<g mask="url(#mask19_754_37752)">
<path d="M205.719 211.096C218.348 176.538 276.294 181.145 288.18 188.057C300.066 194.969 275.551 171.93 275.551 171.93L213.148 170.394L203.49 178.842" fill="#11314B"/>
</g>
<rect x="193.175" y="173.623" width="1.43533" height="31.8193" fill="#FFC562"/>
<path d="M197.623 225.64L195.549 206.963H192.236L190.161 225.64C189.808 227.228 190.432 228.877 191.734 229.795C193.036 230.714 194.749 230.714 196.05 229.795C197.352 228.877 197.976 227.228 197.623 225.64V225.64Z" fill="#FFC562"/>
<mask id="mask20_754_37752" style="mask-type:alpha" maskUnits="userSpaceOnUse" x="190" y="206" width="8" height="25">
<path fill-rule="evenodd" clip-rule="evenodd" d="M197.623 225.64L195.549 206.963H192.236L190.161 225.64C189.808 227.228 190.432 228.877 191.734 229.795C193.036 230.714 194.749 230.714 196.05 229.795C197.352 228.877 197.976 227.228 197.623 225.64V225.64Z" fill="white"/>
</mask>
<g mask="url(#mask20_754_37752)">
<path d="M184.532 234.348C191.218 237.42 197.547 205.72 197.547 205.72H190.118L184.175 210.328V214.936" fill="#D89D35"/>
</g>
<ellipse cx="193.892" cy="205.442" rx="3.42886" ry="3.54464" fill="#BB393C"/>
<path d="M265.767 198.216L260.769 201.837C260.542 202.002 260.413 202.326 260.578 202.59C260.724 202.824 261.063 202.965 261.307 202.788L266.305 199.167C266.533 199.002 266.661 198.677 266.496 198.413C266.35 198.179 266.011 198.039 265.767 198.216Z" fill="#11314B"/>
<path d="M222.317 172.312C222.86 171.998 223.412 171.704 223.975 171.429C224.252 171.293 224.532 171.162 224.814 171.037C224.851 171.02 224.888 171.004 224.925 170.987C224.941 170.98 225.019 170.946 224.931 170.984C224.998 170.955 225.066 170.926 225.133 170.897C225.282 170.834 225.432 170.772 225.583 170.711C226.734 170.246 227.914 169.862 229.115 169.561C229.791 169.392 230.471 169.25 231.157 169.135C231.433 169.088 231.611 168.719 231.529 168.457C231.433 168.148 231.17 168.023 230.874 168.073C228.387 168.497 225.966 169.267 223.678 170.361C223.033 170.669 222.4 171.002 221.779 171.36C221.525 171.514 221.439 171.851 221.588 172.114C221.736 172.377 222.063 172.465 222.317 172.312V172.312Z" fill="#11314B"/>
<path d="M61.7763 190.292L40.9163 192.816L37.3755 199.893L42.5089 203.486L78.3311 205.343C80.538 205.343 82.6425 204.38 84.1271 202.692C85.6116 201.004 86.3383 198.747 86.1286 196.476V196.476L86.0553 195.682C85.9119 194.1 85.3195 192.598 84.3525 191.363" fill="#589BF7"/>
<mask id="mask21_754_37752" style="mask-type:alpha" maskUnits="userSpaceOnUse" x="37" y="190" width="50" height="16">
<path fill-rule="evenodd" clip-rule="evenodd" d="M61.7763 190.292L40.9163 192.816L37.3755 199.893L42.5089 203.486L78.3311 205.343C80.538 205.343 82.6425 204.38 84.1271 202.692C85.6116 201.004 86.3383 198.747 86.1286 196.476V196.476L86.0553 195.682C85.9119 194.1 85.3195 192.598 84.3525 191.363" fill="white"/>
</mask>
<g mask="url(#mask21_754_37752)">
<path d="M49.9268 188.353C49.6274 194.579 57.1909 204.501 66.4324 205.343C75.6739 206.185 52.3218 209.589 52.3218 209.589C52.3218 209.589 42.5759 204.965 42.509 203.486C42.4421 202.007 47.2323 190.238 47.2323 190.238" fill="#2976DF"/>
<path d="M46.6216 198.182C46.835 198.288 60.4336 197.585 68.2276 197.172C70.3971 197.057 71.4804 194.409 70.0541 192.715L67.028 189.121" fill="#589BF7"/>
</g>
<path d="M51.0692 191.252L23.608 192.96L17.812 190.468C16.8048 190.005 15.6244 190.255 14.8739 191.089L0 206.97C6.14996 210.903 9.75931 200.199 21.4025 201.926L53.6635 205.343L51.0692 191.252Z" fill="#3A3530"/>
<mask id="mask22_754_37752" style="mask-type:alpha" maskUnits="userSpaceOnUse" x="0" y="190" width="54" height="18">
<path fill-rule="evenodd" clip-rule="evenodd" d="M51.0692 191.252L23.608 192.96L17.812 190.468C16.8048 190.005 15.6244 190.255 14.8739 191.089L0 206.97C6.14996 210.903 9.75931 200.199 21.4025 201.926L53.6635 205.343L51.0692 191.252Z" fill="white"/>
</mask>
<g mask="url(#mask22_754_37752)">
<path d="M45.8232 188.582L49.8649 213.187L59.3795 208.44L51.3474 187.55L45.8232 188.582V188.582Z" fill="#935738"/>
</g>
<path d="M101.344 187.55L111.198 149.202L91.4888 141.357V178.569L101.344 187.55V187.55Z" fill="#589BF7"/>
<mask id="mask23_754_37752" style="mask-type:alpha" maskUnits="userSpaceOnUse" x="91" y="141" width="21" height="47">
<path fill-rule="evenodd" clip-rule="evenodd" d="M101.344 187.55L111.198 149.202L91.4888 141.357V178.569L101.344 187.55V187.55Z" fill="white"/>
</mask>
<g mask="url(#mask23_754_37752)">
<path d="M87.7991 165.951C102.456 170.488 107.371 168.175 107.371 168.175L108.157 177.402L88.5475 179.568L88.2481 170.748" fill="#2976DF"/>
<path d="M97.8167 173.159L100.863 153.254" stroke="#2976DF" stroke-width="0.971061" stroke-linecap="round" stroke-linejoin="round"/>
</g>
<path d="M111.199 149.202V149.202C112.691 142.273 107.113 135.898 100.295 136.74L41.4695 143.999L47.4838 166.829L94.395 158.643" fill="#589BF7"/>
<mask id="mask24_754_37752" style="mask-type:alpha" maskUnits="userSpaceOnUse" x="41" y="136" width="71" height="31">
<path fill-rule="evenodd" clip-rule="evenodd" d="M111.199 149.202V149.202C112.691 142.273 107.113 135.898 100.295 136.74L41.4695 143.999L47.4838 166.829L94.395 158.643" fill="white"/>
</mask>
<g mask="url(#mask24_754_37752)">
<path d="M61.1255 156.446L97.8973 149.412C98.7073 149.257 99.5405 149.508 100.144 150.088C100.747 150.668 101.049 151.508 100.959 152.355L98.5151 175.212" stroke="#2976DF" stroke-width="0.971061" stroke-linecap="round" stroke-linejoin="round"/>
<path d="M53.0261 152.006C54.7104 165.624 89.4588 159.505 89.4588 159.505L75.7795 168.175H55.2786L53.9212 160.856" fill="#2976DF"/>
</g>
<path d="M92.7765 206.925H116.772C116.772 197.549 99.7756 205.343 100.51 198.834C101.333 191.535 107.371 168.175 107.371 168.175L91.101 170.442L90.4289 204.505C90.3877 205.829 91.4508 206.925 92.7765 206.925Z" fill="#3A3530"/>
<mask id="mask25_754_37752" style="mask-type:alpha" maskUnits="userSpaceOnUse" x="90" y="168" width="27" height="39">
<path fill-rule="evenodd" clip-rule="evenodd" d="M92.7765 206.925H116.772C116.772 197.549 99.7756 205.343 100.51 198.834C101.333 191.535 107.371 168.175 107.371 168.175L91.101 170.442L90.4289 204.505C90.3877 205.829 91.4508 206.925 92.7765 206.925Z" fill="white"/>
</mask>
<g mask="url(#mask25_754_37752)">
<path d="M87.2881 174.964L111.199 171.869L110.341 163.822L89.352 166.416" fill="#935738"/>
</g>
<path d="M86.104 118.288L80.3989 113.966L94.3954 115.077C94.3954 115.077 108.551 104.924 110.832 101.569C113.113 98.2146 117.725 95.8512 118.18 95.1334C118.18 95.1334 119.525 95.6371 116.905 98.371C116.905 98.371 122.882 95.2887 124.364 94.4607C125.846 93.6327 126.29 95.2606 123.726 97.0604C123.726 97.0604 125.322 97.5994 122.542 99.9313C122.542 99.9313 124.011 100.365 121.495 102.798C118.244 105.942 114.848 106.721 114.848 106.721L99.1805 124.724C98.1115 125.936 96.6105 126.645 95.0241 126.688L81.1283 127.121L86.104 118.288Z" fill="#FF9763"/>
<mask id="mask26_754_37752" style="mask-type:alpha" maskUnits="userSpaceOnUse" x="80" y="94" width="46" height="34">
<path fill-rule="evenodd" clip-rule="evenodd" d="M86.104 118.288L80.3989 113.966L94.3954 115.077C94.3954 115.077 108.551 104.924 110.832 101.569C113.113 98.2146 117.725 95.8512 118.18 95.1334C118.18 95.1334 119.525 95.6371 116.905 98.371C116.905 98.371 122.882 95.2887 124.364 94.4607C125.846 93.6327 126.29 95.2606 123.726 97.0604C123.726 97.0604 125.322 97.5994 122.542 99.9313C122.542 99.9313 124.011 100.365 121.495 102.798C118.244 105.942 114.848 106.721 114.848 106.721L99.1805 124.724C98.1115 125.936 96.6105 126.645 95.0241 126.688L81.1283 127.121L86.104 118.288Z" fill="white"/>
</mask>
<g mask="url(#mask26_754_37752)">
<path d="M90.4275 133.299C93.7865 131.442 92.2375 113.818 92.2375 113.818L85.7031 131.359L93.6368 134.846" fill="#E84B23"/>
</g>
<path d="M66.4324 127.185L89.3233 129.639C89.3233 129.639 93.5185 120.394 92.2377 113.818L66.5657 110.146L66.4324 127.185Z" fill="#F0F3FC"/>
<mask id="mask27_754_37752" style="mask-type:alpha" maskUnits="userSpaceOnUse" x="66" y="110" width="27" height="20">
<path fill-rule="evenodd" clip-rule="evenodd" d="M66.4324 127.185L89.3233 129.639C89.3233 129.639 93.5185 120.394 92.2377 113.818L66.5657 110.146L66.4324 127.185Z" fill="white"/>
</mask>
<g mask="url(#mask27_754_37752)">
<path d="M69.9086 115.781C69.2508 126.06 77.9032 128.415 80.3989 128.682C82.8946 128.95 72.0783 132.414 71.7635 132.414C71.4488 132.414 62.6978 127.121 62.6978 127.121L67.7768 115.82" fill="#D6DCF2"/>
<path d="M87.5652 109.863C91.355 116.188 82.9802 132.428 82.9802 132.428Z" fill="#F0F3FC"/>
</g>
<path d="M109.185 81.8402L129.276 90.395L94.1192 178.709C92.7043 182.263 89.3063 184.186 86.5295 183.004L76.4942 178.73C73.7173 177.548 72.6133 173.708 74.0281 170.154L109.185 81.8402Z" fill="#9A7ED9"/>
<mask id="mask28_754_37752" style="mask-type:alpha" maskUnits="userSpaceOnUse" x="73" y="81" width="57" height="103">
<path fill-rule="evenodd" clip-rule="evenodd" d="M109.185 81.8402L129.276 90.395L94.1192 178.709C92.7043 182.263 89.3063 184.186 86.5295 183.004L76.4942 178.73C73.7173 177.548 72.6133 173.708 74.0281 170.154L109.185 81.8402Z" fill="white"/>
</mask>
<g mask="url(#mask28_754_37752)">
<rect width="3.3848" height="90.117" transform="matrix(-0.920065 -0.391766 0.370142 -0.928975 93.613 169.515)" fill="#6F4EB9"/>
<rect width="3.3848" height="90.117" transform="matrix(-0.920065 -0.391766 0.370142 -0.928975 88.0112 167.13)" fill="#6F4EB9"/>
<rect width="3.3848" height="90.117" transform="matrix(-0.920065 -0.391766 0.370142 -0.928975 82.6379 164.841)" fill="#6F4EB9"/>
<rect width="29.2023" height="14.5411" transform="matrix(-0.920065 -0.391766 0.370142 -0.928975 94.23 188.574)" fill="#935738"/>
<rect width="26.595" height="3.27175" transform="matrix(-0.920065 -0.391766 0.370142 -0.928975 99.6357 175.634)" fill="#F0F3FC"/>
</g>
<path d="M126.369 68.1859V68.1859C127.077 68.4754 127.571 69.1491 127.649 69.9328L129.276 90.3949L109.185 81.8401L124.27 68.4942C124.859 67.9943 125.668 67.8754 126.369 68.1859Z" fill="#FFCCCC"/>
<mask id="mask29_754_37752" style="mask-type:alpha" maskUnits="userSpaceOnUse" x="109" y="68" width="21" height="23">
<path fill-rule="evenodd" clip-rule="evenodd" d="M126.369 68.1859V68.1859C127.077 68.4754 127.571 69.1491 127.649 69.9328L129.276 90.3949L109.185 81.8401L124.27 68.4942C124.859 67.9943 125.668 67.8754 126.369 68.1859Z" fill="white"/>
</mask>
<g mask="url(#mask29_754_37752)">
<rect width="30.6624" height="5.55207" transform="matrix(-0.920065 -0.391766 0.370142 -0.928975 132.279 94.6899)" fill="#FF999A"/>
<ellipse rx="9.91735" ry="9.56362" transform="matrix(0.358259 -0.933622 0.925225 0.379418 128.981 65.2767)" fill="#3A3531"/>
</g>
<path d="M123.557 78.4984L122.492 78.975C122.42 79.0184 122.367 79.0893 122.345 79.1724C122.323 79.2583 122.334 79.3498 122.377 79.4269C122.419 79.5011 122.488 79.5555 122.568 79.5787C122.651 79.597 122.738 79.5853 122.814 79.5454L123.88 79.0689C123.952 79.0254 124.005 78.9545 124.027 78.8714C124.049 78.7855 124.037 78.694 123.994 78.6169C123.952 78.5427 123.884 78.4883 123.803 78.4651C123.72 78.4468 123.633 78.4585 123.557 78.4984V78.4984Z" fill="#FF999A"/>
<path d="M53.6635 142.609L29.1365 141.357L27.87 151.954C27.0368 158.926 29.5619 165.877 34.6282 170.559L64.522 198.182L84.8467 191.978L56.5771 157.025" fill="#589BF7"/>
<mask id="mask30_754_37752" style="mask-type:alpha" maskUnits="userSpaceOnUse" x="27" y="141" width="58" height="58">
<path fill-rule="evenodd" clip-rule="evenodd" d="M53.6635 142.609L29.1365 141.357L27.87 151.954C27.0368 158.926 29.5619 165.877 34.6282 170.559L64.522 198.182L84.8467 191.978L56.5771 157.025" fill="white"/>
</mask>
<g mask="url(#mask30_754_37752)">
<path d="M17.4368 152.585C39.3113 161.532 54.4529 147.977 54.4529 147.977L28.2954 137.592L21.405 143.097L22.1919 147.327" fill="#2976DF"/>
<path d="M43.2553 149.121C43.5779 158.715 33.8479 161.501 33.8479 161.501" stroke="#2976DF" stroke-width="0.971061" stroke-linecap="round" stroke-linejoin="round"/>
<path d="M41.47 158.251L70.9377 193.843" stroke="#2976DF" stroke-width="0.971061" stroke-linecap="round" stroke-linejoin="round"/>
</g>
<path d="M69.5562 110.574C69.5562 110.574 51.1955 108.609 46.4744 111.212C41.7533 113.815 32.0681 125.04 25.7732 144.562C45.4446 157.414 59.5306 148.102 59.5306 148.102C59.5306 148.102 69.8994 132.327 70.8277 119.3" fill="#F0F3FC"/>
<mask id="mask31_754_37752" style="mask-type:alpha" maskUnits="userSpaceOnUse" x="25" y="109" width="46" height="43">
<path fill-rule="evenodd" clip-rule="evenodd" d="M69.5562 110.574C69.5562 110.574 51.1955 108.609 46.4744 111.212C41.7533 113.815 32.0681 125.04 25.7732 144.562C45.4446 157.414 59.5306 148.102 59.5306 148.102C59.5306 148.102 69.8994 132.327 70.8277 119.3" fill="white"/>
</mask>
<g mask="url(#mask31_754_37752)">
<path d="M19.0442 136.665C42.8859 154.81 52.4634 142.669 44.9017 129.638C41.4696 123.724 65.203 137.811 65.203 137.811L68.144 153.626L63.5165 154.657L46.6628 155.965L29.9028 153.626L25.6538 148.965" fill="#D6DCF2"/>
</g>
<path d="M69.9087 102.824L64.8383 118.366L55.2783 110.042L59.3595 103.241L69.9087 102.824V102.824Z" fill="#FF9763"/>
<mask id="mask32_754_37752" style="mask-type:alpha" maskUnits="userSpaceOnUse" x="55" y="102" width="15" height="17">
<path fill-rule="evenodd" clip-rule="evenodd" d="M69.9087 102.824L64.8383 118.366L55.2783 110.042L59.3595 103.241L69.9087 102.824V102.824Z" fill="white"/>
</mask>
<g mask="url(#mask32_754_37752)">
<path d="M61.6573 105.062C72.4545 110.621 57.2546 122.228 57.2546 122.228L76.3155 113.15L72.008 100.945L61.0779 101.826" fill="#E84B23"/>
</g>
<path d="M58.8164 104.954L60.5491 94.6559L72.8702 90.0563C75.0132 92.7699 76.1431 106.302 72.8702 108.944C71.7657 109.836 67.8517 108.646 64.4339 107.339" fill="#FF9763"/>
<path d="M58.8163 106.987C65.6507 102.779 67.9128 98.8995 65.4582 96.3195C63.0035 93.7395 57.3724 97.8853 57.3724 97.8853L55.8323 100.234L58.8163 106.987Z" fill="#3A3530"/>
<path d="M73.4476 90.154C70.949 85.0204 64.83 82.9181 59.7805 85.4585C54.731 87.9988 52.6633 94.2197 55.162 99.3533C55.4079 99.8574 55.693 100.34 56.0147 100.796L74.0587 91.7185C73.8966 91.1807 73.6922 90.6574 73.4476 90.154V90.154Z" fill="#935738"/>
<path d="M75.0133 92.77L56.2581 102.206C55.7213 102.477 55.0729 102.254 54.8002 101.705L54.1686 100.407C54.041 100.143 54.0214 99.8378 54.114 99.5591C54.2067 99.2803 54.4039 99.0517 54.6613 98.9248L58.9633 96.7605L73.4165 89.4893C73.9533 89.2177 74.6017 89.4405 74.8744 89.9902L75.5059 91.2878C75.6335 91.5514 75.6532 91.857 75.5605 92.1358C75.4679 92.4146 75.2706 92.6431 75.0133 92.77Z" fill="#935738"/>
<mask id="mask33_754_37752" style="mask-type:alpha" maskUnits="userSpaceOnUse" x="54" y="89" width="22" height="14">
<path fill-rule="evenodd" clip-rule="evenodd" d="M75.0133 92.77L56.2581 102.206C55.7213 102.477 55.0729 102.254 54.8002 101.705L54.1686 100.407C54.041 100.143 54.0214 99.8378 54.114 99.5591C54.2067 99.2803 54.4039 99.0517 54.6613 98.9248L58.9633 96.7605L73.4165 89.4893C73.9533 89.2177 74.6017 89.4405 74.8744 89.9902L75.5059 91.2878C75.6335 91.5514 75.6532 91.857 75.5605 92.1358C75.4679 92.4146 75.2706 92.6431 75.0133 92.77Z" fill="white"/>
</mask>
<g mask="url(#mask33_754_37752)">
<path d="M55.9233 96.4083C56.4837 98.1921 57.2465 99.9011 58.1959 101.499C58.4622 101.946 58.743 102.384 59.0382 102.811C59.154 103.004 59.3955 103.07 59.5879 102.96C59.7623 102.855 59.8586 102.576 59.732 102.392C59.2205 101.651 58.7514 100.879 58.3271 100.081C57.9078 99.2923 57.5343 98.479 57.2086 97.6449C57.0227 97.1651 56.8525 96.6793 56.698 96.1875C56.6351 95.9696 56.4172 95.8417 56.2039 95.8975C55.9914 95.9604 55.8667 96.1875 55.9233 96.4083L55.9233 96.4083Z" fill="#190000"/>
<path d="M59.633 96.918C60.1767 98.6162 60.8635 100.262 61.6855 101.836C61.9153 102.275 62.1556 102.708 62.4065 103.135C62.4787 103.264 62.6119 103.342 62.7557 103.342C62.8994 103.341 63.0319 103.261 63.103 103.132C63.1741 103.003 63.1731 102.844 63.1002 102.716C62.2372 101.249 61.4999 99.7067 60.897 98.107C60.7225 97.6414 60.5594 97.1715 60.4078 96.6972C60.3447 96.4794 60.1269 96.3515 59.9136 96.4072C59.7011 96.47 59.5764 96.6972 59.633 96.918V96.918Z" fill="#190000"/>
<path d="M62.5985 94.6578C62.9392 96.4387 63.3997 98.1929 63.9765 99.9076C64.141 100.396 64.3148 100.881 64.4981 101.363C64.5624 101.579 64.7792 101.707 64.9923 101.653C65.1846 101.598 65.3526 101.352 65.2729 101.142C64.6303 99.4522 64.1025 97.7184 63.6933 95.9529C63.5769 95.4498 63.4702 94.9445 63.3732 94.437C63.3124 94.2173 63.0927 94.0883 62.8791 94.1469C62.668 94.2117 62.5441 94.4372 62.5985 94.6578V94.6578Z" fill="#190000"/>
<path d="M65.6521 91.7555C66.622 93.6567 67.5326 95.5885 68.384 97.551C68.6229 98.1021 68.8569 98.6555 69.0862 99.211C69.1714 99.4174 69.4653 99.4631 69.6358 99.36C69.8423 99.2352 69.8655 98.999 69.78 98.7918C68.9636 96.815 68.0869 94.8665 67.1498 92.9463C66.8865 92.4071 66.6185 91.8705 66.3459 91.3363C66.2336 91.1389 65.988 91.0726 65.7968 91.1882C65.6055 91.3037 65.5408 91.5575 65.6521 91.7555L65.6521 91.7555Z" fill="#190000"/>
<path d="M68.95 89.4837C69.818 91.2433 70.5755 93.0588 71.2177 94.9191C71.4016 95.452 71.576 95.9881 71.741 96.5276C71.7787 96.6713 71.8878 96.7832 72.0271 96.8209C72.1664 96.8586 72.3146 96.8164 72.4155 96.7102C72.5165 96.604 72.5547 96.4501 72.5158 96.3068C71.9197 94.3639 71.2041 92.4623 70.3734 90.6137C70.1395 90.0927 69.8962 89.5763 69.6437 89.0644C69.5315 88.867 69.2859 88.8008 69.0946 88.9163C68.9034 89.0319 68.8387 89.2857 68.95 89.4837V89.4837Z" fill="#190000"/>
<path d="M71.5417 88.7597C72.7402 90.5816 73.8053 92.4937 74.7278 94.4798C74.9876 95.0395 75.2358 95.6047 75.4725 96.1753C75.5581 96.3814 75.8513 96.4276 76.0221 96.3243C76.2283 96.1997 76.2522 95.9631 76.1662 95.7561C75.3258 93.7313 74.34 91.7744 73.2171 89.9017C72.9006 89.3742 72.5733 88.8538 72.2354 88.3405C72.1201 88.1472 71.8781 88.0816 71.6858 88.1915C71.496 88.3086 71.4318 88.5614 71.5417 88.7597V88.7597Z" fill="#190000"/>
</g>
<path d="M67.2843 98.8616C60.1627 94.3896 58.8163 101.76 64.8372 104.146Z" fill="#FF9763"/>
<path d="M61.424 127.724L71.4008 141.792L99.236 136.061C102.329 132.621 107.617 132.569 108.465 131.11C108.465 131.11 110.131 132.393 107.542 134.357C107.37 134.488 107.179 134.621 106.968 134.758C103.576 136.946 113.453 130.537 113.952 130.016C114.451 129.495 115.149 131.267 113.952 132.569C113.952 132.569 115.299 133.664 112.356 136.008C109.412 138.353 104.596 141.966 100.358 142.939L71.0285 155.331C70.0374 155.75 68.9768 155.965 67.906 155.965V155.965C64.9871 155.96 62.2849 154.371 60.7878 151.781L51.3474 135.539L61.424 127.724Z" fill="#FF9763"/>
<mask id="mask34_754_37752" style="mask-type:alpha" maskUnits="userSpaceOnUse" x="51" y="127" width="64" height="29">
<path fill-rule="evenodd" clip-rule="evenodd" d="M61.424 127.724L71.4008 141.792L99.236 136.061C102.329 132.621 107.617 132.569 108.465 131.11C108.465 131.11 110.131 132.393 107.542 134.357C107.37 134.488 107.179 134.621 106.968 134.758C103.576 136.946 113.453 130.537 113.952 130.016C114.451 129.495 115.149 131.267 113.952 132.569C113.952 132.569 115.299 133.664 112.356 136.008C109.412 138.353 104.596 141.966 100.358 142.939L71.0285 155.331C70.0374 155.75 68.9768 155.965 67.906 155.965V155.965C64.9871 155.96 62.2849 154.371 60.7878 151.781L51.3474 135.539L61.424 127.724Z" fill="white"/>
</mask>
<g mask="url(#mask34_754_37752)">
<path d="M51.3474 160.07C63.9753 157.358 70.9372 138.65 70.9372 138.65L58.8162 141.859L55.6819 152.595" fill="#E84B23"/>
</g>
<path d="M43.2554 127.121L59.5309 152.007C59.5309 152.007 69.597 142.214 70.9375 138.65L57.0108 115.134" fill="#F0F3FC"/>
<mask id="mask35_754_37752" style="mask-type:alpha" maskUnits="userSpaceOnUse" x="43" y="115" width="28" height="38">
<path fill-rule="evenodd" clip-rule="evenodd" d="M43.2554 127.121L59.5309 152.007C59.5309 152.007 69.597 142.214 70.9375 138.65L57.0108 115.134" fill="white"/>
</mask>
<g mask="url(#mask35_754_37752)">
<path d="M53.9209 152.006C55.2316 146.91 68.0542 133.989 70.2877 133.911Z" fill="#F0F3FC"/>
</g>
<path d="M72.434 97.192V97.192C72.7647 97.0687 73.1295 97.2458 73.2487 97.5877L73.6135 98.6331C73.7327 98.975 73.5613 99.3521 73.2306 99.4754V99.4754C72.8999 99.5987 72.5352 99.4215 72.4159 99.0797L72.0512 98.0342C71.9319 97.6923 72.1033 97.3152 72.434 97.1919L72.434 97.192Z" fill="#190000"/>
<path d="M72.2443 94.9226C70.4067 95.514 70.2745 96.4392 71.4466 96.1469C72.6186 95.8547 73.4449 94.5362 72.2443 94.9226Z" fill="#190000"/>
<path d="M74.6428 97.9C77.6411 98.5845 77.276 101.936 74.6428 101.234Z" fill="#FF9763"/>
<ellipse cx="68.7222" cy="101.483" rx="1.96759" ry="2.03402" fill="#E84B23"/>
<path d="M71.5544 102.398C72.1591 102.909 72.9844 103.038 73.7081 102.736" stroke="#993443" stroke-width="0.971061" stroke-linecap="round" stroke-linejoin="round"/>
<path d="M64.5498 99.984C64.2736 99.6575 63.7763 99.6123 63.4193 99.8116C63.0561 100.032 62.8928 100.486 63.0288 100.898C63.0972 101.129 63.2496 101.324 63.454 101.441C63.5347 101.487 63.6293 101.5 63.7187 101.477C63.8519 101.439 63.9502 101.322 63.9681 101.181C63.986 101.039 63.9201 100.9 63.8008 100.828C63.7721 100.813 63.7448 100.795 63.7192 100.775L63.7887 100.83C63.7554 100.803 63.7252 100.772 63.6986 100.737L63.7523 100.809C63.7197 100.765 63.6926 100.717 63.6718 100.666L63.7064 100.751C63.6861 100.699 63.6719 100.645 63.6641 100.59L63.6764 100.684C63.6693 100.629 63.6689 100.573 63.6751 100.518L63.6628 100.612C63.6693 100.561 63.6822 100.511 63.701 100.464L63.6664 100.549C63.6834 100.508 63.7052 100.469 63.7312 100.434L63.6775 100.506C63.7026 100.474 63.7312 100.444 63.7627 100.418L63.6932 100.474C63.7309 100.444 63.7718 100.42 63.8153 100.401L63.7332 100.436C63.7841 100.415 63.8374 100.4 63.8919 100.393L63.8005 100.405C63.8553 100.399 63.9107 100.399 63.9655 100.406L63.8742 100.393C63.9248 100.401 63.9745 100.415 64.022 100.434L63.9399 100.399C63.9834 100.417 64.0245 100.442 64.0621 100.471L63.9926 100.416C64.0184 100.437 64.0423 100.461 64.064 100.486C64.1623 100.588 64.31 100.618 64.4384 100.563C64.5667 100.508 64.6504 100.379 64.6504 100.235C64.6469 100.142 64.6112 100.053 64.5498 99.984V99.984Z" fill="#190000"/>
<path d="M53.9209 109.863L57.0964 106.987L64.8383 118.366C64.8383 118.366 62.9672 119.513 63.1773 120.854L53.9209 109.863Z" fill="#F0F3FC"/>
<path d="M55.8319 123.681L57.3859 126.936L60.8609 127.458L58.3465 129.992L58.94 133.57L55.8319 131.881L52.7238 133.57L53.3174 129.992L50.803 127.458L54.2779 126.936L55.8319 123.681V123.681Z" fill="#FFC562"/>
<path d="M66.4324 119.982C66.4324 119.982 66.0855 118.814 65.1792 118.454L67.7907 109.863L69.9086 110.68L66.4324 119.982Z" fill="#F0F3FC"/>
<path d="M44.9256 130.679C45.249 131.247 45.5237 131.843 45.7468 132.46C45.9463 133.063 46.0482 133.679 45.9337 134.276C45.8794 134.496 46.0033 134.722 46.2143 134.787C46.4137 134.834 46.6648 134.725 46.7085 134.497C47.0003 132.976 46.3117 131.554 45.6193 130.26C45.5071 130.062 45.2614 129.996 45.0702 130.112C44.8789 130.227 44.8143 130.481 44.9256 130.679V130.679Z" fill="#D6DCF2"/>
<path d="M70.8311 142.003L69.9407 143.761C69.8678 143.889 69.8667 144.048 69.9379 144.177C70.009 144.306 70.1414 144.386 70.2852 144.387C70.429 144.388 70.5622 144.309 70.6344 144.18L71.5249 142.422C71.6368 142.224 71.5723 141.97 71.3807 141.854C71.1892 141.738 70.9431 141.805 70.8311 142.003H70.8311Z" fill="#E84B23"/>
<path d="M97.1422 196.762L98.3374 195.933C98.4262 195.876 98.4919 195.788 98.522 195.685C98.5654 195.522 98.5091 195.348 98.3795 195.245C98.25 195.142 98.073 195.13 97.9319 195.216L96.7367 196.045C96.6479 196.101 96.5822 196.189 96.5521 196.293C96.5086 196.456 96.565 196.629 96.6945 196.732C96.8241 196.835 97.0011 196.847 97.1422 196.762V196.762Z" fill="#190000"/>
<path d="M63.6959 177.275C64.3798 178.006 65.1484 178.646 65.9842 179.182C66.1761 179.296 66.4205 179.229 66.5338 179.033C66.6411 178.834 66.5775 178.584 66.3897 178.465C66.1939 178.339 66.0018 178.208 65.8133 178.071C65.7165 178 65.6208 177.928 65.5262 177.854C65.5052 177.838 65.4842 177.821 65.4633 177.805C65.4413 177.787 65.4424 177.788 65.4664 177.807L65.4353 177.782C65.3888 177.744 65.3424 177.706 65.2964 177.668C64.9333 177.363 64.5885 177.036 64.264 176.688C64.1625 176.583 64.0145 176.542 63.8758 176.58C63.737 176.619 63.6287 176.731 63.5915 176.874C63.5544 177.018 63.5942 177.171 63.6958 177.275L63.6959 177.275Z" fill="#2976DF"/>
<ellipse cx="64.838" cy="123.089" rx="0.42469" ry="0.43903" fill="#F0F3FC"/>
<path d="M107.99 133.341L107.091 134.114C107.015 134.192 106.973 134.298 106.973 134.409C106.973 134.519 107.016 134.625 107.091 134.704C107.167 134.782 107.269 134.826 107.376 134.826L107.483 134.811C107.551 134.792 107.612 134.755 107.661 134.704L108.561 133.931C108.636 133.853 108.679 133.747 108.679 133.636C108.678 133.526 108.636 133.42 108.561 133.341C108.485 133.263 108.382 133.219 108.275 133.219L108.168 133.234C108.101 133.253 108.039 133.29 107.99 133.341V133.341Z" fill="#E84B23"/>
<path d="M37.8092 127.585C37.898 128.738 38.1509 129.871 38.5599 130.948C38.6243 131.165 38.8411 131.292 39.0541 131.238C39.246 131.184 39.415 130.937 39.3347 130.727C38.9468 129.722 38.7036 128.663 38.6127 127.585C38.6083 127.357 38.431 127.174 38.2109 127.169C38.0081 127.179 37.7907 127.353 37.8092 127.585V127.585Z" fill="#D6DCF2"/>
<path d="M146.315 195.749C129.672 196.283 110.259 196.59 89.5224 196.59C68.7859 196.59 39.6085 196.283 22.9649 195.749C21.4636 195.749 20.2466 199.24 20.2466 203.547C20.2466 207.853 21.4637 211.344 22.9649 211.344C39.6085 210.81 68.7859 210.503 89.5224 210.503C110.259 210.503 129.672 210.81 146.315 211.344C147.817 211.344 149.034 207.853 149.034 203.547C149.034 199.24 147.817 195.749 146.315 195.749Z" fill="#D6DCF2"/>
<path d="M142.232 193.25C126.785 193.955 108.768 194.361 89.5224 194.361C70.277 194.361 42.4955 193.955 27.0487 193.25C25.6554 193.25 24.5259 197.86 24.5259 203.547C24.5259 209.233 25.6554 213.843 27.0487 213.843C42.4955 213.138 70.277 212.733 89.5224 212.733C108.768 212.733 126.785 213.138 142.232 213.843C143.625 213.843 144.754 209.233 144.754 203.547C144.754 197.86 143.625 193.25 142.232 193.25Z" fill="#EFF3FC"/>
<mask id="mask36_754_37752" style="mask-type:alpha" maskUnits="userSpaceOnUse" x="24" y="193" width="121" height="21">
<path fill-rule="evenodd" clip-rule="evenodd" d="M142.232 193.25C126.785 193.955 108.768 194.361 89.5224 194.361C70.277 194.361 42.4955 193.955 27.0487 193.25C25.6554 193.25 24.5259 197.86 24.5259 203.547C24.5259 209.233 25.6554 213.843 27.0487 213.843C42.4955 213.138 70.277 212.733 89.5224 212.733C108.768 212.733 126.785 213.138 142.232 213.843C143.625 213.843 144.754 209.233 144.754 203.547C144.754 197.86 143.625 193.25 142.232 193.25Z" fill="white"/>
</mask>
<g mask="url(#mask36_754_37752)">
<path d="M30.6853 191.556C21.9385 207.202 33.1156 221.232 33.1156 221.232L37.6064 206.952" fill="#D6DCF2"/>
</g>
<path d="M137.769 190.694C123.63 191.574 107.139 192.08 89.5227 192.08C71.9067 192.08 45.6507 191.574 31.5117 190.694C30.2363 190.694 29.2024 196.448 29.2024 203.547C29.2024 210.645 30.2363 216.4 31.5117 216.4C45.6507 215.519 71.9067 215.013 89.5227 215.013C107.139 215.013 123.63 215.519 137.769 216.4C139.044 216.4 140.078 210.645 140.078 203.547C140.078 196.448 139.044 190.694 137.769 190.694Z" fill="#EFF3FC"/>
<mask id="mask37_754_37752" style="mask-type:alpha" maskUnits="userSpaceOnUse" x="29" y="190" width="112" height="27">
<path fill-rule="evenodd" clip-rule="evenodd" d="M137.769 190.694C123.63 191.574 107.139 192.08 89.5227 192.08C71.9067 192.08 45.6507 191.574 31.5117 190.694C30.2363 190.694 29.2024 196.448 29.2024 203.547C29.2024 210.645 30.2363 216.399 31.5117 216.399C45.6507 215.519 71.9067 215.013 89.5227 215.013C107.139 215.013 123.63 215.519 137.769 216.399C139.044 216.399 140.078 210.645 140.078 203.547C140.078 196.448 139.044 190.694 137.769 190.694Z" fill="white"/>
</mask>
<g mask="url(#mask37_754_37752)">
<path d="M77.2253 188.838C76.0277 208.955 78.6408 196.853 76.1275 216.399C75.2255 223.415 51.079 217.518 51.9771 217.724C52.8752 217.931 103.771 220.2 103.771 220.2L94.7892 210.812C94.7892 210.812 97.2841 200.289 91.3962 197.813L90.7974 187.6L75.9279 188.425" fill="#D6DCF2"/>
<path d="M35.4107 185.95C30.6851 191.556 28.0093 214.456 38.8038 215.042C49.5983 215.628 59.9604 216.868 59.9604 216.868L49.1825 225.771L18.8447 222.47L24.5258 188.632L38.0054 180.585" fill="#D6DCF2"/>
</g>
<rect x="79.2957" y="191.81" width="10.6887" height="20.3718" fill="#FFC562"/>
<path d="M98.2756 220.869L93.0055 219.306L91.5496 224.77L80.4883 204.391L87.2143 200.489L98.2756 220.869V220.869Z" fill="#FFC562"/>
<mask id="mask38_754_37752" style="mask-type:alpha" maskUnits="userSpaceOnUse" x="80" y="200" width="19" height="25">
<path fill-rule="evenodd" clip-rule="evenodd" d="M98.2756 220.869L93.0055 219.306L91.5496 224.77L80.4883 204.391L87.2143 200.489L98.2756 220.869V220.869Z" fill="white"/>
</mask>
<g mask="url(#mask38_754_37752)">
<path d="M93.6913 209.007C92.6933 215.3 87.9967 215.091 90.5945 223.01C93.1923 230.93 83.2627 212.773 83.2627 212.773L91.895 207.305" fill="#D89D35"/>
</g>
<path d="M71.0046 220.869L76.2749 219.306L77.7307 224.77L88.7921 204.391L82.066 200.489L71.0046 220.869V220.869Z" fill="#FFC562"/>
<mask id="mask39_754_37752" style="mask-type:alpha" maskUnits="userSpaceOnUse" x="71" y="200" width="18" height="25">
<path fill-rule="evenodd" clip-rule="evenodd" d="M71.0046 220.869L76.2749 219.306L77.7307 224.77L88.7921 204.391L82.066 200.489L71.0046 220.869V220.869Z" fill="white"/>
</mask>
<g mask="url(#mask39_754_37752)">
<path d="M69.4415 216.868C75.1306 210.545 79.211 217.138 83.4076 216.4C87.6042 215.661 72.0362 206.273 72.0362 206.273L68.2461 210.59" fill="#D89D35"/>
</g>
<ellipse cx="84.64" cy="206.952" rx="9.59219" ry="9.91607" fill="#90282A"/>
<mask id="mask40_754_37752" style="mask-type:alpha" maskUnits="userSpaceOnUse" x="75" y="197" width="20" height="20">
<ellipse cx="84.64" cy="206.952" rx="9.59219" ry="9.91607" fill="white"/>
</mask>
<g mask="url(#mask40_754_37752)">
<ellipse cx="81.028" cy="205.567" rx="9.59219" ry="9.91607" fill="#BB393C"/>
</g>
<path d="M44.3079 202.901V204.758C44.3079 205.122 44.5935 205.418 44.9459 205.418C45.2982 205.418 45.5838 205.122 45.5838 204.758V202.901C45.5838 202.537 45.2982 202.242 44.9459 202.242C44.5935 202.242 44.3079 202.537 44.3079 202.901H44.3079Z" fill="#D6DCF2"/>
<path d="M123.928 200.426C123.938 200.658 123.938 200.89 123.925 201.122C123.92 201.227 123.912 201.332 123.902 201.437C123.89 201.492 123.884 201.548 123.883 201.605C123.871 201.483 123.898 201.494 123.89 201.555C123.885 201.589 123.88 201.624 123.874 201.659C123.804 202.11 123.692 202.554 123.541 202.983C123.504 203.089 123.46 203.192 123.422 203.298C123.427 203.285 123.483 203.153 123.438 203.257C123.427 203.282 123.416 203.308 123.405 203.334C123.38 203.392 123.354 203.449 123.328 203.506C123.233 203.709 123.13 203.907 123.017 204.1C122.902 204.299 122.777 204.492 122.644 204.679C122.628 204.702 122.611 204.724 122.595 204.747C122.537 204.827 122.618 204.712 122.62 204.714C122.621 204.714 122.542 204.815 122.531 204.829C122.457 204.921 122.382 205.012 122.305 205.1C122.14 205.288 121.966 205.466 121.784 205.634C121.687 205.723 121.587 205.807 121.486 205.891C121.421 205.946 121.586 205.814 121.519 205.865C121.491 205.886 121.464 205.908 121.437 205.928C121.382 205.97 121.326 206.01 121.27 206.05C120.996 206.246 120.845 206.638 121.041 206.953C121.217 207.235 121.62 207.399 121.914 207.189C123.563 206.011 124.699 204.211 125.077 202.176C125.184 201.599 125.226 201.012 125.204 200.426C125.189 200.082 124.921 199.75 124.566 199.767C124.233 199.782 123.911 200.057 123.928 200.426L123.928 200.426Z" fill="#D6DCF2"/>
</svg>
