<svg width="300" height="212" viewBox="0 0 300 212" fill="none" xmlns="http://www.w3.org/2000/svg">
<defs>
<linearGradient id="paint0_linear_1493_46273" x1="8.19384" y1="193.513" x2="133.992" y2="193.513" gradientUnits="userSpaceOnUse">
<stop offset="0.3003" stop-color="#DCDFF8"/>
<stop offset="0.8855" stop-color="#F5F7FE"/>
</linearGradient>
<linearGradient id="paint1_linear_1493_46273" x1="46.4761" y1="168.921" x2="144.586" y2="168.921" gradientUnits="userSpaceOnUse">
<stop offset="0.3003" stop-color="#DCDFF8"/>
<stop offset="0.8855" stop-color="#F5F7FE"/>
</linearGradient>
<linearGradient id="paint2_linear_1493_46273" x1="170.014" y1="199.565" x2="362.278" y2="199.565" gradientUnits="userSpaceOnUse">
<stop offset="0.3003" stop-color="#DCDFF8"/>
<stop offset="0.8855" stop-color="#F5F7FE"/>
</linearGradient>
<linearGradient id="paint3_linear_1493_46273" x1="162.392" y1="168.921" x2="260.502" y2="168.921" gradientUnits="userSpaceOnUse">
<stop offset="0.3003" stop-color="#DCDFF8"/>
<stop offset="0.8855" stop-color="#F5F7FE"/>
</linearGradient>
<linearGradient id="paint4_linear_1493_46273" x1="70.7112" y1="52.1756" x2="11.7633" y2="129.944" gradientUnits="userSpaceOnUse">
<stop offset="0.0035" stop-color="#4464AD"/>
<stop offset="1" stop-color="#268BCC"/>
</linearGradient>
</defs>
<rect x="3.03418" width="177.167" height="99.036" rx="1.69395" fill="#BB393C"/>
<mask id="mask0_1493_46273" style="mask-type:alpha" maskUnits="userSpaceOnUse" x="3" y="0" width="178" height="100">
<rect x="3.03418" width="177.167" height="99.036" rx="1.69395" fill="white"/>
</mask>
<g mask="url(#mask0_1493_46273)">
<path d="M-0.000225067 68.7188C12.978 100.311 176.516 86.2059 183.86 84.8898C191.204 83.5737 194.889 102.953 194.889 102.953L55.6273 134.16L-13.4878 102.953" fill="#90282A"/>
</g>
<rect x="9.06348" y="5.19434" width="165.108" height="90.471" rx="1.6688" fill="#FFC562"/>
<mask id="mask1_1493_46273" style="mask-type:alpha" maskUnits="userSpaceOnUse" x="9" y="5" width="166" height="91">
<rect x="9.06348" y="5.19434" width="165.108" height="90.471" rx="1.6688" fill="white"/>
</mask>
<g mask="url(#mask1_1493_46273)">
<path d="M174.172 -2.54089C172.503 95.6656 0 92.8615 0 92.8615L23.5496 116.362L174.172 122.958L208.944 71.0151L178.141 -4.83789" fill="#D89D35"/>
</g>
<rect y="92.8613" width="183.235" height="7.44981" fill="#BB393C"/>
<mask id="mask2_1493_46273" style="mask-type:alpha" maskUnits="userSpaceOnUse" x="0" y="92" width="184" height="9">
<rect y="92.8613" width="183.235" height="7.44981" fill="white"/>
</mask>
<g mask="url(#mask2_1493_46273)">
<path d="M192.217 93.6611C90.0308 100.311 94.1436 98.9035 87.8996 101.624C81.6556 104.345 167.083 115.065 167.083 115.065L191.874 107.025" fill="#90282A"/>
</g>
<rect x="107.527" y="90.3916" width="17.3835" height="2.4701" rx="1.23505" fill="#EFF3FC"/>
<rect x="127.083" y="90.3916" width="10.017" height="2.4701" rx="1.03956" fill="#FFC562"/>
<rect x="149.26" y="90.3916" width="6.45266" height="2.4701" rx="0.834348" fill="#EFF3FC"/>
<path d="M16.4175 84.8906H41.7841V90.6942C41.7841 91.8914 40.8136 92.862 39.6164 92.862H18.5853C17.388 92.862 16.4175 91.8914 16.4175 90.6942V84.8906Z" fill="#EFF3FC"/>
<rect x="15.9922" y="82.7295" width="26.2169" height="4.32225" fill="#516DDB"/>
<mask id="mask3_1493_46273" style="mask-type:alpha" maskUnits="userSpaceOnUse" x="15" y="82" width="28" height="6">
<rect x="15.9922" y="82.7295" width="26.2169" height="4.32225" fill="white"/>
</mask>
<g mask="url(#mask3_1493_46273)">
<path d="M24.2368 81.8715C42.2093 82.7297 42.2093 85.8507 41.7841 89.4932C41.359 93.1357 45.6048 80.3914 45.6048 80.3914L39.4211 78.7109L24.3742 79.9477" fill="#3152BA"/>
</g>
<rect x="27.7192" y="80.3906" width="2.76341" height="8.48508" rx="1.06396" fill="#3152BA"/>
<ellipse cx="91.6174" cy="45.4836" rx="23.2068" ry="23.2355" fill="#EFF3FC"/>
<path d="M85.1519 45.4834V36.9222C85.1513 36.4021 85.4284 35.9214 85.8786 35.6611C86.3288 35.4009 86.8837 35.4007 87.334 35.6607L94.7391 39.9414L102.144 44.222C102.594 44.4825 102.872 44.9633 102.872 45.4834C102.872 46.0036 102.594 46.4843 102.144 46.7449L94.7391 51.0255L87.334 55.3061C86.8837 55.5661 86.3288 55.566 85.8786 55.3057C85.4284 55.0455 85.1513 54.5647 85.1519 54.0447V45.4834Z" fill="#589BF7"/>
<mask id="mask4_1493_46273" style="mask-type:alpha" maskUnits="userSpaceOnUse" x="85" y="35" width="18" height="21">
<path fill-rule="evenodd" clip-rule="evenodd" d="M85.1519 45.4834V36.9222C85.1513 36.4021 85.4284 35.9214 85.8786 35.6611C86.3288 35.4009 86.8837 35.4007 87.334 35.6607L94.7391 39.9414L102.144 44.222C102.594 44.4825 102.872 44.9633 102.872 45.4834C102.872 46.0036 102.594 46.4843 102.144 46.7449L94.7391 51.0255L87.334 55.3061C86.8837 55.5661 86.3288 55.566 85.8786 55.3057C85.4284 55.0455 85.1513 54.5647 85.1519 54.0447V45.4834Z" fill="white"/>
</mask>
<g mask="url(#mask4_1493_46273)">
<path d="M101.924 36.6729C99.7462 53.0884 79.3105 56.941 79.3105 56.941L120.182 66.6563L123.699 42.5355" fill="#2976DF"/>
</g>
<path d="M43.7741 32.0366L39.754 34.7167C39.4438 34.9235 39.2804 35.3562 39.4979 35.6935C39.6973 36.0028 40.1423 36.1711 40.4747 35.9496L44.4948 33.2695C44.805 33.0627 44.9683 32.63 44.7509 32.2927C44.5515 31.9834 44.1065 31.8151 43.7741 32.0366Z" fill="#D89D35"/>
<path d="M153.348 70.8878C153.721 70.8878 154.079 70.5594 154.062 70.1739C154.055 69.7824 153.739 69.4666 153.348 69.46C152.974 69.46 152.617 69.7883 152.634 70.1739C152.641 70.5654 152.956 70.8811 153.348 70.8878Z" fill="#D89D35"/>
<rect x="24.9521" y="171.088" width="257.074" height="15.648" fill="#9A7ED9"/>
<rect x="128.62" y="167.734" width="49.7382" height="20.6777" fill="#274B69"/>
<path d="M37.0378 175.822L20.5205 164.893L47.9666 132.355C80.2561 136.329 99.3293 107.28 154.47 139.072L153.57 173.928L67.0919 165.616L37.0378 175.822Z" fill="#F8FBFF"/>
<path d="M10.3501 187.057L15.1935 174.638H17.1806L20.782 164.951C57.6666 165.674 117.568 128.284 153.832 173.986C153.832 173.986 136.9 180.35 135.658 187.057C92.9367 177.618 48.4765 189.789 10.3501 187.057Z" fill="#EFF3FC"/>
<mask id="mask5_1493_46273" style="mask-type:alpha" maskUnits="userSpaceOnUse" x="10" y="151" width="144" height="37">
<path fill-rule="evenodd" clip-rule="evenodd" d="M10.3501 187.057L15.1935 174.638H17.1806L20.782 164.951C57.6666 165.674 117.568 128.284 153.832 173.986C153.832 173.986 136.9 180.35 135.658 187.057C92.9367 177.618 48.4765 189.789 10.3501 187.057Z" fill="white"/>
</mask>
<g mask="url(#mask5_1493_46273)">
<path d="M10.3501 178.073C9.96443 184.515 135.953 183.415 133.968 184.515C131.984 185.615 44.4574 192.914 43.7123 193.456C42.9671 193.998 14.6517 190.476 14.6517 190.476L8.19385 175.821" fill="url(#paint0_linear_1493_46273)"/>
</g>
<path d="M51.9408 136.826L36.7896 157.938C111.055 137.074 139.371 147.506 150.796 162.906L151.79 143.036C108.075 118.943 81.8086 137.82 51.9408 136.826Z" fill="#FFC562"/>
<mask id="mask6_1493_46273" style="mask-type:alpha" maskUnits="userSpaceOnUse" x="36" y="130" width="116" height="33">
<path fill-rule="evenodd" clip-rule="evenodd" d="M51.9408 136.826L36.7896 157.938C111.055 137.074 139.371 147.506 150.796 162.906L151.79 143.036C108.075 118.943 81.8086 137.82 51.9408 136.826Z" fill="white"/>
</mask>
<g mask="url(#mask6_1493_46273)">
<path d="M43.4454 141.789C17.1805 174.638 89.4435 119.094 109.324 168.309C129.205 217.524 -12.8784 156.793 -12.8784 156.793" fill="#D89D35"/>
</g>
<path d="M46.4761 168.921C73.5496 158.737 122.977 148.111 144.586 168.921C144.586 168.921 118.382 145.317 46.4761 168.921Z" fill="url(#paint1_linear_1493_46273)"/>
<path d="M38.8384 177.926C65.9119 173.619 115.34 169.124 136.949 177.926C136.949 177.926 110.745 167.943 38.8384 177.926Z" fill="#EFF3FC"/>
<path d="M269.941 175.822L286.458 164.893L259.012 132.355C226.722 136.329 207.649 107.28 152.509 139.072L153.408 173.928L239.887 165.616L269.941 175.822Z" fill="#F8FBFF"/>
<path d="M296.628 187.057L291.785 174.638H289.798L286.196 164.951C249.312 165.674 189.41 128.284 153.146 173.986C153.146 173.986 170.078 180.35 171.32 187.057C214.042 177.618 258.502 189.789 296.628 187.057Z" fill="#EFF3FC"/>
<mask id="mask7_1493_46273" style="mask-type:alpha" maskUnits="userSpaceOnUse" x="153" y="151" width="144" height="37">
<path fill-rule="evenodd" clip-rule="evenodd" d="M296.628 187.057L291.785 174.638H289.798L286.196 164.951C249.312 165.674 189.41 128.284 153.146 173.986C153.146 173.986 170.078 180.35 171.32 187.057C214.042 177.618 258.502 189.789 296.628 187.057Z" fill="white"/>
</mask>
<g mask="url(#mask7_1493_46273)">
<path d="M302.434 171.087C289.359 187.981 191.074 173.559 171.321 187.056C151.567 200.554 362.278 199.548 362.278 199.548L340.151 173.609" fill="url(#paint2_linear_1493_46273)"/>
</g>
<path d="M255.038 136.826L270.189 157.938C195.923 137.074 167.608 147.506 156.183 162.906L155.189 143.036C198.904 118.943 225.17 137.82 255.038 136.826Z" fill="#589BF7"/>
<mask id="mask8_1493_46273" style="mask-type:alpha" maskUnits="userSpaceOnUse" x="155" y="130" width="116" height="33">
<path fill-rule="evenodd" clip-rule="evenodd" d="M255.038 136.826L270.189 157.938C195.923 137.074 167.608 147.506 156.183 162.906L155.189 143.036C198.904 118.943 225.17 137.82 255.038 136.826Z" fill="white"/>
</mask>
<g mask="url(#mask8_1493_46273)">
<path d="M178.358 127.485C170.006 138.196 286.458 140.207 286.458 140.207L201.353 103.999" fill="#2976DF"/>
</g>
<path d="M260.502 168.921C233.428 158.737 184.001 148.111 162.392 168.921C162.392 168.921 188.596 145.317 260.502 168.921Z" fill="url(#paint3_linear_1493_46273)"/>
<path d="M268.14 177.926C241.066 173.619 191.638 169.124 170.029 177.926C170.029 177.926 196.233 167.943 268.14 177.926Z" fill="#EFF3FC"/>
<path d="M297.014 184.515H173.01C171.976 184.516 171.017 185.056 170.479 185.939H136.5C135.962 185.056 135.003 184.516 133.968 184.515H9.96456C8.89839 184.513 7.91239 185.08 7.37875 186.003C6.84511 186.926 6.84511 188.064 7.37875 188.987C7.91239 189.91 8.89839 190.478 9.96456 190.476H132.958C133.429 192.233 135.021 193.456 136.841 193.456H170.138C171.957 193.456 173.55 192.233 174.021 190.476H297.014C298.08 190.478 299.066 189.91 299.6 188.987C300.134 188.064 300.134 186.926 299.6 186.003C299.066 185.08 298.08 184.513 297.014 184.515Z" fill="#6F4EB9"/>
<mask id="mask9_1493_46273" style="mask-type:alpha" maskUnits="userSpaceOnUse" x="6" y="184" width="294" height="10">
<path fill-rule="evenodd" clip-rule="evenodd" d="M297.014 184.515H173.01C171.976 184.516 171.017 185.056 170.479 185.939H136.5C135.962 185.056 135.003 184.516 133.968 184.515H9.96456C8.89839 184.513 7.91239 185.08 7.37875 186.003C6.84511 186.926 6.84511 188.064 7.37875 188.987C7.91239 189.91 8.89839 190.478 9.96456 190.476H132.958C133.429 192.233 135.021 193.456 136.841 193.456H170.138C171.957 193.456 173.55 192.233 174.021 190.476H297.014C298.08 190.478 299.066 189.91 299.6 188.987C300.134 188.064 300.134 186.926 299.6 186.003C299.066 185.08 298.08 184.513 297.014 184.515Z" fill="white"/>
</mask>
<g mask="url(#mask9_1493_46273)">
<path d="M317.018 186.735C297.014 190.476 163.458 183.342 153.49 193.457C143.521 203.571 316.516 202.65 316.516 202.65" fill="#573DA0"/>
</g>
<path d="M171.067 191.819C170.103 191.818 169.295 191.089 169.196 190.13C168.442 182.86 161.672 177.378 153.447 177.378C145.555 177.378 138.816 182.614 137.771 189.557C137.615 190.584 136.657 191.29 135.63 191.136C134.602 190.982 133.894 190.025 134.046 188.997C135.365 180.225 143.705 173.609 153.447 173.609C163.608 173.609 171.99 180.545 172.943 189.741C173.051 190.776 172.299 191.702 171.264 191.809C171.199 191.816 171.133 191.82 171.067 191.819Z" fill="#9A7ED9"/>
<path d="M65.0702 143.788C67.1592 143.932 69.258 143.761 71.2957 143.279C71.8441 143.15 72.3862 142.998 72.922 142.822C73.1888 142.743 73.4168 142.567 73.5624 142.33C73.7059 142.085 73.746 141.792 73.6739 141.517C73.6018 141.242 73.4234 141.007 73.1779 140.864C72.9282 140.719 72.6308 140.68 72.3522 140.756C71.2082 141.129 70.0328 141.398 68.8404 141.559L69.1253 141.521C67.7813 141.7 66.4226 141.741 65.0702 141.645C64.6368 141.645 64.246 141.906 64.0801 142.306C63.9143 142.707 64.006 143.168 64.3124 143.474C64.5196 143.666 64.7883 143.777 65.0702 143.788V143.788Z" fill="#D89D35"/>
<path d="M212.92 163.777L203.908 164.561L201.353 164.783C201.071 164.791 200.801 164.902 200.596 165.097C200.177 165.515 200.177 166.194 200.596 166.612C200.795 166.795 201.073 166.95 201.353 166.926L210.366 166.142L212.92 165.92C213.202 165.912 213.472 165.801 213.678 165.606C214.096 165.188 214.096 164.509 213.678 164.091C213.479 163.908 213.2 163.753 212.92 163.777Z" fill="#D6DCF2"/>
<path d="M265.436 197.829L249.306 196.03L270.008 35.5596L286.138 37.3584L265.436 197.829Z" fill="#FE7578"/>
<mask id="mask10_1493_46273" style="mask-type:alpha" maskUnits="userSpaceOnUse" x="249" y="35" width="38" height="163">
<path fill-rule="evenodd" clip-rule="evenodd" d="M265.436 197.829L249.306 196.03L270.008 35.5596L286.138 37.3584L265.436 197.829Z" fill="white"/>
</mask>
<g mask="url(#mask10_1493_46273)">
<path d="M254.63 112.576C262.245 92.3538 282.157 61.6313 278.426 56.605C274.694 51.5787 260.804 65.4672 260.804 65.4672" fill="#BA393C"/>
</g>
<path d="M280.771 33.429L279.796 27.2909L276.877 33.5385L274.225 27.2617L271.777 30.7028L270.008 35.559L286.138 37.3578L285.709 32.8292L284.291 29.7412L280.771 33.429Z" fill="#E84B23"/>
<path d="M271.777 30.7033L274.225 27.2622L276.877 33.5389L279.796 27.2914L280.771 33.4295L284.291 29.7417L285.709 32.8296L282.951 3.69524C282.898 3.14295 281.859 3.02702 281.668 3.55215L271.777 30.7033Z" fill="#FF9763"/>
<mask id="mask11_1493_46273" style="mask-type:alpha" maskUnits="userSpaceOnUse" x="271" y="3" width="15" height="31">
<path fill-rule="evenodd" clip-rule="evenodd" d="M271.777 30.7033L274.225 27.2622L276.877 33.5389L279.796 27.2914L280.771 33.4295L284.291 29.7417L285.709 32.8296L282.951 3.69524C282.898 3.14295 281.859 3.02702 281.668 3.55215L271.777 30.7033Z" fill="white"/>
</mask>
<g mask="url(#mask11_1493_46273)">
<ellipse cx="278.232" cy="6.91549" rx="11.2409" ry="15.0709" transform="rotate(-84.8766 278.232 6.91549)" fill="#4B4D5C"/>
</g>
<path d="M265.436 197.828L249.306 196.029L247.816 207.579C247.671 208.703 248.532 209.723 249.737 209.857L261.502 211.169C262.707 211.304 263.801 210.503 263.945 209.38L265.436 197.828Z" fill="#FFC562"/>
<mask id="mask12_1493_46273" style="mask-type:alpha" maskUnits="userSpaceOnUse" x="247" y="196" width="19" height="16">
<path fill-rule="evenodd" clip-rule="evenodd" d="M265.436 197.828L249.306 196.029L247.816 207.579C247.671 208.703 248.532 209.723 249.737 209.857L261.502 211.169C262.707 211.304 263.801 210.503 263.945 209.38L265.436 197.828Z" fill="white"/>
</mask>
<g mask="url(#mask12_1493_46273)">
<path d="M248.387 197.954C253.454 200.189 262.46 197.995 262.985 200.732C263.509 203.468 254.131 210.761 245.008 209.01C235.885 207.26 255.196 216.198 256.603 216.571C258.011 216.943 271.301 215.38 271.301 215.38L272.068 202.208L266.573 194.213L249.306 196.03" fill="#D89D35"/>
</g>
<path d="M266.573 194.213L249.121 192.267L248.387 197.954L265.84 199.9L266.573 194.213Z" fill="#589BF7"/>
<path d="M264.971 60.9255C264.971 60.9255 276.407 45.9035 277.232 45.0555C277.644 43.105 279.211 39.7128 281.025 37.7623C282.839 35.8119 283.582 33.3525 283.582 33.3525C283.582 33.3525 285.973 34.3702 282.757 38.8648C282.757 38.8648 285.561 36.4055 286.138 36.8295C286.715 37.2535 286.715 39.4584 286.138 40.3065C286.138 40.3065 287.581 42.5114 286.571 43.8683C286.571 43.8683 286.468 45.9516 285.561 46.9452C284.654 47.9389 282.592 48.6173 282.592 48.6173L266.168 67.5993L260.805 65.4666L264.971 60.9255Z" fill="#FF9763"/>
<mask id="mask13_1493_46273" style="mask-type:alpha" maskUnits="userSpaceOnUse" x="260" y="33" width="27" height="35">
<path fill-rule="evenodd" clip-rule="evenodd" d="M264.971 60.9255C264.971 60.9255 276.407 45.9035 277.232 45.0555C277.644 43.105 279.211 39.7128 281.025 37.7623C282.839 35.8119 283.582 33.3525 283.582 33.3525C283.582 33.3525 285.973 34.3702 282.757 38.8648C282.757 38.8648 285.561 36.4055 286.138 36.8295C286.715 37.2535 286.715 39.4584 286.138 40.3065C286.138 40.3065 287.581 42.5114 286.571 43.8683C286.571 43.8683 286.468 45.9516 285.561 46.9452C284.654 47.9389 282.592 48.6173 282.592 48.6173L266.168 67.5993L260.805 65.4666L264.971 60.9255Z" fill="white"/>
</mask>
<g mask="url(#mask13_1493_46273)">
<path d="M274.456 48.2053L276.594 45.5804C277.865 44.5678 281.337 55.0834 281.337 55.0834L275.163 55.5463" fill="#E84B23"/>
</g>
<path d="M275.177 47.4157C277.754 45.8739 278.922 58.7044 278.922 58.7044L263.08 70.9571L254.63 65.7308L258.553 58.8187L275.177 47.4157Z" fill="#F08059"/>
<path d="M263.373 56.5663C256.857 49.8599 247.682 41.14 246.025 40.4231C243.426 39.2993 237.374 47.0344 237.374 47.0344L235.741 53.0333L255.246 70.2433C256.545 71.4517 258.285 72.0702 260.055 71.9527C261.826 71.8352 263.469 70.992 264.596 69.6225" fill="#F08059"/>
<mask id="mask14_1493_46273" style="mask-type:alpha" maskUnits="userSpaceOnUse" x="235" y="40" width="30" height="32">
<path fill-rule="evenodd" clip-rule="evenodd" d="M263.373 56.5663C256.857 49.8599 247.682 41.14 246.025 40.4231C243.426 39.2993 237.374 47.0344 237.374 47.0344L235.741 53.0333L255.246 70.2433C256.545 71.4517 258.285 72.0702 260.055 71.9527C261.826 71.8352 263.469 70.992 264.596 69.6225" fill="white"/>
</mask>
<g mask="url(#mask14_1493_46273)">
<path d="M241.621 54.7005C248.052 47.8224 244.637 63.6097 255.063 72.3525C265.489 81.0952 238.892 69.17 238.892 69.17L236.437 50.4756" fill="#E84B23"/>
</g>
<path d="M192.895 191.4C192.895 191.4 191.028 201.37 190.05 202.666C189.072 203.962 190.495 205.657 190.495 205.657L196.541 206.056L197.904 204.162L202.053 186.017L192.895 191.4Z" fill="#FF9763"/>
<mask id="mask15_1493_46273" style="mask-type:alpha" maskUnits="userSpaceOnUse" x="189" y="186" width="14" height="21">
<path fill-rule="evenodd" clip-rule="evenodd" d="M192.896 191.401C192.896 191.401 191.029 201.371 190.051 202.667C189.073 203.963 190.495 205.658 190.495 205.658L196.541 206.057L197.904 204.163L202.053 186.018L192.896 191.401Z" fill="white"/>
</mask>
<g mask="url(#mask15_1493_46273)">
<path d="M191.658 193.194C188.263 196.812 202.628 198.672 204.457 198.591C206.285 198.51 200.669 188.977 200.669 188.977" fill="#E84B23"/>
</g>
<path d="M172.562 209.304C170.784 202.923 188.183 205.458 190.199 201.603C190.199 201.603 196.449 205.259 198.109 203.265L197.941 207.983C197.917 208.538 197.46 208.976 196.905 208.976L172.562 209.304Z" fill="#4B4D5C"/>
<path d="M234.894 191.227C234.894 191.227 233.846 201.481 234.445 202.815C235.044 204.148 233.126 205.891 233.126 205.891L226.964 206.301L226.154 204.353L227.311 185.689L234.894 191.227Z" fill="#FF9763"/>
<mask id="mask16_1493_46273" style="mask-type:alpha" maskUnits="userSpaceOnUse" x="226" y="185" width="9" height="22">
<path fill-rule="evenodd" clip-rule="evenodd" d="M234.894 191.227C234.894 191.227 233.846 201.481 234.445 202.815C235.044 204.148 233.126 205.891 233.126 205.891L226.964 206.301L226.154 204.353L227.311 185.689L234.894 191.227Z" fill="white"/>
</mask>
<g mask="url(#mask16_1493_46273)">
<path d="M226.154 193.025C223.523 195.245 237.366 198.591 237.366 198.591L235.978 188.977" fill="#E84B23"/>
</g>
<path d="M246.403 209.304C250.047 202.741 235.496 205.686 234.608 201.721C234.608 201.721 227.288 205.482 226.212 203.431L225 208.284C224.862 208.854 225.191 209.304 225.746 209.304L246.403 209.304Z" fill="#4B4D5C"/>
<path d="M221.766 193.626C228.945 196.816 237.853 193.494 237.853 193.494L240.698 138.506C240.698 138.506 242.098 82.7097 239.038 76.7815C235.978 70.8533 214.144 83.9597 214.144 83.9597L223.153 138.506L221.766 193.626Z" fill="#F0F3FC"/>
<mask id="mask17_1493_46273" style="mask-type:alpha" maskUnits="userSpaceOnUse" x="214" y="75" width="28" height="121">
<path fill-rule="evenodd" clip-rule="evenodd" d="M221.766 193.626C228.945 196.816 237.853 193.494 237.853 193.494L240.698 138.506C240.698 138.506 242.098 82.7097 239.038 76.7815C235.978 70.8533 214.144 83.9597 214.144 83.9597L223.153 138.506L221.766 193.626Z" fill="white"/>
</mask>
<g mask="url(#mask17_1493_46273)">
<path d="M230.958 97.7527C238.672 94.8155 226.09 110.662 226.135 131.513C226.178 151.226 228.926 148.349 222.046 174.474C215.165 200.598 209.158 130.338 209.158 130.338L219.083 106.047" fill="#D6DCF2"/>
<path fill-rule="evenodd" clip-rule="evenodd" d="M236.234 93.0692C244.175 95.3165 248.812 88.9443 248.812 88.9443L247.724 100.951L241.94 106.162L236.453 104.377L236.234 93.0692Z" stroke="#D6DCF2" stroke-width="0.892376" stroke-linecap="round" stroke-linejoin="round"/>
<path d="M223.208 117.181C223.208 117.181 225.52 187.039 224.695 190.344" stroke="#D6DCF2" stroke-width="0.892376" stroke-linecap="round" stroke-linejoin="round"/>
</g>
<path d="M189.707 189.849C191.307 195.432 204.697 194.646 204.697 194.646L216.752 137.132C216.752 137.132 237.758 96.2525 233.348 81.4339C229.487 68.4627 208.098 81.4339 208.098 81.4339L199.493 131.383L189.707 189.849Z" fill="#F0F3FC"/>
<mask id="mask18_1493_46273" style="mask-type:alpha" maskUnits="userSpaceOnUse" x="189" y="75" width="45" height="120">
<path fill-rule="evenodd" clip-rule="evenodd" d="M189.707 189.849C191.307 195.432 204.697 194.646 204.697 194.646L216.752 137.132C216.752 137.132 237.758 96.2525 233.348 81.4339C229.487 68.4627 208.098 81.4339 208.098 81.4339L199.493 131.383L189.707 189.849Z" fill="white"/>
</mask>
<g mask="url(#mask18_1493_46273)">
<path d="M202.497 100.758C203.088 82.9496 235.583 91.5426 228.355 86.1965C221.127 80.8505 203.934 79.5361 203.934 79.5361" fill="#D6DCF2"/>
<path d="M212.004 80.6006L192.767 188.431" stroke="#D6DCF2" stroke-width="0.892376" stroke-linecap="round" stroke-linejoin="round"/>
</g>
<path d="M223.865 12.792C218.561 17.6483 215.296 31.9661 224.59 29.4542C233.884 26.9423 229.53 13.713 229.53 13.713L223.865 12.792Z" fill="#FF9763"/>
<mask id="mask19_1493_46273" style="mask-type:alpha" maskUnits="userSpaceOnUse" x="218" y="12" width="13" height="18">
<path fill-rule="evenodd" clip-rule="evenodd" d="M223.865 12.792C218.561 17.6483 215.296 31.9661 224.59 29.4542C233.884 26.9423 229.53 13.713 229.53 13.713L223.865 12.792Z" fill="white"/>
</mask>
<g mask="url(#mask19_1493_46273)">
<path d="M219.566 29.6478C223.005 30.5195 224.515 27.124 224.63 27.124C224.746 27.124 226.09 30.8677 226.09 30.8677L224.63 31.1783L219.958 30.7371" fill="#E84B23"/>
</g>
<path d="M223.846 26.2725C223.882 27.1558 221.879 36.5055 221.879 36.5055L232.366 38.4923L232.998 24.2812L223.846 26.2725Z" fill="#FF9763"/>
<path d="M220.826 34.4398C223.715 31.3201 233.117 32.1241 236.21 36.9084L235.778 37.7096C235.778 37.7096 228.272 38.4598 220.826 35.1463L220.826 34.4398Z" fill="#589BF7"/>
<path d="M190.393 34.8722L208.601 19.881C213.91 20.3276 216.643 18.4297 216.891 18.3181C217.14 18.2064 222.014 18.2343 220.338 16.3923C220.338 16.3923 215.68 17.1458 215.432 16.7551C215.184 16.3644 217.295 14.5782 217.667 14.4665C218.04 14.3549 222.014 15.0945 223.318 14.9689C225.181 13.6292 221.58 12.7361 216.55 11.6755C214.749 11.1173 205.124 15.862 204.875 15.9178C204.627 15.9737 177.665 28.5257 177.227 32.3251C176.789 36.1245 190.393 34.8722 190.393 34.8722Z" fill="#FF9763"/>
<mask id="mask20_1493_46273" style="mask-type:alpha" maskUnits="userSpaceOnUse" x="177" y="11" width="47" height="25">
<path fill-rule="evenodd" clip-rule="evenodd" d="M190.393 34.8722L208.601 19.881C213.91 20.3276 216.643 18.4297 216.891 18.3181C217.14 18.2064 222.014 18.2343 220.338 16.3923C220.338 16.3923 215.68 17.1458 215.432 16.7551C215.184 16.3644 217.295 14.5782 217.667 14.4665C218.04 14.3549 222.014 15.0945 223.318 14.9689C225.181 13.6292 221.58 12.7361 216.55 11.6755C214.749 11.1173 205.124 15.862 204.875 15.9178C204.627 15.9737 177.665 28.5257 177.227 32.3251C176.789 36.1245 190.393 34.8722 190.393 34.8722Z" fill="white"/>
</mask>
<g mask="url(#mask20_1493_46273)">
<path d="M202.879 16.5252C204.746 14.519 212.526 22.004 212.526 22.004L205.24 21.8123" fill="#E84B23"/>
</g>
<path d="M225.176 22.8399C219.733 23.1748 225.891 17.5697 222.772 16.3926C217.668 14.4668 223.096 -1.16776 227.439 7.4874C243.18 8.07351 241.168 23.2585 236.647 25.268C232.125 27.2775 233.394 30.0707 233.394 30.0707C233.394 30.0707 227.315 31.9184 226.813 27.6482C226.31 23.378 225.176 22.8399 225.176 22.8399Z" fill="#4B4D5C"/>
<path d="M207.92 82.5173C207.92 82.5173 203.797 78.357 207.346 84.6518C210.895 90.9466 245.844 93.4544 239.526 84.1844" fill="#589BF7"/>
<path d="M222.199 22.6727C227.827 18.542 230.529 25.0656 223.257 27.5035L222.199 22.6727Z" fill="#FF9763"/>
<path d="M244.189 52.7767C243.051 61.7611 241.813 74.6659 243.44 80.7222C247.391 92.556 197.535 86.759 203.934 79.5366C207.262 75.7811 212.533 43.7725 207.286 38.5812L213.556 34.3947C233.395 33.7249 246.025 40.4233 246.025 40.4233" fill="#F08059"/>
<mask id="mask21_1493_46273" style="mask-type:alpha" maskUnits="userSpaceOnUse" x="203" y="34" width="44" height="54">
<path fill-rule="evenodd" clip-rule="evenodd" d="M244.189 52.7767C243.051 61.7611 241.813 74.6659 243.44 80.7222C247.391 92.556 197.535 86.759 203.934 79.5366C207.262 75.7811 212.533 43.7725 207.286 38.5812L213.556 34.3947C233.395 33.7249 246.025 40.4233 246.025 40.4233" fill="white"/>
</mask>
<g mask="url(#mask21_1493_46273)">
<path d="M229.725 63.6647C243.647 68.7764 219.356 77.4034 230.952 88.348L234.226 88.0506C220.243 79.4812 247.929 68.3875 230.648 62.8564L229.725 63.6647Z" fill="#97CC64"/>
<path d="M230.184 60.7017C223.917 43.7778 241.966 42.7973 232.645 60.1188L230.184 60.7017Z" fill="#FFC562"/>
<path d="M231.446 62.3555C237.714 79.2794 219.664 80.2599 228.986 62.9384L231.446 62.3555Z" fill="#FFC562"/>
<path d="M231.854 60.7123C251.542 50.5369 248.311 68.0355 231.897 62.9906L231.854 60.7123Z" fill="#FFC562"/>
<path d="M229.776 62.3451C210.089 72.5204 213.32 55.0219 229.734 60.0668L229.776 62.3451Z" fill="#FFC562"/>
<path d="M231.104 60.3673C240.593 41.2052 251.071 52.8852 232.874 61.5662L231.104 60.3673Z" fill="#FFC562"/>
<path d="M230.527 62.6911C221.038 81.8532 210.559 70.1731 228.757 61.4922L230.527 62.6911Z" fill="#FFC562"/>
<path d="M231.996 61.5361C250.35 66.3081 235.302 79.3748 230.287 63.5593L231.996 61.5361Z" fill="#FFC562"/>
<path d="M229.635 61.5214C211.282 56.7494 226.329 43.6828 231.344 59.4982L229.635 61.5214Z" fill="#FFC562"/>
<ellipse cx="230.937" cy="61.5181" rx="6.26746" ry="4.932" transform="rotate(-39.4594 230.937 61.5181)" fill="#F0F3FC"/>
<path d="M232.83 79.3676C240.562 83.3456 244.624 74.06 244.624 74.06C244.624 74.06 233.537 71.9333 232.83 79.3676Z" fill="#97CC64"/>
<path d="M216.733 50.2396C219.193 56.5082 216.994 57.0741 212.031 56.9435C207.069 56.8129 204.318 85.1523 223.846 83.1933C243.374 81.2344 242.068 89.3313 242.068 89.8537C242.068 90.3761 206.546 86.0665 206.546 86.0665L196.751 77.2387L204.758 59.1637L212.684 48.3242L214.144 48.6089" fill="#E84B23"/>
</g>
<path d="M215.992 34.6514L181.934 29.7205C178.89 29.2635 175.949 30.9899 174.992 33.7955C173.943 36.8728 175.626 40.1933 178.799 41.3083C178.799 41.3083 206.253 53.3681 218.713 56.1392" fill="#F08059"/>
<mask id="mask22_1493_46273" style="mask-type:alpha" maskUnits="userSpaceOnUse" x="174" y="29" width="45" height="28">
<path fill-rule="evenodd" clip-rule="evenodd" d="M215.992 34.6514L181.934 29.7205C178.89 29.2635 175.949 30.9899 174.992 33.7955C173.943 36.8728 175.626 40.1933 178.799 41.3083C178.799 41.3083 206.253 53.3681 218.713 56.1392" fill="white"/>
</mask>
<g mask="url(#mask22_1493_46273)">
<ellipse cx="175.223" cy="40.3061" rx="5.45423" ry="7.16941" fill="#75AA3C"/>
</g>
<path d="M175.738 32.3222C177.426 28.949 202.008 16.7598 202.008 16.7598C207.463 19.3717 207.116 26.7468 207.116 26.7468L198.35 32.1844" fill="#F08059"/>
<mask id="mask23_1493_46273" style="mask-type:alpha" maskUnits="userSpaceOnUse" x="175" y="16" width="33" height="17">
<path fill-rule="evenodd" clip-rule="evenodd" d="M175.738 32.3222C177.426 28.949 202.008 16.7598 202.008 16.7598C207.463 19.3717 207.116 26.7468 207.116 26.7468L198.35 32.1844" fill="white"/>
</mask>
<g mask="url(#mask23_1493_46273)">
<path d="M187.392 30.7238C189.133 28.0375 200.103 32.1295 202.28 31.1718C204.456 30.2141 200.516 33.7241 200.516 33.7241L199.905 32.3221" fill="#E84B23"/>
</g>
<path d="M197.313 18.1388C202.99 17.7926 204.545 27.1762 203.366 29.6472L207.369 27.5028C207.369 27.5028 207.406 17.8049 202.008 16.7598L197.313 18.1388Z" fill="#97CC64"/>
<path fill-rule="evenodd" clip-rule="evenodd" d="M215.769 93.7949C223.319 97.1274 228.443 94.6078 228.443 94.6078L225.692 106.345L219.734 108.502L214.409 105.023L215.769 93.7949Z" stroke="#D6DCF2" stroke-width="0.892376" stroke-linecap="round" stroke-linejoin="round"/>
<path d="M189.707 187.37L189.25 192.298C189.25 192.298 195.91 196.715 204.698 194.646L206.295 189.353C206.295 189.353 202.704 192.246 189.707 187.37Z" fill="#FFC562"/>
<path d="M221.42 188.846V194.229C221.42 194.229 230.099 197.496 238.154 193.419L238.463 187.899C238.463 187.899 235.088 191.684 221.42 188.846Z" fill="#FFC562"/>
<path d="M270.613 49.4172C276.289 49.0711 277.845 58.4547 276.666 60.9256L280.669 58.7812C280.669 58.7812 280.013 47.6935 274.615 46.6484L270.613 49.4172Z" fill="#97CC64"/>
<path d="M224.141 23.7729C224.144 23.7852 224.146 23.7976 224.147 23.8101L224.128 23.6678C224.133 23.7052 224.133 23.743 224.128 23.7803L224.147 23.638C224.141 23.6803 224.13 23.7218 224.114 23.7614L224.168 23.6335C224.15 23.6753 224.127 23.7148 224.099 23.7509L224.183 23.6425C224.158 23.6741 224.129 23.7028 224.098 23.7279L224.206 23.6441C224.175 23.6687 224.14 23.689 224.103 23.7047L224.231 23.6507C224.214 23.6573 224.198 23.663 224.181 23.6677C224.049 23.7102 223.936 23.7972 223.861 23.9138C223.822 23.9733 223.8 24.042 223.797 24.1128C223.781 24.1836 223.784 24.2573 223.807 24.3264L223.861 24.4543C223.907 24.5337 223.973 24.5998 224.053 24.6463C224.178 24.717 224.326 24.7364 224.465 24.7003C224.714 24.6282 224.926 24.4641 225.058 24.2414C225.094 24.1766 225.125 24.1089 225.149 24.039C225.161 24.0086 225.17 23.9771 225.176 23.9449C225.187 23.8858 225.195 23.8251 225.201 23.7654C225.202 23.7504 225.203 23.7354 225.203 23.7203C225.201 23.6422 225.191 23.5644 225.173 23.4882C225.131 23.3563 225.044 23.2432 224.927 23.1682C224.868 23.1297 224.799 23.1078 224.728 23.1047C224.658 23.0887 224.584 23.092 224.515 23.1142L224.387 23.1682C224.308 23.2148 224.241 23.2809 224.195 23.3603L224.141 23.4882C224.115 23.5814 224.115 23.6797 224.141 23.7729L224.141 23.7729Z" fill="#373947"/>
<path d="M230.624 13.6795C230.634 13.7014 230.644 13.7234 230.654 13.7456C230.624 13.6733 230.62 13.6642 230.641 13.7184C230.655 13.7584 230.671 13.7977 230.684 13.8381C230.712 13.9243 230.736 14.012 230.754 14.1009C230.762 14.1364 230.768 14.1721 230.774 14.2079C230.783 14.2672 230.782 14.2557 230.771 14.1734C230.774 14.1974 230.776 14.2214 230.778 14.2456C230.786 14.3299 230.79 14.4147 230.789 14.4995C230.789 14.5846 230.782 14.6685 230.776 14.7532C230.769 14.8128 230.771 14.8014 230.781 14.719C230.778 14.7429 230.774 14.7668 230.77 14.7907C230.763 14.8264 230.756 14.862 230.748 14.8975C230.73 14.9802 230.708 15.0619 230.681 15.1423C230.672 15.1703 230.655 15.2615 230.632 15.2787C230.663 15.2068 230.667 15.1976 230.643 15.2511C230.633 15.2732 230.623 15.2951 230.612 15.3169C230.492 15.569 230.534 15.9068 230.804 16.0494C231.043 16.1758 231.408 16.127 231.537 15.8573C231.953 14.9998 231.957 14.0001 231.548 13.1391C231.43 12.8844 231.043 12.8003 230.816 12.947C230.567 13.1013 230.483 13.4231 230.624 13.6795L230.624 13.6795Z" fill="#373947"/>
<path d="M186.034 201.619L188.103 203.446L188.624 202.551C186.862 202.105 185.057 201.849 183.24 201.788C182.734 201.771 182.228 201.769 181.721 201.784C181.442 201.791 181.173 202.024 181.186 202.319C181.19 202.613 181.428 202.85 181.721 202.854C182.602 202.83 183.482 202.852 184.36 202.922C184.577 202.939 184.794 202.959 185.011 202.982C185.12 202.993 185.228 203.006 185.337 203.019C185.391 203.025 185.445 203.032 185.499 203.039C185.522 203.041 185.545 203.044 185.568 203.047C185.58 203.049 185.679 203.061 185.613 203.053C185.543 203.045 185.641 203.057 185.658 203.059C185.681 203.062 185.704 203.066 185.727 203.069C185.781 203.077 185.835 203.084 185.889 203.092C186.005 203.11 186.12 203.127 186.235 203.146C186.451 203.181 186.666 203.219 186.88 203.26C187.37 203.353 187.856 203.461 188.34 203.584C188.573 203.645 188.82 203.545 188.944 203.338C189.051 203.136 189.043 202.85 188.861 202.689L186.791 200.862C186.581 200.677 186.238 200.64 186.034 200.862C185.847 201.065 185.809 201.421 186.034 201.619L186.034 201.619Z" fill="#373947"/>
<path d="M236.957 201.2C236.42 201.812 236.09 202.577 236.012 203.387C235.976 203.731 236.383 203.999 236.69 203.903C237.529 203.641 238.378 203.415 239.238 203.225C239.675 203.128 240.113 203.042 240.554 202.964C240.767 202.927 240.98 202.892 241.194 202.859C241.3 202.843 241.407 202.827 241.514 202.812C241.567 202.804 241.621 202.797 241.674 202.79C241.737 202.781 241.654 202.792 241.647 202.793C241.685 202.788 241.723 202.783 241.761 202.778C242.259 202.714 242.757 202.662 243.257 202.622C243.536 202.6 243.806 202.392 243.793 202.087C243.78 201.816 243.556 201.527 243.257 201.551C241.44 201.695 239.638 201.996 237.873 202.451C237.38 202.579 236.891 202.719 236.405 202.871L237.083 203.387C237.085 203.36 237.088 203.334 237.092 203.307L237.083 203.37C237.094 203.331 237.101 203.292 237.103 203.252C237.118 203.173 237.136 203.095 237.157 203.017C237.176 202.946 237.197 202.876 237.221 202.806C237.234 202.768 237.248 202.731 237.263 202.693C237.27 202.674 237.277 202.656 237.285 202.637C237.259 202.697 237.254 202.709 237.27 202.673C237.334 202.533 237.406 202.397 237.486 202.266C237.529 202.198 237.575 202.133 237.622 202.067C237.68 201.985 237.581 202.114 237.624 202.065C237.654 202.029 237.683 201.993 237.714 201.957C237.899 201.747 237.937 201.405 237.714 201.2C237.512 201.015 237.154 200.975 236.957 201.2Z" fill="#373947"/>
<path d="M198.836 40.4371C198.737 41.4586 198.814 42.4894 199.063 43.4849C199.144 43.7682 199.437 43.9345 199.721 43.8589C200.003 43.7754 200.168 43.4846 200.095 43.2003C200.037 42.9634 199.987 42.7245 199.949 42.4834C199.939 42.4232 199.93 42.3629 199.922 42.3025C199.94 42.4379 199.916 42.2415 199.913 42.2178C199.901 42.1042 199.89 41.9903 199.883 41.8761C199.85 41.3967 199.858 40.9153 199.907 40.4372C199.935 40.1576 199.64 39.8897 199.371 39.9018C199.057 39.9158 198.866 40.1377 198.836 40.4372L198.836 40.4371Z" fill="#E84B23"/>
<path d="M266.576 142.827C266.527 142.963 266.476 143.098 266.422 143.232C266.408 143.265 266.396 143.3 266.381 143.332C266.447 143.198 266.39 143.308 266.378 143.336C266.344 143.413 266.309 143.49 266.274 143.566C266.151 143.827 266.018 144.083 265.873 144.333C265.729 144.582 265.574 144.826 265.408 145.062C265.326 145.181 265.24 145.297 265.153 145.412C265.077 145.513 265.227 145.319 265.148 145.418C265.126 145.446 265.104 145.474 265.081 145.503C265.029 145.568 264.975 145.633 264.921 145.698C264.549 146.14 264.14 146.55 263.701 146.924C263.591 147.018 263.478 147.109 263.365 147.198C263.266 147.277 263.461 147.127 263.359 147.203C263.331 147.224 263.302 147.246 263.273 147.268C263.205 147.318 263.137 147.367 263.069 147.416C262.833 147.583 262.591 147.739 262.342 147.885C262.062 148.049 261.774 148.2 261.48 148.337C261.403 148.372 261.326 148.406 261.249 148.44C261.133 148.491 261.362 148.394 261.244 148.442C261.2 148.46 261.155 148.479 261.111 148.496C260.954 148.559 260.796 148.617 260.637 148.671C260.372 148.761 260.17 149.043 260.263 149.329C260.348 149.592 260.637 149.8 260.921 149.703C263.326 148.875 265.366 147.233 266.687 145.059C267.059 144.443 267.368 143.79 267.608 143.112C267.703 142.847 267.502 142.514 267.234 142.453C266.95 142.382 266.661 142.547 266.576 142.827L266.576 142.827Z" fill="#BA393C"/>
<path d="M214.638 137.096L211.516 137.574C211.238 137.616 211.06 137.979 211.142 138.232C211.239 138.535 211.503 138.652 211.8 138.606L214.922 138.129C215.2 138.087 215.378 137.723 215.296 137.47C215.198 137.168 214.935 137.051 214.638 137.096Z" fill="#D6DCF2"/>
<path d="M233.392 171.371L232.956 172.715C232.88 173 233.047 173.293 233.33 173.374C233.615 173.445 233.905 173.281 233.989 173L234.424 171.656C234.501 171.371 234.334 171.078 234.05 170.997C233.766 170.925 233.476 171.09 233.392 171.371Z" fill="#D6DCF2"/>
<path d="M59.6831 54.7579L70.596 49.125C78.1388 54.0865 82.7417 92.6553 82.7417 92.6553L65.2103 83.4896L59.6831 54.7579Z" fill="#516DDB"/>
<mask id="mask24_1493_46273" style="mask-type:alpha" maskUnits="userSpaceOnUse" x="59" y="49" width="24" height="44">
<path fill-rule="evenodd" clip-rule="evenodd" d="M59.6831 54.7579L70.596 49.125C78.1388 54.0865 82.7417 92.6553 82.7417 92.6553L65.2103 83.4896L59.6831 54.7579Z" fill="white"/>
</mask>
<g mask="url(#mask24_1493_46273)">
<g opacity="0.16">
<path fill-rule="evenodd" clip-rule="evenodd" d="M74.7611 105.75L72.0161 107.785L31.0195 63.1887L33.7645 61.1543L74.7611 105.75V105.75Z" stroke="#3152BA" stroke-width="0.606096" stroke-linecap="round" stroke-linejoin="round"/>
<path fill-rule="evenodd" clip-rule="evenodd" d="M79.9959 101.87L77.251 103.905L36.2544 59.3088L38.9993 57.2744L79.9959 101.87V101.87Z" stroke="#3152BA" stroke-width="0.606096" stroke-linecap="round" stroke-linejoin="round"/>
<path fill-rule="evenodd" clip-rule="evenodd" d="M85.2307 97.9906L82.4857 100.025L41.4893 55.4289L44.2342 53.3945L85.2307 97.9906V97.9906Z" stroke="#3152BA" stroke-width="0.606096" stroke-linecap="round" stroke-linejoin="round"/>
<path fill-rule="evenodd" clip-rule="evenodd" d="M90.4656 94.1107L87.7207 96.1451L46.7241 51.5491L49.4691 49.5146L90.4656 94.1107V94.1107Z" stroke="#3152BA" stroke-width="0.606096" stroke-linecap="round" stroke-linejoin="round"/>
<path fill-rule="evenodd" clip-rule="evenodd" d="M95.701 90.2308L92.9561 92.2653L51.9595 47.6693L54.7044 45.6348L95.701 90.2308V90.2308Z" stroke="#3152BA" stroke-width="0.606096" stroke-linecap="round" stroke-linejoin="round"/>
<path fill-rule="evenodd" clip-rule="evenodd" d="M100.936 86.3509L98.1909 88.3853L57.1943 43.7893L59.9393 41.7549L100.936 86.3509V86.3509Z" stroke="#3152BA" stroke-width="0.606096" stroke-linecap="round" stroke-linejoin="round"/>
<path fill-rule="evenodd" clip-rule="evenodd" d="M106.171 82.471L103.426 84.5055L62.4292 39.9094L65.1741 37.875L106.171 82.471V82.471Z" stroke="#3152BA" stroke-width="0.606096" stroke-linecap="round" stroke-linejoin="round"/>
<path fill-rule="evenodd" clip-rule="evenodd" d="M111.405 78.5913L108.661 80.6257L67.6641 36.0296L70.409 33.9951L111.405 78.5913V78.5913Z" stroke="#3152BA" stroke-width="0.606096" stroke-linecap="round" stroke-linejoin="round"/>
</g>
<g opacity="0.46">
<path fill-rule="evenodd" clip-rule="evenodd" d="M28.2792 71.1908L25.4883 68.1548L76.8879 30.0596L79.6788 33.0956L28.2792 71.1908V71.1908Z" stroke="#3152BA" stroke-width="1.29273" stroke-linecap="round" stroke-linejoin="round"/>
<path fill-rule="evenodd" clip-rule="evenodd" d="M33.6018 76.9808L30.811 73.9448L82.2106 35.8496L85.0015 38.8855L33.6018 76.9808V76.9808Z" stroke="#3152BA" stroke-width="1.29273" stroke-linecap="round" stroke-linejoin="round"/>
<path fill-rule="evenodd" clip-rule="evenodd" d="M38.9242 82.7707L36.1333 79.7348L87.5329 41.6396L90.3238 44.6755L38.9242 82.7707V82.7707Z" stroke="#3152BA" stroke-width="1.29273" stroke-linecap="round" stroke-linejoin="round"/>
<path fill-rule="evenodd" clip-rule="evenodd" d="M44.247 88.5608L41.4561 85.5249L92.8557 47.4297L95.6466 50.4656L44.247 88.5608V88.5608Z" stroke="#3152BA" stroke-width="1.29273" stroke-linecap="round" stroke-linejoin="round"/>
<path fill-rule="evenodd" clip-rule="evenodd" d="M49.5697 94.3508L46.7788 91.3149L98.1784 53.2197L100.969 56.2556L49.5697 94.3508V94.3508Z" stroke="#3152BA" stroke-width="1.29273" stroke-linecap="round" stroke-linejoin="round"/>
<path fill-rule="evenodd" clip-rule="evenodd" d="M54.8924 100.14L52.1016 97.1041L103.501 59.0088L106.292 62.0448L54.8924 100.14V100.14Z" stroke="#3152BA" stroke-width="1.29273" stroke-linecap="round" stroke-linejoin="round"/>
<path fill-rule="evenodd" clip-rule="evenodd" d="M60.2147 105.93L57.4238 102.894L108.823 64.7988L111.614 67.8348L60.2147 105.93V105.93Z" stroke="#3152BA" stroke-width="1.29273" stroke-linecap="round" stroke-linejoin="round"/>
<path fill-rule="evenodd" clip-rule="evenodd" d="M65.5375 111.72L62.7466 108.684L114.146 70.5889L116.937 73.6249L65.5375 111.72V111.72Z" stroke="#3152BA" stroke-width="1.29273" stroke-linecap="round" stroke-linejoin="round"/>
</g>
</g>
<path d="M70.6653 64.4398C70.2598 71.9008 69.4352 81.7923 67.7823 93.2841L29.6911 90.839L14.3892 61.7624L14.4485 48.2277C14.4485 48.2277 40.7463 24.3638 71.0214 49.4743" fill="#516DDB"/>
<mask id="mask25_1493_46273" style="mask-type:alpha" maskUnits="userSpaceOnUse" x="14" y="37" width="58" height="57">
<path fill-rule="evenodd" clip-rule="evenodd" d="M70.6653 64.4398C70.2598 71.9008 69.4352 81.7923 67.7823 93.2841L29.6911 90.839L14.3892 61.7624L14.4485 48.2277C14.4485 48.2277 40.7463 24.3638 71.0214 49.4743" fill="white"/>
</mask>
<g mask="url(#mask25_1493_46273)">
<path d="M22.6903 62.7513C34.0165 55.9278 25.1435 81.6632 36.363 78.4055C47.5826 75.1477 48.9029 83.5844 48.9029 83.5844L34.2996 99.3393L7.98584 88.5708L16.7937 70.0793" fill="#3152BA"/>
<g opacity="0.16">
<path fill-rule="evenodd" clip-rule="evenodd" d="M46.2537 100.494L43.5088 102.528L2.51221 57.9319L5.25714 55.8975L46.2537 100.494V100.494Z" stroke="#3152BA" stroke-width="0.606096" stroke-linecap="round" stroke-linejoin="round"/>
<path fill-rule="evenodd" clip-rule="evenodd" d="M51.4886 96.6136L48.7437 98.648L7.74707 54.052L10.492 52.0176L51.4886 96.6136V96.6136Z" stroke="#3152BA" stroke-width="0.606096" stroke-linecap="round" stroke-linejoin="round"/>
<path fill-rule="evenodd" clip-rule="evenodd" d="M56.7235 92.7337L53.9785 94.7682L12.9819 50.1721L15.7269 48.1377L56.7235 92.7337V92.7337Z" stroke="#3152BA" stroke-width="0.606096" stroke-linecap="round" stroke-linejoin="round"/>
<path fill-rule="evenodd" clip-rule="evenodd" d="M61.9582 88.8539L59.2133 90.8884L18.2168 46.2923L20.9617 44.2578L61.9582 88.8539V88.8539Z" stroke="#3152BA" stroke-width="0.606096" stroke-linecap="round" stroke-linejoin="round"/>
<path fill-rule="evenodd" clip-rule="evenodd" d="M67.1937 84.974L64.4487 87.0084L23.4521 42.4123L26.1971 40.3779L67.1937 84.974V84.974Z" stroke="#3152BA" stroke-width="0.606096" stroke-linecap="round" stroke-linejoin="round"/>
<path fill-rule="evenodd" clip-rule="evenodd" d="M72.4284 81.0941L69.6835 83.1285L28.687 38.5325L31.4319 36.498L72.4284 81.0941V81.0941Z" stroke="#3152BA" stroke-width="0.606096" stroke-linecap="round" stroke-linejoin="round"/>
<path fill-rule="evenodd" clip-rule="evenodd" d="M77.6634 77.2143L74.9185 79.2487L33.9219 34.6527L36.6668 32.6182L77.6634 77.2143V77.2143Z" stroke="#3152BA" stroke-width="0.606096" stroke-linecap="round" stroke-linejoin="round"/>
<path fill-rule="evenodd" clip-rule="evenodd" d="M82.8983 73.3343L80.1533 75.3687L39.1567 30.7727L41.9017 28.7383L82.8983 73.3343V73.3343Z" stroke="#3152BA" stroke-width="0.606096" stroke-linecap="round" stroke-linejoin="round"/>
</g>
<g opacity="0.46">
<path fill-rule="evenodd" clip-rule="evenodd" d="M-0.228144 65.9338L-3.01904 62.8979L48.3806 24.8027L51.1715 27.8386L-0.228144 65.9338V65.9338Z" stroke="#3152BA" stroke-width="1.29273" stroke-linecap="round" stroke-linejoin="round"/>
<path fill-rule="evenodd" clip-rule="evenodd" d="M5.09461 71.724L2.30371 68.6881L53.7034 30.5928L56.4942 33.6288L5.09461 71.724V71.724Z" stroke="#3152BA" stroke-width="1.29273" stroke-linecap="round" stroke-linejoin="round"/>
<path fill-rule="evenodd" clip-rule="evenodd" d="M10.4169 77.514L7.62598 74.478L59.0256 36.3828L61.8165 39.4188L10.4169 77.514V77.514Z" stroke="#3152BA" stroke-width="1.29273" stroke-linecap="round" stroke-linejoin="round"/>
<path fill-rule="evenodd" clip-rule="evenodd" d="M15.7396 83.304L12.9487 80.2681L64.3484 42.1729L67.1392 45.2088L15.7396 83.304V83.304Z" stroke="#3152BA" stroke-width="1.29273" stroke-linecap="round" stroke-linejoin="round"/>
<path fill-rule="evenodd" clip-rule="evenodd" d="M21.0624 89.093L18.2715 86.0571L69.6711 47.9619L72.462 50.9978L21.0624 89.093V89.093Z" stroke="#3152BA" stroke-width="1.29273" stroke-linecap="round" stroke-linejoin="round"/>
<path fill-rule="evenodd" clip-rule="evenodd" d="M26.3846 94.8831L23.5938 91.8472L74.9934 53.752L77.7843 56.7879L26.3846 94.8831V94.8831Z" stroke="#3152BA" stroke-width="1.29273" stroke-linecap="round" stroke-linejoin="round"/>
<path fill-rule="evenodd" clip-rule="evenodd" d="M31.7074 100.673L28.9165 97.6372L80.3161 59.542L83.107 62.5779L31.7074 100.673V100.673Z" stroke="#3152BA" stroke-width="1.29273" stroke-linecap="round" stroke-linejoin="round"/>
<path fill-rule="evenodd" clip-rule="evenodd" d="M37.0302 106.463L34.2393 103.427L85.6389 65.332L88.4297 68.3679L37.0302 106.463V106.463Z" stroke="#3152BA" stroke-width="1.29273" stroke-linecap="round" stroke-linejoin="round"/>
</g>
</g>
<path d="M39.5796 38.3606L42.7535 26.2197L51.8147 29.1612V39.3874L52.11 43.3067L50.9249 45.7013L48.4362 45.3238L43.2262 44.8657" fill="#FF9763"/>
<mask id="mask26_1493_46273" style="mask-type:alpha" maskUnits="userSpaceOnUse" x="39" y="26" width="14" height="20">
<path fill-rule="evenodd" clip-rule="evenodd" d="M39.5796 38.3606L42.7535 26.2197L51.8147 29.1612V39.3874L52.11 43.3067L50.9249 45.7013L48.4362 45.3238L43.2262 44.8657" fill="white"/>
</mask>
<g mask="url(#mask26_1493_46273)">
<path d="M54.6177 41.5038C43.186 39.2638 53.1334 36.6377 49.0606 34.7204C47.9402 34.193 49.7236 28.7129 49.7236 28.7129L52.8297 30.7447" fill="#E84B23"/>
</g>
<path d="M44.8965 25.8493L48.0831 18.2995L57.0397 11.2803C58.3818 19.389 66.4468 42.1607 48.6707 33.3952" fill="#FF9763"/>
<path d="M43.683 26.3535C47.0488 27.6881 51.6944 21.0057 49.7106 18.85C49.7106 18.85 55.3807 21.1277 59.3756 17.8209C72.9262 19.5682 72.0306 2.91804 60.1449 7.68253C53.9575 4.27768 47.0714 7.63959 47.3716 11.4495C42.7167 7.33554 33.656 22.3776 43.683 26.3535Z" fill="#4B4D5C"/>
<path d="M43.0992 29.9606C37.0342 24.842 41.5727 17.1866 48.4995 26.4447L43.0992 29.9606Z" fill="#FF9763"/>
<path d="M58.2873 11.242C58.2524 11.3553 58.2145 11.4675 58.1725 11.5783C58.1608 11.6091 58.1488 11.6397 58.1366 11.6702C58.1331 11.6789 58.1009 11.7564 58.1222 11.7062C58.1463 11.6495 58.103 11.7491 58.0983 11.7596C58.0875 11.7836 58.0765 11.8076 58.0654 11.8314C57.9623 12.0522 57.8443 12.2657 57.7123 12.4705C57.6481 12.5701 57.5807 12.6675 57.5101 12.7627C57.5047 12.77 57.4546 12.8365 57.4866 12.7947C57.5229 12.7471 57.4566 12.8323 57.4496 12.841C57.4124 12.8871 57.3744 12.9326 57.3358 12.9775C57.1764 13.1617 57.0049 13.3351 56.8223 13.4964C56.6432 13.6776 56.6432 13.9692 56.8223 14.1505C57.0053 14.3253 57.2934 14.3253 57.4764 14.1505C58.2764 13.435 58.8653 12.5142 59.1793 11.4879C59.2447 11.2419 59.101 10.9888 58.8562 10.9189C58.6106 10.8565 58.3595 10.9991 58.2873 11.242L58.2873 11.242Z" fill="#373947"/>
<path d="M41.8207 16.0914L41.7429 16.1951C41.7097 16.2466 41.6907 16.3059 41.6881 16.3671C41.6657 16.5506 41.7519 16.7303 41.9089 16.8279L42.0193 16.8745C42.0998 16.8966 42.1848 16.8966 42.2652 16.8745L42.3757 16.8279C42.4443 16.7877 42.5014 16.7306 42.5416 16.662L42.6194 16.5582C42.6527 16.5068 42.6716 16.4475 42.6743 16.3863C42.6966 16.2028 42.6105 16.023 42.4535 15.9255L42.343 15.8788C42.2625 15.8568 42.1776 15.8568 42.0971 15.8788L41.9866 15.9255C41.918 15.9657 41.8609 16.0228 41.8207 16.0914Z" fill="#373947"/>
<path d="M55.3851 21.4107C55.8283 21.2681 56.3032 21.5118 56.4458 21.955L56.882 23.3104C57.0246 23.7536 56.7809 24.2286 56.3377 24.3712C55.8944 24.5138 55.4195 24.2701 55.2769 23.8269L54.8408 22.4715C54.6981 22.0283 54.9418 21.5533 55.3851 21.4107L55.3851 21.4107Z" fill="#190000"/>
<path d="M55.2396 18.4938C52.7807 19.1664 52.5646 20.345 54.129 20.0248C55.6935 19.7046 56.846 18.0544 55.2396 18.4938Z" fill="#190000"/>
<path d="M58.0552 22.2695C61.6181 23.212 61.527 26.674 59.2402 26.5944L58.0552 22.2695Z" fill="#FF9763"/>
<ellipse opacity="0.27" cx="53.5708" cy="25.7582" rx="1.91985" ry="1.41572" transform="rotate(-8.1477 53.5708 25.7582)" fill="#E84B23"/>
<path d="M54.9766 27.4531C56.4832 28.7147 58.0576 28.0306 58.0576 28.0306" stroke="#993443" stroke-width="0.892376" stroke-linecap="round" stroke-linejoin="round"/>
<path d="M45.2548 25.7436C45.0781 25.5376 44.8357 25.3991 44.5686 25.3514C44.2648 25.2934 43.9503 25.336 43.6729 25.4729C43.1445 25.7349 42.9294 26.3898 43.0925 26.9366C43.1818 27.2526 43.3901 27.5216 43.6735 27.6873C43.8162 27.7707 43.9925 27.7717 44.1361 27.6898C44.2797 27.6079 44.3686 27.4557 44.3695 27.2904C44.3704 27.1252 44.2831 26.972 44.1404 26.8886C44.1088 26.871 44.0785 26.8513 44.0496 26.8297L44.1432 26.902C44.0909 26.861 44.0439 26.8136 44.0033 26.7609L44.0756 26.8545C44.0327 26.7968 43.9969 26.7341 43.9689 26.6678L44.0156 26.7783C43.9864 26.7063 43.966 26.6311 43.9549 26.5543L43.9714 26.6772C43.9606 26.5953 43.9606 26.5123 43.9715 26.4304L43.955 26.5533C43.9648 26.4875 43.9824 26.4231 44.0071 26.3613L43.9605 26.4718C43.9846 26.4151 44.0153 26.3615 44.0521 26.3122L43.9798 26.4058C44.0187 26.3561 44.0636 26.3115 44.1135 26.2731L44.0199 26.3454C44.0704 26.3082 44.1249 26.2768 44.1825 26.2519L44.072 26.2985C44.145 26.2685 44.2216 26.248 44.2999 26.2376L44.177 26.2541C44.2558 26.2447 44.3356 26.2451 44.4143 26.2551L44.2914 26.2385C44.3696 26.2496 44.4461 26.2707 44.519 26.3012L44.4085 26.2546C44.4659 26.2799 44.5203 26.3115 44.5706 26.3489L44.477 26.2766C44.5227 26.3121 44.5642 26.3527 44.6008 26.3976C44.6876 26.4842 44.8052 26.5329 44.9278 26.533C45.0503 26.5322 45.1676 26.4836 45.2549 26.3976C45.3414 26.3107 45.39 26.1931 45.3903 26.0705C45.3841 25.9492 45.3362 25.8337 45.2549 25.7435L45.2548 25.7436Z" fill="#373947"/>
<path d="M52.836 50.8768L48.436 45.3237C48.436 45.3237 52.0172 44.2741 52.2617 37.209L55.7838 40.1578L52.836 50.8768Z" fill="#97CC64"/>
<path d="M34.915 38.6592C36.7578 35.4682 40.3869 34.8652 40.3869 34.8652C40.3869 34.8652 39.4592 42.6439 48.4364 45.3236L43.7207 51.7477C43.7207 51.7477 35.4841 43.9269 34.915 38.6592Z" fill="#97CC64"/>
<path d="M15.2229 47.5791C8.37361 52.7813 -1.05362 80.3432 5.21386 93.2843L25.3714 84.558C25.3714 84.558 23.6966 88.88 23.723 88.2017C23.848 84.996 25.8202 68.5426 24.4321 61.0566" fill="#516DDB"/>
<mask id="mask27_1493_46273" style="mask-type:alpha" maskUnits="userSpaceOnUse" x="3" y="47" width="23" height="47">
<path fill-rule="evenodd" clip-rule="evenodd" d="M15.2229 47.5791C8.37361 52.7813 -1.05362 80.3432 5.21386 93.2843L25.3714 84.558C25.3714 84.558 23.6966 88.88 23.723 88.2017C23.848 84.996 25.8202 68.5426 24.4321 61.0566" fill="white"/>
</mask>
<g mask="url(#mask27_1493_46273)">
<g opacity="0.16">
<path fill-rule="evenodd" clip-rule="evenodd" d="M17.8128 105.292L15.0679 107.327L-25.9287 62.7307L-23.1838 60.6963L17.8128 105.292V105.292Z" stroke="#3152BA" stroke-width="0.606096" stroke-linecap="round" stroke-linejoin="round"/>
<path fill-rule="evenodd" clip-rule="evenodd" d="M23.0477 101.412L20.3027 103.447L-20.6938 58.8508L-17.9489 56.8164L23.0477 101.412V101.412Z" stroke="#3152BA" stroke-width="0.606096" stroke-linecap="round" stroke-linejoin="round"/>
<path fill-rule="evenodd" clip-rule="evenodd" d="M28.2825 97.5326L25.5376 99.5671L-15.459 54.971L-12.714 52.9365L28.2825 97.5326V97.5326Z" stroke="#3152BA" stroke-width="0.606096" stroke-linecap="round" stroke-linejoin="round"/>
<path fill-rule="evenodd" clip-rule="evenodd" d="M33.5174 93.6527L30.7725 95.6871L-10.2241 51.0911L-7.47918 49.0566L33.5174 93.6527V93.6527Z" stroke="#3152BA" stroke-width="0.606096" stroke-linecap="round" stroke-linejoin="round"/>
<path fill-rule="evenodd" clip-rule="evenodd" d="M38.7527 89.7728L36.0077 91.8072L-4.98877 47.2112L-2.24383 45.1768L38.7527 89.7728V89.7728Z" stroke="#3152BA" stroke-width="0.606096" stroke-linecap="round" stroke-linejoin="round"/>
<path fill-rule="evenodd" clip-rule="evenodd" d="M43.9876 85.893L41.2427 87.9274L0.246094 43.3314L2.99103 41.2969L43.9876 85.893V85.893Z" stroke="#3152BA" stroke-width="0.606096" stroke-linecap="round" stroke-linejoin="round"/>
<path fill-rule="evenodd" clip-rule="evenodd" d="M49.2224 82.013L46.4774 84.0475L5.48096 39.4514L8.2258 37.417L49.2224 82.013V82.013Z" stroke="#3152BA" stroke-width="0.606096" stroke-linecap="round" stroke-linejoin="round"/>
<path fill-rule="evenodd" clip-rule="evenodd" d="M54.4573 78.1332L51.7124 80.1676L10.7158 35.5715L13.4608 33.5371L54.4573 78.1332V78.1332Z" stroke="#3152BA" stroke-width="0.606096" stroke-linecap="round" stroke-linejoin="round"/>
</g>
<g opacity="0.46">
<path fill-rule="evenodd" clip-rule="evenodd" d="M-28.6691 70.7327L-31.46 67.6968L19.9397 29.6016L22.7306 32.6375L-28.6691 70.7327V70.7327Z" stroke="#3152BA" stroke-width="1.29273" stroke-linecap="round" stroke-linejoin="round"/>
<path fill-rule="evenodd" clip-rule="evenodd" d="M-23.3463 76.5227L-26.1372 73.4868L25.2624 35.3916L28.0533 38.4275L-23.3463 76.5227V76.5227Z" stroke="#3152BA" stroke-width="1.29273" stroke-linecap="round" stroke-linejoin="round"/>
<path fill-rule="evenodd" clip-rule="evenodd" d="M-18.024 82.3127L-20.8149 79.2768L30.5847 41.1816L33.3756 44.2175L-18.024 82.3127V82.3127Z" stroke="#3152BA" stroke-width="1.29273" stroke-linecap="round" stroke-linejoin="round"/>
<path fill-rule="evenodd" clip-rule="evenodd" d="M-12.7013 88.1029L-15.4922 85.067L35.9075 46.9717L38.6984 50.0077L-12.7013 88.1029V88.1029Z" stroke="#3152BA" stroke-width="1.29273" stroke-linecap="round" stroke-linejoin="round"/>
<path fill-rule="evenodd" clip-rule="evenodd" d="M-7.37853 93.8919L-10.1694 90.8559L41.2302 52.7607L44.0211 55.7967L-7.37853 93.8919V93.8919Z" stroke="#3152BA" stroke-width="1.29273" stroke-linecap="round" stroke-linejoin="round"/>
<path fill-rule="evenodd" clip-rule="evenodd" d="M-2.05578 99.682L-4.84668 96.646L46.553 58.5508L49.3439 61.5868L-2.05578 99.682V99.682Z" stroke="#3152BA" stroke-width="1.29273" stroke-linecap="round" stroke-linejoin="round"/>
<path fill-rule="evenodd" clip-rule="evenodd" d="M3.26648 105.472L0.475586 102.436L51.8752 64.3408L54.6661 67.3767L3.26648 105.472V105.472Z" stroke="#3152BA" stroke-width="1.29273" stroke-linecap="round" stroke-linejoin="round"/>
<path fill-rule="evenodd" clip-rule="evenodd" d="M8.58924 111.262L5.79834 108.226L57.198 70.1309L59.9889 73.1668L8.58924 111.262V111.262Z" stroke="#3152BA" stroke-width="1.29273" stroke-linecap="round" stroke-linejoin="round"/>
</g>
</g>
<path d="M43.5366 82.0249C43.5366 82.0249 56.4184 80.5804 57.7838 80.7585C59.1492 80.9366 64.3742 79.808 64.7087 79.6537C67.66 78.2926 63.9833 83.0381 59.4459 82.9549C59.4459 82.9549 63.6447 85.5996 63.6776 86.3713C63.7106 87.1431 63.1764 87.143 63.1764 87.143C63.1764 87.143 63.5325 87.9741 62.8993 88.449C60.7227 87.3013 57.8629 86.3782 57.5463 86.7739C57.2298 87.1697 51.1401 89.478 46.0349 88.449C40.9297 87.4201 43.5366 82.0249 43.5366 82.0249Z" fill="#FF9763"/>
<mask id="mask28_1493_46273" style="mask-type:alpha" maskUnits="userSpaceOnUse" x="42" y="79" width="24" height="10">
<path fill-rule="evenodd" clip-rule="evenodd" d="M43.5366 82.0249C43.5366 82.0249 56.4184 80.5804 57.7838 80.7585C59.1492 80.9366 64.3742 79.808 64.7087 79.6537C67.66 78.2926 63.9833 83.0381 59.4459 82.9549C59.4459 82.9549 63.6447 85.5996 63.6776 86.3713C63.7106 87.1431 63.1764 87.143 63.1764 87.143C63.1764 87.143 63.5325 87.9741 62.8993 88.449C60.7227 87.3013 57.8629 86.3782 57.5463 86.7739C57.2298 87.1697 51.1401 89.478 46.0349 88.449C40.9297 87.4201 43.5366 82.0249 43.5366 82.0249Z" fill="white"/>
</mask>
<g mask="url(#mask28_1493_46273)">
<path d="M46.4712 82.0251C48.7863 80.8378 50.3891 88.0801 50.8046 90.3952C51.2202 92.7104 45.3433 90.5733 45.3433 90.5733" fill="#E84B23"/>
</g>
<ellipse cx="48.6382" cy="52.7813" rx="1.03321" ry="1.03321" fill="#FF9763"/>
<ellipse cx="48.6382" cy="60.9531" rx="1.03321" ry="1.03321" fill="#FF9763"/>
<rect x="31.5815" y="90.8389" width="33.4183" height="2.42434" fill="#F08059"/>
<path d="M103.993 93.2653H59.9204L67.7131 59.2284C67.8953 58.4325 68.6034 57.8682 69.42 57.8682H110.103C110.587 57.8682 111.045 58.0885 111.346 58.4668C111.647 58.8451 111.76 59.3401 111.652 59.8117L103.993 93.2653Z" fill="#E84B23"/>
<path d="M105.269 93.2653H61.1963L68.989 59.2284C69.1712 58.4325 69.8793 57.8682 70.6958 57.8682H111.379C111.863 57.8682 112.32 58.0885 112.622 58.4668C112.923 58.8451 113.036 59.3401 112.928 59.8117L105.269 93.2653Z" fill="#F08059"/>
<mask id="mask29_1493_46273" style="mask-type:alpha" maskUnits="userSpaceOnUse" x="61" y="57" width="52" height="37">
<path fill-rule="evenodd" clip-rule="evenodd" d="M105.269 93.2653H61.1963L68.989 59.2284C69.1712 58.4325 69.8793 57.8682 70.6958 57.8682H111.379C111.863 57.8682 112.32 58.0885 112.622 58.4668C112.923 58.8451 113.036 59.3401 112.928 59.8117L105.269 93.2653Z" fill="white"/>
</mask>
<g mask="url(#mask29_1493_46273)">
<path d="M63.6787 95.3247C66.286 88.3792 101.298 97.8166 108.813 77.7822C116.329 57.7479 115.082 94.2561 115.082 94.2561L85.8067 99.5988L59.9204 95.6808" fill="#D35D3D"/>
<path d="M96.7997 106.319C97.016 106.345 97.2338 106.357 97.4515 106.354C105.146 97.3143 90.5055 94.9238 100.619 89.8181C110.746 84.7059 99.0564 77.5097 93.9279 88.304C90.0075 96.5554 103.3 98.9074 96.135 105.536L96.7997 106.319Z" fill="#F3CD1E"/>
<mask id="mask30_1493_46273" style="mask-type:alpha" maskUnits="userSpaceOnUse" x="93" y="82" width="12" height="25">
<path fill-rule="evenodd" clip-rule="evenodd" d="M96.7997 106.319C97.016 106.345 97.2338 106.357 97.4515 106.354C105.146 97.3143 90.5055 94.9238 100.619 89.8181C110.746 84.7059 99.0564 77.5097 93.9279 88.304C90.0075 96.5554 103.3 98.9074 96.135 105.536L96.7997 106.319Z" fill="white"/>
</mask>
<g mask="url(#mask30_1493_46273)">
<path d="M92.2046 83.1281C94.6466 81.2355 95.909 82.4569 98.7842 81.4146C101.659 80.3724 104.463 83.2493 101.617 85.738C98.7711 88.2268 97.8066 85.5326 95.3851 87.7747C92.9635 90.0169 88.6387 85.8917 92.2046 83.1281Z" fill="#F19C12"/>
<path d="M96.7764 95.7482C99.2184 93.8556 100.481 95.077 103.356 94.0348C106.231 92.9925 109.034 95.8694 106.189 98.3581C103.343 100.847 102.378 98.1527 99.9568 100.395C97.5353 102.637 93.2105 98.5118 96.7764 95.7482Z" fill="#F19C12"/>
</g>
<path d="M78.5904 106.399H70.2234C70.2234 106.399 69.2822 103.576 74.3243 105.391C72.9293 84.2739 89.9283 96.6511 89.9213 106.399H78.5904Z" fill="#F3CD1E"/>
<path d="M78.3325 106.4H97.3918C97.3918 106.4 97.1539 92.8464 78.0449 86.9914C78.0449 86.9914 77.827 86.5366 79.8853 84.3443C79.8853 84.3443 78.8368 83.5783 77.2737 84.2745C77.2737 84.2745 76.2801 82.756 74.9691 82.756C74.9935 82.2577 74.9578 81.7583 74.863 81.2686C74.863 81.2686 63.6747 85.2221 70.8197 91.0717L78.3325 106.4Z" fill="#F3CD1E"/>
<mask id="mask31_1493_46273" style="mask-type:alpha" maskUnits="userSpaceOnUse" x="68" y="81" width="30" height="26">
<path fill-rule="evenodd" clip-rule="evenodd" d="M78.3325 106.4H97.3918C97.3918 106.4 97.1539 92.8464 78.0449 86.9914C78.0449 86.9914 77.827 86.5366 79.8853 84.3443C79.8853 84.3443 78.8368 83.5783 77.2737 84.2745C77.2737 84.2745 76.2801 82.756 74.9691 82.756C74.9935 82.2577 74.9578 81.7583 74.863 81.2686C74.863 81.2686 63.6747 85.2221 70.8197 91.0717L78.3325 106.4Z" fill="white"/>
</mask>
<g mask="url(#mask31_1493_46273)">
<path d="M67.0571 88.6543L70.8198 91.0723C70.8198 91.0723 73.8242 91.6292 75.5332 89.5619C75.5332 89.5619 72.9089 94.8956 69.43 93.9947" fill="#F3CD1E"/>
<mask id="mask32_1493_46273" style="mask-type:alpha" maskUnits="userSpaceOnUse" x="67" y="88" width="9" height="7">
<path fill-rule="evenodd" clip-rule="evenodd" d="M67.0571 88.6543L70.8198 91.0723C70.8198 91.0723 73.8242 91.6292 75.5332 89.5619C75.5332 89.5619 72.9089 94.8956 69.43 93.9947" fill="white"/>
</mask>
<g mask="url(#mask32_1493_46273)">
<ellipse cx="75.1785" cy="89.1912" rx="0.103283" ry="0.103283" fill="#2B253F"/>
<ellipse cx="74.3157" cy="89.1912" rx="0.103283" ry="0.103283" fill="#2B253F"/>
<ellipse cx="73.4529" cy="89.1912" rx="0.103283" ry="0.103283" fill="#2B253F"/>
<ellipse cx="72.5896" cy="89.1912" rx="0.103283" ry="0.103283" fill="#2B253F"/>
<ellipse cx="70.864" cy="89.1912" rx="0.103283" ry="0.103283" fill="#2B253F"/>
<ellipse cx="71.7268" cy="89.1912" rx="0.103283" ry="0.103283" fill="#2B253F"/>
<ellipse cx="70.0012" cy="89.1912" rx="0.103283" ry="0.103283" fill="#2B253F"/>
<ellipse cx="69.138" cy="89.1912" rx="0.103283" ry="0.103283" fill="#2B253F"/>
<ellipse cx="75.1785" cy="90.0408" rx="0.103283" ry="0.103283" fill="#2B253F"/>
<ellipse cx="74.3157" cy="90.0408" rx="0.103283" ry="0.103283" fill="#2B253F"/>
<ellipse cx="73.4529" cy="90.0408" rx="0.103283" ry="0.103283" fill="#2B253F"/>
<ellipse cx="72.5896" cy="90.0408" rx="0.103283" ry="0.103283" fill="#2B253F"/>
<ellipse cx="70.864" cy="90.0408" rx="0.103283" ry="0.103283" fill="#2B253F"/>
<ellipse cx="71.7268" cy="90.0408" rx="0.103283" ry="0.103283" fill="#2B253F"/>
<ellipse cx="70.0012" cy="90.0408" rx="0.103283" ry="0.103283" fill="#2B253F"/>
<ellipse cx="69.138" cy="90.0408" rx="0.103283" ry="0.103283" fill="#2B253F"/>
<ellipse cx="75.1785" cy="90.8904" rx="0.103283" ry="0.103283" fill="#2B253F"/>
<ellipse cx="74.3157" cy="90.8904" rx="0.103283" ry="0.103283" fill="#2B253F"/>
<ellipse cx="73.4529" cy="90.8904" rx="0.103283" ry="0.103283" fill="#2B253F"/>
<ellipse cx="72.5896" cy="90.8904" rx="0.103283" ry="0.103283" fill="#2B253F"/>
<ellipse cx="70.864" cy="90.8904" rx="0.103283" ry="0.103283" fill="#2B253F"/>
<ellipse cx="71.7268" cy="90.8904" rx="0.103283" ry="0.103283" fill="#2B253F"/>
<ellipse cx="70.0012" cy="90.8904" rx="0.103283" ry="0.103283" fill="#2B253F"/>
<ellipse cx="69.138" cy="90.8904" rx="0.103283" ry="0.103283" fill="#2B253F"/>
<ellipse cx="75.1785" cy="91.739" rx="0.103283" ry="0.103283" fill="#2B253F"/>
<ellipse cx="74.3157" cy="91.739" rx="0.103283" ry="0.103283" fill="#2B253F"/>
<ellipse cx="73.4529" cy="91.739" rx="0.103283" ry="0.103283" fill="#2B253F"/>
<ellipse cx="72.5896" cy="91.739" rx="0.103283" ry="0.103283" fill="#2B253F"/>
<ellipse cx="70.864" cy="91.739" rx="0.103283" ry="0.103283" fill="#2B253F"/>
<ellipse cx="71.7268" cy="91.739" rx="0.103283" ry="0.103283" fill="#2B253F"/>
<ellipse cx="70.0012" cy="91.739" rx="0.103283" ry="0.103283" fill="#2B253F"/>
<ellipse cx="69.138" cy="91.739" rx="0.103283" ry="0.103283" fill="#2B253F"/>
<ellipse cx="75.1785" cy="92.5886" rx="0.103283" ry="0.103283" fill="#2B253F"/>
<ellipse cx="74.3157" cy="92.5886" rx="0.103283" ry="0.103283" fill="#2B253F"/>
<ellipse cx="73.4529" cy="92.5886" rx="0.103283" ry="0.103283" fill="#2B253F"/>
<ellipse cx="72.5896" cy="92.5886" rx="0.103283" ry="0.103283" fill="#2B253F"/>
<ellipse cx="70.864" cy="92.5886" rx="0.103283" ry="0.103283" fill="#2B253F"/>
<ellipse cx="71.7268" cy="92.5886" rx="0.103283" ry="0.103283" fill="#2B253F"/>
<ellipse cx="70.0012" cy="92.5886" rx="0.103283" ry="0.103283" fill="#2B253F"/>
<ellipse cx="69.138" cy="92.5886" rx="0.103283" ry="0.103283" fill="#2B253F"/>
</g>
<path d="M78.6348 87.4728C81.0768 85.5802 82.3392 86.8016 85.2143 85.7594C88.0895 84.7171 90.8927 87.594 88.047 90.0828C85.2013 92.5715 84.2368 89.8773 81.8152 92.1195C79.3937 94.3616 75.0689 90.2364 78.6348 87.4728Z" fill="#F19C12"/>
<mask id="mask33_1493_46273" style="mask-type:alpha" maskUnits="userSpaceOnUse" x="73" y="93" width="15" height="14">
<path fill-rule="evenodd" clip-rule="evenodd" d="M73.6318 106.543C73.6318 106.543 74.6695 102.968 76.9385 104.311C76.9385 104.311 76.5116 97.0837 81.625 94.331C86.7384 91.5782 87.1418 105.461 87.1418 105.461L86.0661 106.806" fill="white"/>
</mask>
<g mask="url(#mask33_1493_46273)">
</g>
</g>
<path d="M94.2661 106.399H74.5681C74.5681 106.399 73.6269 103.576 78.669 105.391C77.8617 93.1698 83.2151 92.167 87.8674 95.3804" fill="#F3CD1E"/>
<path d="M72.9974 84.7508C72.9974 84.7508 71.3354 86.4645 70.5259 84.587C70.5258 84.587 71.5113 83.238 72.9974 84.7508Z" fill="#FBFBFC"/>
<mask id="mask34_1493_46273" style="mask-type:alpha" maskUnits="userSpaceOnUse" x="70" y="84" width="3" height="2">
<path fill-rule="evenodd" clip-rule="evenodd" d="M72.9974 84.7508C72.9974 84.7508 71.3354 86.4645 70.5259 84.587C70.5258 84.587 71.5113 83.238 72.9974 84.7508Z" fill="white"/>
</mask>
<g mask="url(#mask34_1493_46273)">
<ellipse cx="73.3065" cy="85.1095" rx="2.02898" ry="0.79243" transform="rotate(-4.3617 73.3065 85.1095)" fill="#060F24"/>
</g>
<path d="M69.5051 84.3441C69.4506 84.3975 69.4235 84.4729 69.4316 84.5487C69.4397 84.6246 69.4822 84.6926 69.5469 84.7331C69.7111 84.8238 69.9113 84.8195 70.0715 84.7219C70.1702 84.64 70.0833 84.5224 69.9269 84.4181C69.7705 84.3138 69.6039 84.2623 69.5051 84.3441Z" fill="#060F24"/>
<path d="M73.6321 87.3868C73.3797 87.1352 73.1046 86.9075 72.8102 86.7068C72.5228 86.5075 72.2248 86.324 71.9174 86.1571C71.6105 85.9894 71.2946 85.8389 70.9711 85.7061C70.6425 85.568 70.3017 85.461 69.9531 85.3867C70.205 85.6388 70.4801 85.8667 70.7747 86.0673C71.062 86.2667 71.3602 86.45 71.6678 86.6163C71.975 86.7835 72.291 86.9339 72.6145 87.0667C72.9431 87.2047 73.2837 87.3118 73.6321 87.3868Z" fill="#191A27"/>
<path d="M72.3069 87.9479C72.1721 87.674 72.0083 87.4154 71.8182 87.1766C71.6349 86.9422 71.4368 86.7198 71.2251 86.5107C71.0141 86.3011 70.7896 86.1053 70.5532 85.9247C70.3123 85.7372 70.0516 85.5764 69.7759 85.4453C69.9101 85.7196 70.0738 85.9784 70.2641 86.2172C70.4473 86.4515 70.6456 86.6738 70.8576 86.8825C71.0691 87.0917 71.2937 87.2873 71.5301 87.4679C71.7711 87.6553 72.0315 87.8162 72.3069 87.9479Z" fill="#191A27"/>
<path d="M71.1223 88.4344C71.0833 88.1533 71.0121 87.8776 70.9099 87.6129C70.813 87.355 70.6985 87.1042 70.5671 86.8621C70.4364 86.6197 70.2888 86.3867 70.1255 86.1649C69.9594 85.9347 69.7671 85.7246 69.5522 85.5391C69.5906 85.8203 69.6617 86.0961 69.764 86.3609C69.8608 86.6188 69.9756 86.8695 70.1076 87.1113C70.2387 87.3535 70.3865 87.5864 70.5498 87.8082C70.7159 88.0383 70.908 88.2484 71.1223 88.4344Z" fill="#191A27"/>
<path d="M98.0083 76.2418C98.1209 75.8294 99.5626 73.4709 99.8733 73.207C100.184 72.9431 100.808 75.747 100.808 75.747L98.0083 76.2418Z" fill="#4274B9"/>
<path d="M81.9208 102.063C81.311 101.01 80.8965 99.7523 80.7327 98.2551C79.1941 84.1921 102.202 86.4614 97.6463 80.3326C96.8256 79.244 94.1108 77.9081 98.1207 75.8299C102.131 73.7517 102.248 72.7126 102.517 72.9106C102.787 73.1085 103.147 75.632 103.147 75.632C103.147 75.632 113.044 91.0977 105.921 105.271C105.921 105.271 87.039 110.897 81.9208 102.063" fill="#4274B9"/>
<mask id="mask35_1493_46273" style="mask-type:alpha" maskUnits="userSpaceOnUse" x="80" y="72" width="29" height="36">
<path fill-rule="evenodd" clip-rule="evenodd" d="M81.9208 102.063C81.311 101.01 80.8965 99.7523 80.7327 98.2551C79.1941 84.1921 102.202 86.4614 97.6463 80.3326C96.8256 79.244 94.1108 77.9081 98.1207 75.8299C102.131 73.7517 102.248 72.7126 102.517 72.9106C102.787 73.1085 103.147 75.632 103.147 75.632C103.147 75.632 113.044 91.0977 105.921 105.271C105.921 105.271 87.039 110.897 81.9208 102.063" fill="white"/>
</mask>
<g mask="url(#mask35_1493_46273)">
<path d="M101.393 107.357C101.393 107.357 108.801 105.725 103.666 107.037C98.5316 108.348 101.424 106.538 101.424 106.538C101.424 106.538 113.242 95.4076 107.453 90.5094C100.34 84.4902 90.1772 90.6691 90.1772 90.6691L87.1445 108.525L96.3753 109.416" fill="#4274B9"/>
<mask id="mask36_1493_46273" style="mask-type:alpha" maskUnits="userSpaceOnUse" x="87" y="87" width="23" height="23">
<path fill-rule="evenodd" clip-rule="evenodd" d="M101.393 107.357C101.393 107.357 108.801 105.725 103.666 107.037C98.5316 108.348 101.424 106.538 101.424 106.538C101.424 106.538 113.242 95.4076 107.453 90.5094C100.34 84.4902 90.1772 90.6691 90.1772 90.6691L87.1445 108.525L96.3753 109.416" fill="white"/>
</mask>
<g mask="url(#mask36_1493_46273)">
<ellipse cx="87.3536" cy="88.9864" rx="0.116317" ry="0.116317" fill="#2B253F"/>
<ellipse cx="88.3258" cy="88.9864" rx="0.116317" ry="0.116317" fill="#2B253F"/>
<ellipse cx="89.2975" cy="88.9864" rx="0.116317" ry="0.116317" fill="#2B253F"/>
<ellipse cx="90.2691" cy="88.9864" rx="0.116317" ry="0.116317" fill="#2B253F"/>
<ellipse cx="91.2413" cy="88.9864" rx="0.116317" ry="0.116317" fill="#2B253F"/>
<ellipse cx="92.213" cy="88.9864" rx="0.116317" ry="0.116317" fill="#2B253F"/>
<ellipse cx="93.1847" cy="88.9864" rx="0.116317" ry="0.116317" fill="#2B253F"/>
<ellipse cx="94.1564" cy="88.9864" rx="0.116317" ry="0.116317" fill="#2B253F"/>
<ellipse cx="95.1285" cy="88.9864" rx="0.116317" ry="0.116317" fill="#2B253F"/>
<ellipse cx="96.1002" cy="88.9864" rx="0.116317" ry="0.116317" fill="#2B253F"/>
<ellipse cx="98.0441" cy="88.9864" rx="0.116317" ry="0.116317" fill="#2B253F"/>
<ellipse cx="97.0719" cy="88.9864" rx="0.116317" ry="0.116317" fill="#2B253F"/>
<ellipse cx="99.0157" cy="88.9864" rx="0.116317" ry="0.116317" fill="#2B253F"/>
<ellipse cx="99.9874" cy="88.9864" rx="0.116317" ry="0.116317" fill="#2B253F"/>
<ellipse cx="100.96" cy="88.9864" rx="0.116317" ry="0.116317" fill="#2B253F"/>
<ellipse cx="101.931" cy="88.9864" rx="0.116317" ry="0.116317" fill="#2B253F"/>
<ellipse cx="102.903" cy="88.9864" rx="0.116317" ry="0.116317" fill="#2B253F"/>
<ellipse cx="103.875" cy="88.9864" rx="0.116317" ry="0.116317" fill="#2B253F"/>
<ellipse cx="104.847" cy="88.9864" rx="0.116317" ry="0.116317" fill="#2B253F"/>
<ellipse cx="105.818" cy="88.9864" rx="0.116317" ry="0.116317" fill="#2B253F"/>
<ellipse cx="106.79" cy="88.9864" rx="0.116317" ry="0.116317" fill="#2B253F"/>
<ellipse cx="107.762" cy="88.9864" rx="0.116317" ry="0.116317" fill="#2B253F"/>
<ellipse cx="87.3536" cy="90.9005" rx="0.116317" ry="0.116317" fill="#2B253F"/>
<ellipse cx="88.3258" cy="90.9005" rx="0.116317" ry="0.116317" fill="#2B253F"/>
<ellipse cx="89.2975" cy="90.9005" rx="0.116317" ry="0.116317" fill="#2B253F"/>
<ellipse cx="90.2691" cy="90.9005" rx="0.116317" ry="0.116317" fill="#2B253F"/>
<ellipse cx="91.2413" cy="90.9005" rx="0.116317" ry="0.116317" fill="#2B253F"/>
<ellipse cx="92.213" cy="90.9005" rx="0.116317" ry="0.116317" fill="#2B253F"/>
<ellipse cx="93.1847" cy="90.9005" rx="0.116317" ry="0.116317" fill="#2B253F"/>
<ellipse cx="94.1564" cy="90.9005" rx="0.116317" ry="0.116317" fill="#2B253F"/>
<ellipse cx="95.1285" cy="90.9005" rx="0.116317" ry="0.116317" fill="#2B253F"/>
<ellipse cx="96.1002" cy="90.9005" rx="0.116317" ry="0.116317" fill="#2B253F"/>
<ellipse cx="98.0441" cy="90.9005" rx="0.116317" ry="0.116317" fill="#2B253F"/>
<ellipse cx="97.0719" cy="90.9005" rx="0.116317" ry="0.116317" fill="#2B253F"/>
<ellipse cx="99.0157" cy="90.9005" rx="0.116317" ry="0.116317" fill="#2B253F"/>
<ellipse cx="99.9874" cy="90.9005" rx="0.116317" ry="0.116317" fill="#2B253F"/>
<ellipse cx="100.96" cy="90.9005" rx="0.116317" ry="0.116317" fill="#2B253F"/>
<ellipse cx="101.931" cy="90.9005" rx="0.116317" ry="0.116317" fill="#2B253F"/>
<ellipse cx="102.903" cy="90.9005" rx="0.116317" ry="0.116317" fill="#2B253F"/>
<ellipse cx="103.875" cy="90.9005" rx="0.116317" ry="0.116317" fill="#2B253F"/>
<ellipse cx="104.847" cy="90.9005" rx="0.116317" ry="0.116317" fill="#2B253F"/>
<ellipse cx="105.818" cy="90.9005" rx="0.116317" ry="0.116317" fill="#2B253F"/>
<ellipse cx="106.79" cy="90.9005" rx="0.116317" ry="0.116317" fill="#2B253F"/>
<ellipse cx="107.762" cy="90.9005" rx="0.116317" ry="0.116317" fill="#2B253F"/>
<ellipse cx="87.3536" cy="92.8136" rx="0.116317" ry="0.116317" fill="#2B253F"/>
<ellipse cx="88.3258" cy="92.8136" rx="0.116317" ry="0.116317" fill="#2B253F"/>
<ellipse cx="89.2975" cy="92.8136" rx="0.116317" ry="0.116317" fill="#2B253F"/>
<ellipse cx="90.2691" cy="92.8136" rx="0.116317" ry="0.116317" fill="#2B253F"/>
<ellipse cx="91.2413" cy="92.8136" rx="0.116317" ry="0.116317" fill="#2B253F"/>
<ellipse cx="92.213" cy="92.8136" rx="0.116317" ry="0.116317" fill="#2B253F"/>
<ellipse cx="93.1847" cy="92.8136" rx="0.116317" ry="0.116317" fill="#2B253F"/>
<ellipse cx="94.1564" cy="92.8136" rx="0.116317" ry="0.116317" fill="#2B253F"/>
<ellipse cx="95.1285" cy="92.8136" rx="0.116317" ry="0.116317" fill="#2B253F"/>
<ellipse cx="96.1002" cy="92.8136" rx="0.116317" ry="0.116317" fill="#2B253F"/>
<ellipse cx="98.0441" cy="92.8136" rx="0.116317" ry="0.116317" fill="#2B253F"/>
<ellipse cx="97.0719" cy="92.8136" rx="0.116317" ry="0.116317" fill="#2B253F"/>
<ellipse cx="99.0157" cy="92.8136" rx="0.116317" ry="0.116317" fill="#2B253F"/>
<ellipse cx="99.9874" cy="92.8136" rx="0.116317" ry="0.116317" fill="#2B253F"/>
<ellipse cx="100.96" cy="92.8136" rx="0.116317" ry="0.116317" fill="#2B253F"/>
<ellipse cx="101.931" cy="92.8136" rx="0.116317" ry="0.116317" fill="#2B253F"/>
<ellipse cx="102.903" cy="92.8136" rx="0.116317" ry="0.116317" fill="#2B253F"/>
<ellipse cx="103.875" cy="92.8136" rx="0.116317" ry="0.116317" fill="#2B253F"/>
<ellipse cx="104.847" cy="92.8136" rx="0.116317" ry="0.116317" fill="#2B253F"/>
<ellipse cx="105.818" cy="92.8136" rx="0.116317" ry="0.116317" fill="#2B253F"/>
<ellipse cx="106.79" cy="92.8136" rx="0.116317" ry="0.116317" fill="#2B253F"/>
<ellipse cx="107.762" cy="92.8136" rx="0.116317" ry="0.116317" fill="#2B253F"/>
<ellipse cx="87.3536" cy="88.0304" rx="0.116317" ry="0.116317" fill="#2B253F"/>
<ellipse cx="88.3258" cy="88.0304" rx="0.116317" ry="0.116317" fill="#2B253F"/>
<ellipse cx="89.2975" cy="88.0304" rx="0.116317" ry="0.116317" fill="#2B253F"/>
<ellipse cx="90.2691" cy="88.0304" rx="0.116317" ry="0.116317" fill="#2B253F"/>
<ellipse cx="91.2413" cy="88.0304" rx="0.116317" ry="0.116317" fill="#2B253F"/>
<ellipse cx="92.213" cy="88.0304" rx="0.116317" ry="0.116317" fill="#2B253F"/>
<ellipse cx="93.1847" cy="88.0304" rx="0.116317" ry="0.116317" fill="#2B253F"/>
<ellipse cx="94.1564" cy="88.0304" rx="0.116317" ry="0.116317" fill="#2B253F"/>
<ellipse cx="95.1285" cy="88.0304" rx="0.116317" ry="0.116317" fill="#2B253F"/>
<ellipse cx="96.1002" cy="88.0304" rx="0.116317" ry="0.116317" fill="#2B253F"/>
<ellipse cx="98.0441" cy="88.0304" rx="0.116317" ry="0.116317" fill="#2B253F"/>
<ellipse cx="97.0719" cy="88.0304" rx="0.116317" ry="0.116317" fill="#2B253F"/>
<ellipse cx="99.0157" cy="88.0304" rx="0.116317" ry="0.116317" fill="#2B253F"/>
<ellipse cx="99.9874" cy="88.0304" rx="0.116317" ry="0.116317" fill="#2B253F"/>
<ellipse cx="100.96" cy="88.0304" rx="0.116317" ry="0.116317" fill="#2B253F"/>
<ellipse cx="101.931" cy="88.0304" rx="0.116317" ry="0.116317" fill="#2B253F"/>
<ellipse cx="102.903" cy="88.0304" rx="0.116317" ry="0.116317" fill="#2B253F"/>
<ellipse cx="103.875" cy="88.0304" rx="0.116317" ry="0.116317" fill="#2B253F"/>
<ellipse cx="104.847" cy="88.0304" rx="0.116317" ry="0.116317" fill="#2B253F"/>
<ellipse cx="105.818" cy="88.0304" rx="0.116317" ry="0.116317" fill="#2B253F"/>
<ellipse cx="106.79" cy="88.0304" rx="0.116317" ry="0.116317" fill="#2B253F"/>
<ellipse cx="107.762" cy="88.0304" rx="0.116317" ry="0.116317" fill="#2B253F"/>
<ellipse cx="87.3536" cy="89.9435" rx="0.116317" ry="0.116317" fill="#2B253F"/>
<ellipse cx="88.3258" cy="89.9435" rx="0.116317" ry="0.116317" fill="#2B253F"/>
<ellipse cx="89.2975" cy="89.9435" rx="0.116317" ry="0.116317" fill="#2B253F"/>
<ellipse cx="90.2691" cy="89.9435" rx="0.116317" ry="0.116317" fill="#2B253F"/>
<ellipse cx="91.2413" cy="89.9435" rx="0.116317" ry="0.116317" fill="#2B253F"/>
<ellipse cx="92.213" cy="89.9435" rx="0.116317" ry="0.116317" fill="#2B253F"/>
<ellipse cx="93.1847" cy="89.9435" rx="0.116317" ry="0.116317" fill="#2B253F"/>
<ellipse cx="94.1564" cy="89.9435" rx="0.116317" ry="0.116317" fill="#2B253F"/>
<ellipse cx="95.1285" cy="89.9435" rx="0.116317" ry="0.116317" fill="#2B253F"/>
<ellipse cx="96.1002" cy="89.9435" rx="0.116317" ry="0.116317" fill="#2B253F"/>
<ellipse cx="98.0441" cy="89.9435" rx="0.116317" ry="0.116317" fill="#2B253F"/>
<ellipse cx="97.0719" cy="89.9435" rx="0.116317" ry="0.116317" fill="#2B253F"/>
<ellipse cx="99.0157" cy="89.9435" rx="0.116317" ry="0.116317" fill="#2B253F"/>
<ellipse cx="99.9874" cy="89.9435" rx="0.116317" ry="0.116317" fill="#2B253F"/>
<ellipse cx="100.96" cy="89.9435" rx="0.116317" ry="0.116317" fill="#2B253F"/>
<ellipse cx="101.931" cy="89.9435" rx="0.116317" ry="0.116317" fill="#2B253F"/>
<ellipse cx="102.903" cy="89.9435" rx="0.116317" ry="0.116317" fill="#2B253F"/>
<ellipse cx="103.875" cy="89.9435" rx="0.116317" ry="0.116317" fill="#2B253F"/>
<ellipse cx="104.847" cy="89.9435" rx="0.116317" ry="0.116317" fill="#2B253F"/>
<ellipse cx="105.818" cy="89.9435" rx="0.116317" ry="0.116317" fill="#2B253F"/>
<ellipse cx="106.79" cy="89.9435" rx="0.116317" ry="0.116317" fill="#2B253F"/>
<ellipse cx="107.762" cy="89.9435" rx="0.116317" ry="0.116317" fill="#2B253F"/>
<ellipse cx="87.3536" cy="91.8566" rx="0.116317" ry="0.116317" fill="#2B253F"/>
<ellipse cx="88.3258" cy="91.8566" rx="0.116317" ry="0.116317" fill="#2B253F"/>
<ellipse cx="89.2975" cy="91.8566" rx="0.116317" ry="0.116317" fill="#2B253F"/>
<ellipse cx="90.2691" cy="91.8566" rx="0.116317" ry="0.116317" fill="#2B253F"/>
<ellipse cx="91.2413" cy="91.8566" rx="0.116317" ry="0.116317" fill="#2B253F"/>
<ellipse cx="92.213" cy="91.8566" rx="0.116317" ry="0.116317" fill="#2B253F"/>
<ellipse cx="93.1847" cy="91.8566" rx="0.116317" ry="0.116317" fill="#2B253F"/>
<ellipse cx="94.1564" cy="91.8566" rx="0.116317" ry="0.116317" fill="#2B253F"/>
<ellipse cx="95.1285" cy="91.8566" rx="0.116317" ry="0.116317" fill="#2B253F"/>
<ellipse cx="96.1002" cy="91.8566" rx="0.116317" ry="0.116317" fill="#2B253F"/>
<ellipse cx="98.0441" cy="91.8566" rx="0.116317" ry="0.116317" fill="#2B253F"/>
<ellipse cx="97.0719" cy="91.8566" rx="0.116317" ry="0.116317" fill="#2B253F"/>
<ellipse cx="99.0157" cy="91.8566" rx="0.116317" ry="0.116317" fill="#2B253F"/>
<ellipse cx="99.9874" cy="91.8566" rx="0.116317" ry="0.116317" fill="#2B253F"/>
<ellipse cx="100.96" cy="91.8566" rx="0.116317" ry="0.116317" fill="#2B253F"/>
<ellipse cx="101.931" cy="91.8566" rx="0.116317" ry="0.116317" fill="#2B253F"/>
<ellipse cx="102.903" cy="91.8566" rx="0.116317" ry="0.116317" fill="#2B253F"/>
<ellipse cx="103.875" cy="91.8566" rx="0.116317" ry="0.116317" fill="#2B253F"/>
<ellipse cx="104.847" cy="91.8566" rx="0.116317" ry="0.116317" fill="#2B253F"/>
<ellipse cx="105.818" cy="91.8566" rx="0.116317" ry="0.116317" fill="#2B253F"/>
<ellipse cx="106.79" cy="91.8566" rx="0.116317" ry="0.116317" fill="#2B253F"/>
<ellipse cx="107.762" cy="91.8566" rx="0.116317" ry="0.116317" fill="#2B253F"/>
</g>
<ellipse cx="107.457" cy="86.3761" rx="2.32999" ry="2.638" transform="rotate(-44.6953 107.457 86.3761)" fill="#FBFBFC"/>
<ellipse cx="94.6394" cy="83.5404" rx="3.80454" ry="4.30747" transform="rotate(-44.6953 94.6394 83.5404)" fill="#FBFBFC"/>
</g>
<path d="M82.1741 99.2492C81.9185 104.299 88.9746 108.549 110.875 106.108C110.875 106.108 112.226 102.752 104.131 104.93C114.081 90.409 98.5141 87.5353 89.4408 90.925" fill="#4274B9"/>
<ellipse opacity="0.21" cx="101.11" cy="92.211" rx="4.45592" ry="5.04496" transform="rotate(-44.6953 101.11 92.211)" fill="url(#paint4_linear_1493_46273)"/>
<path d="M106.79 90.7842C112.728 97.6421 88.9544 105.278 85.4376 103.671C81.9207 102.063 89.2976 109.917 89.2976 109.917L100.959 110.149L108.03 96.5557L107.762 91.0168" fill="#4274B9"/>
<path d="M84.5053 102.765C90.479 107.583 103.183 102.847 108.03 96.5552C113.68 89.2203 123.602 105.141 95.6306 107.252C76.2613 108.714 81.079 94.0723 81.079 94.0723" fill="#4274B9"/>
<path d="M97.7651 77.8491C100.556 79.1559 101.149 77.0306 101.149 77.0306C101.149 77.0306 99.1495 75.6376 97.7651 77.8491Z" fill="#FBFBFC"/>
<mask id="mask37_1493_46273" style="mask-type:alpha" maskUnits="userSpaceOnUse" x="97" y="76" width="5" height="3">
<path fill-rule="evenodd" clip-rule="evenodd" d="M97.7651 77.8491C100.556 79.1559 101.149 77.0306 101.149 77.0306C101.149 77.0306 99.1495 75.6376 97.7651 77.8491Z" fill="white"/>
</mask>
<g mask="url(#mask37_1493_46273)">
<ellipse cx="100.468" cy="77.3107" rx="1.07805" ry="1.27665" transform="rotate(-25.5202 100.468 77.3107)" fill="#0E1A39"/>
</g>
<path d="M101.88 78.893C101.573 78.9828 101.26 79.0492 100.943 79.0916C100.627 79.1366 100.308 79.1671 99.988 79.1852C99.6675 79.2032 99.3449 79.2085 99.0199 79.1992C98.6895 79.1922 98.3601 79.1615 98.0342 79.1071C98.3411 79.0168 98.6545 78.9503 98.9716 78.908C99.2877 78.863 99.606 78.832 99.9267 78.8149C100.247 78.7973 100.57 78.7921 100.895 78.8014C101.225 78.8085 101.554 78.8391 101.88 78.893Z" fill="#191A27"/>
<path d="M101.611 79.5747C101.296 79.6137 100.977 79.6295 100.659 79.622C100.349 79.6168 100.042 79.5972 99.74 79.5654C99.4376 79.5336 99.1392 79.4891 98.8454 79.4302C98.552 79.3746 98.2638 79.2943 97.9839 79.1902C98.2997 79.1508 98.618 79.1348 98.9361 79.1425C99.2469 79.1477 99.5533 79.1667 99.8553 79.1996C100.158 79.2318 100.456 79.2764 100.75 79.3352C101.043 79.391 101.331 79.4711 101.611 79.5747Z" fill="#191A27"/>
<path d="M101.358 80.1771C101.038 80.1723 100.718 80.144 100.402 80.0924C100.098 80.0447 99.804 79.9836 99.5189 79.9111C99.2389 79.8405 98.9627 79.7556 98.6914 79.6567C98.4293 79.5644 98.1769 79.4465 97.938 79.3047C98.2585 79.3091 98.5783 79.3372 98.8946 79.3889C99.1985 79.4366 99.4927 79.4972 99.7772 79.5707C100.057 79.6416 100.333 79.7267 100.604 79.8256C100.866 79.918 101.119 80.0357 101.358 80.1771Z" fill="#191A27"/>
</g>
<path d="M20.6513 80.9213C32.8315 79.7817 47.3355 81.4707 47.3355 81.4707C49.1164 85.7448 48.7602 91.9186 48.7602 91.9186C48.7602 91.9186 9.22352 101.565 5.21365 93.2839C4.79199 92.4131 4.16834 90.7425 4.02002 89.9823" fill="#516DDB"/>
<mask id="mask38_1493_46273" style="mask-type:alpha" maskUnits="userSpaceOnUse" x="4" y="80" width="45" height="17">
<path fill-rule="evenodd" clip-rule="evenodd" d="M20.6513 80.9213C32.8315 79.7817 47.3355 81.4707 47.3355 81.4707C49.1164 85.7448 48.7602 91.9186 48.7602 91.9186C48.7602 91.9186 9.22352 101.565 5.21365 93.2839C4.79199 92.4131 4.16834 90.7425 4.02002 89.9823" fill="white"/>
</mask>
<g mask="url(#mask38_1493_46273)">
<g opacity="0.16">
<path fill-rule="evenodd" clip-rule="evenodd" d="M29.953 123.444L27.208 125.478L-13.7886 80.8821L-11.0436 78.8477L29.953 123.444V123.444Z" stroke="#3152BA" stroke-width="0.606096" stroke-linecap="round" stroke-linejoin="round"/>
<path fill-rule="evenodd" clip-rule="evenodd" d="M35.1878 119.564L32.4429 121.598L-8.55371 77.0022L-5.80877 74.9678L35.1878 119.564V119.564Z" stroke="#3152BA" stroke-width="0.606096" stroke-linecap="round" stroke-linejoin="round"/>
<path fill-rule="evenodd" clip-rule="evenodd" d="M40.4226 115.684L37.6776 117.718L-3.31885 73.1223L-0.573911 71.0879L40.4226 115.684V115.684Z" stroke="#3152BA" stroke-width="0.606096" stroke-linecap="round" stroke-linejoin="round"/>
<path fill-rule="evenodd" clip-rule="evenodd" d="M45.6575 111.804L42.9126 113.838L1.91602 69.2424L4.66095 67.208L45.6575 111.804V111.804Z" stroke="#3152BA" stroke-width="0.606096" stroke-linecap="round" stroke-linejoin="round"/>
<path fill-rule="evenodd" clip-rule="evenodd" d="M50.8928 107.924L48.1479 109.959L7.15137 65.3626L9.8963 63.3281L50.8928 107.924V107.924Z" stroke="#3152BA" stroke-width="0.606096" stroke-linecap="round" stroke-linejoin="round"/>
<path fill-rule="evenodd" clip-rule="evenodd" d="M56.1278 104.044L53.3828 106.079L12.3862 61.4827L15.1312 59.4482L56.1278 104.044V104.044Z" stroke="#3152BA" stroke-width="0.606096" stroke-linecap="round" stroke-linejoin="round"/>
<path fill-rule="evenodd" clip-rule="evenodd" d="M61.3626 100.164L58.6177 102.199L17.6211 57.6028L20.366 55.5684L61.3626 100.164V100.164Z" stroke="#3152BA" stroke-width="0.606096" stroke-linecap="round" stroke-linejoin="round"/>
<path fill-rule="evenodd" clip-rule="evenodd" d="M66.5974 96.2845L63.8525 98.3189L22.856 53.7229L25.6009 51.6885L66.5974 96.2845V96.2845Z" stroke="#3152BA" stroke-width="0.606096" stroke-linecap="round" stroke-linejoin="round"/>
</g>
<g opacity="0.46">
<path fill-rule="evenodd" clip-rule="evenodd" d="M-16.5289 88.8841L-19.3198 85.8481L32.0798 47.7529L34.8707 50.7889L-16.5289 88.8841V88.8841Z" stroke="#3152BA" stroke-width="1.29273" stroke-linecap="round" stroke-linejoin="round"/>
<path fill-rule="evenodd" clip-rule="evenodd" d="M-11.2063 94.6742L-13.9971 91.6382L37.4025 53.543L40.1934 56.5789L-11.2063 94.6742V94.6742Z" stroke="#3152BA" stroke-width="1.29273" stroke-linecap="round" stroke-linejoin="round"/>
<path fill-rule="evenodd" clip-rule="evenodd" d="M-5.88391 100.464L-8.6748 97.4282L42.7248 59.333L45.5157 62.3689L-5.88391 100.464V100.464Z" stroke="#3152BA" stroke-width="1.29273" stroke-linecap="round" stroke-linejoin="round"/>
<path fill-rule="evenodd" clip-rule="evenodd" d="M-0.561152 106.254L-3.35205 103.218L48.0476 65.123L50.8385 68.1589L-0.561152 106.254V106.254Z" stroke="#3152BA" stroke-width="1.29273" stroke-linecap="round" stroke-linejoin="round"/>
<path fill-rule="evenodd" clip-rule="evenodd" d="M4.7616 112.044L1.9707 109.008L53.3703 70.9131L56.1612 73.949L4.7616 112.044V112.044Z" stroke="#3152BA" stroke-width="1.29273" stroke-linecap="round" stroke-linejoin="round"/>
<path fill-rule="evenodd" clip-rule="evenodd" d="M10.0843 117.833L7.29346 114.797L58.693 76.7021L61.4839 79.738L10.0843 117.833V117.833Z" stroke="#3152BA" stroke-width="1.29273" stroke-linecap="round" stroke-linejoin="round"/>
<path fill-rule="evenodd" clip-rule="evenodd" d="M15.4066 123.623L12.6157 120.587L64.0154 82.4922L66.8063 85.5282L15.4066 123.623V123.623Z" stroke="#3152BA" stroke-width="1.29273" stroke-linecap="round" stroke-linejoin="round"/>
<path fill-rule="evenodd" clip-rule="evenodd" d="M20.7294 129.413L17.9385 126.377L69.3381 88.2822L72.129 91.3182L20.7294 129.413V129.413Z" stroke="#3152BA" stroke-width="1.29273" stroke-linecap="round" stroke-linejoin="round"/>
</g>
</g>
<path d="M42.3628 80.7002C42.3628 80.7002 45.4032 87.3738 43.6159 93.0412L48.8094 92.279C48.8094 92.279 49.4589 85.2473 47.3355 81.4707L42.3628 80.7002Z" fill="#97CC64"/>
<ellipse cx="89.3381" cy="73.7736" rx="4.58754" ry="3.61728" transform="rotate(-43.8083 89.3381 73.7736)" fill="#F0F3FC"/>
<rect x="54.9653" y="59.0361" width="9.7153" height="1.91687" fill="#FF9763"/>
<path d="M15.5454 48.707C22.6644 50.9684 24.0882 58.2548 24.0882 58.2548" stroke="#3152BA" stroke-width="0.59492" stroke-linecap="round" stroke-linejoin="round" stroke-dasharray="1.19"/>
<path d="M66.4673 55.5752C66.9698 52.8952 70.4037 50.2988 70.4037 50.2988" stroke="#3152BA" stroke-width="0.59492" stroke-linecap="round" stroke-linejoin="round" stroke-dasharray="1.19"/>
<path d="M36.1317 65.6009C36.5828 67.1403 37.3042 68.5871 38.2622 69.8738C38.5482 70.2556 38.8495 70.6252 39.1717 70.977C39.3817 71.1839 39.7189 71.1839 39.9289 70.977C40.1317 70.7654 40.1317 70.4315 39.9289 70.2198C39.7995 70.0785 39.6731 69.9345 39.5496 69.7879C39.4924 69.7197 39.4359 69.651 39.3802 69.5817C39.3501 69.5444 39.3203 69.5069 39.2907 69.4692C39.278 69.4531 39.2654 69.4368 39.2527 69.4207C39.2122 69.3693 39.3098 69.4962 39.2487 69.4152C39.022 69.1145 38.8059 68.8065 38.6045 68.4883C38.3995 68.1644 38.2091 67.8319 38.033 67.4909C37.9451 67.3206 37.861 67.1484 37.7807 66.9744C37.7434 66.8936 37.7069 66.8125 37.6713 66.7309C37.6603 66.7059 37.6495 66.6807 37.6386 66.6556C37.634 66.6449 37.6068 66.5805 37.6335 66.644C37.6602 66.7075 37.6331 66.643 37.6287 66.6322C37.6157 66.6005 37.6026 66.5689 37.5897 66.5372C37.4277 66.1375 37.2858 65.7306 37.1643 65.3163C37.114 65.1311 36.9686 64.9869 36.783 64.9384C36.5974 64.8898 36.4 64.9442 36.2655 65.081C36.131 65.2179 36.0799 65.4162 36.1317 65.6009L36.1317 65.6009Z" fill="#3152BA"/>
<path d="M80.9574 63.7575L78.731 65.7752C78.5239 65.9851 78.5239 66.3224 78.731 66.5324C78.9427 66.7351 79.2764 66.7351 79.4882 66.5324L81.7147 64.5147C81.9217 64.3047 81.9217 63.9674 81.7147 63.7575C81.5029 63.5548 81.1692 63.5548 80.9574 63.7575Z" fill="#E84B23"/>
</svg>
