<svg width="368" height="297" viewBox="0 0 368 297" fill="none" xmlns="http://www.w3.org/2000/svg">
<ellipse cx="236.078" cy="63.5955" rx="32.1494" ry="34.5955" fill="#6F4EB9"/>
<ellipse cx="236.078" cy="63.5956" rx="30.2645" ry="32.5672" fill="#9A7ED9"/>
<ellipse cx="236.078" cy="63.5956" rx="26.8833" ry="28.9288" fill="#2976DF"/>
<mask id="mask0_207_62418" style="mask-type:alpha" maskUnits="userSpaceOnUse" x="209" y="34" width="54" height="59">
<ellipse cx="236.078" cy="63.5956" rx="26.8833" ry="28.9288" fill="white"/>
</mask>
<g mask="url(#mask0_207_62418)">
<ellipse cx="232.697" cy="61.7795" rx="26.8833" ry="28.9288" fill="#589BF7"/>
</g>
<path d="M226.098 62.5774L226.26 61.4774L236.361 62.6555L236.043 64.8184L226.098 62.5774Z" fill="#F0F3FC"/>
<path d="M248.724 53.498L249.332 54.3991L236.349 65.2118L235.153 63.44L248.724 53.498Z" fill="#F0F3FC"/>
<rect x="235.217" y="38.4081" width="1.72193" height="3.87384" fill="#F0F3FC"/>
<rect x="235.217" y="84.9092" width="1.72193" height="3.87384" fill="#F0F3FC"/>
<rect x="255.885" y="62.6691" width="3.59993" height="1.85294" fill="#F0F3FC"/>
<rect x="212.672" y="62.6691" width="3.59993" height="1.85294" fill="#F0F3FC"/>
<ellipse cx="236.078" cy="63.5953" rx="3.94075" ry="4.24059" fill="#D6DCF2"/>
<mask id="mask1_207_62418" style="mask-type:alpha" maskUnits="userSpaceOnUse" x="232" y="59" width="9" height="9">
<ellipse cx="236.078" cy="63.5953" rx="3.94075" ry="4.24059" fill="white"/>
</mask>
<g mask="url(#mask1_207_62418)">
<ellipse cx="234.508" cy="64.3147" rx="3.94075" ry="4.24059" fill="#F0F3FC"/>
</g>
<path d="M224.656 47.2792C224.143 48.4395 223.517 49.538 222.788 50.5563C222.691 50.6671 222.691 50.8395 222.788 50.9503C222.877 51.0462 223.068 51.07 223.154 50.9503C223.914 49.8978 224.567 48.7615 225.103 47.5604C225.172 47.427 225.131 47.2595 225.011 47.1792C224.887 47.103 224.729 47.1475 224.656 47.2792H224.656Z" fill="#2976DF"/>
<path d="M253.892 72.5354C253.934 74.1304 253.513 75.7 252.687 77.0253C252.457 77.3945 252.196 77.7403 251.907 78.0585C251.675 78.3158 252.04 78.7102 252.273 78.4525C253.697 76.8705 254.467 74.7369 254.409 72.5354C254.399 72.1776 253.881 72.1761 253.892 72.5354L253.892 72.5354Z" fill="#2976DF"/>
<path d="M201.522 86.1124C207.285 82.2429 210.596 75.9829 212.023 74.7901C213.45 73.5974 223.229 74.3634 223.993 73.4693C224.758 72.5753 223.26 76.5404 219.663 77.2174C216.067 77.8943 215.338 78.3282 215.338 78.3282C215.338 78.3282 212.073 87.5891 210.221 89.2771C208.368 90.9652 197.431 98.7925 197.431 98.7925L201.522 86.1124Z" fill="#FF9763"/>
<path d="M204.736 83.0443C204.736 83.0443 210.954 91.7144 209.65 96.5881L170.97 114.822L142.024 73.721C142.024 73.721 155.271 72.6872 158.705 72.3015C162.397 71.8869 174.265 94.2162 178.406 94.034C180.475 93.9431 204.736 83.0443 204.736 83.0443Z" fill="#FE7578"/>
<mask id="mask2_207_62418" style="mask-type:alpha" maskUnits="userSpaceOnUse" x="142" y="72" width="68" height="43">
<path fill-rule="evenodd" clip-rule="evenodd" d="M204.736 83.0443C204.736 83.0443 210.954 91.7144 209.65 96.5881L170.97 114.822L142.024 73.721C142.024 73.721 155.271 72.6872 158.705 72.3015C162.397 71.8869 174.265 94.2162 178.406 94.034C180.475 93.9431 204.736 83.0443 204.736 83.0443Z" fill="white"/>
</mask>
<g mask="url(#mask2_207_62418)">
<path d="M162.696 87.0731C174.611 108.463 182.512 120.056 195.317 103.872C200.392 97.4562 182.512 120.056 182.512 120.056L154.618 116.328V109.715" fill="#BA393C"/>
<ellipse cx="178.643" cy="93.559" rx="0.935934" ry="1.00715" fill="#190000"/>
<ellipse cx="204.693" cy="95.5832" rx="0.935934" ry="1.00715" fill="#BA393C"/>
</g>
<path d="M251.961 221.664L261.266 218.355L252.331 198.296L241.006 202.323L251.961 221.664Z" fill="#FF9763"/>
<mask id="mask3_207_62418" style="mask-type:alpha" maskUnits="userSpaceOnUse" x="241" y="198" width="21" height="24">
<path fill-rule="evenodd" clip-rule="evenodd" d="M251.961 221.664L261.266 218.355L252.331 198.296L241.006 202.323L251.961 221.664Z" fill="white"/>
</mask>
<g mask="url(#mask3_207_62418)">
<path d="M235.957 218.249C256.302 211.162 255.823 206.137 255.823 206.137L247.92 205.215L241.006 211.036" fill="#E84B23"/>
</g>
<path d="M286.855 217.661C285.095 214.175 282.276 213.742 278.78 214.221C271.063 215.279 261.885 215.788 259.366 212.54L247.92 216.018L253.26 226.24C253.99 227.638 255.681 228.417 256.981 227.955L286.855 217.661Z" fill="#3A3530"/>
<path d="M237.311 212.739C249.297 211.584 257.274 205.094 257.274 205.094L235.569 153.753C234.313 150.695 231.937 148.233 228.929 146.87L167.67 123.309L169.054 128.025L171.795 145.497L216.591 165.264L237.311 212.739Z" fill="#589BF7"/>
<mask id="mask4_207_62418" style="mask-type:alpha" maskUnits="userSpaceOnUse" x="167" y="123" width="91" height="90">
<path fill-rule="evenodd" clip-rule="evenodd" d="M237.311 212.739C249.297 211.584 257.274 205.094 257.274 205.094L235.569 153.753C234.313 150.695 231.937 148.233 228.929 146.87L167.67 123.309L169.054 128.025L171.795 145.497L216.591 165.264L237.311 212.739Z" fill="white"/>
</mask>
<g mask="url(#mask4_207_62418)">
<path d="M229.694 205.916C245.974 209.395 256.127 194.929 256.127 194.929" stroke="#2976DF" stroke-width="1.28102" stroke-linecap="round" stroke-linejoin="round"/>
<path d="M245.066 201.765L225.374 158.568C224.762 157.226 223.685 156.195 222.375 155.696L173.453 137.064" stroke="#2976DF" stroke-width="1.28102" stroke-linecap="round" stroke-linejoin="round"/>
<path d="M221.116 188.544C230.394 169.58 228.929 146.87 201.277 147.661C163.949 148.728 191.054 190.805 191.054 190.805H212.472" fill="#2976DF"/>
</g>
<path d="M197.329 242.49L205.842 247.491L210.187 222.767L199.956 215.844L197.329 242.49Z" fill="#FF9763"/>
<mask id="mask5_207_62418" style="mask-type:alpha" maskUnits="userSpaceOnUse" x="197" y="215" width="14" height="33">
<path fill-rule="evenodd" clip-rule="evenodd" d="M197.329 242.49L205.842 247.491L210.187 222.767L199.956 215.844L197.329 242.49Z" fill="white"/>
</mask>
<g mask="url(#mask5_207_62418)">
<path d="M192.919 230.08C205.319 235.079 209.051 232.536 209.051 232.536L202.189 226.79L193.1 227.486" fill="#E84B23"/>
</g>
<path d="M221.06 267.986C222.528 264.429 221.049 261.839 218.459 259.241C212.741 253.505 206.498 246.233 207.304 242.192L197.404 234.838L195.227 247.491C194.654 248.938 195.155 250.804 196.33 251.599L221.06 267.986Z" fill="#3A3530"/>
<path d="M193.266 225.75C193.266 225.75 206.172 235.601 212.356 231.565L221.016 162.456C221.642 157.716 219.289 152.951 215.104 150.488L167.67 123.309L145.63 128.035L144.23 133.882C141.949 143.413 147.482 153.413 156.849 156.689L198.854 169.424L193.266 225.75Z" fill="#589BF7"/>
<mask id="mask6_207_62418" style="mask-type:alpha" maskUnits="userSpaceOnUse" x="143" y="123" width="79" height="110">
<path fill-rule="evenodd" clip-rule="evenodd" d="M193.266 225.75C193.266 225.75 206.172 235.601 212.356 231.565L221.016 162.456C221.642 157.716 219.289 152.951 215.104 150.488L167.67 123.309L145.63 128.035L144.23 133.882C141.949 143.413 147.482 153.413 156.849 156.689L198.854 169.424L193.266 225.75Z" fill="white"/>
</mask>
<g mask="url(#mask6_207_62418)">
<path d="M181.683 126.95C142.585 140.002 162.802 157.488 181.683 165.376C200.564 173.264 138.626 174.023 138.626 174.023L131.764 149.917L153.019 133.783L170.227 118.986" fill="#2976DF"/>
<ellipse cx="222.15" cy="159.831" rx="7.48745" ry="2.38052" fill="#FF9763"/>
<path d="M193.985 207.381C180.372 219.187 217.045 224.351 217.045 224.351" stroke="#2976DF" stroke-width="1.28102" stroke-linecap="round" stroke-linejoin="round"/>
<path d="M166.561 138.163C166.675 146.83 159.978 148.193 159.978 148.193L166.561 138.163Z" fill="#589BF7"/>
<path d="M167.67 143.976L202.642 158.15C206.888 159.871 209.544 164.431 209.13 169.293L204.793 220.314" stroke="#2976DF" stroke-width="1.28102" stroke-linecap="round" stroke-linejoin="round"/>
</g>
<path d="M155.749 73.1436C151.655 71.8952 135.366 72.6773 133.414 78.4135C132.611 80.7723 126.878 98.4722 137.589 146.884C144.417 151.559 173.8 123.574 173.8 123.574C173.883 123.532 168.318 102.973 163.067 88.1121" fill="#FE7578"/>
<mask id="mask7_207_62418" style="mask-type:alpha" maskUnits="userSpaceOnUse" x="131" y="72" width="43" height="76">
<path fill-rule="evenodd" clip-rule="evenodd" d="M155.749 73.1436C151.655 71.8952 135.366 72.6773 133.414 78.4135C132.611 80.7723 126.878 98.4722 137.589 146.884C144.417 151.559 173.8 123.574 173.8 123.574C173.883 123.532 168.318 102.973 163.067 88.1121" fill="white"/>
</mask>
<g mask="url(#mask7_207_62418)">
<path d="M173.8 123.574C131.425 121.272 132.076 160.325 154.602 144.426C177.128 128.527 150.126 153.215 149.181 153.818C148.236 154.421 128.063 158.039 128.063 158.039L118.868 131.199C118.868 131.199 132.546 112.281 134.507 113.904C136.469 115.528 168.687 115.87 168.687 115.87" fill="#BA393C"/>
<path d="M169.284 133.035C171.553 123.391 154.193 78.4061 154.193 78.4061L169.284 133.035Z" fill="#FE7578"/>
<path d="M129.238 137.796C134.683 150.493 172.517 120.126 172.517 120.126" stroke="#BA393C" stroke-width="1.28102" stroke-linecap="round" stroke-linejoin="round"/>
</g>
<path d="M146.716 95.5833C145.199 106.631 158.393 107.389 165.303 108.047C172.214 108.704 156.335 108.62 163.09 108.864C169.844 109.108 152.597 113.905 152.597 113.905L135.366 112.304L137.251 97.7429L146.716 95.5833Z" fill="#BA393C"/>
<path d="M174.587 110.173C181.371 109.789 187.084 106.035 188.869 105.735C190.654 105.434 198.866 111.198 199.937 110.813C201.009 110.429 197.914 113.119 194.463 111.838C191.011 110.557 190.178 110.557 190.178 110.557C190.178 110.557 183.156 116.961 180.776 117.473C178.395 117.985 165.304 119.138 165.304 119.138L174.587 110.173Z" fill="#FF9763"/>
<mask id="mask8_207_62418" style="mask-type:alpha" maskUnits="userSpaceOnUse" x="165" y="105" width="36" height="15">
<path fill-rule="evenodd" clip-rule="evenodd" d="M174.587 110.173C181.371 109.789 187.084 106.035 188.869 105.735C190.654 105.434 198.866 111.198 199.937 110.813C201.009 110.429 197.914 113.119 194.463 111.838C191.011 110.557 190.178 110.557 190.178 110.557C190.178 110.557 183.156 116.961 180.776 117.473C178.395 117.985 165.304 119.138 165.304 119.138L174.587 110.173Z" fill="white"/>
</mask>
<g mask="url(#mask8_207_62418)">
<path d="M180.475 121.053C181.546 112.263 179.368 107.949 179.368 107.949L174.655 118.215L179.494 121.602" fill="#E84B23"/>
</g>
<path d="M146.716 95.5829C145.309 101.364 139.487 107.582 139.487 107.582L179.368 107.949C179.368 107.949 180.32 119.987 176.988 123.573H127.327C123.624 123.573 120.351 120.981 119.25 117.176C118.64 115.067 118.763 112.791 119.597 110.773L133.414 78.4133" fill="#FE7578"/>
<mask id="mask9_207_62418" style="mask-type:alpha" maskUnits="userSpaceOnUse" x="118" y="78" width="62" height="46">
<path fill-rule="evenodd" clip-rule="evenodd" d="M146.716 95.5829C145.309 101.364 139.487 107.582 139.487 107.582L179.368 107.949C179.368 107.949 180.32 119.987 176.988 123.573H127.327C123.624 123.573 120.351 120.981 119.25 117.176C118.64 115.067 118.763 112.791 119.597 110.773L133.414 78.4133" fill="white"/>
</mask>
<g mask="url(#mask9_207_62418)">
<ellipse cx="118.176" cy="123.412" rx="12.9888" ry="10.7215" fill="#BA393C"/>
<ellipse opacity="0.4" cx="119.603" cy="121.877" rx="12.9888" ry="10.7215" stroke="#EA71A2" stroke-width="0.854022" stroke-linecap="round" stroke-linejoin="round" stroke-dasharray="1.71"/>
</g>
<path d="M184.612 118.107L180.475 118.663V117.342L207.495 104.056V105.865L184.612 118.107Z" fill="#FFC562"/>
<path d="M207.495 64.1288V105.864H237.229V74.1711C237.229 72.3207 236.148 70.6703 234.528 70.0489L211.391 61.1724C210.498 60.8297 209.506 60.9757 208.731 61.5637C207.956 62.1517 207.495 63.1084 207.495 64.1288H207.495Z" fill="#FFC562"/>
<mask id="mask10_207_62418" style="mask-type:alpha" maskUnits="userSpaceOnUse" x="207" y="60" width="31" height="46">
<path fill-rule="evenodd" clip-rule="evenodd" d="M207.495 64.1288V105.864H237.229V74.1711C237.229 72.3207 236.148 70.6703 234.528 70.0489L211.391 61.1724C210.498 60.8297 209.506 60.9757 208.731 61.5637C207.956 62.1517 207.495 63.1084 207.495 64.1288H207.495Z" fill="white"/>
</mask>
<g mask="url(#mask10_207_62418)">
<path d="M230.754 57.6111C260.25 90.8692 217.821 108.448 217.821 108.448L248.678 116.994L252.308 85.2214L239.602 68.0086" fill="#D89D35"/>
<ellipse cx="217.144" cy="84.4477" rx="5.86237" ry="6.30842" fill="#935738"/>
<rect width="8.63614" height="9.07434" transform="matrix(0.903811 -0.427933 0.378471 0.925613 222.556 77.2847)" fill="#FE7578"/>
<rect width="3.92354" height="4.04128" transform="matrix(0.818734 0.574173 -0.51803 0.855362 226.119 87.5511)" fill="#F0F3FC"/>
</g>
<path d="M180.475 118.663L207.495 105.865H237.229L209.563 119.359L180.475 118.663Z" fill="#D89D35"/>
<path d="M154.193 78.4062L152.818 66.1162L142.024 57.6111V73.7211" fill="#FF9763"/>
<mask id="mask11_207_62418" style="mask-type:alpha" maskUnits="userSpaceOnUse" x="142" y="57" width="13" height="22">
<path fill-rule="evenodd" clip-rule="evenodd" d="M154.193 78.4062L152.818 66.1162L142.024 57.6111V73.7211" fill="white"/>
</mask>
<g mask="url(#mask11_207_62418)">
<path d="M155.676 78.825C152.483 73.5581 144.753 61.9485 144.753 61.9485L154.728 67.6738C154.728 67.6738 157.039 81.0723 155.676 78.825Z" fill="#E84B23"/>
</g>
<path d="M141.408 59.32L140.074 50.7378L158.031 48.2352C158.031 48.2352 159.972 61.6633 156.543 67.6059C154.464 71.2088 149.575 68.8863 146.046 66.499" fill="#FF9763"/>
<mask id="mask12_207_62418" style="mask-type:alpha" maskUnits="userSpaceOnUse" x="140" y="48" width="19" height="22">
<path fill-rule="evenodd" clip-rule="evenodd" d="M141.408 59.32L140.074 50.7378L158.031 48.2352C158.031 48.2352 159.972 61.6633 156.543 67.6059C154.464 71.2088 149.575 68.8863 146.046 66.499" fill="white"/>
</mask>
<g mask="url(#mask12_207_62418)">
<ellipse opacity="0.27" rx="2.16843" ry="2.77084" transform="matrix(0.33832 -0.941031 0.923194 0.384336 160.439 61.3612)" fill="#E84B23"/>
<ellipse opacity="0.27" rx="1.66159" ry="2.5439" transform="matrix(0.0667778 -0.997768 0.99701 0.0772675 149.813 59.9468)" fill="#E84B23"/>
<ellipse opacity="0.27" rx="1.66159" ry="2.5439" transform="matrix(0.0667778 -0.997768 0.99701 0.0772675 159.725 60.725)" fill="#E84B23"/>
<path d="M156.727 58.2172C156.536 58.2251 156.351 58.1512 156.211 58.0117C156.071 57.8722 155.988 57.6786 155.981 57.4734L155.934 56.167C155.927 55.9618 155.995 55.7619 156.125 55.6113C156.255 55.4607 156.435 55.3716 156.625 55.3637C156.816 55.3558 157.002 55.4298 157.142 55.5693C157.282 55.7088 157.364 55.9024 157.372 56.1075L157.418 57.414C157.434 57.8412 157.124 58.2008 156.727 58.2172L156.727 58.2172Z" fill="#190000"/>
<path d="M152.043 58.2015C152.495 58.2333 152.881 57.9058 152.904 57.4701L152.974 56.1375C152.997 55.7018 152.649 55.3228 152.197 55.291C151.744 55.2591 151.359 55.5866 151.336 56.0224L151.266 57.3549C151.243 57.7906 151.591 58.1697 152.043 58.2015Z" fill="#190000"/>
<path d="M156.739 53.533C158.223 53.9328 157.85 54.8099 156.907 54.6251C155.965 54.4403 155.77 53.2718 156.739 53.533Z" fill="#190000"/>
<path d="M152.348 53.3728C150.652 53.7249 150.943 54.5587 152.019 54.4056C153.096 54.2526 153.455 53.1428 152.348 53.3728Z" fill="#190000"/>
<path d="M153.682 58.4638C153.631 59.0197 154.131 58.8502 154.723 58.9131C155.315 58.976 155.775 59.2474 155.826 58.6915C155.877 58.1356 155.438 57.634 154.846 57.5711C154.254 57.5082 153.733 57.9079 153.682 58.4638Z" fill="#E84B23"/>
<path d="M156.587 61.1732C155.87 65.0538 152.48 63.3848 152.445 60.9673C152.445 60.8421 152.518 60.7304 152.627 60.6876C153.088 60.5009 154.426 60.1123 156.4 60.8285C156.533 60.8772 156.613 61.0241 156.587 61.1732Z" fill="#C1525F"/>
<mask id="mask13_207_62418" style="mask-type:alpha" maskUnits="userSpaceOnUse" x="152" y="60" width="5" height="4">
<path fill-rule="evenodd" clip-rule="evenodd" d="M156.587 61.1732C155.87 65.0538 152.48 63.3848 152.445 60.9673C152.445 60.8421 152.518 60.7304 152.627 60.6876C153.088 60.5009 154.426 60.1123 156.4 60.8285C156.533 60.8772 156.613 61.0241 156.587 61.1732Z" fill="white"/>
</mask>
<g mask="url(#mask13_207_62418)">
<ellipse rx="1.75637" ry="1.85995" transform="matrix(0.318017 -0.948085 0.932153 0.362064 153.977 63.2848)" fill="#993443"/>
<path d="M155.96 60.5381C155.951 60.7953 155.916 61.1438 155.852 61.2051C155.455 61.5825 153.598 61.3406 153.351 61.1076C153.282 61.0427 153.299 60.2133 153.299 60.2133L155.681 60.3881" fill="#F0F3FC"/>
</g>
</g>
<path d="M143.036 58.408C153.397 59.6692 144.269 47.7942 158.031 49.4025C175.452 51.4384 171.188 41.6984 166.645 42.1621C158.268 43.017 170.754 39.8207 157.106 39.5833C151.024 39.4775 132.336 42.941 140.074 57.611C143.011 63.1796 142.744 60.9803 143.036 58.408Z" fill="#3A3530"/>
<path d="M146.584 58.3245C146.386 57.7706 146.102 57.2568 145.744 56.805C144.292 54.9522 141.961 54.3668 140.539 55.4976C139.116 56.6284 139.14 59.047 140.593 60.8999C141.52 62.0825 142.805 62.7488 143.983 62.7819" fill="#FF9763"/>
<path d="M140.355 73.957C140.355 73.957 141.015 71.2409 142.024 70.7146L154.193 78.4063L153.17 80.6548L140.355 73.957Z" fill="#F0F3FC"/>
<path d="M155.749 80.0327L154.193 78.4061L153.631 70.2615C155.186 70.481 156.323 72.2957 156.323 72.2957L155.749 80.0327Z" fill="#F0F3FC"/>
<ellipse cx="173.453" cy="120.125" rx="0.935934" ry="1.00715" fill="#BA393C"/>
<ellipse cx="168.022" cy="120.125" rx="0.935934" ry="1.00715" fill="#BA393C"/>
<path d="M142.762 57.0738C142.416 57.2387 142.175 57.5956 142.056 57.9712C141.935 58.3629 141.97 58.7907 142.152 59.1538C142.282 59.3871 142.561 59.4659 142.78 59.3309C142.994 59.1897 143.067 58.8917 142.945 58.6555C142.931 58.6292 142.919 58.6026 142.908 58.5752L142.954 58.6931C142.925 58.6166 142.905 58.5365 142.894 58.4545L142.91 58.5857C142.9 58.4974 142.9 58.4081 142.91 58.3198L142.894 58.4511C142.906 58.3505 142.931 58.2521 142.967 58.1584L142.921 58.2763C142.956 58.1888 143.001 58.1064 143.055 58.0309L142.983 58.1308C143.031 58.066 143.086 58.0076 143.147 57.9568L143.054 58.034C143.107 57.9914 143.164 57.9552 143.225 57.9263C143.328 57.8613 143.404 57.7554 143.435 57.6313C143.467 57.5029 143.451 57.3662 143.389 57.2509C143.328 57.1401 143.23 57.0588 143.115 57.0241C142.995 56.9963 142.871 57.0139 142.762 57.0739L142.762 57.0738Z" fill="#190000"/>
<path d="M144.711 49.7914L145.051 50.1577C145.233 50.3431 145.518 50.3431 145.7 50.1577L145.772 50.0578C145.813 49.9822 145.834 49.8962 145.834 49.8086L145.818 49.6774C145.797 49.595 145.756 49.52 145.7 49.4596L145.359 49.0934C145.178 48.908 144.893 48.908 144.711 49.0934L144.639 49.1933C144.598 49.2688 144.576 49.3549 144.576 49.4424L144.593 49.5736C144.614 49.656 144.655 49.7311 144.711 49.7914Z" fill="#190000"/>
<path d="M156.739 44.793C158.461 45.3422 160.27 45.5019 162.051 45.262C162.288 45.2295 162.522 45.0582 162.51 44.7684C162.5 44.5289 162.306 44.2399 162.051 44.2748C161.191 44.3931 160.321 44.4158 159.456 44.3427C159.24 44.3243 159.024 44.3 158.809 44.2696C158.908 44.2836 158.734 44.2577 158.717 44.255C158.674 44.2481 158.631 44.241 158.588 44.2337C158.474 44.2141 158.36 44.1929 158.247 44.1699C157.82 44.0836 157.399 43.9738 156.983 43.8411C156.739 43.7699 156.488 43.9243 156.421 44.1864C156.354 44.4485 156.496 44.7197 156.739 44.793H156.739Z" fill="#190000"/>
<path d="M137.173 107.869C137.954 108.204 138.811 108.281 139.633 108.088C139.876 108.014 140.018 107.743 139.953 107.481C139.881 107.222 139.632 107.07 139.389 107.136C139.337 107.148 139.285 107.159 139.233 107.168C139.219 107.171 139.088 107.19 139.198 107.175C139.106 107.187 139.014 107.197 138.922 107.202C138.744 107.211 138.565 107.207 138.387 107.19C138.365 107.188 138.222 107.169 138.332 107.185C138.293 107.179 138.254 107.173 138.214 107.166C138.123 107.149 138.033 107.128 137.943 107.104C137.764 107.055 137.588 106.993 137.417 106.917C137.194 106.818 136.903 107.023 136.852 107.261C136.792 107.549 136.934 107.763 137.173 107.869Z" fill="#BA393C"/>
<path d="M178.062 94.3357L178.532 95.9968C178.576 96.1669 178.701 96.299 178.859 96.3434C179.018 96.3879 179.186 96.3378 179.302 96.2122C179.417 96.0866 179.461 95.9044 179.417 95.7344L178.946 94.0733C178.878 93.8115 178.626 93.6583 178.383 93.7305C178.139 93.8028 177.996 94.0733 178.062 94.3357Z" fill="#BA393C"/>
<path d="M199.46 169.89C200.776 169.246 201.953 168.316 202.918 167.159C203.206 166.812 203.474 166.448 203.722 166.068C203.861 165.857 203.764 165.51 203.557 165.393C203.338 165.263 203.062 165.341 202.93 165.57C202.883 165.641 202.836 165.712 202.788 165.782C202.762 165.82 202.735 165.857 202.709 165.895C202.704 165.901 202.666 165.955 202.7 165.908C202.738 165.855 202.674 165.943 202.666 165.953C202.562 166.095 202.455 166.234 202.344 166.37C202.114 166.653 201.871 166.922 201.615 167.177C201.492 167.3 201.366 167.42 201.237 167.536C201.17 167.596 201.103 167.655 201.034 167.714C201.005 167.739 200.976 167.764 200.946 167.789C201.02 167.726 200.917 167.812 200.891 167.833C200.303 168.308 199.668 168.712 198.997 169.037C198.778 169.144 198.708 169.505 198.833 169.713C198.979 169.956 199.226 170.004 199.46 169.89H199.46Z" fill="#2976DF"/>
<path d="M261.266 213.92C262.537 196.943 269.312 208.981 262.691 214.407C262.691 214.407 270.535 210.86 271.386 211.409" stroke="#190000" stroke-width="1.28102" stroke-linecap="round" stroke-linejoin="round"/>
<path d="M207.412 247.004C208.683 230.027 215.458 242.065 208.837 247.491C208.837 247.491 216.681 243.944 217.532 244.494" stroke="#190000" stroke-width="1.28102" stroke-linecap="round" stroke-linejoin="round"/>
<path d="M144.305 63.6092L144.478 64.8906C144.51 65.0148 144.585 65.1207 144.689 65.1856C144.794 65.2517 144.919 65.2702 145.037 65.237C145.154 65.2037 145.255 65.1216 145.316 65.0085L145.363 64.8906C145.385 64.8047 145.385 64.7141 145.363 64.6282L145.19 63.3468C145.158 63.2226 145.082 63.1167 144.979 63.0518C144.874 62.9857 144.749 62.9672 144.631 63.0004C144.513 63.0336 144.413 63.1158 144.351 63.2288L144.305 63.3468C144.283 63.4327 144.283 63.5233 144.305 63.6092Z" fill="#E84B23"/>
<path d="M190.605 110.658V110.17C190.599 109.9 190.397 109.683 190.147 109.676L190.025 109.694C189.948 109.716 189.878 109.76 189.822 109.82C189.738 109.914 189.69 110.039 189.688 110.17V110.658C189.695 110.927 189.896 111.144 190.147 111.151L190.269 111.134C190.345 111.111 190.415 111.067 190.471 111.007C190.555 110.913 190.603 110.788 190.605 110.658Z" fill="#E84B23"/>
<path d="M190.69 135.031L190.34 135.573C190.307 135.628 190.288 135.692 190.285 135.757C190.263 135.953 190.349 136.145 190.504 136.249C190.611 136.315 190.739 136.333 190.858 136.299L190.967 136.249C191.035 136.206 191.092 136.145 191.132 136.072L191.482 135.53C191.515 135.475 191.534 135.411 191.536 135.346C191.558 135.15 191.473 134.958 191.317 134.854C191.21 134.787 191.083 134.77 190.964 134.804L190.854 134.854C190.786 134.897 190.73 134.958 190.69 135.031Z" fill="#2976DF"/>
<path fill-rule="evenodd" clip-rule="evenodd" d="M107.828 49.7125L123.583 101.862C123.607 101.94 123.584 102.025 123.527 102.078C123.469 102.131 123.387 102.141 123.32 102.104L59.1024 66.9087C59.0348 66.8717 58.9946 66.7944 59.0006 66.7131C59.0065 66.6317 59.0574 66.5622 59.1296 66.537L107.592 49.5829C107.69 49.5485 107.796 49.6065 107.828 49.7125ZM83.2296 68.6615L107.814 82.1357C107.882 82.1727 107.964 82.1623 108.021 82.1093C108.079 82.0563 108.101 81.9711 108.078 81.8935L102.046 61.9287C102.014 61.8227 101.908 61.7647 101.81 61.7991L83.2567 68.2898C83.1846 68.315 83.1337 68.3845 83.1277 68.4659C83.1218 68.5473 83.162 68.6245 83.2296 68.6615Z" fill="#97CC64"/>
<mask id="mask14_207_62418" style="mask-type:alpha" maskUnits="userSpaceOnUse" x="59" y="49" width="65" height="54">
<path fill-rule="evenodd" clip-rule="evenodd" d="M123.583 101.862L107.828 49.7125C107.796 49.6065 107.69 49.5485 107.592 49.5829L59.1296 66.537C59.0574 66.5622 59.0065 66.6317 59.0006 66.7131C58.9946 66.7944 59.0348 66.8717 59.1024 66.9087L123.32 102.104C123.387 102.141 123.469 102.131 123.527 102.078C123.584 102.025 123.607 101.94 123.583 101.862ZM107.814 82.1357L83.2296 68.6615C83.162 68.6245 83.1218 68.5473 83.1277 68.4659C83.1337 68.3845 83.1846 68.315 83.2567 68.2898L101.81 61.7991C101.908 61.7647 102.014 61.8227 102.046 61.9287L108.078 81.8935C108.101 81.9711 108.079 82.0563 108.021 82.1093C107.964 82.1623 107.882 82.1727 107.814 82.1357Z" fill="white"/>
</mask>
<g mask="url(#mask14_207_62418)">
<path d="M64.83 61.4952C56.307 72.0296 95.268 78.1843 105.151 92.1468C115.035 106.109 60.1505 86.588 60.1505 86.588L56.922 64.3298" fill="#75AA3C"/>
</g>
<path d="M108.037 54.8632L106.415 55.4307" stroke="#75AA3C" stroke-width="0.65"/>
<path d="M109.186 58.6644L107.564 59.232" stroke="#75AA3C" stroke-width="0.65"/>
<path d="M112.631 70.0684L111.009 70.6359" stroke="#75AA3C" stroke-width="0.65"/>
<path d="M113.78 73.8696L112.157 74.4372" stroke="#75AA3C" stroke-width="0.65"/>
<path d="M110.334 62.4658L108.712 63.0334" stroke="#75AA3C" stroke-width="0.65"/>
<path d="M111.483 66.2671L109.86 66.8346" stroke="#75AA3C" stroke-width="0.65"/>
<path d="M116.076 81.4722L114.454 82.0397" stroke="#75AA3C" stroke-width="0.65"/>
<path d="M118.373 89.0748L116.751 89.6424" stroke="#75AA3C" stroke-width="0.65"/>
<path d="M114.928 77.671L113.306 78.2386" stroke="#75AA3C" stroke-width="0.65"/>
<path d="M117.225 85.2736L115.603 85.8411" stroke="#75AA3C" stroke-width="0.65"/>
<path d="M119.522 92.876L117.899 93.4435" stroke="#75AA3C" stroke-width="0.65"/>
<path d="M120.67 96.6774L119.048 97.2449" stroke="#75AA3C" stroke-width="0.65"/>
<path d="M64.5663 65.9285L65.0937 67.6742" stroke="#75AA3C" stroke-width="0.65"/>
<path d="M68.0988 64.6929L68.6262 66.4386" stroke="#75AA3C" stroke-width="0.65"/>
<path d="M78.6963 60.9854L79.2237 62.7311" stroke="#75AA3C" stroke-width="0.65"/>
<path d="M82.2288 59.7495L82.7562 61.4952" stroke="#75AA3C" stroke-width="0.65"/>
<path d="M71.6313 63.457L72.1587 65.2027" stroke="#75AA3C" stroke-width="0.65"/>
<path d="M75.1638 62.2212L75.6912 63.9669" stroke="#75AA3C" stroke-width="0.65"/>
<path d="M89.2938 57.278L89.8212 59.0237" stroke="#75AA3C" stroke-width="0.65"/>
<path d="M96.3588 54.8063L96.8862 56.552" stroke="#75AA3C" stroke-width="0.65"/>
<path d="M85.7613 58.5138L86.2887 60.2595" stroke="#75AA3C" stroke-width="0.65"/>
<path d="M92.8264 56.0422L93.3538 57.788" stroke="#75AA3C" stroke-width="0.65"/>
<path d="M99.8913 53.5706L100.419 55.3163" stroke="#75AA3C" stroke-width="0.65"/>
<path d="M103.424 52.3346L103.951 54.0803" stroke="#75AA3C" stroke-width="0.65"/>
<path d="M87.3568 75.1006C87.5803 76.6767 88.9668 77.9247 90.437 77.9405C90.618 77.9405 90.7646 77.7826 90.7646 77.5879C90.7646 77.3932 90.618 77.2354 90.437 77.2354C90.3499 77.2344 90.2637 77.228 90.1769 77.2198C90.0739 77.21 90.237 77.2332 90.1353 77.2138C90.0927 77.2057 90.0501 77.198 90.0078 77.1884C89.86 77.1533 89.7148 77.1064 89.5735 77.0481C89.5373 77.0322 89.5334 77.0307 89.5617 77.0437C89.5419 77.0344 89.5221 77.025 89.5024 77.0152C89.463 76.9957 89.4241 76.9753 89.3856 76.9539C89.3181 76.9165 89.252 76.8763 89.1873 76.8333C89.1226 76.7904 89.0595 76.7448 88.9979 76.6966C88.9803 76.6829 88.9629 76.6689 88.9456 76.6547C88.969 76.674 88.9654 76.6707 88.935 76.6448C88.9059 76.6184 88.8764 76.5925 88.8478 76.5655C88.619 76.359 88.4271 76.1093 88.2816 75.8286C88.2413 75.753 88.204 75.6755 88.1698 75.5963C88.1663 75.5882 88.1305 75.498 88.1512 75.5525C88.1348 75.5095 88.1195 75.466 88.1053 75.422C88.0519 75.2566 88.0128 75.0863 87.9887 74.9131C87.962 74.7248 87.7419 74.6207 87.5857 74.6669C87.3986 74.7222 87.3301 74.9116 87.3569 75.1005L87.3568 75.1006Z" fill="#75AA3C"/>
<path d="M142.286 158.009C142.124 153.174 141.014 148.43 139.03 144.088C138.277 142.44 137.401 140.86 136.41 139.363C129.017 128.178 115.761 122.418 102.646 125.97C89.5308 129.522 80.3878 141.348 78.7966 154.967C78.5824 156.79 78.5055 158.628 78.5669 160.464C78.7296 165.299 79.8392 170.043 81.823 174.385C89.6041 174.116 100.054 172.655 112.76 169.214C125.466 165.773 135.314 161.736 142.286 158.009Z" fill="#9A7ED9"/>
<mask id="mask15_207_62418" style="mask-type:alpha" maskUnits="userSpaceOnUse" x="78" y="124" width="65" height="51">
<path fill-rule="evenodd" clip-rule="evenodd" d="M142.286 158.009C142.124 153.174 141.014 148.43 139.03 144.088C138.277 142.44 137.401 140.86 136.41 139.363C129.017 128.178 115.761 122.418 102.646 125.97C89.5308 129.522 80.3878 141.348 78.7966 154.967C78.5824 156.79 78.5055 158.628 78.5669 160.464C78.7296 165.299 79.8392 170.043 81.823 174.385C89.6041 174.116 100.054 172.655 112.76 169.214C125.466 165.773 135.314 161.736 142.286 158.009Z" fill="white"/>
</mask>
<g mask="url(#mask15_207_62418)">
<path d="M89.9061 120.315C157.756 124.638 143.825 164.683 95.4449 172.989C47.0644 181.295 159.385 167.508 159.385 167.508L157.551 127.761L106.1 117.008L92.3659 124.474" fill="#6F4EB9"/>
</g>
<path d="M84.4433 179.11C91.8362 190.296 105.092 196.056 118.207 192.504C131.323 188.952 140.466 177.126 142.057 163.506C134.205 167.42 124.396 171.048 113.857 173.902C103.318 176.757 93.0812 178.558 84.4433 179.11Z" fill="#9A7ED9"/>
<mask id="mask16_207_62418" style="mask-type:alpha" maskUnits="userSpaceOnUse" x="84" y="163" width="59" height="31">
<path fill-rule="evenodd" clip-rule="evenodd" d="M84.4433 179.11C91.8362 190.296 105.092 196.056 118.207 192.504C131.323 188.952 140.466 177.126 142.057 163.506C134.205 167.42 124.396 171.048 113.857 173.902C103.318 176.757 93.0812 178.558 84.4433 179.11Z" fill="white"/>
</mask>
<g mask="url(#mask16_207_62418)">
<path d="M98.9573 196.69C79.5139 179.294 117.611 175.735 134.624 165.655C151.638 155.575 68.5684 173.165 68.5684 173.165L83.5835 192.412" fill="#6F4EB9"/>
</g>
<path d="M159.222 146.021C158.145 141.415 152.128 139.112 141.34 139.179C139.768 139.189 138.117 139.254 136.41 139.363C137.401 140.86 138.277 142.44 139.03 144.088C148.857 143.749 154.423 145.311 154.865 147.201C155.307 149.091 151.092 153.303 142.286 158.009C135.314 161.736 125.466 165.772 112.76 169.214C100.054 172.655 89.604 174.116 81.823 174.385C71.9962 174.725 66.4303 173.162 65.988 171.273C65.5461 169.383 69.7614 165.171 78.5669 160.464C78.5055 158.628 78.5823 156.79 78.7966 154.967C77.2449 155.741 75.7621 156.524 74.3736 157.317C64.8406 162.753 60.5537 167.846 61.6311 172.452C62.7084 177.059 68.7252 179.361 79.514 179.294C81.0857 179.284 82.7363 179.219 84.4433 179.11C93.0813 178.558 103.318 176.757 113.857 173.902C124.396 171.048 134.205 167.42 142.057 163.506C143.609 162.733 145.091 161.949 146.48 161.157C156.013 155.72 160.3 150.627 159.222 146.021Z" fill="#97CC64"/>
<mask id="mask17_207_62418" style="mask-type:alpha" maskUnits="userSpaceOnUse" x="61" y="139" width="99" height="41">
<path fill-rule="evenodd" clip-rule="evenodd" d="M159.222 146.021C158.145 141.415 152.128 139.112 141.34 139.179C139.768 139.189 138.117 139.254 136.41 139.363C137.401 140.86 138.277 142.44 139.03 144.088C148.857 143.749 154.423 145.311 154.865 147.201C155.307 149.091 151.092 153.303 142.286 158.009C135.314 161.736 125.466 165.772 112.76 169.214C100.054 172.655 89.604 174.116 81.823 174.385C71.9962 174.725 66.4303 173.162 65.988 171.273C65.5461 169.383 69.7614 165.171 78.5669 160.464C78.5055 158.628 78.5823 156.79 78.7966 154.967C77.2449 155.741 75.7621 156.524 74.3736 157.317C64.8406 162.753 60.5537 167.846 61.6311 172.452C62.7084 177.059 68.7252 179.361 79.514 179.294C81.0857 179.284 82.7363 179.219 84.4433 179.11C93.0813 178.558 103.318 176.757 113.857 173.902C124.396 171.048 134.205 167.42 142.057 163.506C143.609 162.733 145.091 161.949 146.48 161.157C156.013 155.72 160.3 150.627 159.222 146.021Z" fill="white"/>
</mask>
<g mask="url(#mask17_207_62418)">
<path d="M54.2388 159.237C84.1664 154.164 81.2966 168.629 81.2966 168.629L88.676 150.664L76.787 148.014" fill="#75AA3C"/>
<path d="M128.238 134.319C143.202 136.517 144.842 148.014 144.842 148.014L132.133 150.664L128.033 146.443" fill="#75AA3C"/>
</g>
<path d="M109.542 140.913C108.331 143.143 106.636 145.025 104.603 146.397L109.542 140.913Z" fill="#190000"/>
<path d="M109.259 140.735C108.081 142.916 106.425 144.756 104.437 146.093C104.281 146.191 104.228 146.407 104.32 146.575C104.411 146.743 104.612 146.8 104.768 146.702C106.392 145.602 107.811 144.184 108.95 142.522C109.265 142.062 109.557 141.584 109.825 141.091C110.038 140.698 109.472 140.343 109.259 140.735L109.259 140.735Z" fill="#6F4EB9"/>
<path d="M126.141 182.38C125.652 183.104 125.023 183.706 124.297 184.145L126.141 182.38Z" fill="#190000"/>
<path d="M125.859 182.201C125.828 182.246 125.798 182.29 125.767 182.334C125.795 182.295 125.764 182.337 125.752 182.354C125.736 182.375 125.72 182.396 125.703 182.418C125.638 182.503 125.571 182.586 125.502 182.667C125.368 182.826 125.225 182.977 125.076 183.12C125.004 183.189 124.929 183.257 124.853 183.323C124.834 183.34 124.813 183.357 124.793 183.374C124.766 183.397 124.821 183.352 124.774 183.389C124.733 183.422 124.692 183.455 124.65 183.487C124.484 183.614 124.311 183.733 124.132 183.841C124.031 183.904 123.969 184.021 123.97 184.147C123.97 184.273 124.033 184.389 124.135 184.451C124.237 184.514 124.362 184.513 124.463 184.45C125.235 183.977 125.903 183.331 126.424 182.557C126.515 182.389 126.463 182.174 126.307 182.075C126.15 181.982 125.953 182.038 125.859 182.202V182.201Z" fill="#6F4EB9"/>
<path d="M73.2423 176.187L71.406 177.962L73.2423 176.187Z" fill="#190000"/>
<path d="M73.0106 175.938L71.1743 177.713C71.0476 177.851 71.0476 178.073 71.1743 178.211C71.3039 178.345 71.5081 178.345 71.6376 178.211L73.474 176.436C73.6007 176.298 73.6007 176.076 73.474 175.938C73.3444 175.804 73.1402 175.804 73.0106 175.938Z" fill="#75AA3C"/>
<path d="M308.71 144.151C308.71 141.648 306.825 139.62 304.499 139.62H215.486C213.16 139.62 211.275 141.648 211.275 144.151V149.709H308.71V144.151Z" fill="#EFF3FC"/>
<mask id="mask18_207_62418" style="mask-type:alpha" maskUnits="userSpaceOnUse" x="211" y="139" width="98" height="11">
<path fill-rule="evenodd" clip-rule="evenodd" d="M308.71 144.151C308.71 141.648 306.825 139.62 304.499 139.62H215.486C213.16 139.62 211.275 141.648 211.275 144.151V149.709H308.71V144.151Z" fill="white"/>
</mask>
<g mask="url(#mask18_207_62418)">
<path d="M257.37 137.06C241.332 142.408 311.584 136.55 311.132 145.799C310.68 155.048 309.776 131.956 309.776 131.956L274.989 132.928" fill="#D6DCF2"/>
</g>
<path d="M211.275 149.709V205.181C211.275 207.683 213.16 209.712 215.486 209.712H304.499C306.825 209.712 308.71 207.683 308.71 205.181V149.709H211.275Z" fill="#D6DCF2"/>
<mask id="mask19_207_62418" style="mask-type:alpha" maskUnits="userSpaceOnUse" x="211" y="149" width="98" height="61">
<path fill-rule="evenodd" clip-rule="evenodd" d="M211.275 149.709V205.181C211.275 207.683 213.16 209.712 215.486 209.712H304.499C306.825 209.712 308.71 207.683 308.71 205.181V149.709H211.275Z" fill="white"/>
</mask>
<g mask="url(#mask19_207_62418)">
<path d="M209.256 198.044C208.917 213.022 304.499 209.712 304.499 209.712L212.644 227.607L198.074 217.033" fill="#BFC8E2"/>
</g>
<ellipse cx="216.569" cy="144.544" rx="1.16635" ry="1.25509" fill="#BB393C"/>
<ellipse cx="221.47" cy="144.544" rx="1.16635" ry="1.25509" fill="#FFC562"/>
<ellipse cx="226.37" cy="144.544" rx="1.16635" ry="1.25509" fill="#75AA3C"/>
<rect x="218.941" y="155.298" width="82.1027" height="47.8609" rx="2.49141" fill="#9A7ED9"/>
<mask id="mask20_207_62418" style="mask-type:alpha" maskUnits="userSpaceOnUse" x="218" y="155" width="84" height="49">
<rect x="218.941" y="155.298" width="82.1027" height="47.8609" rx="2.49141" fill="white"/>
</mask>
<g mask="url(#mask20_207_62418)">
<path d="M299.047 150.446C301.044 201.262 207.9 205.22 207.9 205.22L313.278 223.231L320.164 174.666" fill="#6F4EB9"/>
</g>
<ellipse opacity="0.36" cx="259.993" cy="177.023" rx="13.0218" ry="14.03" fill="#EFF3FC"/>
<path d="M256.365 177.023V171.854C256.364 171.54 256.52 171.25 256.772 171.092C257.025 170.935 257.336 170.935 257.589 171.092L261.744 173.677L265.899 176.262C266.152 176.419 266.308 176.709 266.308 177.023C266.308 177.337 266.152 177.628 265.899 177.785L261.744 180.37L257.589 182.954C257.336 183.111 257.025 183.111 256.772 182.954C256.52 182.797 256.364 182.507 256.365 182.193V177.023Z" fill="#EFF3FC"/>
<path d="M232.371 167.891C231.65 168.803 230.761 169.544 229.761 170.068C229.59 170.177 229.532 170.414 229.632 170.6C229.735 170.78 229.953 170.842 230.126 170.739C231.178 170.179 232.115 169.398 232.882 168.441C233.019 168.287 233.019 168.045 232.882 167.891C232.746 167.758 232.503 167.727 232.371 167.891L232.371 167.891Z" fill="#6F4EB9"/>
<path d="M292.513 194.052L290.48 194.781C290.288 194.838 290.175 195.052 290.228 195.259C290.281 195.466 290.48 195.587 290.672 195.53L292.705 194.801C292.83 194.764 292.927 194.659 292.96 194.524C292.993 194.39 292.956 194.246 292.864 194.149C292.771 194.051 292.638 194.014 292.513 194.052Z" fill="#6F4EB9"/>
</svg>
