<svg width="331" height="301" viewBox="0 0 331 301" fill="none" xmlns="http://www.w3.org/2000/svg">
<rect x="39.5948" y="41" width="151.512" height="102.35" rx="2.27583" fill="#BB393C"/>
<mask id="mask0_207_54004" style="mask-type:alpha" maskUnits="userSpaceOnUse" x="39" y="41" width="153" height="103">
<rect x="39.5948" y="41" width="151.512" height="102.35" rx="2.27583" fill="white"/>
</mask>
<g mask="url(#mask0_207_54004)">
<path d="M37 112.019C48.0989 144.668 187.955 130.091 194.236 128.731C200.516 127.371 203.668 147.399 203.668 147.399L84.5723 179.651L25.4655 147.399" fill="#90282A"/>
</g>
<rect x="44.751" y="46.3685" width="141.2" height="93.4987" rx="2.24204" fill="#FFC562"/>
<mask id="mask1_207_54004" style="mask-type:alpha" maskUnits="userSpaceOnUse" x="44" y="46" width="142" height="94">
<rect x="44.751" y="46.3685" width="141.2" height="93.4987" rx="2.24204" fill="white"/>
</mask>
<g mask="url(#mask1_207_54004)">
<path d="M185.951 38.3742C184.523 139.867 37 136.969 37 136.969L57.1395 161.256L185.951 168.073L215.688 114.392L189.345 36.0004" fill="#D89D35"/>
</g>
<rect x="37" y="136.969" width="156.701" height="7.69913" fill="#BB393C"/>
<mask id="mask2_207_54004" style="mask-type:alpha" maskUnits="userSpaceOnUse" x="37" y="136" width="157" height="9">
<rect x="37" y="136.969" width="156.701" height="7.69913" fill="white"/>
</mask>
<g mask="url(#mask2_207_54004)">
<path d="M201.383 137.796C113.994 144.668 117.511 143.213 112.171 146.025C106.831 148.837 179.888 159.916 179.888 159.916L201.089 151.607" fill="#90282A"/>
</g>
<rect x="128.956" y="134.417" width="14.8662" height="2.55277" rx="1.27638" fill="#EFF3FC"/>
<rect x="145.681" y="134.417" width="8.56651" height="2.55277" rx="1.27638" fill="#FFC562"/>
<rect x="164.646" y="134.417" width="5.51827" height="2.55277" rx="1.12095" fill="#EFF3FC"/>
<path d="M51.04 128.731H72.7334V134.729C72.7334 135.966 71.9034 136.969 70.8795 136.969H52.8939C51.87 136.969 51.04 135.966 51.04 134.729V128.731Z" fill="#EFF3FC"/>
<rect x="50.6764" y="126.498" width="22.4206" height="4.4669" fill="#516DDB"/>
<mask id="mask3_207_54004" style="mask-type:alpha" maskUnits="userSpaceOnUse" x="50" y="126" width="24" height="5">
<rect x="50.6764" y="126.498" width="22.4206" height="4.4669" fill="white"/>
</mask>
<g mask="url(#mask3_207_54004)">
<path d="M57.7271 125.611C73.097 126.498 73.097 129.723 72.7334 133.488C72.3698 137.252 76.0008 124.081 76.0008 124.081L70.7126 122.344L57.8446 123.623" fill="#3152BA"/>
</g>
<rect x="60.7051" y="124.081" width="2.36325" height="8.76904" rx="1.18162" fill="#3152BA"/>
<ellipse cx="115.351" cy="88.0058" rx="19.8463" ry="24.0131" fill="#EFF3FC"/>
<path d="M109.821 88.0058V79.158C109.821 78.6206 110.058 78.1237 110.443 77.8548C110.828 77.5858 111.302 77.5857 111.687 77.8544L118.02 82.2783L124.353 86.7022C124.738 86.9714 124.975 87.4682 124.975 88.0058C124.975 88.5434 124.738 89.0402 124.353 89.3095L118.02 93.7334L111.687 98.1572C111.302 98.4259 110.828 98.4258 110.443 98.1568C110.058 97.8879 109.821 97.391 109.821 96.8536V88.0058Z" fill="#589BF7"/>
<mask id="mask4_207_54004" style="mask-type:alpha" maskUnits="userSpaceOnUse" x="109" y="77" width="16" height="22">
<path fill-rule="evenodd" clip-rule="evenodd" d="M109.821 88.0058V79.158C109.821 78.6206 110.058 78.1237 110.443 77.8548C110.828 77.5858 111.302 77.5857 111.687 77.8544L118.02 82.2783L124.353 86.7022C124.738 86.9714 124.975 87.4682 124.975 88.0058C124.975 88.5434 124.738 89.0402 124.353 89.3095L118.02 93.7334L111.687 98.1572C111.302 98.4259 110.828 98.4258 110.443 98.1568C110.058 97.8879 109.821 97.391 109.821 96.8536V88.0058Z" fill="white"/>
</mask>
<g mask="url(#mask4_207_54004)">
<path d="M124.164 78.8999C122.302 95.8648 104.826 99.8463 104.826 99.8463L139.779 109.887L142.787 84.9588" fill="#2976DF"/>
</g>
<path d="M74.4351 74.1081L70.9972 76.8779C70.7318 77.0917 70.5922 77.5388 70.7781 77.8873C70.9487 78.207 71.3292 78.381 71.6135 78.152L75.0514 75.3823C75.3168 75.1685 75.4564 74.7214 75.2705 74.3728C75.0999 74.0532 74.7194 73.8792 74.4351 74.1081Z" fill="#D89D35"/>
<path d="M168.142 114.26C168.461 114.26 168.767 113.921 168.752 113.522C168.747 113.118 168.477 112.791 168.142 112.784C167.823 112.784 167.517 113.124 167.531 113.522C167.537 113.927 167.807 114.253 168.142 114.26Z" fill="#D89D35"/>
<rect x="58.3389" y="217.813" width="219.848" height="16.1717" fill="#9A7ED9"/>
<rect x="146.995" y="214.348" width="42.5358" height="21.3697" fill="#274B69"/>
<path d="M68.6745 222.706L54.549 211.411L78.0207 177.785C105.634 181.892 121.946 151.87 169.101 184.727L168.332 220.749L94.3765 212.158L68.6745 222.706Z" fill="#F8FBFF"/>
<path d="M45.8512 234.317L49.9933 221.482H51.6926L54.7725 211.471C86.3159 212.219 137.544 173.578 168.556 220.809C168.556 220.809 154.076 227.386 153.014 234.317C116.479 224.563 78.4567 237.141 45.8512 234.317Z" fill="#EFF3FC"/>
<mask id="mask5_207_54004" style="mask-type:alpha" maskUnits="userSpaceOnUse" x="45" y="197" width="124" height="38">
<path fill-rule="evenodd" clip-rule="evenodd" d="M45.8512 234.317L49.9933 221.482H51.6926L54.7725 211.471C86.3159 212.219 137.544 173.578 168.556 220.809C168.556 220.809 154.076 227.386 153.014 234.317C116.479 224.563 78.4567 237.141 45.8512 234.317Z" fill="white"/>
</mask>
<g mask="url(#mask5_207_54004)">
<path d="M45.8512 225.033C45.5214 231.69 153.266 230.553 151.569 231.69C149.872 232.827 75.0196 240.371 74.3823 240.931C73.7451 241.491 49.5299 237.851 49.5299 237.851L44.0072 222.706" fill=""/>
</g>
<path d="M81.4193 182.405L68.4621 204.224C131.974 182.662 156.189 193.443 165.96 209.358L166.81 188.822C129.425 163.923 106.962 183.432 81.4193 182.405Z" fill="#FFC562"/>
<mask id="mask6_207_54004" style="mask-type:alpha" maskUnits="userSpaceOnUse" x="68" y="176" width="99" height="34">
<path fill-rule="evenodd" clip-rule="evenodd" d="M81.4193 182.405L68.4621 204.224C131.974 182.662 156.189 193.443 165.96 209.358L166.81 188.822C129.425 163.923 106.962 183.432 81.4193 182.405Z" fill="white"/>
</mask>
<g mask="url(#mask6_207_54004)">
<path d="M74.1541 187.534C51.6926 221.482 113.491 164.079 130.493 214.941C147.495 265.803 25.9864 203.04 25.9864 203.04" fill="#D89D35"/>
</g>
<path d="M76.7462 215.574C99.8993 205.05 142.17 194.067 160.65 215.574C160.65 215.574 138.24 191.18 76.7462 215.574Z" fill=""/>
<path d="M70.2145 224.88C93.3675 220.428 135.638 215.784 154.118 224.88C154.118 224.88 131.708 214.563 70.2145 224.88Z" fill="#EFF3FC"/>
<path d="M267.851 222.706L281.977 211.411L258.505 177.785C230.891 181.892 214.58 151.87 167.424 184.727L168.193 220.749L242.149 212.158L267.851 222.706Z" fill="#F8FBFF"/>
<path d="M290.675 234.317L286.533 221.482H284.833L281.753 211.471C250.21 212.219 198.982 173.578 167.97 220.809C167.97 220.809 182.45 227.386 183.512 234.317C220.047 224.563 258.069 237.141 290.675 234.317Z" fill="#EFF3FC"/>
<mask id="mask7_207_54004" style="mask-type:alpha" maskUnits="userSpaceOnUse" x="167" y="197" width="124" height="38">
<path fill-rule="evenodd" clip-rule="evenodd" d="M290.675 234.317L286.533 221.482H284.833L281.753 211.471C250.21 212.219 198.982 173.578 167.97 220.809C167.97 220.809 182.45 227.386 183.512 234.317C220.047 224.563 258.069 237.141 290.675 234.317Z" fill="white"/>
</mask>
<g mask="url(#mask7_207_54004)">
<path d="M295.64 217.813C284.458 235.273 200.405 220.368 183.512 234.317C166.619 248.266 346.818 247.227 346.818 247.227L327.895 220.42" fill=""/>
</g>
<path d="M255.107 182.405L268.064 204.224C204.552 182.662 180.337 193.443 170.566 209.358L169.716 188.822C207.101 163.923 229.564 183.432 255.107 182.405Z" fill="#589BF7"/>
<mask id="mask8_207_54004" style="mask-type:alpha" maskUnits="userSpaceOnUse" x="169" y="176" width="100" height="34">
<path fill-rule="evenodd" clip-rule="evenodd" d="M255.107 182.405L268.064 204.224C204.552 182.662 180.337 193.443 170.566 209.358L169.716 188.822C207.101 163.923 229.564 183.432 255.107 182.405Z" fill="white"/>
</mask>
<g mask="url(#mask8_207_54004)">
<path d="M189.531 172.751C182.388 183.821 281.977 185.9 281.977 185.9L209.196 148.48" fill="#2976DF"/>
</g>
<path d="M259.78 215.574C236.627 205.05 194.356 194.067 175.876 215.574C175.876 215.574 198.286 191.18 259.78 215.574Z" fill=""/>
<path d="M266.311 224.88C243.158 220.428 200.888 215.784 182.408 224.88C182.408 224.88 204.818 214.563 266.311 224.88Z" fill="#EFF3FC"/>
<path d="M291.004 231.69H184.957C184.072 231.692 183.252 232.249 182.792 233.162H153.734C153.274 232.249 152.453 231.692 151.569 231.69H45.5215C44.6097 231.688 43.7665 232.275 43.3101 233.229C42.8538 234.182 42.8538 235.358 43.3101 236.312C43.7665 237.266 44.6097 237.853 45.5215 237.851H150.705C151.107 239.667 152.469 240.93 154.025 240.931H182.501C184.057 240.93 185.419 239.667 185.821 237.851H291.004C291.916 237.853 292.759 237.266 293.216 236.312C293.672 235.358 293.672 234.182 293.216 233.229C292.759 232.275 291.916 231.688 291.004 231.69V231.69Z" fill="#6F4EB9"/>
<mask id="mask9_207_54004" style="mask-type:alpha" maskUnits="userSpaceOnUse" x="42" y="231" width="252" height="10">
<path fill-rule="evenodd" clip-rule="evenodd" d="M291.004 231.69H184.957C184.072 231.692 183.252 232.249 182.792 233.162H153.734C153.274 232.249 152.453 231.692 151.569 231.69H45.5215C44.6097 231.688 43.7665 232.275 43.3101 233.229C42.8538 234.182 42.8538 235.358 43.3101 236.312C43.7665 237.266 44.6097 237.853 45.5215 237.851H150.705C151.107 239.667 152.469 240.93 154.025 240.931H182.501C184.057 240.93 185.419 239.667 185.821 237.851H291.004C291.916 237.853 292.759 237.266 293.216 236.312C293.672 235.358 293.672 234.182 293.216 233.229C292.759 232.275 291.916 231.688 291.004 231.69V231.69Z" fill="white"/>
</mask>
<g mask="url(#mask9_207_54004)">
<path d="M308.112 233.985C291.004 237.851 176.788 230.478 168.263 240.931C159.738 251.384 307.682 250.432 307.682 250.432" fill="#573DA0"/>
</g>
<path d="M183.295 239.239C182.471 239.238 181.78 238.484 181.695 237.493C181.05 229.98 175.261 224.314 168.227 224.314C161.477 224.314 155.714 229.725 154.821 236.901C154.688 237.962 153.868 238.692 152.99 238.533C152.111 238.373 151.505 237.385 151.635 236.322C152.763 227.257 159.896 220.42 168.227 220.42C176.917 220.42 184.084 227.587 184.9 237.091C184.992 238.16 184.349 239.117 183.464 239.228C183.408 239.236 183.352 239.239 183.295 239.239Z" fill="#9A7ED9"/>
<path d="M92.6475 189.6C94.4339 189.749 96.2288 189.572 97.9715 189.074C98.4404 188.94 98.904 188.783 99.3622 188.602C99.5904 188.519 99.7854 188.338 99.9099 188.093C100.033 187.839 100.067 187.537 100.005 187.253C99.9436 186.969 99.7911 186.726 99.5811 186.578C99.3676 186.428 99.1132 186.388 98.8749 186.466C97.8967 186.852 96.8915 187.13 95.8717 187.296L96.1153 187.257C94.966 187.442 93.804 187.485 92.6475 187.385C92.2768 187.385 91.9426 187.655 91.8008 188.068C91.6589 188.482 91.7373 188.959 91.9994 189.275C92.1766 189.473 92.4064 189.588 92.6475 189.6V189.6Z" fill="#D89D35"/>
<path d="M219.087 210.258L211.38 211.068L209.196 211.298C208.954 211.306 208.724 211.421 208.548 211.622C208.19 212.055 208.19 212.756 208.548 213.188C208.718 213.377 208.956 213.538 209.196 213.513L216.903 212.703L219.087 212.473C219.329 212.465 219.56 212.35 219.736 212.149C220.093 211.716 220.093 211.015 219.736 210.583C219.565 210.394 219.327 210.233 219.087 210.258V210.258Z" fill="#D6DCF2"/>
<path d="M263.999 245.449L250.205 243.59L267.909 77.7493L281.703 79.6083L263.999 245.449V245.449Z" fill="#FE7578"/>
<mask id="mask10_207_54004" style="mask-type:alpha" maskUnits="userSpaceOnUse" x="250" y="77" width="32" height="169">
<path fill-rule="evenodd" clip-rule="evenodd" d="M263.999 245.449L250.205 243.59L267.909 77.7493L281.703 79.6083L263.999 245.449V245.449Z" fill="white"/>
</mask>
<g mask="url(#mask10_207_54004)">
<path d="M254.758 157.343C261.27 136.444 278.299 104.693 275.108 99.4986C271.917 94.3041 260.038 108.657 260.038 108.657" fill="#BA393C"/>
</g>
<path d="M277.114 75.548L276.279 69.2045L273.783 75.6611L271.516 69.1743L269.422 72.7305L267.909 77.7493L281.703 79.6083L281.336 74.9281L280.124 71.7368L277.114 75.548V75.548Z" fill="#E84B23"/>
<path d="M269.422 72.7305L271.515 69.1743L273.783 75.6611L276.279 69.2045L277.114 75.548L280.124 71.7368L281.336 74.9281L278.977 44.8187C278.933 44.2479 278.044 44.1281 277.88 44.6708L269.422 72.7305Z" fill="#FF9763"/>
<mask id="mask11_207_54004" style="mask-type:alpha" maskUnits="userSpaceOnUse" x="269" y="44" width="13" height="32">
<path fill-rule="evenodd" clip-rule="evenodd" d="M269.422 72.7305L271.515 69.1743L273.783 75.6611L276.279 69.2045L277.114 75.548L280.124 71.7368L281.336 74.9281L278.977 44.8187C278.933 44.2479 278.044 44.1281 277.88 44.6708L269.422 72.7305Z" fill="white"/>
</mask>
<g mask="url(#mask11_207_54004)">
<ellipse rx="11.6025" ry="12.9122" transform="matrix(0.0739892 -0.997259 0.994181 0.107718 274.942 48.1463)" fill="#4B4D5C"/>
</g>
<path d="M263.999 245.449L250.205 243.59L248.931 255.526C248.807 256.687 249.543 257.742 250.574 257.881L260.635 259.237C261.665 259.376 262.601 258.548 262.724 257.387L263.999 245.449Z" fill="#FFC562"/>
<mask id="mask12_207_54004" style="mask-type:alpha" maskUnits="userSpaceOnUse" x="248" y="243" width="16" height="17">
<path fill-rule="evenodd" clip-rule="evenodd" d="M263.999 245.449L250.205 243.59L248.931 255.526C248.807 256.687 249.543 257.742 250.574 257.881L260.635 259.237C261.665 259.376 262.601 258.548 262.724 257.387L263.999 245.449Z" fill="white"/>
</mask>
<g mask="url(#mask12_207_54004)">
<path d="M249.419 245.578C253.752 247.889 261.455 245.621 261.903 248.449C262.351 251.277 254.331 258.815 246.529 257.005C238.727 255.196 255.242 264.433 256.446 264.818C257.649 265.203 269.015 263.588 269.015 263.588L269.671 249.975L264.972 241.712L250.205 243.59" fill="#D89D35"/>
</g>
<path d="M264.972 241.712L250.046 239.701L249.419 245.578L264.344 247.59L264.972 241.712V241.712Z" fill="#589BF7"/>
<path d="M263.601 103.964C263.601 103.964 273.381 88.4397 274.087 87.5632C274.439 85.5475 275.779 82.0418 277.331 80.026C278.882 78.0102 279.517 75.4686 279.517 75.4686C279.517 75.4686 281.562 76.5203 278.812 81.1654C278.812 81.1654 281.209 78.6237 281.703 79.062C282.197 79.5002 282.197 81.7789 281.703 82.6553C281.703 82.6553 282.937 84.934 282.073 86.3363C282.073 86.3363 281.985 88.4893 281.209 89.5162C280.434 90.5431 278.671 91.2442 278.671 91.2442L264.625 110.861L260.038 108.657L263.601 103.964Z" fill="#FF9763"/>
<mask id="mask13_207_54004" style="mask-type:alpha" maskUnits="userSpaceOnUse" x="260" y="75" width="23" height="36">
<path fill-rule="evenodd" clip-rule="evenodd" d="M263.601 103.964C263.601 103.964 273.381 88.4397 274.087 87.5632C274.439 85.5475 275.779 82.0418 277.331 80.026C278.882 78.0102 279.517 75.4686 279.517 75.4686C279.517 75.4686 281.562 76.5203 278.812 81.1654C278.812 81.1654 281.209 78.6237 281.703 79.062C282.197 79.5002 282.197 81.7789 281.703 82.6553C281.703 82.6553 282.937 84.934 282.073 86.3363C282.073 86.3363 281.985 88.4893 281.209 89.5162C280.434 90.5431 278.671 91.2442 278.671 91.2442L264.625 110.861L260.038 108.657L263.601 103.964Z" fill="white"/>
</mask>
<g mask="url(#mask13_207_54004)">
<path d="M271.713 90.8184L273.541 88.1057V88.1057C274.628 87.0592 277.598 97.9267 277.598 97.9267L272.318 98.4051" fill="#E84B23"/>
</g>
<path d="M272.33 90.0029C274.533 88.4095 275.533 101.669 275.533 101.669L261.985 114.332L254.758 108.931L258.113 101.787L272.33 90.0029Z" fill="#F08059"/>
<path d="M262.235 99.4591C256.662 92.5283 248.816 83.5166 247.399 82.7757C245.176 81.6143 240 89.6083 240 89.6083L238.604 95.8079L255.285 113.594C256.396 114.843 257.884 115.482 259.397 115.36C260.911 115.239 262.316 114.368 263.281 112.952" fill="#F08059"/>
<mask id="mask14_207_54004" style="mask-type:alpha" maskUnits="userSpaceOnUse" x="238" y="82" width="26" height="34">
<path fill-rule="evenodd" clip-rule="evenodd" d="M262.235 99.4591C256.662 92.5283 248.816 83.5166 247.399 82.7757C245.176 81.6143 240 89.6083 240 89.6083L238.604 95.8079L255.285 113.594C256.396 114.843 257.884 115.482 259.397 115.36C260.911 115.239 262.316 114.368 263.281 112.952" fill="white"/>
</mask>
<g mask="url(#mask14_207_54004)">
<path d="M243.632 97.5315C249.132 90.4232 246.212 106.739 255.128 115.774C264.044 124.81 241.299 112.485 241.299 112.485L239.199 93.1652" fill="#E84B23"/>
</g>
<path d="M201.963 238.806C201.963 238.806 200.366 249.109 199.53 250.449C198.694 251.788 199.91 253.54 199.91 253.54L205.08 253.952L206.246 251.994L209.794 233.242L201.963 238.806Z" fill="#FF9763"/>
<mask id="mask15_207_54004" style="mask-type:alpha" maskUnits="userSpaceOnUse" x="199" y="233" width="11" height="21">
<path fill-rule="evenodd" clip-rule="evenodd" d="M201.963 238.806C201.963 238.806 200.366 249.109 199.53 250.449C198.694 251.788 199.91 253.54 199.91 253.54L205.08 253.952L206.246 251.994L209.794 233.242L201.963 238.806Z" fill="white"/>
</mask>
<g mask="url(#mask15_207_54004)">
<path d="M200.905 240.658C198.001 244.398 210.286 246.319 211.85 246.236C213.413 246.152 208.611 236.3 208.611 236.3" fill="#E84B23"/>
</g>
<path d="M184.574 257.308C183.053 250.714 197.933 253.334 199.657 249.35C199.657 249.35 205.002 253.129 206.421 251.068L206.278 255.944C206.257 256.517 205.867 256.969 205.392 256.969L184.574 257.308Z" fill="#4B4D5C"/>
<path d="M237.88 238.626C237.88 238.626 236.984 249.224 237.496 250.601C238.008 251.979 236.368 253.781 236.368 253.781L231.098 254.205L230.406 252.191L231.395 232.903L237.88 238.626Z" fill="#FF9763"/>
<mask id="mask16_207_54004" style="mask-type:alpha" maskUnits="userSpaceOnUse" x="230" y="232" width="8" height="23">
<path fill-rule="evenodd" clip-rule="evenodd" d="M237.88 238.626C237.88 238.626 236.984 249.224 237.496 250.601C238.008 251.979 236.368 253.781 236.368 253.781L231.098 254.205L230.406 252.191L231.395 232.903L237.88 238.626Z" fill="white"/>
</mask>
<g mask="url(#mask16_207_54004)">
<path d="M230.406 240.484C228.156 242.778 239.994 246.236 239.994 246.236L238.807 236.3" fill="#E84B23"/>
</g>
<path d="M247.722 257.308C250.839 250.526 238.395 253.569 237.635 249.471C237.635 249.471 231.375 253.358 230.455 251.238L229.418 256.253C229.3 256.843 229.581 257.308 230.056 257.308L247.722 257.308Z" fill="#4B4D5C"/>
<path d="M226.653 241.106C232.792 244.403 240.41 240.97 240.41 240.97L242.843 184.141C242.843 184.141 244.041 126.478 241.424 120.351C238.807 114.224 220.135 127.769 220.135 127.769L227.839 184.141L226.653 241.106Z" fill="#F0F3FC"/>
<mask id="mask17_207_54004" style="mask-type:alpha" maskUnits="userSpaceOnUse" x="220" y="118" width="24" height="125">
<path fill-rule="evenodd" clip-rule="evenodd" d="M226.653 241.106C232.792 244.403 240.41 240.97 240.41 240.97L242.843 184.141C242.843 184.141 244.041 126.478 241.424 120.351C238.807 114.224 220.135 127.769 220.135 127.769L227.839 184.141L226.653 241.106Z" fill="white"/>
</mask>
<g mask="url(#mask17_207_54004)">
<path d="M234.514 142.024C241.111 138.989 230.35 155.366 230.389 176.915C230.426 197.287 232.776 194.314 226.892 221.313C221.008 248.312 215.87 175.7 215.87 175.7L224.358 150.596" fill="#D6DCF2"/>
<path fill-rule="evenodd" clip-rule="evenodd" d="M239.026 137.184C245.817 139.506 249.783 132.921 249.783 132.921L248.852 145.329L243.906 150.715L239.213 148.87L239.026 137.184Z" stroke="#D6DCF2" stroke-width="1.19891" stroke-linecap="round" stroke-linejoin="round"/>
<path d="M227.887 162.103C227.887 162.103 229.864 234.299 229.158 237.715" stroke="#D6DCF2" stroke-width="1.19891" stroke-linecap="round" stroke-linejoin="round"/>
</g>
<path d="M199.236 237.203C200.605 242.972 212.056 242.16 212.056 242.16L222.365 182.721C222.365 182.721 240.329 140.474 236.558 125.159C233.256 111.754 214.964 125.159 214.964 125.159L207.605 176.78L199.236 237.203Z" fill="#F0F3FC"/>
<mask id="mask18_207_54004" style="mask-type:alpha" maskUnits="userSpaceOnUse" x="199" y="119" width="39" height="124">
<path fill-rule="evenodd" clip-rule="evenodd" d="M199.236 237.203C200.605 242.972 212.056 242.16 212.056 242.16L222.365 182.721C222.365 182.721 240.329 140.474 236.558 125.159C233.256 111.754 214.964 125.159 214.964 125.159L207.605 176.78L199.236 237.203Z" fill="white"/>
</mask>
<g mask="url(#mask18_207_54004)">
<path d="M210.175 145.13C210.68 126.726 238.47 135.606 232.288 130.081C226.107 124.556 211.403 123.198 211.403 123.198V123.198" fill="#D6DCF2"/>
<path d="M218.305 124.299L201.854 235.738" stroke="#D6DCF2" stroke-width="1.19891" stroke-linecap="round" stroke-linejoin="round"/>
</g>
<path d="M228.448 54.2202C223.912 59.2391 221.119 74.036 229.068 71.4401C237.016 68.8441 233.292 55.1721 233.292 55.1721L228.448 54.2202Z" fill="#FF9763"/>
<mask id="mask19_207_54004" style="mask-type:alpha" maskUnits="userSpaceOnUse" x="224" y="54" width="11" height="18">
<path fill-rule="evenodd" clip-rule="evenodd" d="M228.448 54.2202C223.912 59.2391 221.119 74.036 229.068 71.4401C237.016 68.8441 233.292 55.1721 233.292 55.1721L228.448 54.2202Z" fill="white"/>
</mask>
<g mask="url(#mask19_207_54004)">
<path d="M224.771 71.6397C227.712 72.5406 229.003 69.0315 229.102 69.0315C229.202 69.0315 230.351 72.9005 230.351 72.9005L229.102 73.2215L225.106 72.7655" fill="#E84B23"/>
</g>
<path d="M228.432 68.1512C228.462 69.064 226.749 78.7266 226.749 78.7266L235.718 80.7799L236.259 66.0933L228.432 68.1512Z" fill="#FF9763"/>
<path d="M225.849 76.5919C228.32 73.3678 236.36 74.1987 239.005 79.1431L238.636 79.9711C238.636 79.9711 232.216 80.7465 225.849 77.3221L225.849 76.5919Z" fill="#589BF7"/>
<path d="M199.823 77.0394L215.394 61.5466C219.935 62.0081 222.272 60.0467 222.484 59.9313C222.696 59.8159 226.865 59.8448 225.431 57.9411C225.431 57.9411 221.448 58.7199 221.236 58.3161C221.024 57.9123 222.829 56.0662 223.148 55.9509C223.466 55.8355 226.865 56.5999 227.98 56.4701C229.574 55.0855 226.493 54.1625 222.192 53.0665C220.652 52.4896 212.42 57.3931 212.208 57.4508C211.996 57.5084 188.938 70.4806 188.563 74.4071C188.189 78.3336 199.823 77.0394 199.823 77.0394Z" fill="#FF9763"/>
<mask id="mask20_207_54004" style="mask-type:alpha" maskUnits="userSpaceOnUse" x="188" y="53" width="41" height="25">
<path fill-rule="evenodd" clip-rule="evenodd" d="M199.823 77.0394L215.394 61.5466C219.935 62.0081 222.272 60.0467 222.484 59.9313C222.696 59.8159 226.865 59.8448 225.431 57.9411C225.431 57.9411 221.448 58.7199 221.236 58.3161C221.024 57.9123 222.829 56.0662 223.148 55.9509C223.466 55.8355 226.865 56.5999 227.98 56.4701C229.574 55.0855 226.493 54.1625 222.192 53.0665C220.652 52.4896 212.42 57.3931 212.208 57.4508C211.996 57.5084 188.938 70.4806 188.563 74.4071C188.189 78.3336 199.823 77.0394 199.823 77.0394Z" fill="white"/>
</mask>
<g mask="url(#mask20_207_54004)">
<path d="M210.501 58.0788C212.097 56.0054 218.751 63.7409 218.751 63.7409L212.52 63.5428" fill="#E84B23"/>
</g>
<path d="M229.569 64.604C224.914 64.9501 230.181 59.1574 227.513 57.941C223.148 55.9507 227.791 39.7929 231.504 48.7377C244.966 49.3434 243.245 65.0366 239.379 67.1134C235.512 69.1901 236.597 72.0768 236.597 72.0768C236.597 72.0768 231.398 73.9863 230.969 69.5732C230.539 65.1601 229.569 64.604 229.569 64.604Z" fill="#4B4D5C"/>
<path d="M214.812 126.278C214.812 126.278 211.286 121.979 214.321 128.484C217.356 134.99 247.244 137.582 241.841 128.001" fill="#589BF7"/>
<path d="M227.023 64.431C231.836 60.1621 234.147 66.904 227.928 69.4235Z" fill="#FF9763"/>
<path d="M245.829 95.5425C244.856 104.828 243.797 118.164 245.188 124.423C248.567 136.653 205.931 130.662 211.403 123.198C214.249 119.317 218.756 86.237 214.269 80.872L219.632 76.5454C236.597 75.8531 247.398 82.7757 247.398 82.7757" fill="#F08059"/>
<mask id="mask21_207_54004" style="mask-type:alpha" maskUnits="userSpaceOnUse" x="210" y="76" width="38" height="56">
<path fill-rule="evenodd" clip-rule="evenodd" d="M245.829 95.5425C244.856 104.828 243.797 118.164 245.188 124.423C248.567 136.653 205.931 130.662 211.403 123.198C214.249 119.317 218.756 86.237 214.269 80.872L219.632 76.5454C236.597 75.8531 247.398 82.7757 247.398 82.7757" fill="white"/>
</mask>
<g mask="url(#mask21_207_54004)">
<path d="M233.46 106.795C245.366 112.078 224.592 120.994 234.508 132.305L237.308 131.997C225.351 123.141 249.027 111.676 234.249 105.96L233.46 106.795Z" fill="#97CC64"/>
<path d="M233.852 103.733C228.492 86.2426 243.928 85.2293 235.956 103.13Z" fill="#FFC562"/>
<path d="M234.931 105.442C240.291 122.933 224.855 123.946 232.827 106.045Z" fill="#FFC562"/>
<path d="M235.28 103.744C252.117 93.2283 249.354 111.313 235.317 106.099Z" fill="#FFC562"/>
<path d="M233.503 105.431C216.667 115.947 219.43 97.8627 233.466 103.076Z" fill="#FFC562"/>
<path d="M234.639 103.387C242.753 83.5835 251.715 95.6544 236.152 104.626Z" fill="#FFC562"/>
<path d="M234.145 105.788C226.03 125.592 217.069 113.521 232.631 104.549Z" fill="#FFC562"/>
<path d="M235.402 104.596C251.097 109.527 238.228 123.031 233.94 106.687Z" fill="#FFC562"/>
<path d="M233.382 104.58C217.686 99.6479 230.555 86.144 234.844 102.489Z" fill="#FFC562"/>
<ellipse rx="5.83698" ry="4.76151" transform="matrix(0.708969 -0.70524 0.562962 0.826483 234.495 104.576)" fill="#F0F3FC"/>
<path d="M236.114 123.024C242.727 127.135 246.201 117.538 246.201 117.538C246.201 117.538 236.719 115.341 236.114 123.024Z" fill="#97CC64"/>
<path d="M222.348 92.9205C224.452 99.3989 222.572 99.9838 218.328 99.8488C214.083 99.7138 211.731 129.002 228.432 126.977C245.132 124.953 244.015 133.321 244.015 133.86C244.015 134.4 213.637 129.946 213.637 129.946L205.26 120.823L212.108 102.143L218.886 90.941L220.135 91.2353" fill="#E84B23"/>
</g>
<path d="M221.715 76.8111L192.589 71.7152C189.985 71.2429 187.47 73.027 186.652 75.9265V75.9265C185.755 79.1068 187.194 82.5384 189.908 83.6907C189.908 83.6907 213.386 96.1542 224.042 99.018" fill="#F08059"/>
<mask id="mask22_207_54004" style="mask-type:alpha" maskUnits="userSpaceOnUse" x="186" y="71" width="39" height="29">
<path fill-rule="evenodd" clip-rule="evenodd" d="M221.715 76.8111L192.589 71.7152C189.985 71.2429 187.47 73.027 186.652 75.9265V75.9265C185.755 79.1068 187.194 82.5384 189.908 83.6907C189.908 83.6907 213.386 96.1542 224.042 99.018" fill="white"/>
</mask>
<g mask="url(#mask22_207_54004)">
<ellipse cx="186.849" cy="82.6546" rx="4.66442" ry="7.40934" fill="#75AA3C"/>
</g>
<path d="M187.29 74.4041C188.734 70.918 209.756 58.3208 209.756 58.3208C214.421 61.0201 214.125 68.6421 214.125 68.6421L206.628 74.2616" fill="#F08059"/>
<mask id="mask23_207_54004" style="mask-type:alpha" maskUnits="userSpaceOnUse" x="187" y="58" width="28" height="17">
<path fill-rule="evenodd" clip-rule="evenodd" d="M187.29 74.4041C188.734 70.918 209.756 58.3208 209.756 58.3208C214.421 61.0201 214.125 68.6421 214.125 68.6421L206.628 74.2616" fill="white"/>
</mask>
<g mask="url(#mask23_207_54004)">
<path d="M197.256 72.7525C198.745 69.9762 208.127 74.2051 209.988 73.2154C211.85 72.2256 208.481 75.8532 208.481 75.8532L207.958 74.4042" fill="#E84B23"/>
</g>
<path d="M205.741 59.746C210.595 59.3883 211.926 69.0859 210.917 71.6396L214.341 69.4234C214.341 69.4234 214.373 59.4009 209.756 58.3208L205.741 59.746Z" fill="#97CC64"/>
<path fill-rule="evenodd" clip-rule="evenodd" d="M221.524 137.934C227.981 141.378 232.363 138.774 232.363 138.774L230.01 150.904L224.915 153.133L220.361 149.537L221.524 137.934Z" stroke="#D6DCF2" stroke-width="1.19891" stroke-linecap="round" stroke-linejoin="round"/>
<path d="M199.236 234.64L198.846 239.733C198.846 239.733 204.541 244.298 212.056 242.16L213.422 236.69C213.422 236.69 210.351 239.679 199.236 234.64Z" fill="#FFC562"/>
<path d="M226.357 236.166V241.73C226.357 241.73 233.779 245.106 240.668 240.892L240.932 235.188C240.932 235.188 238.046 239.099 226.357 236.166Z" fill="#FFC562"/>
<path d="M268.426 92.0709C273.281 91.7132 274.611 101.411 273.603 103.964L277.026 101.748C277.026 101.748 276.465 90.2895 271.849 89.2095L268.426 92.0709Z" fill="#97CC64"/>
<path d="M228.684 65.5688C228.686 65.5815 228.688 65.5943 228.689 65.6073L228.673 65.4602C228.677 65.4988 228.677 65.5378 228.673 65.5765L228.689 65.4294C228.684 65.4731 228.675 65.516 228.661 65.5569L228.707 65.4247C228.692 65.468 228.672 65.5087 228.648 65.546L228.72 65.434C228.699 65.4667 228.674 65.4963 228.647 65.5222L228.74 65.4357C228.713 65.4611 228.683 65.4821 228.651 65.4983L228.761 65.4425C228.747 65.4493 228.732 65.4552 228.718 65.4601C228.605 65.504 228.508 65.5939 228.444 65.7144C228.411 65.7759 228.392 65.8469 228.39 65.9201C228.376 65.9932 228.379 66.0694 228.398 66.1408L228.444 66.273C228.484 66.355 228.541 66.4234 228.608 66.4715C228.716 66.5445 228.842 66.5645 228.961 66.5272C229.174 66.4527 229.355 66.2831 229.468 66.053C229.499 65.986 229.525 65.9161 229.546 65.8438C229.557 65.8124 229.564 65.7798 229.569 65.7466C229.579 65.6855 229.585 65.6228 229.59 65.561C229.591 65.5455 229.592 65.53 229.592 65.5145C229.59 65.4337 229.582 65.3533 229.567 65.2746C229.531 65.1382 229.456 65.0214 229.357 64.9439C229.306 64.9041 229.247 64.8814 229.186 64.8782C229.126 64.8617 229.063 64.8651 229.004 64.8881L228.894 64.9439C228.826 64.992 228.77 65.0603 228.73 65.1424L228.684 65.2746C228.662 65.3709 228.662 65.4725 228.684 65.5688L228.684 65.5688Z" fill="#373947"/>
<path d="M234.228 55.1377C234.237 55.1603 234.246 55.1831 234.254 55.206C234.228 55.1313 234.225 55.1219 234.243 55.1779C234.255 55.2192 234.268 55.2599 234.28 55.3016C234.304 55.3907 234.324 55.4814 234.34 55.5732C234.346 55.6099 234.351 55.6468 234.357 55.6838C234.365 55.745 234.363 55.7331 234.354 55.6481C234.356 55.6729 234.358 55.6978 234.36 55.7227C234.367 55.8099 234.37 55.8975 234.37 55.9851C234.369 56.0731 234.363 56.1598 234.358 56.2474C234.352 56.3089 234.354 56.2971 234.363 56.212C234.36 56.2367 234.356 56.2614 234.353 56.286C234.347 56.323 234.341 56.3598 234.335 56.3964C234.319 56.4819 234.3 56.5663 234.277 56.6494C234.269 56.6784 234.255 56.7727 234.235 56.7904C234.261 56.7162 234.265 56.7066 234.245 56.7619C234.236 56.7847 234.227 56.8074 234.218 56.8299C234.115 57.0905 234.152 57.4396 234.383 57.587C234.587 57.7175 234.899 57.6671 235.009 57.3884C235.364 56.5022 235.368 55.469 235.019 54.5792C234.917 54.316 234.587 54.2291 234.392 54.3807C234.18 54.5401 234.107 54.8727 234.228 55.1377L234.228 55.1377Z" fill="#373947"/>
<path d="M196.095 249.367L197.865 251.255L198.31 250.33C196.803 249.869 195.259 249.605 193.706 249.541C193.273 249.523 192.84 249.522 192.407 249.537C192.168 249.544 191.938 249.785 191.949 250.09C191.953 250.394 192.156 250.639 192.407 250.643C193.16 250.618 193.913 250.641 194.663 250.713C194.849 250.731 195.035 250.751 195.22 250.775C195.313 250.787 195.406 250.8 195.499 250.813C195.545 250.82 195.591 250.826 195.637 250.834C195.657 250.837 195.677 250.84 195.697 250.843C195.707 250.844 195.791 250.857 195.735 250.849C195.675 250.84 195.759 250.853 195.773 250.855C195.793 250.858 195.813 250.862 195.833 250.865C195.879 250.873 195.925 250.881 195.971 250.889C196.07 250.907 196.169 250.925 196.267 250.945C196.451 250.981 196.635 251.02 196.818 251.062C197.237 251.159 197.653 251.27 198.067 251.397C198.267 251.46 198.477 251.357 198.584 251.143C198.675 250.934 198.668 250.638 198.512 250.472L196.742 248.584C196.563 248.393 196.269 248.355 196.095 248.584C195.935 248.794 195.903 249.162 196.095 249.367L196.095 249.367Z" fill="#373947"/>
<path d="M239.644 248.934C239.185 249.566 238.902 250.357 238.836 251.194C238.805 251.549 239.153 251.826 239.415 251.727C240.133 251.456 240.859 251.222 241.594 251.026C241.968 250.926 242.343 250.837 242.72 250.757C242.902 250.718 243.084 250.682 243.267 250.648C243.358 250.632 243.45 250.615 243.541 250.599C243.587 250.592 243.632 250.584 243.678 250.576C243.732 250.567 243.66 250.579 243.655 250.58C243.687 250.574 243.72 250.57 243.753 250.565C244.178 250.498 244.604 250.444 245.032 250.403C245.27 250.38 245.501 250.165 245.49 249.85C245.479 249.57 245.287 249.272 245.032 249.297C243.478 249.445 241.937 249.756 240.427 250.226C240.006 250.358 239.587 250.503 239.172 250.66L239.752 251.194C239.754 251.166 239.756 251.139 239.759 251.111L239.752 251.176C239.761 251.136 239.767 251.095 239.769 251.054C239.782 250.972 239.797 250.892 239.815 250.811C239.831 250.738 239.85 250.665 239.87 250.593C239.881 250.554 239.893 250.515 239.905 250.477C239.911 250.457 239.918 250.438 239.924 250.419C239.902 250.481 239.898 250.493 239.912 250.456C239.966 250.311 240.028 250.171 240.096 250.035C240.133 249.965 240.173 249.897 240.212 249.83C240.262 249.745 240.177 249.878 240.214 249.827C240.24 249.79 240.265 249.753 240.292 249.716C240.449 249.498 240.482 249.145 240.292 248.934C240.119 248.742 239.812 248.701 239.644 248.934V248.934Z" fill="#373947"/>
<path d="M207.043 82.7905C206.958 83.8461 207.024 84.9115 207.237 85.9403C207.306 86.2331 207.557 86.4049 207.8 86.3268C208.041 86.2405 208.182 85.94 208.12 85.6461C208.07 85.4013 208.028 85.1544 207.995 84.9053C207.987 84.8431 207.979 84.7807 207.972 84.7183C207.987 84.8582 207.966 84.6553 207.964 84.6308C207.953 84.5133 207.945 84.3956 207.938 84.2777C207.91 83.7822 207.917 83.2847 207.959 82.7906C207.983 82.5017 207.731 82.2248 207.501 82.2372C207.232 82.2518 207.069 82.4811 207.043 82.7906L207.043 82.7905Z" fill="#E84B23"/>
<path d="M264.974 188.607C264.932 188.747 264.888 188.887 264.842 189.025C264.831 189.059 264.82 189.095 264.807 189.128C264.863 188.99 264.815 189.104 264.804 189.133C264.776 189.213 264.746 189.292 264.715 189.371C264.611 189.641 264.497 189.905 264.373 190.163C264.249 190.421 264.117 190.672 263.975 190.917C263.905 191.039 263.831 191.159 263.757 191.278C263.692 191.383 263.82 191.182 263.753 191.284C263.734 191.313 263.715 191.343 263.696 191.372C263.65 191.44 263.605 191.507 263.558 191.574C263.24 192.03 262.891 192.454 262.515 192.841C262.421 192.938 262.325 193.032 262.228 193.124C262.143 193.205 262.31 193.051 262.223 193.129C262.198 193.151 262.174 193.174 262.149 193.196C262.091 193.248 262.033 193.299 261.974 193.349C261.773 193.521 261.566 193.683 261.353 193.834C261.113 194.004 260.868 194.16 260.616 194.301C260.55 194.337 260.484 194.372 260.419 194.407C260.319 194.46 260.515 194.36 260.414 194.41C260.376 194.428 260.338 194.447 260.3 194.466C260.166 194.53 260.031 194.59 259.895 194.646C259.668 194.739 259.495 195.031 259.575 195.327C259.647 195.598 259.895 195.813 260.138 195.713C262.195 194.858 263.939 193.16 265.069 190.914C265.387 190.277 265.651 189.602 265.857 188.901C265.938 188.628 265.766 188.283 265.537 188.22C265.294 188.147 265.046 188.317 264.974 188.607L264.974 188.607Z" fill="#BA393C"/>
<path d="M220.557 182.684L217.887 183.177C217.649 183.221 217.497 183.596 217.567 183.858C217.65 184.17 217.875 184.291 218.13 184.244L220.8 183.751C221.038 183.707 221.19 183.332 221.12 183.07C221.036 182.758 220.811 182.637 220.557 182.684Z" fill="#D6DCF2"/>
<path d="M236.595 218.106L236.223 219.495C236.158 219.789 236.3 220.092 236.543 220.175C236.786 220.249 237.034 220.079 237.106 219.789L237.478 218.4C237.543 218.106 237.401 217.803 237.158 217.719C236.915 217.645 236.667 217.816 236.595 218.106V218.106Z" fill="#D6DCF2"/>
<path d="M88.0406 97.5899L97.3732 91.7684C103.824 96.896 107.76 136.755 107.76 136.755L92.7674 127.283L88.0406 97.5899Z" fill="#516DDB"/>
<mask id="mask24_207_54004" style="mask-type:alpha" maskUnits="userSpaceOnUse" x="88" y="91" width="20" height="46">
<path fill-rule="evenodd" clip-rule="evenodd" d="M88.0406 97.5899L97.3732 91.7684C103.824 96.896 107.76 136.755 107.76 136.755L92.7674 127.283L88.0406 97.5899Z" fill="white"/>
</mask>
<g mask="url(#mask24_207_54004)">
<g opacity="0.16">
<path fill-rule="evenodd" clip-rule="evenodd" d="M100.935 150.289L98.5876 152.392L63.5276 106.303L65.875 104.201L100.935 150.289V150.289Z" stroke="#3152BA" stroke-width="0.814294" stroke-linecap="round" stroke-linejoin="round"/>
<path fill-rule="evenodd" clip-rule="evenodd" d="M105.412 146.28L103.064 148.382L68.0045 102.294L70.3519 100.191L105.412 146.28V146.28Z" stroke="#3152BA" stroke-width="0.814294" stroke-linecap="round" stroke-linejoin="round"/>
<path fill-rule="evenodd" clip-rule="evenodd" d="M109.889 142.27L107.541 144.372L72.4814 98.2839L74.8288 96.1814L109.889 142.27V142.27Z" stroke="#3152BA" stroke-width="0.814294" stroke-linecap="round" stroke-linejoin="round"/>
<path fill-rule="evenodd" clip-rule="evenodd" d="M114.366 138.26L112.018 140.363L76.9583 94.274L79.3057 92.1715L114.366 138.26V138.26Z" stroke="#3152BA" stroke-width="0.814294" stroke-linecap="round" stroke-linejoin="round"/>
<path fill-rule="evenodd" clip-rule="evenodd" d="M118.843 134.25L116.495 136.353L81.4351 90.2643L83.7826 88.1617L118.843 134.25V134.25Z" stroke="#3152BA" stroke-width="0.814294" stroke-linecap="round" stroke-linejoin="round"/>
<path fill-rule="evenodd" clip-rule="evenodd" d="M123.32 130.241L120.972 132.343L85.9121 86.2546L88.2595 84.1521L123.32 130.241V130.241Z" stroke="#3152BA" stroke-width="0.814294" stroke-linecap="round" stroke-linejoin="round"/>
<path fill-rule="evenodd" clip-rule="evenodd" d="M127.796 126.231L125.449 128.333L90.3889 82.2448L92.7364 80.1423L127.796 126.231V126.231Z" stroke="#3152BA" stroke-width="0.814294" stroke-linecap="round" stroke-linejoin="round"/>
<path fill-rule="evenodd" clip-rule="evenodd" d="M132.273 122.221L129.926 124.324L94.8659 78.235L97.2133 76.1324L132.273 122.221V122.221Z" stroke="#3152BA" stroke-width="0.814294" stroke-linecap="round" stroke-linejoin="round"/>
</g>
<g opacity="0.46">
<path fill-rule="evenodd" clip-rule="evenodd" d="M61.1839 114.573L58.7972 111.435L102.754 72.0653L105.141 75.2029L61.1839 114.573V114.573Z" stroke="#3152BA" stroke-width="1.73679" stroke-linecap="round" stroke-linejoin="round"/>
<path fill-rule="evenodd" clip-rule="evenodd" d="M65.7358 120.557L63.3491 117.419L107.306 78.049L109.692 81.1865L65.7358 120.557V120.557Z" stroke="#3152BA" stroke-width="1.73679" stroke-linecap="round" stroke-linejoin="round"/>
<path fill-rule="evenodd" clip-rule="evenodd" d="M70.2877 126.54L67.9009 123.403L111.858 84.0327L114.244 87.1702L70.2877 126.54V126.54Z" stroke="#3152BA" stroke-width="1.73679" stroke-linecap="round" stroke-linejoin="round"/>
<path fill-rule="evenodd" clip-rule="evenodd" d="M74.8395 132.524L72.4528 129.386L116.409 90.0164L118.796 93.1539L74.8395 132.524V132.524Z" stroke="#3152BA" stroke-width="1.73679" stroke-linecap="round" stroke-linejoin="round"/>
<path fill-rule="evenodd" clip-rule="evenodd" d="M79.3914 138.508L77.0046 135.37L120.961 96.0001L123.348 99.1376L79.3914 138.508V138.508Z" stroke="#3152BA" stroke-width="1.73679" stroke-linecap="round" stroke-linejoin="round"/>
<path fill-rule="evenodd" clip-rule="evenodd" d="M83.9432 144.491L81.5565 141.354L125.513 101.984L127.9 105.121L83.9432 144.491V144.491Z" stroke="#3152BA" stroke-width="1.73679" stroke-linecap="round" stroke-linejoin="round"/>
<path fill-rule="evenodd" clip-rule="evenodd" d="M88.4951 150.475L86.1083 147.338L130.065 107.967L132.452 111.105L88.4951 150.475V150.475Z" stroke="#3152BA" stroke-width="1.73679" stroke-linecap="round" stroke-linejoin="round"/>
<path fill-rule="evenodd" clip-rule="evenodd" d="M93.0469 156.459L90.6602 153.321L134.617 113.951L137.004 117.089L93.0469 156.459V156.459Z" stroke="#3152BA" stroke-width="1.73679" stroke-linecap="round" stroke-linejoin="round"/>
</g>
</g>
<path d="M97.4325 107.596C97.0857 115.307 96.3805 125.529 94.9669 137.406L62.3916 134.879L49.3055 104.829L49.3563 90.8414C49.3563 90.8414 71.846 66.179 97.737 92.1298" fill="#516DDB"/>
<mask id="mask25_207_54004" style="mask-type:alpha" maskUnits="userSpaceOnUse" x="49" y="80" width="49" height="58">
<path fill-rule="evenodd" clip-rule="evenodd" d="M97.4325 107.596C97.0857 115.307 96.3805 125.529 94.9669 137.406L62.3916 134.879L49.3055 104.829L49.3563 90.8414C49.3563 90.8414 71.846 66.179 97.737 92.1298" fill="white"/>
</mask>
<g mask="url(#mask25_207_54004)">
<path d="M56.4047 105.851C66.0908 98.7994 58.5026 125.396 68.0976 122.029C77.6925 118.663 78.8215 127.382 78.8215 127.382L66.3329 143.664L43.8296 132.535L51.362 113.425" fill="#3152BA"/>
<g opacity="0.16">
<path fill-rule="evenodd" clip-rule="evenodd" d="M76.5559 144.856L74.2085 146.959L39.1484 100.87L41.4959 98.7677L76.5559 144.856V144.856Z" stroke="#3152BA" stroke-width="0.814294" stroke-linecap="round" stroke-linejoin="round"/>
<path fill-rule="evenodd" clip-rule="evenodd" d="M81.0329 140.847L78.6854 142.949L43.6254 96.8606L45.9728 94.7581L81.0329 140.847V140.847Z" stroke="#3152BA" stroke-width="0.814294" stroke-linecap="round" stroke-linejoin="round"/>
<path fill-rule="evenodd" clip-rule="evenodd" d="M85.5097 136.837L83.1623 138.939L48.1022 92.8508L50.4497 90.7483L85.5097 136.837V136.837Z" stroke="#3152BA" stroke-width="0.814294" stroke-linecap="round" stroke-linejoin="round"/>
<path fill-rule="evenodd" clip-rule="evenodd" d="M89.9866 132.827L87.6391 134.93L52.5792 88.8411L54.9266 86.7385L89.9866 132.827V132.827Z" stroke="#3152BA" stroke-width="0.814294" stroke-linecap="round" stroke-linejoin="round"/>
<path fill-rule="evenodd" clip-rule="evenodd" d="M94.4635 128.817L92.1161 130.92L57.056 84.8313L59.4035 82.7288L94.4635 128.817V128.817Z" stroke="#3152BA" stroke-width="0.814294" stroke-linecap="round" stroke-linejoin="round"/>
<path fill-rule="evenodd" clip-rule="evenodd" d="M98.9404 124.807L96.5929 126.91L61.533 80.8214L63.8804 78.7189L98.9404 124.807V124.807Z" stroke="#3152BA" stroke-width="0.814294" stroke-linecap="round" stroke-linejoin="round"/>
<path fill-rule="evenodd" clip-rule="evenodd" d="M103.417 120.798L101.07 122.9L66.0098 76.8118L68.3573 74.7092L103.417 120.798V120.798Z" stroke="#3152BA" stroke-width="0.814294" stroke-linecap="round" stroke-linejoin="round"/>
<path fill-rule="evenodd" clip-rule="evenodd" d="M107.894 116.788L105.547 118.89L70.4867 72.802L72.8342 70.6995L107.894 116.788V116.788Z" stroke="#3152BA" stroke-width="0.814294" stroke-linecap="round" stroke-linejoin="round"/>
</g>
<g opacity="0.46">
<path fill-rule="evenodd" clip-rule="evenodd" d="M36.8049 109.14L34.4181 106.003L78.3748 66.6324L80.7615 69.7699L36.8049 109.14V109.14Z" stroke="#3152BA" stroke-width="1.73679" stroke-linecap="round" stroke-linejoin="round"/>
<path fill-rule="evenodd" clip-rule="evenodd" d="M41.3567 115.124L38.97 111.986L82.9266 72.616L85.3134 75.7536L41.3567 115.124V115.124Z" stroke="#3152BA" stroke-width="1.73679" stroke-linecap="round" stroke-linejoin="round"/>
<path fill-rule="evenodd" clip-rule="evenodd" d="M45.9085 121.107L43.5218 117.97L87.4784 78.5997L89.8652 81.7373L45.9085 121.107V121.107Z" stroke="#3152BA" stroke-width="1.73679" stroke-linecap="round" stroke-linejoin="round"/>
<path fill-rule="evenodd" clip-rule="evenodd" d="M50.4605 127.091L48.0737 123.953L92.0303 84.5834L94.417 87.7209L50.4605 127.091V127.091Z" stroke="#3152BA" stroke-width="1.73679" stroke-linecap="round" stroke-linejoin="round"/>
<path fill-rule="evenodd" clip-rule="evenodd" d="M55.0123 133.075L52.6255 129.937L96.5822 90.5671L98.9689 93.7046L55.0123 133.075V133.075Z" stroke="#3152BA" stroke-width="1.73679" stroke-linecap="round" stroke-linejoin="round"/>
<path fill-rule="evenodd" clip-rule="evenodd" d="M59.5641 139.058L57.1774 135.921L101.134 96.5508L103.521 99.6883L59.5641 139.058V139.058Z" stroke="#3152BA" stroke-width="1.73679" stroke-linecap="round" stroke-linejoin="round"/>
<path fill-rule="evenodd" clip-rule="evenodd" d="M64.1159 145.042L61.7292 141.905L105.686 102.535L108.073 105.672L64.1159 145.042V145.042Z" stroke="#3152BA" stroke-width="1.73679" stroke-linecap="round" stroke-linejoin="round"/>
<path fill-rule="evenodd" clip-rule="evenodd" d="M68.6679 151.026L66.2811 147.888L110.238 108.518L112.624 111.656L68.6679 151.026V151.026Z" stroke="#3152BA" stroke-width="1.73679" stroke-linecap="round" stroke-linejoin="round"/>
</g>
</g>
<path d="M70.8482 80.6441L73.5625 68.0969L81.3116 71.1368V81.7052L81.5642 85.7557L80.5507 88.2304L78.4223 87.8403L73.9668 87.3669" fill="#FF9763"/>
<mask id="mask26_207_54004" style="mask-type:alpha" maskUnits="userSpaceOnUse" x="70" y="68" width="12" height="21">
<path fill-rule="evenodd" clip-rule="evenodd" d="M70.8482 80.6441L73.5625 68.0969L81.3116 71.1368V81.7052L81.5642 85.7557L80.5507 88.2304L78.4223 87.8403L73.9668 87.3669" fill="white"/>
</mask>
<g mask="url(#mask26_207_54004)">
<path d="M83.7087 83.8925C73.9324 81.5776 82.4394 78.8636 78.9564 76.8822C77.9982 76.3371 79.5233 70.6736 79.5233 70.6736L82.1796 72.7734" fill="#E84B23"/>
</g>
<path d="M75.3949 67.7147L78.1201 59.9122L85.7798 52.6581C86.9275 61.0382 93.8246 84.572 78.6226 75.5131" fill="#FF9763"/>
<path d="M74.3572 68.2351C77.2356 69.6144 81.2084 62.7083 79.512 60.4805C79.512 60.4805 84.361 62.8344 87.7774 59.417C99.3657 61.2227 98.5999 44.0153 88.4353 48.9393C83.1438 45.4205 77.2549 48.8949 77.5117 52.8324C73.5308 48.5807 65.7821 64.1261 74.3572 68.2351Z" fill="#4B4D5C"/>
<path d="M73.8581 71.9636C68.6713 66.6736 72.5526 58.7621 78.4763 68.33Z" fill="#FF9763"/>
<path d="M86.8471 52.618C86.8172 52.7351 86.7848 52.851 86.7489 52.9656C86.7389 52.9974 86.7286 53.0291 86.7181 53.0606C86.7152 53.0696 86.6876 53.1496 86.7058 53.0978C86.7265 53.0391 86.6895 53.1421 86.6854 53.153C86.6762 53.1778 86.6668 53.2026 86.6573 53.2272C86.5691 53.4553 86.4682 53.676 86.3553 53.8876C86.3004 53.9906 86.2428 54.0913 86.1824 54.1897C86.1778 54.1971 86.135 54.2659 86.1623 54.2227C86.1934 54.1735 86.1367 54.2616 86.1306 54.2706C86.0988 54.3182 86.0664 54.3652 86.0333 54.4116C85.897 54.602 85.7503 54.7812 85.5942 54.9479C85.441 55.1352 85.441 55.4365 85.5942 55.6239C85.7507 55.8045 85.9971 55.8045 86.1536 55.6239C86.8377 54.8844 87.3413 53.9328 87.6098 52.8722C87.6658 52.6179 87.5429 52.3564 87.3336 52.2842C87.1236 52.2197 86.9088 52.367 86.847 52.618L86.8471 52.618Z" fill="#373947"/>
<path d="M72.7647 57.6302L72.6982 57.7374C72.6697 57.7905 72.6535 57.8519 72.6512 57.9151C72.6322 58.1047 72.7058 58.2905 72.8401 58.3914L72.9346 58.4396C73.0034 58.4623 73.076 58.4623 73.1449 58.4396L73.2393 58.3914C73.298 58.3498 73.3469 58.2908 73.3812 58.2199L73.4477 58.1127C73.4762 58.0595 73.4924 57.9982 73.4947 57.9349C73.5138 57.7453 73.4401 57.5595 73.3059 57.4587L73.2114 57.4105C73.1425 57.3877 73.0699 57.3877 73.0011 57.4105L72.9066 57.4587C72.8479 57.5002 72.7991 57.5593 72.7647 57.6302V57.6302Z" fill="#373947"/>
<path d="M84.3647 63.1271V63.1271C84.7438 62.9797 85.1499 63.2315 85.2719 63.6896L85.6449 65.0903C85.7668 65.5484 85.5584 66.0392 85.1794 66.1866V66.1866C84.8003 66.334 84.3942 66.0821 84.2722 65.6241L83.8992 64.2233C83.7773 63.7653 83.9857 63.2744 84.3647 63.127L84.3647 63.1271Z" fill="#190000"/>
<path d="M84.2405 60.1128C82.1377 60.8079 81.9528 62.0259 83.2908 61.695C84.6287 61.364 85.6143 59.6586 84.2405 60.1128Z" fill="#190000"/>
<path d="M86.6483 64.015C89.6953 64.989 89.6174 68.5669 87.6617 68.4846Z" fill="#FF9763"/>
<ellipse opacity="0.27" rx="1.64942" ry="1.45846" transform="matrix(0.985361 -0.170483 0.117651 0.993055 82.8136 67.6204)" fill="#E84B23"/>
<path d="M84.0155 69.3716C85.304 70.6754 86.6503 69.9684 86.6503 69.9684" stroke="#993443" stroke-width="1.19891" stroke-linecap="round" stroke-linejoin="round"/>
<path d="M75.7017 67.6052C75.5506 67.3923 75.3433 67.2492 75.1148 67.1999C74.855 67.1399 74.586 67.184 74.3488 67.3254C73.8969 67.5963 73.713 68.273 73.8525 68.8382C73.9289 69.1647 74.107 69.4428 74.3494 69.614C74.4714 69.7002 74.6222 69.7012 74.745 69.6165C74.8677 69.5319 74.9438 69.3746 74.9446 69.2038C74.9453 69.033 74.8707 68.8747 74.7486 68.7886C74.7217 68.7704 74.6957 68.75 74.671 68.7277L74.751 68.8024C74.7063 68.76 74.6661 68.711 74.6314 68.6566L74.6933 68.7533C74.6566 68.6937 74.6259 68.6289 74.602 68.5604L74.6419 68.6746C74.617 68.6002 74.5995 68.5224 74.59 68.443L74.6041 68.5701C74.5949 68.4854 74.5949 68.3997 74.6042 68.315L74.5901 68.4421C74.5985 68.374 74.6135 68.3075 74.6347 68.2436L74.5948 68.3578C74.6154 68.2992 74.6417 68.2439 74.6732 68.1928L74.6113 68.2896C74.6445 68.2383 74.683 68.1922 74.7257 68.1524L74.6456 68.2272C74.6888 68.1887 74.7354 68.1563 74.7846 68.1305L74.6902 68.1787C74.7526 68.1477 74.8181 68.1265 74.8851 68.1157L74.7799 68.1328C74.8474 68.1231 74.9155 68.1235 74.9829 68.1338L74.8778 68.1167C74.9447 68.1282 75.0101 68.1499 75.0724 68.1815L74.9779 68.1333C75.027 68.1594 75.0735 68.1921 75.1165 68.2308L75.0365 68.1561C75.0756 68.1928 75.1111 68.2347 75.1423 68.2811C75.2166 68.3706 75.3172 68.421 75.422 68.4211C75.5268 68.4202 75.6271 68.37 75.7017 68.2811C75.7757 68.1913 75.8173 68.0698 75.8176 67.9431C75.8122 67.8177 75.7713 67.6984 75.7017 67.6051L75.7017 67.6052Z" fill="#373947"/>
<path d="M82.1852 93.5794L78.4223 87.8404C78.4223 87.8404 81.4849 86.7556 81.694 79.4541L84.706 82.5016L82.1852 93.5794Z" fill="#97CC64"/>
<path d="M66.8589 80.9529C68.4348 77.6551 71.5385 77.032 71.5385 77.032C71.5385 77.032 70.7451 85.071 78.4223 87.8404L74.3895 94.4795C74.3895 94.4795 67.3456 86.397 66.8589 80.9529Z" fill="#97CC64"/>
<path d="M50.0185 90.1709C44.161 95.5472 36.0989 124.031 41.4588 137.406L58.6974 128.387C58.6974 128.387 57.2651 132.854 57.2877 132.153C57.3946 128.84 59.0812 111.836 57.8941 104.099" fill="#516DDB"/>
<mask id="mask27_207_54004" style="mask-type:alpha" maskUnits="userSpaceOnUse" x="39" y="90" width="20" height="48">
<path fill-rule="evenodd" clip-rule="evenodd" d="M50.0185 90.1709C44.161 95.5472 36.0989 124.031 41.4588 137.406L58.6974 128.387C58.6974 128.387 57.2651 132.854 57.2877 132.153C57.3946 128.84 59.0812 111.836 57.8941 104.099" fill="white"/>
</mask>
<g mask="url(#mask27_207_54004)">
<g opacity="0.16">
<path fill-rule="evenodd" clip-rule="evenodd" d="M52.2335 149.816L49.8861 151.918L14.8261 105.83L17.1735 103.727L52.2335 149.816V149.816Z" stroke="#3152BA" stroke-width="0.814294" stroke-linecap="round" stroke-linejoin="round"/>
<path fill-rule="evenodd" clip-rule="evenodd" d="M56.7104 145.806L54.363 147.908L19.3029 101.82L21.6504 99.7174L56.7104 145.806V145.806Z" stroke="#3152BA" stroke-width="0.814294" stroke-linecap="round" stroke-linejoin="round"/>
<path fill-rule="evenodd" clip-rule="evenodd" d="M61.1873 141.796L58.8399 143.899L23.7799 97.8102L26.1273 95.7076L61.1873 141.796V141.796Z" stroke="#3152BA" stroke-width="0.814294" stroke-linecap="round" stroke-linejoin="round"/>
<path fill-rule="evenodd" clip-rule="evenodd" d="M65.6642 137.786L63.3167 139.889L28.2567 93.8004L30.6042 91.6979L65.6642 137.786V137.786Z" stroke="#3152BA" stroke-width="0.814294" stroke-linecap="round" stroke-linejoin="round"/>
<path fill-rule="evenodd" clip-rule="evenodd" d="M70.1411 133.777L67.7936 135.879L32.7337 89.7906L35.0811 87.6881L70.1411 133.777V133.777Z" stroke="#3152BA" stroke-width="0.814294" stroke-linecap="round" stroke-linejoin="round"/>
<path fill-rule="evenodd" clip-rule="evenodd" d="M74.618 129.767L72.2705 131.869L37.2105 85.7808L39.558 83.6782L74.618 129.767V129.767Z" stroke="#3152BA" stroke-width="0.814294" stroke-linecap="round" stroke-linejoin="round"/>
<path fill-rule="evenodd" clip-rule="evenodd" d="M79.0949 125.757L76.7474 127.86L41.6875 81.7712L44.0348 79.6687L79.0949 125.757V125.757Z" stroke="#3152BA" stroke-width="0.814294" stroke-linecap="round" stroke-linejoin="round"/>
<path fill-rule="evenodd" clip-rule="evenodd" d="M83.5718 121.747L81.2243 123.85L46.1643 77.7613L48.5118 75.6588L83.5718 121.747V121.747Z" stroke="#3152BA" stroke-width="0.814294" stroke-linecap="round" stroke-linejoin="round"/>
</g>
<g opacity="0.46">
<path fill-rule="evenodd" clip-rule="evenodd" d="M12.4824 114.099L10.0957 110.962L54.0523 71.5917L56.4391 74.7292L12.4824 114.099V114.099Z" stroke="#3152BA" stroke-width="1.73679" stroke-linecap="round" stroke-linejoin="round"/>
<path fill-rule="evenodd" clip-rule="evenodd" d="M17.0343 120.083L14.6476 116.945L58.6042 77.5753L60.991 80.7128L17.0343 120.083V120.083Z" stroke="#3152BA" stroke-width="1.73679" stroke-linecap="round" stroke-linejoin="round"/>
<path fill-rule="evenodd" clip-rule="evenodd" d="M21.5862 126.067L19.1994 122.929L63.156 83.5591L65.5428 86.6966L21.5862 126.067V126.067Z" stroke="#3152BA" stroke-width="1.73679" stroke-linecap="round" stroke-linejoin="round"/>
<path fill-rule="evenodd" clip-rule="evenodd" d="M26.138 132.05L23.7512 128.913L67.7079 89.5427L70.0946 92.6803L26.138 132.05V132.05Z" stroke="#3152BA" stroke-width="1.73679" stroke-linecap="round" stroke-linejoin="round"/>
<path fill-rule="evenodd" clip-rule="evenodd" d="M30.6898 138.034L28.3031 134.896L72.2597 95.5264L74.6465 98.664L30.6898 138.034V138.034Z" stroke="#3152BA" stroke-width="1.73679" stroke-linecap="round" stroke-linejoin="round"/>
<path fill-rule="evenodd" clip-rule="evenodd" d="M35.2417 144.018L32.855 140.88L76.8116 101.51L79.1984 104.648L35.2417 144.018V144.018Z" stroke="#3152BA" stroke-width="1.73679" stroke-linecap="round" stroke-linejoin="round"/>
<path fill-rule="evenodd" clip-rule="evenodd" d="M39.7936 150.001L37.4068 146.864L81.3634 107.494L83.7502 110.631L39.7936 150.001V150.001Z" stroke="#3152BA" stroke-width="1.73679" stroke-linecap="round" stroke-linejoin="round"/>
<path fill-rule="evenodd" clip-rule="evenodd" d="M44.3454 155.985L41.9586 152.848L85.9153 113.477L88.302 116.615L44.3454 155.985V155.985Z" stroke="#3152BA" stroke-width="1.73679" stroke-linecap="round" stroke-linejoin="round"/>
</g>
</g>
<path d="M74.232 125.77C74.232 125.77 85.2484 124.277 86.4161 124.461C87.5837 124.645 92.0522 123.479 92.3382 123.319C94.8622 121.913 91.7179 126.817 87.8375 126.731C87.8375 126.731 91.4283 129.464 91.4565 130.262C91.4847 131.059 91.0278 131.059 91.0278 131.059C91.0278 131.059 91.3324 131.918 90.7909 132.409C88.9294 131.223 86.4837 130.269 86.213 130.678C85.9423 131.087 80.7344 133.472 76.3685 132.409C72.0025 131.346 74.232 125.77 74.232 125.77Z" fill="#FF9763"/>
<mask id="mask28_207_54004" style="mask-type:alpha" maskUnits="userSpaceOnUse" x="73" y="123" width="21" height="10">
<path fill-rule="evenodd" clip-rule="evenodd" d="M74.232 125.77C74.232 125.77 85.2484 124.277 86.4161 124.461C87.5837 124.645 92.0522 123.479 92.3382 123.319C94.8622 121.913 91.7179 126.817 87.8375 126.731C87.8375 126.731 91.4283 129.464 91.4565 130.262C91.4847 131.059 91.0278 131.059 91.0278 131.059C91.0278 131.059 91.3324 131.918 90.7909 132.409C88.9294 131.223 86.4837 130.269 86.213 130.678C85.9423 131.087 80.7344 133.472 76.3685 132.409C72.0025 131.346 74.232 125.77 74.232 125.77Z" fill="white"/>
</mask>
<g mask="url(#mask28_207_54004)">
<path d="M76.7417 125.77C78.7216 124.543 80.0923 132.027 80.4476 134.42C80.803 136.813 75.7771 134.604 75.7771 134.604" fill="#E84B23"/>
</g>
<ellipse cx="78.5952" cy="95.5473" rx="0.883596" ry="1.06779" fill="#FF9763"/>
<ellipse cx="78.5952" cy="103.993" rx="0.883596" ry="1.06779" fill="#FF9763"/>
<rect x="64.0084" y="134.879" width="28.5791" height="2.50547" fill="#F08059"/>
<path d="M125.934 137.386H88.2436L94.9079 102.21C95.0637 101.388 95.6693 100.805 96.3676 100.805H131.16C131.573 100.805 131.965 101.032 132.222 101.423C132.48 101.814 132.577 102.326 132.484 102.813L125.934 137.386Z" fill="#E84B23"/>
<path d="M127.025 137.386H89.3346L95.9988 102.21C96.1546 101.388 96.7602 100.805 97.4585 100.805H132.251C132.664 100.805 133.056 101.032 133.313 101.423C133.571 101.814 133.668 102.326 133.575 102.813L127.025 137.386Z" fill="#F08059"/>
<mask id="mask29_207_54004" style="mask-type:alpha" maskUnits="userSpaceOnUse" x="89" y="100" width="45" height="38">
<path fill-rule="evenodd" clip-rule="evenodd" d="M127.025 137.386H89.3346L95.9988 102.21C96.1546 101.388 96.7602 100.805 97.4585 100.805H132.251C132.664 100.805 133.056 101.032 133.313 101.423C133.571 101.814 133.668 102.326 133.575 102.813L127.025 137.386Z" fill="white"/>
</mask>
<g mask="url(#mask29_207_54004)">
<path d="M91.4577 139.515C93.6874 132.337 123.63 142.09 130.057 121.386C136.484 100.681 135.418 138.411 135.418 138.411L110.381 143.932L88.2436 139.883" fill="#D35D3D"/>
<path d="M119.783 150.878C119.967 150.904 120.154 150.916 120.34 150.913C126.92 141.571 114.4 139.101 123.049 133.824C131.709 128.541 121.712 121.104 117.327 132.259C113.974 140.787 125.342 143.218 119.214 150.068L119.783 150.878Z" fill="#F3CD1E"/>
<mask id="mask30_207_54004" style="mask-type:alpha" maskUnits="userSpaceOnUse" x="116" y="126" width="11" height="25">
<path fill-rule="evenodd" clip-rule="evenodd" d="M119.783 150.878C119.967 150.904 120.154 150.916 120.34 150.913C126.92 141.571 114.4 139.101 123.049 133.824C131.709 128.541 121.712 121.104 117.327 132.259C113.974 140.787 125.342 143.218 119.214 150.068L119.783 150.878Z" fill="white"/>
</mask>
<g mask="url(#mask30_207_54004)">
<path d="M115.853 126.91C117.941 124.954 119.021 126.216 121.48 125.139C123.938 124.062 126.336 127.035 123.902 129.607C121.468 132.179 120.644 129.395 118.573 131.712C116.502 134.029 112.803 129.766 115.853 126.91Z" fill="#F19C12"/>
<path d="M119.762 139.953C121.851 137.997 122.93 139.259 125.389 138.182C127.848 137.105 130.245 140.078 127.812 142.65C125.378 145.222 124.553 142.438 122.482 144.755C120.411 147.072 116.713 142.809 119.762 139.953Z" fill="#F19C12"/>
</g>
<path d="M104.21 150.96H97.0545C97.0545 150.96 96.2496 148.042 100.562 149.918C99.3686 128.094 113.906 140.886 113.9 150.96H104.21Z" fill="#F3CD1E"/>
<path d="M103.99 150.96H120.289C120.289 150.96 120.086 136.953 103.744 130.902C103.744 130.902 103.557 130.432 105.318 128.167C105.318 128.167 104.421 127.375 103.084 128.095C103.084 128.095 102.235 126.525 101.113 126.525C101.134 126.01 101.104 125.494 101.023 124.988C101.023 124.988 91.4545 129.074 97.5648 135.119L103.99 150.96Z" fill="#F3CD1E"/>
<mask id="mask31_207_54004" style="mask-type:alpha" maskUnits="userSpaceOnUse" x="95" y="124" width="26" height="27">
<path fill-rule="evenodd" clip-rule="evenodd" d="M103.99 150.96H120.289C120.289 150.96 120.086 136.953 103.744 130.902C103.744 130.902 103.557 130.432 105.318 128.167C105.318 128.167 104.421 127.375 103.084 128.095C103.084 128.095 102.235 126.525 101.113 126.525C101.134 126.01 101.104 125.494 101.023 124.988C101.023 124.988 91.4545 129.074 97.5648 135.119L103.99 150.96Z" fill="white"/>
</mask>
<g mask="url(#mask31_207_54004)">
<path d="M94.3471 132.62L97.5649 135.119C97.5649 135.119 100.134 135.695 101.596 133.558C101.596 133.558 99.3515 139.071 96.3763 138.139" fill="#F3CD1E"/>
<mask id="mask32_207_54004" style="mask-type:alpha" maskUnits="userSpaceOnUse" x="94" y="132" width="8" height="7">
<path fill-rule="evenodd" clip-rule="evenodd" d="M94.3471 132.62L97.5649 135.119C97.5649 135.119 100.134 135.695 101.596 133.558C101.596 133.558 99.3515 139.071 96.3763 138.139" fill="white"/>
</mask>
<g mask="url(#mask32_207_54004)">
<ellipse cx="101.292" cy="133.175" rx="0.0883273" ry="0.10674" fill="#2B253F"/>
<ellipse cx="100.554" cy="133.175" rx="0.0883273" ry="0.10674" fill="#2B253F"/>
<ellipse cx="99.8164" cy="133.175" rx="0.0883273" ry="0.10674" fill="#2B253F"/>
<ellipse cx="99.0784" cy="133.175" rx="0.0883273" ry="0.10674" fill="#2B253F"/>
<ellipse cx="97.6024" cy="133.175" rx="0.0883273" ry="0.10674" fill="#2B253F"/>
<ellipse cx="98.3404" cy="133.175" rx="0.0883273" ry="0.10674" fill="#2B253F"/>
<ellipse cx="96.8644" cy="133.175" rx="0.0883273" ry="0.10674" fill="#2B253F"/>
<ellipse cx="96.1265" cy="133.175" rx="0.0883273" ry="0.10674" fill="#2B253F"/>
<ellipse cx="101.292" cy="134.053" rx="0.0883273" ry="0.10674" fill="#2B253F"/>
<ellipse cx="100.554" cy="134.053" rx="0.0883273" ry="0.10674" fill="#2B253F"/>
<ellipse cx="99.8164" cy="134.053" rx="0.0883273" ry="0.10674" fill="#2B253F"/>
<ellipse cx="99.0784" cy="134.053" rx="0.0883273" ry="0.10674" fill="#2B253F"/>
<ellipse cx="97.6024" cy="134.053" rx="0.0883273" ry="0.10674" fill="#2B253F"/>
<ellipse cx="98.3404" cy="134.053" rx="0.0883273" ry="0.10674" fill="#2B253F"/>
<ellipse cx="96.8644" cy="134.053" rx="0.0883273" ry="0.10674" fill="#2B253F"/>
<ellipse cx="96.1265" cy="134.053" rx="0.0883273" ry="0.10674" fill="#2B253F"/>
<ellipse cx="101.292" cy="134.931" rx="0.0883273" ry="0.10674" fill="#2B253F"/>
<ellipse cx="100.554" cy="134.931" rx="0.0883273" ry="0.10674" fill="#2B253F"/>
<ellipse cx="99.8164" cy="134.931" rx="0.0883273" ry="0.10674" fill="#2B253F"/>
<ellipse cx="99.0784" cy="134.931" rx="0.0883273" ry="0.10674" fill="#2B253F"/>
<ellipse cx="97.6024" cy="134.931" rx="0.0883273" ry="0.10674" fill="#2B253F"/>
<ellipse cx="98.3404" cy="134.931" rx="0.0883273" ry="0.10674" fill="#2B253F"/>
<ellipse cx="96.8644" cy="134.931" rx="0.0883273" ry="0.10674" fill="#2B253F"/>
<ellipse cx="96.1265" cy="134.931" rx="0.0883273" ry="0.10674" fill="#2B253F"/>
<ellipse cx="101.292" cy="135.809" rx="0.0883273" ry="0.10674" fill="#2B253F"/>
<ellipse cx="100.554" cy="135.809" rx="0.0883273" ry="0.10674" fill="#2B253F"/>
<ellipse cx="99.8164" cy="135.809" rx="0.0883273" ry="0.10674" fill="#2B253F"/>
<ellipse cx="99.0784" cy="135.809" rx="0.0883273" ry="0.10674" fill="#2B253F"/>
<ellipse cx="97.6024" cy="135.809" rx="0.0883273" ry="0.10674" fill="#2B253F"/>
<ellipse cx="98.3404" cy="135.809" rx="0.0883273" ry="0.10674" fill="#2B253F"/>
<ellipse cx="96.8644" cy="135.809" rx="0.0883273" ry="0.10674" fill="#2B253F"/>
<ellipse cx="96.1265" cy="135.809" rx="0.0883273" ry="0.10674" fill="#2B253F"/>
<ellipse cx="101.292" cy="136.687" rx="0.0883273" ry="0.10674" fill="#2B253F"/>
<ellipse cx="100.554" cy="136.687" rx="0.0883273" ry="0.10674" fill="#2B253F"/>
<ellipse cx="99.8164" cy="136.687" rx="0.0883273" ry="0.10674" fill="#2B253F"/>
<ellipse cx="99.0784" cy="136.687" rx="0.0883273" ry="0.10674" fill="#2B253F"/>
<ellipse cx="97.6024" cy="136.687" rx="0.0883273" ry="0.10674" fill="#2B253F"/>
<ellipse cx="98.3404" cy="136.687" rx="0.0883273" ry="0.10674" fill="#2B253F"/>
<ellipse cx="96.8644" cy="136.687" rx="0.0883273" ry="0.10674" fill="#2B253F"/>
<ellipse cx="96.1265" cy="136.687" rx="0.0883273" ry="0.10674" fill="#2B253F"/>
</g>
<path d="M104.248 131.4C106.337 129.444 107.416 130.706 109.875 129.629C112.334 128.552 114.731 131.525 112.297 134.097C109.864 136.669 109.039 133.885 106.968 136.202C104.897 138.519 101.199 134.256 104.248 131.4Z" fill="#F19C12"/>
<mask id="mask33_207_54004" style="mask-type:alpha" maskUnits="userSpaceOnUse" x="99" y="138" width="13" height="14">
<path fill-rule="evenodd" clip-rule="evenodd" d="M99.9696 151.108C99.9696 151.108 100.857 147.414 102.797 148.801C102.797 148.801 102.432 141.332 106.805 138.488C111.178 135.643 111.523 149.99 111.523 149.99L110.603 151.38" fill="white"/>
</mask>
<g mask="url(#mask33_207_54004)">
</g>
</g>
<path d="M117.616 150.96H100.77C100.77 150.96 99.9652 148.042 104.277 149.918C103.587 137.288 108.165 136.252 112.144 139.573" fill="#F3CD1E"/>
<path d="M99.4269 128.587C99.4269 128.587 98.0056 130.358 97.3132 128.418C97.3132 128.418 98.156 127.024 99.4269 128.587Z" fill="#FBFBFC"/>
<mask id="mask34_207_54004" style="mask-type:alpha" maskUnits="userSpaceOnUse" x="97" y="127" width="3" height="3">
<path fill-rule="evenodd" clip-rule="evenodd" d="M99.4269 128.587C99.4269 128.587 98.0056 130.358 97.3132 128.418C97.3132 128.418 98.156 127.024 99.4269 128.587Z" fill="white"/>
</mask>
<g mask="url(#mask34_207_54004)">
<ellipse rx="1.73748" ry="0.818203" transform="matrix(0.995779 -0.0917842 0.0629909 0.998014 99.6911 128.958)" fill="#060F24"/>
</g>
<path d="M96.4405 128.167C96.3938 128.222 96.3706 128.3 96.3776 128.379C96.3846 128.457 96.4209 128.527 96.4762 128.569C96.6166 128.663 96.7878 128.659 96.9248 128.558C97.0093 128.473 96.9349 128.352 96.8012 128.244C96.6674 128.136 96.5249 128.083 96.4405 128.167Z" fill="#060F24"/>
<path d="M99.9696 131.311C99.7538 131.051 99.5185 130.816 99.2668 130.609C99.021 130.403 98.7661 130.213 98.5033 130.041C98.2408 129.867 97.9706 129.712 97.6939 129.575C97.413 129.432 97.1215 129.321 96.8234 129.245C97.0389 129.505 97.2741 129.741 97.526 129.948C97.7717 130.154 98.0267 130.343 98.2898 130.515C98.5525 130.688 98.8228 130.843 99.0994 130.981C99.3804 131.123 99.6717 131.234 99.9696 131.311Z" fill="#191A27"/>
<path d="M98.8366 131.891C98.7214 131.608 98.5812 131.341 98.4187 131.094C98.2619 130.852 98.0925 130.622 97.9115 130.406C97.731 130.189 97.5391 129.987 97.3369 129.801C97.1308 129.607 96.9079 129.441 96.6721 129.305C96.7869 129.588 96.9269 129.856 97.0896 130.103C97.2463 130.345 97.4159 130.575 97.5972 130.79C97.7781 131.007 97.9701 131.209 98.1723 131.395C98.3784 131.589 98.6011 131.755 98.8366 131.891Z" fill="#191A27"/>
<path d="M97.8234 132.395C97.79 132.104 97.7291 131.819 97.6417 131.546C97.5589 131.279 97.4609 131.02 97.3485 130.77C97.2367 130.519 97.1106 130.278 96.9709 130.049C96.8289 129.811 96.6644 129.594 96.4807 129.402C96.5135 129.693 96.5742 129.978 96.6618 130.252C96.7446 130.518 96.8427 130.777 96.9555 131.027C97.0677 131.278 97.1941 131.518 97.3337 131.747C97.4758 131.985 97.6401 132.202 97.8234 132.395V132.395Z" fill="#191A27"/>
<path d="M120.816 119.794C120.912 119.368 122.145 116.93 122.411 116.658C122.677 116.385 123.21 119.283 123.21 119.283L120.816 119.794Z" fill="#4274B9"/>
<path d="M107.058 146.479C106.537 145.391 106.182 144.091 106.042 142.544C104.727 128.01 124.403 130.355 120.507 124.021C119.805 122.896 117.483 121.516 120.912 119.368C124.342 117.22 124.442 116.146 124.672 116.351C124.903 116.555 125.211 119.163 125.211 119.163C125.211 119.163 133.675 135.147 127.583 149.794C127.583 149.794 111.435 155.609 107.058 146.479" fill="#4274B9"/>
<mask id="mask35_207_54004" style="mask-type:alpha" maskUnits="userSpaceOnUse" x="105" y="116" width="25" height="36">
<path fill-rule="evenodd" clip-rule="evenodd" d="M107.058 146.479C106.537 145.391 106.182 144.091 106.042 142.544C104.727 128.01 124.403 130.355 120.507 124.021C119.805 122.896 117.483 121.516 120.912 119.368C124.342 117.22 124.442 116.146 124.672 116.351C124.903 116.555 125.211 119.163 125.211 119.163C125.211 119.163 133.675 135.147 127.583 149.794C127.583 149.794 111.435 155.609 107.058 146.479" fill="white"/>
</mask>
<g mask="url(#mask35_207_54004)">
<path d="M123.711 151.95C123.711 151.95 130.046 150.263 125.655 151.619C121.264 152.975 123.738 151.103 123.738 151.103C123.738 151.103 133.844 139.601 128.894 134.539C122.81 128.318 114.119 134.704 114.119 134.704L111.526 153.157L119.42 154.078" fill="#4274B9"/>
<mask id="mask36_207_54004" style="mask-type:alpha" maskUnits="userSpaceOnUse" x="111" y="131" width="20" height="24">
<path fill-rule="evenodd" clip-rule="evenodd" d="M123.711 151.95C123.711 151.95 130.046 150.263 125.655 151.619C121.264 152.975 123.738 151.103 123.738 151.103C123.738 151.103 133.844 139.601 128.894 134.539C122.81 128.318 114.119 134.704 114.119 134.704L111.526 153.157L119.42 154.078" fill="white"/>
</mask>
<g mask="url(#mask36_207_54004)">
<ellipse cx="111.705" cy="132.965" rx="0.0994738" ry="0.12021" fill="#2B253F"/>
<ellipse cx="112.536" cy="132.965" rx="0.0994738" ry="0.12021" fill="#2B253F"/>
<ellipse cx="113.367" cy="132.965" rx="0.0994738" ry="0.12021" fill="#2B253F"/>
<ellipse cx="114.198" cy="132.965" rx="0.0994738" ry="0.12021" fill="#2B253F"/>
<ellipse cx="115.029" cy="132.965" rx="0.0994738" ry="0.12021" fill="#2B253F"/>
<ellipse cx="115.86" cy="132.965" rx="0.0994738" ry="0.12021" fill="#2B253F"/>
<ellipse cx="116.691" cy="132.965" rx="0.0994738" ry="0.12021" fill="#2B253F"/>
<ellipse cx="117.523" cy="132.965" rx="0.0994738" ry="0.12021" fill="#2B253F"/>
<ellipse cx="118.354" cy="132.965" rx="0.0994738" ry="0.12021" fill="#2B253F"/>
<ellipse cx="119.185" cy="132.965" rx="0.0994738" ry="0.12021" fill="#2B253F"/>
<ellipse cx="120.847" cy="132.965" rx="0.0994738" ry="0.12021" fill="#2B253F"/>
<ellipse cx="120.016" cy="132.965" rx="0.0994738" ry="0.12021" fill="#2B253F"/>
<ellipse cx="121.678" cy="132.965" rx="0.0994738" ry="0.12021" fill="#2B253F"/>
<ellipse cx="122.509" cy="132.965" rx="0.0994738" ry="0.12021" fill="#2B253F"/>
<ellipse cx="123.34" cy="132.965" rx="0.0994738" ry="0.12021" fill="#2B253F"/>
<ellipse cx="124.171" cy="132.965" rx="0.0994738" ry="0.12021" fill="#2B253F"/>
<ellipse cx="125.002" cy="132.965" rx="0.0994738" ry="0.12021" fill="#2B253F"/>
<ellipse cx="125.833" cy="132.965" rx="0.0994738" ry="0.12021" fill="#2B253F"/>
<ellipse cx="126.665" cy="132.965" rx="0.0994738" ry="0.12021" fill="#2B253F"/>
<ellipse cx="127.496" cy="132.965" rx="0.0994738" ry="0.12021" fill="#2B253F"/>
<ellipse cx="128.327" cy="132.965" rx="0.0994738" ry="0.12021" fill="#2B253F"/>
<ellipse cx="129.158" cy="132.965" rx="0.0994738" ry="0.12021" fill="#2B253F"/>
<ellipse cx="111.705" cy="134.943" rx="0.0994738" ry="0.12021" fill="#2B253F"/>
<ellipse cx="112.536" cy="134.943" rx="0.0994738" ry="0.12021" fill="#2B253F"/>
<ellipse cx="113.367" cy="134.943" rx="0.0994738" ry="0.12021" fill="#2B253F"/>
<ellipse cx="114.198" cy="134.943" rx="0.0994738" ry="0.12021" fill="#2B253F"/>
<ellipse cx="115.029" cy="134.943" rx="0.0994738" ry="0.12021" fill="#2B253F"/>
<ellipse cx="115.86" cy="134.943" rx="0.0994738" ry="0.12021" fill="#2B253F"/>
<ellipse cx="116.691" cy="134.943" rx="0.0994738" ry="0.12021" fill="#2B253F"/>
<ellipse cx="117.523" cy="134.943" rx="0.0994738" ry="0.12021" fill="#2B253F"/>
<ellipse cx="118.354" cy="134.943" rx="0.0994738" ry="0.12021" fill="#2B253F"/>
<ellipse cx="119.185" cy="134.943" rx="0.0994738" ry="0.12021" fill="#2B253F"/>
<ellipse cx="120.847" cy="134.943" rx="0.0994738" ry="0.12021" fill="#2B253F"/>
<ellipse cx="120.016" cy="134.943" rx="0.0994738" ry="0.12021" fill="#2B253F"/>
<ellipse cx="121.678" cy="134.943" rx="0.0994738" ry="0.12021" fill="#2B253F"/>
<ellipse cx="122.509" cy="134.943" rx="0.0994738" ry="0.12021" fill="#2B253F"/>
<ellipse cx="123.34" cy="134.943" rx="0.0994738" ry="0.12021" fill="#2B253F"/>
<ellipse cx="124.171" cy="134.943" rx="0.0994738" ry="0.12021" fill="#2B253F"/>
<ellipse cx="125.002" cy="134.943" rx="0.0994738" ry="0.12021" fill="#2B253F"/>
<ellipse cx="125.833" cy="134.943" rx="0.0994738" ry="0.12021" fill="#2B253F"/>
<ellipse cx="126.665" cy="134.943" rx="0.0994738" ry="0.12021" fill="#2B253F"/>
<ellipse cx="127.496" cy="134.943" rx="0.0994738" ry="0.12021" fill="#2B253F"/>
<ellipse cx="128.327" cy="134.943" rx="0.0994738" ry="0.12021" fill="#2B253F"/>
<ellipse cx="129.158" cy="134.943" rx="0.0994738" ry="0.12021" fill="#2B253F"/>
<ellipse cx="111.705" cy="136.92" rx="0.0994738" ry="0.12021" fill="#2B253F"/>
<ellipse cx="112.536" cy="136.92" rx="0.0994738" ry="0.12021" fill="#2B253F"/>
<ellipse cx="113.367" cy="136.92" rx="0.0994738" ry="0.12021" fill="#2B253F"/>
<ellipse cx="114.198" cy="136.92" rx="0.0994738" ry="0.12021" fill="#2B253F"/>
<ellipse cx="115.029" cy="136.92" rx="0.0994738" ry="0.12021" fill="#2B253F"/>
<ellipse cx="115.86" cy="136.92" rx="0.0994738" ry="0.12021" fill="#2B253F"/>
<ellipse cx="116.691" cy="136.92" rx="0.0994738" ry="0.12021" fill="#2B253F"/>
<ellipse cx="117.523" cy="136.92" rx="0.0994738" ry="0.12021" fill="#2B253F"/>
<ellipse cx="118.354" cy="136.92" rx="0.0994738" ry="0.12021" fill="#2B253F"/>
<ellipse cx="119.185" cy="136.92" rx="0.0994738" ry="0.12021" fill="#2B253F"/>
<ellipse cx="120.847" cy="136.92" rx="0.0994738" ry="0.12021" fill="#2B253F"/>
<ellipse cx="120.016" cy="136.92" rx="0.0994738" ry="0.12021" fill="#2B253F"/>
<ellipse cx="121.678" cy="136.92" rx="0.0994738" ry="0.12021" fill="#2B253F"/>
<ellipse cx="122.509" cy="136.92" rx="0.0994738" ry="0.12021" fill="#2B253F"/>
<ellipse cx="123.34" cy="136.92" rx="0.0994738" ry="0.12021" fill="#2B253F"/>
<ellipse cx="124.171" cy="136.92" rx="0.0994738" ry="0.12021" fill="#2B253F"/>
<ellipse cx="125.002" cy="136.92" rx="0.0994738" ry="0.12021" fill="#2B253F"/>
<ellipse cx="125.833" cy="136.92" rx="0.0994738" ry="0.12021" fill="#2B253F"/>
<ellipse cx="126.665" cy="136.92" rx="0.0994738" ry="0.12021" fill="#2B253F"/>
<ellipse cx="127.496" cy="136.92" rx="0.0994738" ry="0.12021" fill="#2B253F"/>
<ellipse cx="128.327" cy="136.92" rx="0.0994738" ry="0.12021" fill="#2B253F"/>
<ellipse cx="129.158" cy="136.92" rx="0.0994738" ry="0.12021" fill="#2B253F"/>
<ellipse cx="111.705" cy="131.977" rx="0.0994738" ry="0.12021" fill="#2B253F"/>
<ellipse cx="112.536" cy="131.977" rx="0.0994738" ry="0.12021" fill="#2B253F"/>
<ellipse cx="113.367" cy="131.977" rx="0.0994738" ry="0.12021" fill="#2B253F"/>
<ellipse cx="114.198" cy="131.977" rx="0.0994738" ry="0.12021" fill="#2B253F"/>
<ellipse cx="115.029" cy="131.977" rx="0.0994738" ry="0.12021" fill="#2B253F"/>
<ellipse cx="115.86" cy="131.977" rx="0.0994738" ry="0.12021" fill="#2B253F"/>
<ellipse cx="116.691" cy="131.977" rx="0.0994738" ry="0.12021" fill="#2B253F"/>
<ellipse cx="117.523" cy="131.977" rx="0.0994738" ry="0.12021" fill="#2B253F"/>
<ellipse cx="118.354" cy="131.977" rx="0.0994738" ry="0.12021" fill="#2B253F"/>
<ellipse cx="119.185" cy="131.977" rx="0.0994738" ry="0.12021" fill="#2B253F"/>
<ellipse cx="120.847" cy="131.977" rx="0.0994738" ry="0.12021" fill="#2B253F"/>
<ellipse cx="120.016" cy="131.977" rx="0.0994738" ry="0.12021" fill="#2B253F"/>
<ellipse cx="121.678" cy="131.977" rx="0.0994738" ry="0.12021" fill="#2B253F"/>
<ellipse cx="122.509" cy="131.977" rx="0.0994738" ry="0.12021" fill="#2B253F"/>
<ellipse cx="123.34" cy="131.977" rx="0.0994738" ry="0.12021" fill="#2B253F"/>
<ellipse cx="124.171" cy="131.977" rx="0.0994738" ry="0.12021" fill="#2B253F"/>
<ellipse cx="125.002" cy="131.977" rx="0.0994738" ry="0.12021" fill="#2B253F"/>
<ellipse cx="125.833" cy="131.977" rx="0.0994738" ry="0.12021" fill="#2B253F"/>
<ellipse cx="126.665" cy="131.977" rx="0.0994738" ry="0.12021" fill="#2B253F"/>
<ellipse cx="127.496" cy="131.977" rx="0.0994738" ry="0.12021" fill="#2B253F"/>
<ellipse cx="128.327" cy="131.977" rx="0.0994738" ry="0.12021" fill="#2B253F"/>
<ellipse cx="129.158" cy="131.977" rx="0.0994738" ry="0.12021" fill="#2B253F"/>
<ellipse cx="111.705" cy="133.954" rx="0.0994738" ry="0.12021" fill="#2B253F"/>
<ellipse cx="112.536" cy="133.954" rx="0.0994738" ry="0.12021" fill="#2B253F"/>
<ellipse cx="113.367" cy="133.954" rx="0.0994738" ry="0.12021" fill="#2B253F"/>
<ellipse cx="114.198" cy="133.954" rx="0.0994738" ry="0.12021" fill="#2B253F"/>
<ellipse cx="115.029" cy="133.954" rx="0.0994738" ry="0.12021" fill="#2B253F"/>
<ellipse cx="115.86" cy="133.954" rx="0.0994738" ry="0.12021" fill="#2B253F"/>
<ellipse cx="116.691" cy="133.954" rx="0.0994738" ry="0.12021" fill="#2B253F"/>
<ellipse cx="117.523" cy="133.954" rx="0.0994738" ry="0.12021" fill="#2B253F"/>
<ellipse cx="118.354" cy="133.954" rx="0.0994738" ry="0.12021" fill="#2B253F"/>
<ellipse cx="119.185" cy="133.954" rx="0.0994738" ry="0.12021" fill="#2B253F"/>
<ellipse cx="120.847" cy="133.954" rx="0.0994738" ry="0.12021" fill="#2B253F"/>
<ellipse cx="120.016" cy="133.954" rx="0.0994738" ry="0.12021" fill="#2B253F"/>
<ellipse cx="121.678" cy="133.954" rx="0.0994738" ry="0.12021" fill="#2B253F"/>
<ellipse cx="122.509" cy="133.954" rx="0.0994738" ry="0.12021" fill="#2B253F"/>
<ellipse cx="123.34" cy="133.954" rx="0.0994738" ry="0.12021" fill="#2B253F"/>
<ellipse cx="124.171" cy="133.954" rx="0.0994738" ry="0.12021" fill="#2B253F"/>
<ellipse cx="125.002" cy="133.954" rx="0.0994738" ry="0.12021" fill="#2B253F"/>
<ellipse cx="125.833" cy="133.954" rx="0.0994738" ry="0.12021" fill="#2B253F"/>
<ellipse cx="126.665" cy="133.954" rx="0.0994738" ry="0.12021" fill="#2B253F"/>
<ellipse cx="127.496" cy="133.954" rx="0.0994738" ry="0.12021" fill="#2B253F"/>
<ellipse cx="128.327" cy="133.954" rx="0.0994738" ry="0.12021" fill="#2B253F"/>
<ellipse cx="129.158" cy="133.954" rx="0.0994738" ry="0.12021" fill="#2B253F"/>
<ellipse cx="111.705" cy="135.931" rx="0.0994738" ry="0.12021" fill="#2B253F"/>
<ellipse cx="112.536" cy="135.931" rx="0.0994738" ry="0.12021" fill="#2B253F"/>
<ellipse cx="113.367" cy="135.931" rx="0.0994738" ry="0.12021" fill="#2B253F"/>
<ellipse cx="114.198" cy="135.931" rx="0.0994738" ry="0.12021" fill="#2B253F"/>
<ellipse cx="115.029" cy="135.931" rx="0.0994738" ry="0.12021" fill="#2B253F"/>
<ellipse cx="115.86" cy="135.931" rx="0.0994738" ry="0.12021" fill="#2B253F"/>
<ellipse cx="116.691" cy="135.931" rx="0.0994738" ry="0.12021" fill="#2B253F"/>
<ellipse cx="117.523" cy="135.931" rx="0.0994738" ry="0.12021" fill="#2B253F"/>
<ellipse cx="118.354" cy="135.931" rx="0.0994738" ry="0.12021" fill="#2B253F"/>
<ellipse cx="119.185" cy="135.931" rx="0.0994738" ry="0.12021" fill="#2B253F"/>
<ellipse cx="120.847" cy="135.931" rx="0.0994738" ry="0.12021" fill="#2B253F"/>
<ellipse cx="120.016" cy="135.931" rx="0.0994738" ry="0.12021" fill="#2B253F"/>
<ellipse cx="121.678" cy="135.931" rx="0.0994738" ry="0.12021" fill="#2B253F"/>
<ellipse cx="122.509" cy="135.931" rx="0.0994738" ry="0.12021" fill="#2B253F"/>
<ellipse cx="123.34" cy="135.931" rx="0.0994738" ry="0.12021" fill="#2B253F"/>
<ellipse cx="124.171" cy="135.931" rx="0.0994738" ry="0.12021" fill="#2B253F"/>
<ellipse cx="125.002" cy="135.931" rx="0.0994738" ry="0.12021" fill="#2B253F"/>
<ellipse cx="125.833" cy="135.931" rx="0.0994738" ry="0.12021" fill="#2B253F"/>
<ellipse cx="126.665" cy="135.931" rx="0.0994738" ry="0.12021" fill="#2B253F"/>
<ellipse cx="127.496" cy="135.931" rx="0.0994738" ry="0.12021" fill="#2B253F"/>
<ellipse cx="128.327" cy="135.931" rx="0.0994738" ry="0.12021" fill="#2B253F"/>
<ellipse cx="129.158" cy="135.931" rx="0.0994738" ry="0.12021" fill="#2B253F"/>
</g>
<ellipse rx="2.20786" ry="2.5047" transform="matrix(0.641548 -0.767083 0.633499 0.773744 128.897 130.267)" fill="#FBFBFC"/>
<ellipse rx="3.60511" ry="4.08981" transform="matrix(0.641548 -0.767083 0.633499 0.773744 117.935 127.336)" fill="#FBFBFC"/>
</g>
<path d="M107.275 143.571C107.056 148.789 113.09 153.182 131.82 150.659C131.82 150.659 132.975 147.191 126.052 149.441C134.562 134.435 121.249 131.465 113.489 134.968" fill="#4274B9"/>
<ellipse opacity="0.21" rx="4.22235" ry="4.79005" transform="matrix(0.641548 -0.767083 0.633499 0.773744 123.469 136.298)" fill=""/>
<path d="M128.327 134.823C133.405 141.91 113.074 149.801 110.066 148.14C107.058 146.479 113.367 154.595 113.367 154.595L123.34 154.836L129.387 140.787L129.158 135.063" fill="#4274B9"/>
<path d="M109.268 147.205C114.377 152.184 125.242 147.29 129.387 140.787C134.218 133.207 142.704 149.66 118.783 151.842C102.218 153.353 106.338 138.221 106.338 138.221" fill="#4274B9"/>
<path d="M120.608 121.455C122.995 122.805 123.502 120.609 123.502 120.609C123.502 120.609 121.792 119.169 120.608 121.455Z" fill="#FBFBFC"/>
<mask id="mask37_207_54004" style="mask-type:alpha" maskUnits="userSpaceOnUse" x="120" y="120" width="4" height="2">
<path fill-rule="evenodd" clip-rule="evenodd" d="M120.608 121.455C122.995 122.805 123.502 120.609 123.502 120.609C123.502 120.609 121.792 119.169 120.608 121.455Z" fill="white"/>
</mask>
<g mask="url(#mask37_207_54004)">
<ellipse rx="0.960526" ry="1.28019" transform="matrix(0.866184 -0.499726 0.367423 0.930054 122.92 120.898)" fill="#0E1A39"/>
</g>
<path d="M124.128 122.533C123.865 122.626 123.597 122.695 123.326 122.738C123.056 122.785 122.783 122.816 122.509 122.835C122.235 122.854 121.959 122.859 121.681 122.85C121.399 122.842 121.117 122.811 120.838 122.754C121.101 122.661 121.369 122.592 121.64 122.549C121.91 122.502 122.183 122.47 122.457 122.452C122.731 122.434 123.007 122.429 123.285 122.438C123.567 122.446 123.849 122.477 124.128 122.533Z" fill="#191A27"/>
<path d="M123.898 123.238C123.628 123.278 123.355 123.295 123.083 123.287C122.818 123.281 122.556 123.261 122.297 123.228C122.039 123.195 121.783 123.149 121.532 123.089C121.281 123.031 121.035 122.948 120.795 122.841C121.065 122.8 121.338 122.783 121.61 122.791C121.876 122.797 122.138 122.816 122.396 122.85C122.654 122.884 122.909 122.93 123.161 122.99C123.412 123.048 123.658 123.131 123.898 123.238V123.238Z" fill="#191A27"/>
<path d="M123.681 123.861C123.407 123.856 123.134 123.827 122.863 123.774C122.603 123.724 122.352 123.661 122.108 123.586C121.869 123.513 121.632 123.426 121.4 123.323C121.176 123.228 120.96 123.106 120.756 122.959C121.03 122.964 121.304 122.993 121.574 123.046C121.834 123.096 122.086 123.158 122.329 123.234C122.568 123.308 122.804 123.396 123.036 123.498C123.26 123.593 123.476 123.715 123.681 123.861Z" fill="#191A27"/>
</g>
<path d="M54.6609 124.629C65.0774 123.452 77.4811 125.197 77.4811 125.197C79.0041 129.614 78.6995 135.995 78.6995 135.995C78.6995 135.995 44.888 145.964 41.4588 137.406C41.0982 136.506 40.5648 134.779 40.438 133.994" fill="#516DDB"/>
<mask id="mask38_207_54004" style="mask-type:alpha" maskUnits="userSpaceOnUse" x="40" y="124" width="39" height="17">
<path fill-rule="evenodd" clip-rule="evenodd" d="M54.6609 124.629C65.0774 123.452 77.4811 125.197 77.4811 125.197C79.0041 129.614 78.6995 135.995 78.6995 135.995C78.6995 135.995 44.888 145.964 41.4588 137.406C41.0982 136.506 40.5648 134.779 40.438 133.994" fill="white"/>
</mask>
<g mask="url(#mask38_207_54004)">
<g opacity="0.16">
<path fill-rule="evenodd" clip-rule="evenodd" d="M62.6158 168.576L60.2684 170.678L25.2084 124.59L27.5558 122.487L62.6158 168.576V168.576Z" stroke="#3152BA" stroke-width="0.814294" stroke-linecap="round" stroke-linejoin="round"/>
<path fill-rule="evenodd" clip-rule="evenodd" d="M67.0927 164.566L64.7453 166.668L29.6852 120.58L32.0327 118.477L67.0927 164.566V164.566Z" stroke="#3152BA" stroke-width="0.814294" stroke-linecap="round" stroke-linejoin="round"/>
<path fill-rule="evenodd" clip-rule="evenodd" d="M71.5696 160.556L69.2221 162.659L34.1622 116.57L36.5096 114.468L71.5696 160.556V160.556Z" stroke="#3152BA" stroke-width="0.814294" stroke-linecap="round" stroke-linejoin="round"/>
<path fill-rule="evenodd" clip-rule="evenodd" d="M76.0465 156.546L73.699 158.649L38.639 112.56L40.9865 110.458L76.0465 156.546V156.546Z" stroke="#3152BA" stroke-width="0.814294" stroke-linecap="round" stroke-linejoin="round"/>
<path fill-rule="evenodd" clip-rule="evenodd" d="M80.5234 152.536L78.1759 154.639L43.116 108.55L45.4634 106.448L80.5234 152.536V152.536Z" stroke="#3152BA" stroke-width="0.814294" stroke-linecap="round" stroke-linejoin="round"/>
<path fill-rule="evenodd" clip-rule="evenodd" d="M85.0003 148.527L82.6528 150.629L47.5928 104.541L49.9403 102.438L85.0003 148.527V148.527Z" stroke="#3152BA" stroke-width="0.814294" stroke-linecap="round" stroke-linejoin="round"/>
<path fill-rule="evenodd" clip-rule="evenodd" d="M89.4772 144.517L87.1297 146.619L52.0697 100.531L54.4171 98.4285L89.4772 144.517V144.517Z" stroke="#3152BA" stroke-width="0.814294" stroke-linecap="round" stroke-linejoin="round"/>
<path fill-rule="evenodd" clip-rule="evenodd" d="M93.954 140.507L91.6066 142.61L56.5466 96.5212L58.8941 94.4187L93.954 140.507V140.507Z" stroke="#3152BA" stroke-width="0.814294" stroke-linecap="round" stroke-linejoin="round"/>
</g>
<g opacity="0.46">
<path fill-rule="evenodd" clip-rule="evenodd" d="M22.8647 132.859L20.478 129.722L64.4346 90.3516L66.8214 93.4892L22.8647 132.859V132.859Z" stroke="#3152BA" stroke-width="1.73679" stroke-linecap="round" stroke-linejoin="round"/>
<path fill-rule="evenodd" clip-rule="evenodd" d="M27.4166 138.843L25.0299 135.705L68.9864 96.3352L71.3732 99.4727L27.4166 138.843V138.843Z" stroke="#3152BA" stroke-width="1.73679" stroke-linecap="round" stroke-linejoin="round"/>
<path fill-rule="evenodd" clip-rule="evenodd" d="M31.9685 144.827L29.5817 141.689L73.5383 102.319L75.9251 105.456L31.9685 144.827V144.827Z" stroke="#3152BA" stroke-width="1.73679" stroke-linecap="round" stroke-linejoin="round"/>
<path fill-rule="evenodd" clip-rule="evenodd" d="M36.5203 150.81L34.1335 147.673L78.0902 108.303L80.4769 111.44L36.5203 150.81V150.81Z" stroke="#3152BA" stroke-width="1.73679" stroke-linecap="round" stroke-linejoin="round"/>
<path fill-rule="evenodd" clip-rule="evenodd" d="M41.0721 156.794L38.6854 153.656L82.642 114.286L85.0288 117.424L41.0721 156.794V156.794Z" stroke="#3152BA" stroke-width="1.73679" stroke-linecap="round" stroke-linejoin="round"/>
<path fill-rule="evenodd" clip-rule="evenodd" d="M45.624 162.778L43.2373 159.64L87.1938 120.27L89.5806 123.408L45.624 162.778V162.778Z" stroke="#3152BA" stroke-width="1.73679" stroke-linecap="round" stroke-linejoin="round"/>
<path fill-rule="evenodd" clip-rule="evenodd" d="M50.1759 168.761L47.7891 165.624L91.7457 126.254L94.1325 129.391L50.1759 168.761V168.761Z" stroke="#3152BA" stroke-width="1.73679" stroke-linecap="round" stroke-linejoin="round"/>
<path fill-rule="evenodd" clip-rule="evenodd" d="M54.7277 174.745L52.3409 171.607L96.2976 132.237L98.6843 135.375L54.7277 174.745V174.745Z" stroke="#3152BA" stroke-width="1.73679" stroke-linecap="round" stroke-linejoin="round"/>
</g>
</g>
<path d="M73.2284 124.401C73.2284 124.401 75.8286 131.298 74.3 137.155L78.7415 136.367C78.7415 136.367 79.2969 129.1 77.4811 125.197L73.2284 124.401Z" fill="#97CC64"/>
<ellipse rx="4.33445" ry="3.44442" transform="matrix(0.653196 -0.757189 0.621717 0.783242 113.401 117.242)" fill="#F0F3FC"/>
<rect x="84.0059" y="102.012" width="8.30846" height="1.98102" fill="#FF9763"/>
<path d="M50.2945 91.337C56.3826 93.674 57.6002 101.204 57.6002 101.204" stroke="#3152BA" stroke-width="0.799279" stroke-linecap="round" stroke-linejoin="round" stroke-dasharray="1.6"/>
<path d="M93.8423 98.4346C94.2721 95.6648 97.2087 92.9816 97.2087 92.9816" stroke="#3152BA" stroke-width="0.799279" stroke-linecap="round" stroke-linejoin="round" stroke-dasharray="1.6"/>
<path d="M67.8995 108.796C68.2854 110.387 68.9023 111.882 69.7216 113.212C69.9661 113.607 70.2238 113.989 70.4994 114.352C70.679 114.566 70.9673 114.566 71.1469 114.352C71.3204 114.134 71.3204 113.789 71.1469 113.57C71.0362 113.424 70.9281 113.275 70.8225 113.123C70.7736 113.053 70.7253 112.982 70.6776 112.91C70.6519 112.872 70.6264 112.833 70.6011 112.794C70.5902 112.777 70.5795 112.761 70.5686 112.744C70.534 112.691 70.6175 112.822 70.5652 112.738C70.3713 112.427 70.1865 112.109 70.0143 111.78C69.839 111.446 69.6761 111.102 69.5256 110.75C69.4504 110.574 69.3785 110.396 69.3097 110.216C69.2779 110.132 69.2467 110.048 69.2162 109.964C69.2068 109.938 69.1976 109.912 69.1883 109.886C69.1843 109.875 69.161 109.809 69.1839 109.874C69.2067 109.94 69.1836 109.873 69.1798 109.862C69.1687 109.829 69.1574 109.797 69.1465 109.764C69.0079 109.351 68.8866 108.93 68.7826 108.502C68.7397 108.311 68.6153 108.162 68.4565 108.112C68.2978 108.061 68.129 108.118 68.014 108.259C67.8989 108.4 67.8553 108.605 67.8995 108.796L67.8995 108.796Z" fill="#3152BA"/>
<path d="M106.234 106.891L104.33 108.976C104.153 109.193 104.153 109.542 104.33 109.759C104.511 109.968 104.796 109.968 104.978 109.759L106.882 107.673C107.059 107.456 107.059 107.108 106.882 106.891C106.701 106.681 106.415 106.681 106.234 106.891Z" fill="#E84B23"/>
<defs>
<linearGradient id="paint0_linear_207_54004" x1="44.0072" y1="240.99" x2="151.589" y2="240.99" gradientUnits="userSpaceOnUse">
<stop offset="0.3003" stop-color="#DCDFF8"/>
<stop offset="0.8855" stop-color="#F5F7FE"/>
</linearGradient>
<linearGradient id="paint1_linear_207_54004" x1="76.7462" y1="215.574" x2="160.65" y2="215.574" gradientUnits="userSpaceOnUse">
<stop offset="0.3003" stop-color="#DCDFF8"/>
<stop offset="0.8855" stop-color="#F5F7FE"/>
</linearGradient>
<linearGradient id="paint2_linear_207_54004" x1="182.394" y1="247.244" x2="346.818" y2="247.244" gradientUnits="userSpaceOnUse">
<stop offset="0.3003" stop-color="#DCDFF8"/>
<stop offset="0.8855" stop-color="#F5F7FE"/>
</linearGradient>
<linearGradient id="paint3_linear_207_54004" x1="175.876" y1="215.574" x2="259.78" y2="215.574" gradientUnits="userSpaceOnUse">
<stop offset="0.3003" stop-color="#DCDFF8"/>
<stop offset="0.8855" stop-color="#F5F7FE"/>
</linearGradient>
<linearGradient id="paint4_linear_207_54004" x1="-24.5834" y1="-33.2224" x2="-80.5827" y2="40.5087" gradientUnits="userSpaceOnUse">
<stop offset="0.0035" stop-color="#4464AD"/>
<stop offset="1" stop-color="#268BCC"/>
</linearGradient>
</defs>
</svg>
