<svg width="368" height="308" viewBox="0 0 368 308" fill="none" xmlns="http://www.w3.org/2000/svg">
<mask id="mask0_207_62626" style="mask-type:alpha" maskUnits="userSpaceOnUse" x="59" y="29" width="250" height="250">
<rect x="59" y="29" width="250" height="250" fill="white"/>
</mask>
<g mask="url(#mask0_207_62626)">
<path d="M123.895 149.551C129.344 169.096 119.861 197.571 119.861 197.571L123.895 149.551Z" fill="#FFC562"/>
<path d="M113.763 134.746C123.925 146.552 132.427 166.1 116.928 197.417C116.928 197.417 95.2265 170.251 113.763 134.746Z" fill="#FF9763"/>
<mask id="mask1_207_62626" style="mask-type:alpha" maskUnits="userSpaceOnUse" x="106" y="134" width="20" height="64">
<path fill-rule="evenodd" clip-rule="evenodd" d="M113.763 134.746C123.925 146.552 132.427 166.1 116.928 197.417C116.928 197.417 95.2265 170.251 113.763 134.746Z" fill="white"/>
</mask>
<g mask="url(#mask1_207_62626)">
<path d="M113.213 129.92C101.359 155.337 118.571 154.398 119.216 175.984C119.861 197.571 103.968 158.792 103.968 158.792L107.324 134.746H108.838" fill="#E5713E"/>
</g>
<path d="M114.025 140.839C114.9 142.985 115.646 145.22 116.257 147.522C116.87 149.806 117.327 152.144 117.708 154.495C118.081 156.849 118.347 159.225 118.548 161.608C118.75 163.991 118.843 166.387 118.895 168.781C119.008 173.572 118.838 178.369 118.507 183.148C118.341 185.538 118.125 187.923 117.861 190.303C117.604 192.683 117.299 195.056 116.928 197.417C117.817 192.729 118.396 187.963 118.801 183.18C119.01 180.788 119.132 178.387 119.216 175.985C119.293 173.582 119.33 171.175 119.278 168.77C119.163 163.962 118.799 159.15 117.997 154.428L117.924 153.985L117.839 153.545L117.669 152.665L117.498 151.786C117.439 151.493 117.367 151.204 117.302 150.913C117.166 150.334 117.045 149.749 116.896 149.174L116.435 147.454C115.766 145.182 114.984 142.956 114.025 140.839Z" fill="#E5713E"/>
<path d="M130.167 107.641C136.955 127.91 140.93 156 121.89 181.854C121.89 181.854 107.74 136.319 130.167 107.641Z" fill="#FFC562"/>
<mask id="mask2_207_62626" style="mask-type:alpha" maskUnits="userSpaceOnUse" x="117" y="107" width="19" height="75">
<path fill-rule="evenodd" clip-rule="evenodd" d="M130.167 107.641C136.955 127.91 140.93 156 121.89 181.854C121.89 181.854 107.74 136.319 130.167 107.641Z" fill="white"/>
</mask>
<g mask="url(#mask2_207_62626)">
<path d="M128.581 102.549L130.167 107.641C130.167 107.641 135.503 149.365 123.966 178.157C112.428 206.948 152.363 133.267 152.363 133.267L137.331 108.484L128.581 102.549Z" fill="#D89D35"/>
</g>
<path d="M129.323 114.826C129.661 117.643 129.925 120.471 130.048 123.31C130.086 124.019 130.098 124.73 130.124 125.439L130.158 126.504L130.167 127.569C130.17 128.28 130.181 128.99 130.177 129.7L130.141 131.831C130.003 137.519 129.563 143.187 128.824 148.793C128.467 151.602 128.057 154.403 127.579 157.188C127.103 159.974 126.559 162.742 125.989 165.503C125.413 168.263 124.783 171.006 124.099 173.733C123.427 176.463 122.69 179.17 121.89 181.854C123.639 176.551 125.048 171.096 126.274 165.59C127.49 160.093 128.468 154.507 129.203 148.861C129.566 146.044 129.838 143.211 130.055 140.373L130.204 138.243L130.314 136.11C130.356 135.399 130.371 134.686 130.392 133.974C130.408 133.262 130.439 132.55 130.435 131.838L130.445 129.7C130.439 128.988 130.42 128.276 130.408 127.564L130.386 126.496L130.339 125.429C130.303 124.717 130.285 124.005 130.235 123.296L130.074 121.167L130.033 120.636L129.978 120.106L129.867 119.046C129.74 117.63 129.514 116.23 129.323 114.826Z" fill="#FFC562"/>
<path d="M87.1142 139.944C101.145 142.79 117.535 153.12 119.861 189.315C119.861 189.315 88.9583 181.63 87.1142 139.944Z" fill="#FFC562"/>
<mask id="mask3_207_62626" style="mask-type:alpha" maskUnits="userSpaceOnUse" x="87" y="139" width="33" height="51">
<path fill-rule="evenodd" clip-rule="evenodd" d="M87.1142 139.944C101.145 142.79 117.535 153.12 119.861 189.315C119.861 189.315 88.9583 181.63 87.1142 139.944Z" fill="white"/>
</mask>
<g mask="url(#mask3_207_62626)">
<path d="M79.2239 146.971L87.1142 139.944C87.1142 139.944 96.7263 177.17 118.934 186.233C141.142 195.295 72.3251 201.713 72.3251 201.713L77.5413 148.34" fill="#D89D35"/>
</g>
<path d="M90.2605 144.774C92.0103 145.947 93.6974 147.279 95.3097 148.761C96.9122 150.225 98.4123 151.838 99.8564 153.513C101.295 155.196 102.656 156.97 103.968 158.792C105.281 160.615 106.509 162.52 107.703 164.453C110.101 168.315 112.269 172.372 114.296 176.523C115.309 178.599 116.279 180.705 117.206 182.839C118.14 184.968 119.031 187.125 119.861 189.315C118.337 184.863 116.52 180.555 114.553 176.351C113.574 174.244 112.519 172.188 111.432 170.157C110.34 168.13 109.213 166.128 108.013 164.186C105.606 160.313 102.992 156.603 100.061 153.263L99.7888 152.948L99.5071 152.644L98.9437 152.036L98.3805 151.428C98.191 151.228 97.9932 151.038 97.8 150.843C97.4091 150.459 97.0282 150.06 96.6293 149.688L95.4227 148.585C93.7803 147.169 92.0669 145.868 90.2605 144.774Z" fill="#FFC562"/>
<path d="M149.555 138.162C151.93 154.784 149.123 176.521 121.053 191.097C121.053 191.097 116.95 154.017 149.555 138.162Z" fill="#FF9763"/>
<mask id="mask4_207_62626" style="mask-type:alpha" maskUnits="userSpaceOnUse" x="120" y="138" width="31" height="54">
<path fill-rule="evenodd" clip-rule="evenodd" d="M149.555 138.162C151.93 154.784 149.123 176.521 121.053 191.097C121.053 191.097 116.95 154.017 149.555 138.162Z" fill="white"/>
</mask>
<g mask="url(#mask4_207_62626)">
<path d="M114.025 178.53C137.849 193.149 149.365 156.54 149.365 156.54L151.914 186.906L135.783 199.469L110.409 187.762L111.306 180.602" fill="#E5713E"/>
</g>
<path d="M146.748 143.277C146.386 145.648 145.882 147.976 145.241 150.239C144.605 152.514 143.817 154.725 142.96 156.893C142.095 159.058 141.132 161.166 140.114 163.235C139.096 165.305 137.984 167.309 136.839 169.283C134.556 173.24 132.041 177.006 129.404 180.645C128.085 182.464 126.728 184.245 125.334 185.987C123.947 187.736 122.52 189.439 121.053 191.097C124.096 187.921 126.927 184.465 129.626 180.875C130.98 179.084 132.269 177.224 133.529 175.338C134.782 173.447 136.005 171.524 137.155 169.54C139.444 165.568 141.536 161.42 143.226 157.039L143.388 156.63L143.537 156.215L143.835 155.384L144.133 154.553C144.23 154.275 144.315 153.992 144.407 153.711C144.584 153.147 144.775 152.59 144.94 152.02L145.419 150.307C146.004 148.003 146.474 145.657 146.748 143.277Z" fill="#E5713E"/>
<path d="M105.061 226.506H134.106L139.406 182.403H99.7608L105.061 226.506Z" fill="#9A7ED9"/>
<mask id="mask5_207_62626" style="mask-type:alpha" maskUnits="userSpaceOnUse" x="99" y="182" width="41" height="45">
<path fill-rule="evenodd" clip-rule="evenodd" d="M105.061 226.506H134.106L139.406 182.403H99.7608L105.061 226.506Z" fill="white"/>
</mask>
<g mask="url(#mask5_207_62626)">
<path d="M96.5344 187.762C147.876 191.841 130.445 226.506 130.445 226.506L139.406 227.738L146.748 185.082L139.406 176.781L92.685 181.854" fill="#6F4EB9"/>
</g>
<rect x="142.742" y="187.762" width="46.2077" height="7.16034" transform="rotate(-180 142.742 187.762)" fill="#9A7ED9"/>
<path d="M113.993 215.487L114.495 215.941C114.589 216.015 114.708 216.005 114.795 215.916C114.881 215.827 114.919 215.677 114.89 215.536C114.869 215.448 114.825 215.372 114.766 215.322L114.264 214.868C114.17 214.794 114.051 214.804 113.965 214.893C113.878 214.982 113.84 215.132 113.869 215.273C113.89 215.361 113.934 215.437 113.993 215.487Z" fill="#D89D35"/>
<path d="M100.331 162.307C100.557 163.123 100.85 163.903 101.203 164.634C101.278 164.805 101.443 164.863 101.571 164.763C101.699 164.663 101.742 164.443 101.667 164.272C101.499 163.926 101.344 163.568 101.205 163.2C101.136 163.018 101.071 162.835 101.01 162.649C100.974 162.541 100.97 162.528 100.937 162.418C100.907 162.318 100.877 162.218 100.849 162.116C100.8 161.941 100.665 161.803 100.518 161.866C100.39 161.922 100.278 162.119 100.331 162.307L100.331 162.307Z" fill="#D89D35"/>
<path d="M132.47 129.55C132.616 130.75 132.615 131.973 132.467 133.172C132.443 133.356 132.503 133.567 132.654 133.613C132.785 133.653 132.959 133.56 132.985 133.362C133.157 132.038 133.158 130.685 132.988 129.36C132.965 129.174 132.786 129.054 132.658 129.109C132.517 129.167 132.435 129.36 132.47 129.55Z" fill="#D89D35"/>
<path d="M133.943 167.763L132.768 169.897C132.684 170.048 132.745 170.303 132.864 170.387C132.993 170.481 133.155 170.425 133.232 170.259L134.407 168.125C134.491 167.973 134.43 167.718 134.311 167.634C134.182 167.54 134.021 167.596 133.943 167.763Z" fill="#E5713E"/>
<rect x="210.856" y="148.574" width="70.0303" height="77.6119" fill="#9A7ED9"/>
<mask id="mask6_207_62626" style="mask-type:alpha" maskUnits="userSpaceOnUse" x="210" y="148" width="71" height="79">
<rect x="210.855" y="148.574" width="70.0303" height="77.6119" fill="white"/>
</mask>
<g mask="url(#mask6_207_62626)">
<path d="M207.637 187.38C207.344 183.895 200.9 177.293 201.355 174.55C204.73 154.242 233.304 156.477 245.871 155.186C260.136 153.719 247.631 151.475 226.176 150.449C204.721 149.423 202.477 148.462 202.477 148.462" fill="#6F4EB9"/>
</g>
<path d="M213.166 135.605H278.575C279.188 135.605 279.776 135.93 280.209 136.508C280.642 137.085 280.886 137.869 280.886 138.686V153.719H210.856V138.686C210.856 137.869 211.099 137.085 211.532 136.508C211.966 135.93 212.553 135.605 213.166 135.605V135.605Z" fill="#FFC562"/>
<rect x="220.058" y="145.431" width="51.6249" height="3.14238" fill="#D89D35"/>
<ellipse cx="214.777" cy="139.521" rx="0.920544" ry="1.22739" fill="#516DDB"/>
<rect x="214.198" y="130.567" width="1.15969" height="9.37727" rx="0.579844" fill="#75AA3C"/>
<ellipse cx="216.835" cy="139.521" rx="0.920544" ry="1.22739" fill="#516DDB"/>
<rect x="216.255" y="130.567" width="1.15969" height="9.37727" rx="0.579844" fill="#75AA3C"/>
<ellipse cx="226.756" cy="139.521" rx="0.920544" ry="1.22739" fill="#516DDB"/>
<rect x="226.176" y="130.567" width="1.15969" height="9.37727" rx="0.579844" fill="#75AA3C"/>
<ellipse cx="228.813" cy="139.521" rx="0.920544" ry="1.22739" fill="#516DDB"/>
<rect x="228.233" y="130.567" width="1.15969" height="9.37727" rx="0.579844" fill="#75AA3C"/>
<ellipse cx="238.734" cy="139.521" rx="0.920544" ry="1.22739" fill="#516DDB"/>
<rect x="238.154" y="130.567" width="1.15969" height="9.37727" rx="0.579844" fill="#75AA3C"/>
<ellipse cx="240.792" cy="139.521" rx="0.920544" ry="1.22739" fill="#516DDB"/>
<rect x="240.212" y="130.567" width="1.15969" height="9.37727" rx="0.579844" fill="#75AA3C"/>
<ellipse cx="250.713" cy="139.521" rx="0.920544" ry="1.22739" fill="#516DDB"/>
<rect x="250.133" y="130.567" width="1.15969" height="9.37727" rx="0.579844" fill="#75AA3C"/>
<ellipse cx="252.77" cy="139.521" rx="0.920544" ry="1.22739" fill="#516DDB"/>
<rect x="252.19" y="130.567" width="1.15969" height="9.37727" rx="0.579844" fill="#75AA3C"/>
<ellipse cx="262.691" cy="139.521" rx="0.920544" ry="1.22739" fill="#516DDB"/>
<rect x="262.111" y="130.567" width="1.15969" height="9.37727" rx="0.579844" fill="#75AA3C"/>
<ellipse cx="264.749" cy="139.521" rx="0.920544" ry="1.22739" fill="#516DDB"/>
<rect x="264.169" y="130.567" width="1.15969" height="9.37727" rx="0.579844" fill="#75AA3C"/>
<ellipse cx="274.67" cy="139.521" rx="0.920544" ry="1.22739" fill="#516DDB"/>
<rect x="274.09" y="130.567" width="1.15969" height="9.37727" rx="0.579844" fill="#75AA3C"/>
<ellipse cx="276.727" cy="139.521" rx="0.920544" ry="1.22739" fill="#516DDB"/>
<rect x="276.147" y="130.567" width="1.15969" height="9.37727" rx="0.579844" fill="#75AA3C"/>
<rect x="233.987" y="160.691" width="5.24634" height="7.29012" fill="#EFF3FC"/>
<rect x="243.248" y="160.691" width="5.24634" height="7.29012" fill="#EFF3FC"/>
<rect x="252.508" y="160.691" width="5.24634" height="7.29012" fill="#EFF3FC"/>
<rect x="261.769" y="160.691" width="5.24634" height="7.29012" fill="#EFF3FC"/>
<rect x="271.029" y="160.691" width="5.24634" height="7.29012" fill="#EFF3FC"/>
<rect x="215.466" y="172.213" width="5.24634" height="7.29012" fill="#FF9763"/>
<rect x="224.726" y="172.213" width="5.24634" height="7.29012" fill="#EFF3FC"/>
<rect x="233.987" y="172.213" width="5.24634" height="7.29012" fill="#EFF3FC"/>
<rect x="243.248" y="172.213" width="5.24634" height="7.29012" fill="#EFF3FC"/>
<rect x="252.508" y="172.213" width="5.24634" height="7.29012" fill="#EFF3FC"/>
<rect x="261.769" y="172.213" width="5.24634" height="7.29012" fill="#FF9763"/>
<rect x="271.029" y="172.213" width="5.24634" height="7.29012" fill="#EFF3FC"/>
<rect x="215.466" y="183.734" width="5.24634" height="7.29012" fill="#EFF3FC"/>
<rect x="224.726" y="183.734" width="5.24634" height="7.29012" fill="#EFF3FC"/>
<rect x="233.987" y="183.734" width="5.24634" height="7.29012" fill="#EFF3FC"/>
<rect x="243.248" y="183.734" width="5.24634" height="7.29012" fill="#EFF3FC"/>
<rect x="252.508" y="183.734" width="5.24634" height="7.29012" fill="#EFF3FC"/>
<rect x="261.769" y="183.734" width="5.24634" height="7.29012" fill="#EFF3FC"/>
<rect x="271.029" y="183.734" width="5.24634" height="7.29012" fill="#EFF3FC"/>
<rect x="215.466" y="195.257" width="5.24634" height="7.29012" fill="#EFF3FC"/>
<rect x="224.726" y="195.257" width="5.24634" height="7.29012" fill="#EFF3FC"/>
<rect x="233.987" y="195.257" width="5.24634" height="7.29012" fill="#EFF3FC"/>
<rect x="243.248" y="195.257" width="5.24634" height="7.29012" fill="#EFF3FC"/>
<rect x="252.508" y="195.257" width="5.24634" height="7.29012" fill="#FF9763"/>
<rect x="261.769" y="195.257" width="5.24634" height="7.29012" fill="#EFF3FC"/>
<rect x="271.029" y="195.257" width="5.24634" height="7.29012" fill="#EFF3FC"/>
<rect x="215.466" y="206.779" width="5.24634" height="7.29012" fill="#EFF3FC"/>
<rect x="224.726" y="206.779" width="5.24634" height="7.29012" fill="#EFF3FC"/>
<rect x="233.987" y="206.779" width="5.24634" height="7.29012" fill="#EFF3FC"/>
<rect x="243.248" y="206.779" width="5.24634" height="7.29012" fill="#EFF3FC"/>
<rect x="252.508" y="206.779" width="5.24634" height="7.29012" fill="#EFF3FC"/>
<path d="M269.366 213.15L267.679 214.485C267.508 214.618 267.451 214.911 267.55 215.139C267.65 215.367 267.87 215.444 268.041 215.311L269.728 213.975C269.839 213.889 269.907 213.731 269.906 213.56C269.905 213.389 269.836 213.231 269.725 213.147C269.614 213.062 269.477 213.063 269.366 213.15Z" fill="#6F4EB9"/>
<path d="M223.273 165.163L221.927 166.06C221.757 166.195 221.7 166.486 221.798 166.715C221.901 166.937 222.117 167.013 222.289 166.886L223.635 165.989C223.805 165.854 223.862 165.563 223.764 165.335C223.661 165.112 223.445 165.036 223.273 165.163Z" fill="#6F4EB9"/>
<rect x="175.327" y="200.505" width="11.0022" height="21.7514" fill="#9A7ED9"/>
<mask id="mask7_207_62626" style="mask-type:alpha" maskUnits="userSpaceOnUse" x="175" y="200" width="12" height="23">
<rect x="175.327" y="200.505" width="11.0022" height="21.7514" fill="white"/>
</mask>
<g mask="url(#mask7_207_62626)">
<path d="M172.798 206.761C185.333 207.64 184.913 225.158 184.913 225.158L193.915 221.344L192.4 200.505" fill="#6F4EB9"/>
</g>
<rect x="132.456" y="129.149" width="96.7432" height="78.4903" rx="3.13772" fill="#589BF7"/>
<path d="M133.965 129.149H227.691C228.524 129.149 229.199 130.05 229.199 131.16V200.505H132.456V131.16C132.456 130.627 132.615 130.115 132.898 129.738C133.181 129.361 133.565 129.149 133.965 129.149V129.149Z" fill="#F0F3FC"/>
<mask id="mask8_207_62626" style="mask-type:alpha" maskUnits="userSpaceOnUse" x="132" y="129" width="98" height="72">
<path fill-rule="evenodd" clip-rule="evenodd" d="M133.965 129.149H227.691C228.524 129.149 229.199 130.05 229.199 131.16V200.505H132.456V131.16C132.456 130.627 132.615 130.115 132.898 129.738C133.181 129.361 133.565 129.149 133.965 129.149V129.149Z" fill="white"/>
</mask>
<g mask="url(#mask8_207_62626)">
<path d="M234.971 117.02L116.85 222.257L229.199 242.882L238.505 108.943" fill="#D6DCF2"/>
</g>
<path d="M166.949 220.814H194.707C195.755 220.814 196.76 221.37 197.501 222.358C198.242 223.346 198.659 224.686 198.659 226.084V226.186H162.997V226.084C162.997 223.174 164.766 220.814 166.949 220.814L166.949 220.814Z" fill="#6F4EB9"/>
<path d="M149.484 138.832L146.701 142.102L145.906 143.036C145.767 143.224 145.767 143.525 145.906 143.713C146.047 143.893 146.271 143.893 146.413 143.713L149.196 140.442L149.991 139.508C150.13 139.32 150.13 139.019 149.991 138.832C149.849 138.651 149.626 138.651 149.484 138.832H149.484Z" fill="#D6DCF2"/>
<path d="M213.282 195.009L212.385 195.907C212.306 195.973 212.248 196.074 212.22 196.192C212.195 196.317 212.208 196.449 212.256 196.561C212.304 196.668 212.38 196.747 212.471 196.78C212.564 196.816 212.664 196.799 212.747 196.732L213.644 195.835C213.723 195.769 213.781 195.667 213.809 195.549C213.834 195.425 213.821 195.292 213.773 195.181C213.725 195.073 213.649 194.994 213.559 194.961C213.465 194.925 213.365 194.942 213.282 195.009Z" fill="#D6DCF2"/>
<path d="M161.988 166.768C161.554 167.927 165.475 178.549 165.764 179.418L167.792 188.012L178.511 192.647L180.394 189.273C180.394 189.273 166.411 165.769 161.988 166.768Z" fill="#9A7ED9"/>
<mask id="mask9_207_62626" style="mask-type:alpha" maskUnits="userSpaceOnUse" x="161" y="166" width="20" height="27">
<path fill-rule="evenodd" clip-rule="evenodd" d="M161.988 166.768C161.554 167.927 165.475 178.549 165.764 179.418L167.792 188.012L178.511 192.647L180.394 189.273C180.394 189.273 166.411 165.769 161.988 166.768Z" fill="white"/>
</mask>
<g mask="url(#mask9_207_62626)">
<path d="M165.101 175.297C167.159 172.214 169.79 184.185 173.122 191.717C176.453 199.249 169.151 197.075 168.717 196.785C168.282 196.496 163.89 190.612 163.89 190.612" fill="#6F4EB9"/>
<path d="M173.074 170.861C172.179 176.703 164.976 181.362 164.976 181.362" stroke="#7B5CB7" stroke-width="0.932282" stroke-linecap="round" stroke-linejoin="round"/>
</g>
<path d="M164.132 167.506C164.132 167.506 156.06 162.037 149.324 166.768C149.324 166.768 151.682 187.106 148.771 199.754C148.89 200.536 159.977 200.463 166.732 199.36C172.264 197.819 162.833 186.888 165.552 182.893C167.64 179.824 166.659 177.238 165.918 174.394" fill="#9A7ED9"/>
<mask id="mask10_207_62626" style="mask-type:alpha" maskUnits="userSpaceOnUse" x="148" y="164" width="21" height="37">
<path fill-rule="evenodd" clip-rule="evenodd" d="M164.132 167.506C164.132 167.506 156.06 162.037 149.324 166.768C149.324 166.768 151.682 187.106 148.771 199.754C148.89 200.536 159.977 200.463 166.732 199.36C172.264 197.819 162.833 186.888 165.552 182.893C167.64 179.824 166.659 177.238 165.918 174.394" fill="white"/>
</mask>
<g mask="url(#mask10_207_62626)">
<path d="M150.315 164.963C158.766 176.856 163.144 173.298 159.807 164.333C156.471 155.367 150.689 162.416 150.689 162.416" fill="#F0F3FC"/>
<path d="M149.692 163.055C158.143 174.947 162.52 171.389 159.184 162.424C155.848 153.458 150.066 160.508 150.066 160.508" fill="#FF9763"/>
<path d="M151.512 179.362C155.944 172.075 148.441 190.763 153.558 191.583L154.928 197.353C154.928 197.353 150.115 198.196 153.224 199.942C156.334 201.688 142.972 199.797 142.972 199.797L144.167 178.021H146.339" fill="#6F4EB9"/>
<path d="M146.106 196.646C158.756 201.384 170.494 192.647 170.494 192.647" stroke="#6F4EB9" stroke-width="0.932282" stroke-linecap="round" stroke-linejoin="round"/>
</g>
<path d="M162.812 185.837C162.187 185.617 159.307 186.41 159.029 186.631C158.752 186.851 156.288 192.311 156.288 192.311L146.747 189.766L148.341 186.371L140.336 186.693L139.171 186.113C138.87 186.56 135.956 195.824 139.383 196.21C139.414 196.217 139.444 196.22 139.475 196.22L157.126 197.352C158.653 197.352 159.862 193.413 159.862 193.413C159.862 193.413 161.164 193.634 161.528 192.355C161.528 192.355 162.656 192.439 162.933 191.381C162.933 191.381 163.552 192.122 163.883 192.48C164.168 192.789 165.256 191.712 163.461 189.692L161.846 188.054C161.846 188.054 162.569 187.601 162.985 187.733C163.402 187.866 164.136 189.062 164.894 188.483C165.397 188.099 163.437 186.058 162.812 185.837Z" fill="#FF9763"/>
<mask id="mask11_207_62626" style="mask-type:alpha" maskUnits="userSpaceOnUse" x="137" y="185" width="28" height="13">
<path fill-rule="evenodd" clip-rule="evenodd" d="M162.812 185.837C162.187 185.617 159.307 186.41 159.029 186.631C158.752 186.851 156.288 192.311 156.288 192.311L146.747 189.766L148.341 186.371L140.336 186.693L139.171 186.113C138.87 186.56 135.956 195.824 139.383 196.21C139.414 196.217 139.444 196.22 139.475 196.22L157.126 197.352C158.653 197.352 159.862 193.413 159.862 193.413C159.862 193.413 161.164 193.634 161.528 192.355C161.528 192.355 162.656 192.439 162.933 191.381C162.933 191.381 163.552 192.122 163.883 192.48C164.168 192.789 165.256 191.712 163.461 189.692L161.846 188.054C161.846 188.054 162.569 187.601 162.985 187.733C163.402 187.866 164.136 189.062 164.894 188.483C165.397 188.099 163.437 186.058 162.812 185.837Z" fill="white"/>
</mask>
<g mask="url(#mask11_207_62626)">
<path d="M137.504 191.583C137.649 189.465 147.302 191.058 146.013 188.725C144.782 186.495 137.729 185.602 137.729 185.602" fill="#E84B23"/>
</g>
<path d="M149.224 198.973H165.492V200.536H148.266V200.251C148.266 199.545 148.695 198.973 149.224 198.973V198.973Z" fill="#D6DCF2"/>
<path d="M184.358 200.538H163.035L166.805 178.581C166.893 178.068 167.236 177.704 167.631 177.704H187.314C187.548 177.704 187.77 177.846 187.915 178.09C188.061 178.334 188.116 178.653 188.064 178.957L184.358 200.538Z" fill="#F0F3FC"/>
<path d="M184.975 200.538H163.652L167.422 178.581C167.511 178.068 167.853 177.704 168.248 177.704H187.931C188.165 177.704 188.387 177.846 188.533 178.09C188.678 178.334 188.733 178.653 188.681 178.957L184.975 200.538Z" fill="#F0F3FC"/>
<mask id="mask12_207_62626" style="mask-type:alpha" maskUnits="userSpaceOnUse" x="163" y="177" width="26" height="24">
<path fill-rule="evenodd" clip-rule="evenodd" d="M184.975 200.538H163.652L167.422 178.581C167.511 178.068 167.853 177.704 168.248 177.704H187.931C188.165 177.704 188.387 177.846 188.533 178.09C188.678 178.334 188.733 178.653 188.681 178.957L184.975 200.538Z" fill="white"/>
</mask>
<g mask="url(#mask12_207_62626)">
<path d="M164.853 201.867C166.115 197.386 183.054 203.474 186.69 190.55C190.326 177.627 189.723 201.177 189.723 201.177L175.559 204.624L163.035 202.096" fill="#D6DCF2"/>
<path d="M184.077 185.493C184.042 187.151 185.101 186.868 185.101 186.868C185.101 186.868 184.889 189.457 187.501 189.504C190.114 189.551 187.678 184.985 187.678 184.985L185.807 184.746" fill="#D6DCF2"/>
</g>
<ellipse rx="2.3823" ry="1.86316" transform="matrix(0.656246 -0.754547 0.543074 0.839685 176.858 187.468)" fill="white"/>
<path d="M188.357 181.809C188.241 181.534 187.987 181.42 187.77 181.546C186.969 182.018 185.093 183.079 185.025 183.159C184.941 183.259 184.437 184.589 186.228 184.223L184.129 184.855C184.129 184.855 183.598 186.318 185.417 186.019C185.417 186.019 185.009 187.382 186.01 187.614C186.628 187.758 187.291 187.902 187.708 187.991C187.965 188.045 188.198 187.777 188.221 187.406C188.248 186.986 188.216 186.482 187.963 186.251C187.963 186.251 188.719 185.786 188.075 184.705C188.075 184.705 187.677 183.992 187.991 183.924C189.149 183.924 188.694 182.558 188.357 181.809Z" fill="#FF9763"/>
<path d="M149.618 166.569C147.791 167.324 142.43 171.642 138.026 187.916C142.01 190.233 148.166 188.881 148.166 188.881C148.166 188.881 150.376 183.35 151.512 179.362" fill="#9A7ED9"/>
<mask id="mask13_207_62626" style="mask-type:alpha" maskUnits="userSpaceOnUse" x="138" y="166" width="14" height="24">
<path fill-rule="evenodd" clip-rule="evenodd" d="M149.618 166.569C147.791 167.324 142.43 171.642 138.026 187.916C142.01 190.233 148.166 188.881 148.166 188.881C148.166 188.881 150.376 183.35 151.512 179.362" fill="white"/>
</mask>
<g mask="url(#mask13_207_62626)">
<path d="M137.729 183.014C140.336 186.693 146.598 186.957 149.254 186.045C151.91 185.134 148.771 190.306 148.771 190.306L139.527 192.255L134.095 187.468" fill="#FFC562"/>
<path d="M141.941 172.859C144.355 181.294 151.972 182.558 151.972 182.558" stroke="#7B5CB7" stroke-width="0.932282" stroke-linecap="round" stroke-linejoin="round"/>
</g>
<ellipse rx="3.87395" ry="2.13286" transform="matrix(0.577523 -0.816374 0.622372 0.782722 149.13 159.571)" fill="#4B4D5C"/>
<ellipse rx="3.17093" ry="3.83676" transform="matrix(0.0347342 -0.999397 0.998097 0.0616693 148.363 155.285)" fill="#4B4D5C"/>
<mask id="mask14_207_62626" style="mask-type:alpha" maskUnits="userSpaceOnUse" x="144" y="152" width="9" height="7">
<ellipse rx="3.17093" ry="3.83676" transform="matrix(0.0346939 -0.999398 0.998092 0.0617407 148.363 155.285)" fill="white"/>
</mask>
<g mask="url(#mask14_207_62626)">
<ellipse rx="2.32654" ry="4.1629" transform="matrix(0.977568 -0.210618 0.120311 0.992736 151.355 154)" fill="#F08059"/>
</g>
<ellipse rx="2.83106" ry="3.89227" transform="matrix(0.965354 -0.260943 0.15032 0.988637 151.972 161.957)" fill="#4B4D5C"/>
<path d="M158.576 165.937L158.131 157.873L153.312 159.267L153.672 165.794" fill="#FF9763"/>
<mask id="mask15_207_62626" style="mask-type:alpha" maskUnits="userSpaceOnUse" x="153" y="157" width="6" height="9">
<path fill-rule="evenodd" clip-rule="evenodd" d="M158.576 165.937L158.131 157.873L153.312 159.267L153.672 165.794" fill="white"/>
</mask>
<g mask="url(#mask15_207_62626)">
<path d="M155.954 161.753C154.669 164.28 159.306 164.683 159.576 165.299C159.845 165.915 158.015 160.207 158.015 160.207" fill="#E84B23"/>
</g>
<path d="M158.385 144.567C156.356 143.149 153.821 144.811 152.567 148.284C150.499 148.339 148.24 150.227 151.743 158.158L152.845 158.443C153.086 158.486 153.332 158.457 153.564 158.36C153.674 158.311 153.78 158.248 153.88 158.17C153.953 158.23 154.023 158.294 154.099 158.348C156.222 159.831 158.902 157.949 160.086 154.144C161.269 150.339 160.508 146.051 158.385 144.567Z" fill="#4B4D5C"/>
<path d="M155.642 162.089C160.344 165.422 161.571 155.851 158.247 150.237C157.824 150.363 157.391 150.425 156.957 150.422C156.338 150.43 155.722 150.303 155.134 150.047C155.6 152.216 155.438 156.591 154.069 158.009C153.918 158.165 153.747 158.284 153.564 158.36C153.518 159.315 153.508 159.938 153.508 159.938" fill="#FF9763"/>
<mask id="mask16_207_62626" style="mask-type:alpha" maskUnits="userSpaceOnUse" x="153" y="150" width="8" height="13">
<path fill-rule="evenodd" clip-rule="evenodd" d="M155.642 162.089C160.344 165.422 161.571 155.851 158.247 150.237C157.824 150.363 157.391 150.425 156.957 150.422C156.338 150.43 155.722 150.303 155.134 150.047C155.6 152.216 155.438 156.591 154.069 158.009C153.918 158.165 153.747 158.284 153.564 158.36C153.518 159.315 153.508 159.938 153.508 159.938" fill="white"/>
</mask>
<g mask="url(#mask16_207_62626)">
<ellipse opacity="0.27" rx="1.13725" ry="1.13785" transform="matrix(0.97862 -0.205677 0.117403 0.993084 160.243 156.759)" fill="#E84B23"/>
<ellipse opacity="0.27" rx="1.13726" ry="1.13785" transform="matrix(0.978572 -0.205906 0.117269 0.9931 154.987 157.863)" fill="#E84B23"/>
<path d="M158.897 155.519C158.682 155.586 158.467 155.407 158.416 155.12L158.263 154.241C158.239 154.103 158.257 153.958 158.314 153.838C158.37 153.718 158.459 153.632 158.563 153.6C158.778 153.534 158.993 153.713 159.043 154L159.196 154.878C159.22 155.016 159.202 155.161 159.146 155.282C159.09 155.402 159 155.487 158.897 155.519V155.519Z" fill="#190000"/>
<path d="M155.947 156.124C155.731 156.191 155.516 156.012 155.466 155.725L155.313 154.846C155.263 154.559 155.397 154.272 155.612 154.205C155.716 154.173 155.824 154.197 155.914 154.272C156.005 154.347 156.069 154.467 156.093 154.605L156.246 155.483C156.27 155.621 156.252 155.766 156.196 155.887C156.14 156.007 156.05 156.092 155.947 156.124Z" fill="#190000"/>
<path d="M158.446 152.344C159.296 152.407 159.178 153.054 158.644 153.06C158.111 153.067 157.89 152.303 158.446 152.344Z" fill="#190000"/>
<path d="M155.414 152.931C154.673 153.487 154.924 153.972 155.405 153.665C155.885 153.358 155.899 152.568 155.414 152.931Z" fill="#190000"/>
<path d="M157.169 155.976C157.2 156.334 157.418 156.157 157.702 156.113C157.986 156.069 158.229 156.176 158.198 155.817C158.151 155.456 157.901 155.205 157.627 155.248C157.354 155.29 157.152 155.609 157.169 155.976Z" fill="#E84B23"/>
<path d="M158.961 157.625C158.866 160.269 156.931 159.525 156.734 157.929C156.724 157.846 156.755 157.764 156.81 157.724C157.043 157.552 157.728 157.152 158.836 157.416C158.91 157.434 158.964 157.523 158.961 157.625Z" fill="#C1525F"/>
<mask id="mask17_207_62626" style="mask-type:alpha" maskUnits="userSpaceOnUse" x="156" y="157" width="3" height="3">
<path fill-rule="evenodd" clip-rule="evenodd" d="M158.961 157.625C158.866 160.269 156.931 159.525 156.734 157.929C156.724 157.846 156.755 157.764 156.81 157.724C157.043 157.552 157.728 157.152 158.836 157.416C158.91 157.434 158.964 157.523 158.961 157.625Z" fill="white"/>
</mask>
<g mask="url(#mask17_207_62626)">
<ellipse rx="1.17455" ry="1.01035" transform="matrix(0.148938 -0.988847 0.96597 0.258653 157.724 159.3)" fill="#993443"/>
<path d="M158.579 157.271C158.594 157.442 158.601 157.676 158.571 157.724C158.387 158.016 157.377 158.053 157.228 157.925C157.186 157.89 157.134 157.339 157.134 157.339L158.419 157.201" fill="#F0F3FC"/>
</g>
</g>
<path d="M154.018 160.33C150.853 160.65 150.14 154.749 154.022 156.885L154.099 158.348" fill="#FF9763"/>
<path d="M159.556 173.603L160.661 176.13L163.132 176.535L161.344 178.503L161.766 181.281L159.556 179.969L157.345 181.281L157.768 178.503L155.979 176.535L158.45 176.13L159.556 173.603Z" fill="#FFC562"/>
<path d="M162.149 176.571L163.128 178.809L165.316 179.168L163.732 180.91L164.106 183.369L162.149 182.208L160.192 183.369L160.566 180.91L158.983 179.168L161.171 178.809L162.149 176.571Z" fill="#F08059"/>
<path d="M156.891 178.998C155.418 183.286 159.556 182.28 159.556 182.28V182.805C159.556 182.805 153.557 184.905 155.65 179.611L156.891 178.998Z" fill="#FFC562"/>
<path d="M152.741 157.751C152.723 157.824 152.714 157.901 152.711 157.979C152.708 158.135 152.735 158.289 152.79 158.427C152.817 158.495 152.852 158.559 152.892 158.615C152.935 158.673 152.994 158.705 153.056 158.705C153.117 158.705 153.176 158.673 153.22 158.615C153.263 158.556 153.288 158.478 153.288 158.396C153.286 158.314 153.262 158.236 153.22 158.177C153.211 158.164 153.203 158.151 153.195 158.138L153.231 158.2C153.209 158.162 153.191 158.12 153.177 158.076L153.2 158.15C153.186 158.103 153.176 158.053 153.17 158.002L153.179 158.085C153.174 158.034 153.174 157.983 153.179 157.932L153.171 158.014C153.174 157.981 153.18 157.948 153.188 157.915C153.213 157.794 153.181 157.664 153.106 157.587C153.031 157.51 152.929 157.502 152.847 157.565C152.797 157.608 152.759 157.674 152.741 157.751L152.741 157.751Z" fill="#373947"/>
<path d="M156.379 147.594L157.052 147.482C157.123 147.478 157.19 147.441 157.242 147.377C157.292 147.309 157.321 147.218 157.321 147.123C157.321 147.028 157.292 146.937 157.242 146.87C157.192 146.801 157.123 146.763 157.052 146.765L156.379 146.877C156.308 146.88 156.24 146.917 156.189 146.982C156.138 147.049 156.11 147.14 156.11 147.235C156.11 147.33 156.138 147.422 156.189 147.489C156.238 147.557 156.307 147.595 156.379 147.594Z" fill="#373947"/>
<path d="M180.373 192.595C180.345 192.651 180.316 192.707 180.286 192.762C180.271 192.79 180.256 192.817 180.24 192.844C180.239 192.846 180.189 192.932 180.22 192.88C180.157 192.986 180.092 193.091 180.024 193.192C179.891 193.391 179.748 193.578 179.597 193.752C179.562 193.793 179.526 193.833 179.49 193.872C179.47 193.894 179.45 193.915 179.43 193.936C179.422 193.946 179.413 193.955 179.404 193.963C179.322 194.044 179.239 194.123 179.154 194.198C178.983 194.347 178.805 194.482 178.622 194.6C178.494 194.701 178.451 194.92 178.525 195.091C178.603 195.258 178.765 195.314 178.893 195.22C179.678 194.704 180.349 193.924 180.838 192.957C180.912 192.786 180.869 192.567 180.741 192.466C180.613 192.371 180.451 192.428 180.373 192.595L180.373 192.595Z" fill="#D6DCF2"/>
<path d="M153.926 186.049C153.884 186.57 153.911 187.096 154.005 187.605C154.046 187.795 154.193 187.906 154.336 187.856C154.477 187.8 154.56 187.605 154.523 187.415C154.502 187.298 154.484 187.18 154.47 187.061C154.468 187.042 154.466 187.024 154.464 187.006L154.468 187.046C154.464 187.014 154.462 186.981 154.46 186.949C154.455 186.89 154.451 186.83 154.449 186.77C154.438 186.529 154.443 186.288 154.463 186.049C154.463 185.954 154.435 185.862 154.384 185.795C154.334 185.728 154.266 185.691 154.194 185.69C154.048 185.695 153.93 185.853 153.926 186.049L153.926 186.049Z" fill="#6F4EB9"/>
<path d="M270.587 85.563C270.587 82.92 268.98 80.7774 266.998 80.7773H191.12C189.138 80.7774 187.531 82.92 187.531 85.563V91.4333H270.587V85.563Z" fill="#EFF3FC"/>
<mask id="mask18_207_62626" style="mask-type:alpha" maskUnits="userSpaceOnUse" x="187" y="80" width="84" height="12">
<path fill-rule="evenodd" clip-rule="evenodd" d="M270.588 85.563C270.588 82.92 268.981 80.7774 266.998 80.7773H191.12C189.138 80.7774 187.531 82.92 187.531 85.563V91.4333H270.588V85.563Z" fill="white"/>
</mask>
<g mask="url(#mask18_207_62626)">
<path d="M177.298 80.7775C268.903 81.5119 269.667 80.0599 270.44 93.7155C271.213 107.371 273.146 74.3915 273.146 74.3915L245.126 71.8149L189.086 76.1951" fill="#D6DCF2"/>
</g>
<path d="M187.531 91.4332V150.024C187.531 152.667 189.138 154.809 191.12 154.809H266.998C268.98 154.809 270.587 152.667 270.587 150.024V91.4332H187.531Z" fill="#589BF7"/>
<mask id="mask19_207_62626" style="mask-type:alpha" maskUnits="userSpaceOnUse" x="187" y="91" width="84" height="64">
<path fill-rule="evenodd" clip-rule="evenodd" d="M187.531 91.4332V150.024C187.531 152.667 189.138 154.809 191.12 154.809H266.998C268.981 154.809 270.588 152.667 270.588 150.024V91.4332H187.531Z" fill="white"/>
</mask>
<g mask="url(#mask19_207_62626)">
<path d="M185.218 141.011C187.239 162.793 256.291 156.955 256.291 156.955L185.892 165.937L180.334 146.106" fill="#2976DF"/>
</g>
<ellipse cx="192.043" cy="85.978" rx="0.994231" ry="1.32564" fill="#BB393C"/>
<ellipse cx="196.221" cy="85.978" rx="0.994231" ry="1.32564" fill="#FFC562"/>
<ellipse cx="200.399" cy="85.978" rx="0.994231" ry="1.32564" fill="#75AA3C"/>
<rect x="194.066" y="97.3369" width="69.9871" height="50.5513" rx="3.12617" fill="#97CC64"/>
<mask id="mask20_207_62626" style="mask-type:alpha" maskUnits="userSpaceOnUse" x="194" y="97" width="71" height="51">
<rect x="194.066" y="97.3369" width="69.9871" height="50.5513" rx="3.12617" fill="white"/>
</mask>
<g mask="url(#mask20_207_62626)">
<path d="M272.965 103.674C276.84 174.787 181.839 145.89 181.839 145.89C181.839 145.89 202.42 165.987 203.869 166.374C205.318 166.76 258.652 162.123 258.652 162.123L270.588 143.571V91.4334L267.348 89.0778" fill="#75AA3C"/>
</g>
<ellipse cx="229.059" cy="120.284" rx="11.1002" ry="14.8187" fill="#EFF3FC"/>
<path d="M225.967 120.284V114.824C225.966 114.492 226.099 114.185 226.314 114.019C226.529 113.853 226.795 113.853 227.01 114.019L230.552 116.749L234.094 119.479C234.31 119.645 234.442 119.952 234.442 120.284C234.442 120.615 234.31 120.922 234.094 121.088L230.552 123.818L227.01 126.548C226.795 126.714 226.529 126.714 226.314 126.548C226.099 126.382 225.966 126.075 225.967 125.744L225.967 120.284Z" fill="#FFC562"/>
<mask id="mask21_207_62626" style="mask-type:alpha" maskUnits="userSpaceOnUse" x="225" y="113" width="10" height="14">
<path fill-rule="evenodd" clip-rule="evenodd" d="M225.967 120.284V114.824C225.966 114.492 226.099 114.185 226.314 114.019C226.529 113.853 226.795 113.853 227.01 114.019L230.552 116.749L234.094 119.479C234.31 119.645 234.442 119.952 234.442 120.284C234.442 120.615 234.31 120.922 234.094 121.088L230.552 123.818L227.01 126.548C226.795 126.714 226.529 126.714 226.314 126.548C226.099 126.382 225.966 126.075 225.967 125.744L225.967 120.284Z" fill="white"/>
</mask>
<g mask="url(#mask21_207_62626)">
<path d="M233.554 116.833C233.779 125.067 220.418 130.681 220.418 130.681L229.059 131.355L240.159 120.284" fill="#D89D35"/>
</g>
<path d="M214.1 87.7495L216.126 86.8691C216.304 86.7917 216.438 86.5343 216.376 86.2805C216.319 86.0431 216.126 85.8632 215.935 85.9462L213.909 86.8266C213.731 86.9041 213.597 87.1614 213.659 87.4153C213.716 87.6526 213.909 87.8326 214.1 87.7495H214.1Z" fill="#D6DCF2"/>
<path d="M254.286 116.733L252.789 120.564C252.702 120.786 252.741 121.094 252.918 121.219C253.083 121.335 253.316 121.285 253.409 121.047L254.905 117.217C254.992 116.995 254.954 116.687 254.777 116.562C254.612 116.446 254.378 116.496 254.286 116.733Z" fill="#75AA3C"/>
<path d="M207.281 133.855C207.426 133.855 207.556 133.738 207.612 133.559C207.667 133.38 207.637 133.174 207.534 133.038C207.432 132.901 207.277 132.86 207.143 132.934C207.009 133.008 206.922 133.182 206.922 133.376C206.924 133.639 207.084 133.852 207.281 133.855Z" fill="#75AA3C"/>
<path d="M153.313 140.906C153.587 140.662 157.423 136.377 157.423 136.377L158.054 138.403L158.146 140.242L153.652 144.384L153.313 140.906Z" fill="#FF9763"/>
<path d="M152.238 141.952C152.288 144.196 150.813 151.161 150.813 151.161C150.813 151.161 151.385 152.774 153.023 149.96C154.016 148.255 154.861 143.674 154.861 143.674C154.861 143.674 153.386 140.853 154.262 139.885L152.637 141.037C152.384 141.214 152.229 141.57 152.238 141.952Z" fill="#3A3530"/>
<path d="M153.725 137.267C154.096 139.912 156.353 142.432 156.353 142.432C156.353 142.432 165.131 136.749 167.488 134.576C169.845 132.403 178.118 118.156 178.118 118.156L174.753 116.263C174.753 116.263 168.195 121.283 165.019 129.954L153.725 137.267Z" fill="#9A7ED9"/>
<mask id="mask22_207_62626" style="mask-type:alpha" maskUnits="userSpaceOnUse" x="153" y="116" width="26" height="27">
<path fill-rule="evenodd" clip-rule="evenodd" d="M153.725 137.267C154.096 139.912 156.353 142.432 156.353 142.432C156.353 142.432 165.131 136.749 167.488 134.576C169.845 132.403 178.118 118.156 178.118 118.156L174.753 116.263C174.753 116.263 168.195 121.283 165.019 129.954L153.725 137.267Z" fill="white"/>
</mask>
<g mask="url(#mask22_207_62626)">
<path d="M155.499 135.492C154.801 138.128 158.756 141.778 158.756 141.778" stroke="#7B5CB7" stroke-width="0.65" stroke-linecap="round" stroke-linejoin="round"/>
<path d="M156.019 138.264L165.498 132.315L170.619 124.088" stroke="#7B5CB7" stroke-width="0.65" stroke-linecap="round" stroke-linejoin="round"/>
<path d="M157.607 134.246C161.561 133.074 168.549 130.262 169.128 129.347C175.097 119.918 173.729 118.123 173.729 118.123L162.609 126.484L159.28 130.041" fill="#6F4EB9"/>
</g>
<path d="M180.858 109.682C182.109 109.682 182.556 108.226 183.011 108.712C183.466 109.197 182.678 110.137 182.678 110.137C182.678 110.137 183.891 109.581 183.087 111.684C182.441 113.373 179.562 111.562 179.562 111.562L180.858 109.682Z" fill="#FF9763"/>
<path d="M182.465 86.5946L182.744 105.502L156.501 112.024L158.13 103.372L182.465 86.5946Z" fill="#935738"/>
<path d="M179.188 90.6349L179.856 86.5946L161.728 100.406L167.868 103.914L178.126 103.502L179.947 101.877L179.188 90.6349Z" fill="#F0F3FC"/>
<path d="M179.856 86.5946L181.947 88.0411C181.947 88.0411 181.772 102.497 181.692 103.131C181.692 103.131 181.711 104.622 179.452 104.408L179.947 101.615C179.947 101.615 177.285 91.2686 179.856 86.5946Z" fill="#F0F3FC"/>
<path d="M161.171 88.1392C166.751 96.691 177.433 96.215 179.586 100.543L181.034 107.091L160.201 99.1666L161.579 92.6355L161.171 88.1392Z" fill="#F0F3FC"/>
<path d="M158.381 96.4265L162.498 92.6355L161.171 88.1392C161.171 88.1392 150.505 104.146 145.865 103.914H147.688L146.579 105.269L148.506 108.548L158.381 96.4265Z" fill="#D6DCF2"/>
<path d="M161.579 90.4554L146.936 108.776L170.117 120.082L183.576 103.534L161.579 90.4554Z" fill="#935738"/>
<mask id="mask23_207_62626" style="mask-type:alpha" maskUnits="userSpaceOnUse" x="146" y="90" width="38" height="31">
<path fill-rule="evenodd" clip-rule="evenodd" d="M161.579 90.4554L146.936 108.776L170.117 120.082L183.576 103.534L161.579 90.4554Z" fill="white"/>
</mask>
<g mask="url(#mask23_207_62626)">
<path d="M146.936 100.899C160.201 130.507 170.617 112.506 170.617 112.506C170.617 112.506 161.815 105.048 175.989 103.209C190.163 101.371 174.765 123.788 174.765 123.788L173.31 126.16L150.315 122.387L148.592 116.989L142.407 104.684L146.462 102.544" fill="#6D3417"/>
</g>
<path d="M182.466 108.104C182.908 107.457 184.425 102.403 184.728 101.918C185.031 101.433 182.848 100.543 182.848 100.543L181.271 104.95L182.466 108.104Z" fill="#FF9763"/>
<mask id="mask24_207_62626" style="mask-type:alpha" maskUnits="userSpaceOnUse" x="181" y="100" width="4" height="9">
<path fill-rule="evenodd" clip-rule="evenodd" d="M182.466 108.104C182.908 107.457 184.425 102.403 184.728 101.918C185.031 101.433 182.848 100.543 182.848 100.543L181.271 104.95L182.466 108.104Z" fill="white"/>
</mask>
<g mask="url(#mask24_207_62626)">
<path d="M183.014 101.389C183.014 102.927 183.978 103.754 185.162 104.738C186.346 105.721 186.25 105.037 186.25 105.037L185.087 101.855" fill="#E84B23"/>
</g>
<path d="M182.269 102.16C181.329 102.767 181.144 103.494 181.144 103.494L183.586 107.208L183.788 106.365C183.788 106.365 182.178 103.737 182.269 102.16Z" fill="#F0F3FC"/>
<path fill-rule="evenodd" clip-rule="evenodd" d="M182.924 99.5928C181.635 98.8853 181.644 100.341 182.466 100.887C183.287 101.433 183.788 100.543 183.788 100.543L182.924 99.5928Z" stroke="black" stroke-width="0.65" stroke-linecap="round" stroke-linejoin="round"/>
<path d="M182.11 101.408C181.905 100.995 181.745 100.545 181.636 100.071C181.175 98.0848 181.682 96.1741 182.768 95.8034C183.853 95.4326 185.107 96.7423 185.568 98.7286C186.029 100.715 185.523 102.626 184.437 102.996C184.049 103.117 183.642 103.054 183.286 102.817" fill="#FF9763"/>
<path d="M184.166 93.983C183.423 93.3548 182.461 93.7642 181.924 94.8861C180.911 94.8487 180.091 95.6794 180.03 96.8909C179.994 97.5855 180.216 98.267 180.597 98.8006C180.593 98.8547 180.587 98.908 180.584 98.9634C180.508 100.447 181.205 101.819 182.14 102.028C183.075 102.236 183.894 101.202 183.97 99.7181C183.983 99.4537 183.972 99.1881 183.937 98.9272C183.991 98.8326 184.039 98.7318 184.079 98.626C184.343 98.3569 184.557 98.0102 184.705 97.6129C185.208 96.2853 184.966 94.6602 184.166 93.983Z" fill="#3A3530"/>
<path d="M184.177 99.9736C182.738 98.7684 182.328 100.877 183.788 101.522L184.177 99.9736Z" fill="#FF9763"/>
<path d="M150.162 130.353C150.495 130.314 155.499 129.005 155.499 129.005L155.256 131.162L154.619 132.818L149.1 133.588L150.162 130.353Z" fill="#FF9763"/>
<path d="M148.837 130.545C148.043 132.496 143.991 137.69 143.991 137.69C143.991 137.69 143.991 139.885 146.379 138.036C147.804 136.932 150.427 133.732 150.427 133.732C150.427 133.732 150.246 130.353 151.385 130.064L149.489 130.041C149.219 130.036 148.968 130.23 148.837 130.545Z" fill="#3A3530"/>
<path d="M177.889 117.597L171.51 114.177C171.51 114.177 167.962 117.875 163.858 125.5L151.951 129.429C150.677 132.895 151.951 134.974 151.951 134.974C151.951 134.974 160.228 132.774 164.778 130.7C167.309 129.546 170.013 127.069 172.304 124.577" fill="#9A7ED9"/>
<mask id="mask25_207_62626" style="mask-type:alpha" maskUnits="userSpaceOnUse" x="151" y="114" width="27" height="21">
<path fill-rule="evenodd" clip-rule="evenodd" d="M177.889 117.597L171.51 114.177C171.51 114.177 167.962 117.875 163.858 125.5L151.951 129.429C150.677 132.895 151.951 134.974 151.951 134.974C151.951 134.974 160.228 132.774 164.778 130.7C167.309 129.546 170.013 127.069 172.304 124.577" fill="white"/>
</mask>
<g mask="url(#mask25_207_62626)">
<path d="M164.637 124.088C169.377 115.194 171.957 120.204 176.067 120.082C180.176 119.96 169.623 112.572 169.623 112.572L165.256 114.359" fill="#6F4EB9"/>
<path d="M153.724 127.854C152.394 130.642 153.724 134.974 153.724 134.974" stroke="#7B5CB7" stroke-width="0.65" stroke-linecap="round" stroke-linejoin="round"/>
<path d="M153.429 131.757L165.435 127.854C165.435 127.854 171.138 118.388 172.127 117.721" stroke="#7B5CB7" stroke-width="0.65" stroke-linecap="round" stroke-linejoin="round"/>
<path d="M170.619 120.667C171.886 121.973 172.849 120.082 172.849 120.082" stroke="#7B5CB7" stroke-width="0.65" stroke-linecap="round" stroke-linejoin="round"/>
</g>
<path d="M170.508 114.006C170.812 116.748 175.799 121.809 177.922 120.434C180.045 119.06 181.152 110.488 184.063 107.658C184.063 107.658 181.784 104.18 182.027 102.078C182.027 102.078 173.811 107.294 170.508 114.006Z" fill="#589BF7"/>
<mask id="mask26_207_62626" style="mask-type:alpha" maskUnits="userSpaceOnUse" x="170" y="102" width="15" height="19">
<path fill-rule="evenodd" clip-rule="evenodd" d="M170.508 114.006C170.812 116.748 175.799 121.809 177.922 120.434C180.045 119.06 181.152 110.488 184.063 107.658C184.063 107.658 181.784 104.18 182.027 102.078C182.027 102.078 173.811 107.294 170.508 114.006Z" fill="white"/>
</mask>
<g mask="url(#mask26_207_62626)">
<path d="M177.285 111.951C166.596 111.74 175.075 120.667 175.075 120.667C175.075 120.667 167.658 119.81 167.578 119.307C167.498 118.804 169.623 109.666 169.623 109.666L174.295 109.777" fill="#2976DF"/>
</g>
<path d="M175.007 111.113C177.519 111.803 178.403 113.147 178.403 113.147L175.913 116.989C175.913 116.989 173.129 116.157 172.701 114.051L175.007 111.113Z" fill="#589BF7"/>
<path d="M168.696 111.372C178.557 114.935 181.394 104.25 181.31 102.358H181.599C181.599 102.358 179.161 119.905 169.148 113.53" fill="#935738"/>
<path d="M177.285 108.911C178.536 108.911 179.34 107.753 179.438 107.941C179.7 108.443 178.927 109.187 178.927 109.187C178.927 109.187 180.318 108.81 179.514 110.913C178.868 112.602 175.989 110.791 175.989 110.791L177.285 108.911Z" fill="#FF9763"/>
<path d="M177.922 106.97C177.922 106.97 173.936 107.734 174.2 107.837C174.465 107.941 177.876 108.123 177.876 108.123C178.559 110.306 177.285 111.952 177.285 111.952C177.285 111.952 168.084 112.404 168.688 107.819C169.293 103.229 180.677 102.557 181.144 102.891" fill="#589BF7"/>
<mask id="mask27_207_62626" style="mask-type:alpha" maskUnits="userSpaceOnUse" x="168" y="102" width="14" height="10">
<path fill-rule="evenodd" clip-rule="evenodd" d="M177.922 106.97C177.922 106.97 173.936 107.734 174.2 107.837C174.465 107.941 177.876 108.123 177.876 108.123C178.559 110.306 177.285 111.952 177.285 111.952C177.285 111.952 168.084 112.404 168.688 107.819C169.293 103.229 180.677 102.557 181.144 102.891" fill="white"/>
</mask>
<g mask="url(#mask27_207_62626)">
<ellipse cx="169.047" cy="108.639" rx="0.963231" ry="2.21374" fill="#FFC562"/>
<path d="M176.595 107.703C177.26 109.907 175.552 112.572 175.552 112.572L176.595 107.703Z" fill="#589BF7"/>
<ellipse cx="176.865" cy="111.32" rx="0.0712111" ry="0.0950583" fill="#589BF7"/>
</g>
<ellipse cx="182.836" cy="107.394" rx="0.231693" ry="0.309283" fill="#F0F3FC"/>
<ellipse cx="181.144" cy="111.951" rx="0.231693" ry="0.309283" fill="#F0F3FC"/>
<ellipse cx="179.561" cy="117.412" rx="0.231693" ry="0.309283" fill="#F0F3FC"/>
<rect width="0.353041" height="0.854386" rx="0.17652" transform="matrix(0.975041 -0.222026 0.127049 0.991896 184.951 98.2631)" fill="#190000"/>
<path d="M185.178 97.4203C184.654 97.508 184.575 97.8221 184.905 97.7958C185.236 97.7694 185.52 97.363 185.178 97.4203Z" fill="#190000"/>
<path d="M185.451 98.6123C186.154 98.7216 186.118 99.8617 185.558 99.7344L185.451 98.6123Z" fill="#FF9763"/>
<ellipse cx="184.622" cy="99.343" rx="0.397588" ry="0.391367" fill="#E84B23"/>
<path d="M184.861 99.8617C185.013 100.097 185.248 100.204 185.476 100.14" stroke="#993443" stroke-width="0.65" stroke-linecap="round" stroke-linejoin="round"/>
<path d="M183.845 100.27C183.777 100.128 183.648 100.064 183.527 100.112C183.466 100.137 183.413 100.192 183.381 100.267C183.351 100.339 183.34 100.423 183.349 100.504C183.353 100.551 183.364 100.596 183.381 100.637C183.401 100.681 183.428 100.72 183.46 100.75C183.484 100.769 183.512 100.774 183.539 100.764C183.564 100.754 183.586 100.732 183.6 100.701C183.614 100.669 183.617 100.631 183.61 100.596L183.6 100.563C183.591 100.543 183.578 100.526 183.563 100.514L183.56 100.512L183.581 100.533C183.572 100.523 183.564 100.512 183.556 100.499L183.572 100.527C183.564 100.512 183.557 100.496 183.551 100.479L183.561 100.512C183.555 100.492 183.551 100.471 183.548 100.45L183.552 100.486C183.55 100.463 183.55 100.44 183.552 100.417L183.548 100.453C183.55 100.433 183.554 100.414 183.56 100.395L183.549 100.428C183.555 100.411 183.562 100.395 183.57 100.38L183.554 100.407C183.562 100.395 183.57 100.384 183.579 100.374L183.559 100.395C183.569 100.385 183.58 100.376 183.591 100.369L183.567 100.383C183.581 100.375 183.595 100.37 183.61 100.367L183.582 100.372C183.599 100.369 183.617 100.369 183.634 100.372L183.606 100.367C183.622 100.371 183.638 100.376 183.653 100.384L183.628 100.37C183.642 100.378 183.655 100.388 183.667 100.4L183.646 100.379C183.656 100.389 183.665 100.401 183.673 100.414L183.657 100.387C183.661 100.394 183.665 100.401 183.668 100.408C183.682 100.438 183.704 100.461 183.729 100.471C183.769 100.486 183.812 100.466 183.838 100.422C183.863 100.378 183.866 100.318 183.845 100.27H183.845Z" fill="#190000"/>
<path d="M182.633 96.0197C182.635 96.0349 182.637 96.0501 182.639 96.0654C182.639 96.0707 182.644 96.1154 182.642 96.0881C182.644 96.1144 182.646 96.1409 182.648 96.1673C182.651 96.2247 182.652 96.2822 182.651 96.3397C182.65 96.3663 182.649 96.3927 182.647 96.4192C182.646 96.4346 182.645 96.45 182.643 96.4654C182.643 96.472 182.642 96.4786 182.642 96.4852C182.643 96.4708 182.643 96.4718 182.641 96.4883C182.634 96.5451 182.626 96.6012 182.614 96.657C182.605 96.704 182.615 96.7545 182.64 96.7893C182.666 96.824 182.704 96.8379 182.739 96.8256C182.774 96.8133 182.802 96.7767 182.812 96.7296C182.862 96.474 182.869 96.2063 182.83 95.947C182.815 95.8745 182.759 95.832 182.704 95.8516C182.65 95.8732 182.619 95.9471 182.633 96.0197Z" fill="#190000"/>
<path d="M177.361 118.26C177.782 118.263 178.198 118.139 178.578 117.898C178.627 117.86 178.643 117.776 178.615 117.711C178.586 117.647 178.524 117.626 178.475 117.662C178.127 117.88 177.746 117.991 177.361 117.987C177.306 117.989 177.262 118.049 177.262 118.123C177.262 118.197 177.306 118.257 177.361 118.26V118.26Z" fill="#2976DF"/>
<path d="M163.54 101.039C164.549 101.35 165.579 101.517 166.614 101.537C166.746 101.54 166.746 101.266 166.614 101.264C165.597 101.245 164.585 101.081 163.595 100.776C163.467 100.736 163.412 100.999 163.54 101.039V101.039Z" fill="#6D3417"/>
<path d="M163.622 125.606L164.331 126.146C164.38 126.185 164.443 126.163 164.472 126.097C164.5 126.032 164.484 125.949 164.435 125.91L163.725 125.37C163.676 125.332 163.613 125.354 163.585 125.419C163.556 125.484 163.573 125.568 163.622 125.606Z" fill="#7B5CB7"/>
<path d="M162.582 136.027C162.922 136.16 163.27 136.252 163.623 136.302C163.679 136.302 163.725 136.241 163.725 136.166C163.724 136.091 163.679 136.031 163.623 136.029C163.289 135.98 162.959 135.891 162.636 135.764C162.51 135.714 162.455 135.978 162.582 136.027V136.027Z" fill="#7B5CB7"/>
<path d="M149.655 135.975L149.925 134.283L149.754 134.343C150.119 134.838 150.488 135.327 150.861 135.811C150.956 135.934 151.101 135.741 151.006 135.618C150.633 135.134 150.264 134.644 149.899 134.15C149.873 134.116 149.836 134.103 149.801 134.115C149.765 134.128 149.738 134.164 149.728 134.21L149.457 135.902C149.43 136.074 149.628 136.147 149.655 135.975H149.655Z" fill="#190000"/>
<path d="M154.785 146.238C154.749 145.723 154.695 145.21 154.623 144.701L154.451 144.834C154.937 145.38 155.452 145.878 155.991 146.325C156.103 146.418 156.206 146.182 156.095 146.089C155.57 145.655 155.069 145.171 154.596 144.641C154.563 144.599 154.513 144.591 154.474 144.622C154.434 144.653 154.414 144.714 154.425 144.774C154.494 145.259 154.545 145.747 154.58 146.238C154.592 146.412 154.797 146.414 154.785 146.238L154.785 146.238Z" fill="#190000"/>
<path d="M178.821 109.06L178.594 109.101C178.568 109.11 178.546 109.133 178.533 109.164C178.519 109.195 178.515 109.232 178.522 109.267C178.529 109.303 178.546 109.333 178.569 109.351L178.594 109.365C178.612 109.371 178.63 109.371 178.648 109.365L178.875 109.323C178.901 109.314 178.923 109.291 178.937 109.26C178.95 109.229 178.954 109.192 178.947 109.157C178.94 109.122 178.923 109.092 178.9 109.073L178.875 109.06C178.858 109.053 178.839 109.053 178.821 109.06Z" fill="#E84B23"/>
<path d="M156.992 111.238C157.343 111.823 157.807 112.269 158.334 112.528C158.458 112.59 158.511 112.326 158.389 112.265C157.896 112.017 157.463 111.595 157.137 111.044C157.097 110.992 157.032 110.992 156.992 111.044C156.953 111.099 156.953 111.184 156.992 111.238Z" fill="#6D3417"/>
<path d="M174.185 107.708L173.324 107.786C173.267 107.788 173.222 107.848 173.221 107.923C173.222 107.998 173.267 108.059 173.324 108.059L174.185 107.982C174.241 107.98 174.286 107.92 174.287 107.845C174.287 107.77 174.241 107.709 174.185 107.708V107.708Z" fill="#2976DF"/>
<path d="M179.806 104.503C179.88 105.226 179.549 105.961 179.055 106.252C179.006 106.291 178.99 106.374 179.018 106.439C179.048 106.503 179.109 106.525 179.158 106.488C179.745 106.143 180.089 105.268 180.004 104.43C179.989 104.358 179.932 104.315 179.878 104.335C179.824 104.356 179.793 104.43 179.806 104.503Z" fill="#2976DF"/>
<path d="M175.866 92.8841C175.384 93.4088 174.802 93.7423 174.185 93.8466C174.129 93.849 174.084 93.9088 174.082 93.9833C174.082 94.0586 174.128 94.1196 174.185 94.12C174.855 94.01 175.489 93.6485 176.011 93.0774C176.113 92.9659 175.967 92.7735 175.866 92.8841V92.8841Z" fill="#D6DCF2"/>
<rect x="102.247" y="194.783" width="92.7878" height="31.3012" rx="10.0822" fill="#589BF7"/>
<rect x="102.247" y="195.921" width="92.7878" height="31.3012" rx="10.0822" fill="#589BF7"/>
<mask id="mask28_207_62626" style="mask-type:alpha" maskUnits="userSpaceOnUse" x="102" y="195" width="94" height="33">
<rect x="102.247" y="195.921" width="92.7878" height="31.3012" rx="10.0822" fill="white"/>
</mask>
<g mask="url(#mask28_207_62626)">
<path d="M192.642 188.632C192.936 198.071 195.839 222.509 189.95 223.406C161.854 227.687 98.5959 226.222 98.5959 226.222C98.5959 226.222 139.163 248.783 139.969 250.528C140.774 252.272 199.33 257.657 199.33 257.657L207.407 223.631L202.022 199.026" fill="#2976DF"/>
</g>
<g opacity="0.49">
<rect x="130.204" y="204.104" width="53.4193" height="4.93884" rx="2.46942" fill="#F0F3FC"/>
<rect x="130.204" y="211.572" width="19.5283" height="4.8642" rx="2.4321" fill="#F0F3FC"/>
<rect x="151.882" y="211.572" width="19.5283" height="4.8642" rx="2.4321" fill="#F0F3FC"/>
</g>
<path d="M116.447 217.844C116.087 217.845 115.74 217.665 115.475 217.34L110.614 211.398C110.233 210.935 110.068 210.237 110.179 209.567C110.29 208.897 110.661 208.357 111.152 208.151C111.643 207.945 112.179 208.105 112.558 208.57L116.431 213.303L123.29 204.631C123.663 204.159 124.196 203.989 124.689 204.183C125.182 204.378 125.559 204.909 125.679 205.575C125.799 206.242 125.643 206.943 125.27 207.415L117.437 217.318C117.17 217.656 116.816 217.845 116.447 217.844Z" fill="#F0F3FC"/>
<path d="M116.12 200.555L115.003 201.759C114.935 201.849 114.898 201.97 114.898 202.097C114.898 202.224 114.936 202.345 115.003 202.435C115.07 202.524 115.161 202.575 115.256 202.575C115.35 202.568 115.44 202.519 115.51 202.435L116.627 201.231C116.694 201.142 116.732 201.02 116.732 200.893C116.731 200.767 116.694 200.645 116.627 200.555C116.56 200.466 116.469 200.416 116.374 200.415C116.28 200.422 116.19 200.471 116.12 200.555Z" fill="#2976DF"/>
<path d="M180.767 215.568L179.643 216.76C179.576 216.85 179.538 216.972 179.538 217.098C179.539 217.225 179.576 217.346 179.643 217.437C179.71 217.526 179.801 217.576 179.896 217.577C179.99 217.569 180.08 217.52 180.15 217.437L181.274 216.244C181.341 216.155 181.379 216.033 181.379 215.906C181.379 215.78 181.341 215.658 181.274 215.568C181.207 215.479 181.116 215.428 181.021 215.428C180.927 215.435 180.837 215.485 180.767 215.568Z" fill="#2976DF"/>
</g>
</svg>
