<svg width="300" height="200" viewBox="0 0 300 200" fill="none" xmlns="http://www.w3.org/2000/svg">
<path d="M242.206 69.0127C254.17 101.197 233.35 148.085 233.35 148.085L242.206 69.0127Z" fill="#FFC562"/>
<path d="M219.96 44.6338C242.271 64.0729 260.938 96.2629 226.909 147.831C226.909 147.831 179.263 103.097 219.96 44.6338Z" fill="#FF9763"/>
<mask id="mask0_1493_50659" style="mask-type:alpha" maskUnits="userSpaceOnUse" x="203" y="44" width="43" height="104">
<path fill-rule="evenodd" clip-rule="evenodd" d="M219.96 44.6338C242.271 64.0729 260.938 96.2629 226.909 147.831C226.909 147.831 179.263 103.097 219.96 44.6338Z" fill="white"/>
</mask>
<g mask="url(#mask0_1493_50659)">
<path d="M218.754 36.6865C192.728 78.5403 230.517 76.9932 231.933 112.539C233.35 148.085 198.456 84.2284 198.456 84.2284L205.824 44.6335H209.149" fill="#E5713E"/>
</g>
<path d="M220.537 54.665C222.457 58.1991 224.096 61.8792 225.437 65.6709C226.783 69.4321 227.786 73.2811 228.624 77.1521C229.442 81.0285 230.025 84.9413 230.467 88.865C230.911 92.79 231.115 96.734 231.228 100.677C231.476 108.566 231.105 116.466 230.378 124.335C230.012 128.271 229.539 132.198 228.958 136.116C228.395 140.035 227.725 143.943 226.909 147.83C228.862 140.111 230.133 132.262 231.023 124.387C231.48 120.449 231.748 116.495 231.934 112.539C232.103 108.582 232.184 104.62 232.069 100.659C231.816 92.7421 231.019 84.818 229.256 77.0427L229.098 76.3131L228.911 75.5886L228.536 74.1397L228.162 72.6913C228.032 72.2097 227.874 71.7338 227.732 71.2548C227.433 70.3003 227.166 69.3379 226.84 68.3906L225.827 65.5581C224.359 61.8173 222.642 58.152 220.537 54.665Z" fill="#E5713E"/>
<path d="M255.977 0C270.88 33.3758 279.607 79.6303 237.805 122.204C237.805 122.204 206.737 47.2228 255.977 0Z" fill="#FFC562"/>
<mask id="mask1_1493_50659" style="mask-type:alpha" maskUnits="userSpaceOnUse" x="228" y="0" width="41" height="123">
<path fill-rule="evenodd" clip-rule="evenodd" d="M255.977 0C270.88 33.3758 279.607 79.6303 237.805 122.204C237.805 122.204 206.737 47.2228 255.977 0Z" fill="white"/>
</mask>
<g mask="url(#mask1_1493_50659)">
<path d="M252.495 -8.38477L255.977 -0.000528336C255.977 -0.000528336 267.693 68.7054 242.361 116.115C217.03 163.524 304.708 42.1969 304.708 42.1969L271.706 1.3869L252.495 -8.38477Z" fill="#D89D35"/>
</g>
<path d="M254.125 11.8311C254.866 16.471 255.447 21.1264 255.717 25.8018C255.8 26.9692 255.825 28.1396 255.883 29.3081L255.957 31.0614L255.977 32.8159C255.984 33.9857 256.007 35.1552 256 36.3246L255.92 39.8326C255.617 49.1996 254.65 58.5332 253.028 67.7636C252.244 72.3895 251.345 77.0015 250.295 81.5875C249.25 86.1745 248.055 90.7334 246.803 95.28C245.539 99.8243 244.156 104.342 242.654 108.832C241.178 113.327 239.561 117.785 237.805 122.205C241.645 113.472 244.737 104.489 247.43 95.4222C250.1 86.3707 252.246 77.1732 253.86 67.8752C254.657 63.2367 255.255 58.5719 255.732 53.8991L256.058 50.3918L256.299 46.8786C256.392 45.7083 256.424 44.5349 256.471 43.3625C256.506 42.1897 256.574 41.0179 256.565 39.8442L256.587 36.3249C256.575 35.152 256.532 33.9791 256.506 32.8064L256.458 31.0477L256.354 29.2906C256.276 28.1197 256.237 26.947 256.126 25.7782L255.773 22.2741L255.684 21.3985L255.562 20.5258L255.317 18.7806C255.04 16.4486 254.544 14.143 254.125 11.8311Z" fill="#FFC562"/>
<path d="M161.452 53.1934C192.256 57.8795 228.243 74.8894 233.35 134.49C233.35 134.49 165.501 121.836 161.452 53.1934Z" fill="#FFC562"/>
<mask id="mask2_1493_50659" style="mask-type:alpha" maskUnits="userSpaceOnUse" x="161" y="53" width="73" height="82">
<path fill-rule="evenodd" clip-rule="evenodd" d="M161.452 53.1934C192.256 57.8795 228.243 74.8894 233.35 134.49C233.35 134.49 165.501 121.836 161.452 53.1934Z" fill="white"/>
</mask>
<g mask="url(#mask2_1493_50659)">
<path d="M144.129 64.7636L161.452 53.1934C161.452 53.1934 182.556 114.491 231.315 129.414C280.073 144.337 128.982 154.905 128.982 154.905L140.434 67.0177" fill="#D89D35"/>
</g>
<path d="M168.36 61.1455C172.202 63.0768 175.906 65.2706 179.446 67.7115C182.964 70.1216 186.258 72.777 189.429 75.5348C192.587 78.3066 195.576 81.2276 198.456 84.2282C201.338 87.2296 204.035 90.3677 206.657 93.5508C211.92 99.9093 216.682 106.59 221.131 113.425C223.355 116.844 225.485 120.311 227.52 123.826C229.571 127.332 231.527 130.883 233.35 134.49C230.004 127.158 226.014 120.064 221.695 113.141C219.545 109.673 217.23 106.288 214.845 102.943C212.446 99.6051 209.971 96.3078 207.337 93.1105C202.051 86.7321 196.314 80.6232 189.878 75.1247L189.28 74.6053L188.662 74.1046L187.425 73.1033L186.188 72.1023C185.772 71.7724 185.338 71.4608 184.914 71.1392C184.055 70.5062 183.219 69.8499 182.343 69.2367L179.694 67.4213C176.088 65.0899 172.326 62.9465 168.36 61.1455Z" fill="#FFC562"/>
<path d="M298.543 50.2578C303.758 77.629 297.595 113.422 235.966 137.425C235.966 137.425 226.958 76.3657 298.543 50.2578Z" fill="#FF9763"/>
<mask id="mask3_1493_50659" style="mask-type:alpha" maskUnits="userSpaceOnUse" x="235" y="50" width="65" height="88">
<path fill-rule="evenodd" clip-rule="evenodd" d="M298.543 50.2578C303.758 77.629 297.595 113.422 235.966 137.425C235.966 137.425 226.958 76.3657 298.543 50.2578Z" fill="white"/>
</mask>
<g mask="url(#mask3_1493_50659)">
<path d="M220.537 116.73C272.844 140.803 298.128 80.5195 298.128 80.5195L303.723 130.522L268.306 151.21L212.597 131.933L214.567 120.142" fill="#E5713E"/>
</g>
<path d="M292.38 58.6797C291.587 62.5838 290.481 66.4177 289.073 70.1446C287.677 73.8912 285.946 77.5305 284.065 81.1008C282.166 84.6656 280.051 88.1371 277.817 91.5445C275.582 94.9532 273.14 98.2525 270.626 101.504C265.613 108.019 260.091 114.221 254.301 120.213C251.405 123.208 248.426 126.14 245.366 129.009C242.32 131.888 239.187 134.694 235.966 137.425C242.648 132.194 248.864 126.502 254.789 120.591C257.763 117.642 260.593 114.58 263.357 111.474C266.11 108.36 268.794 105.194 271.319 101.927C276.346 95.3865 280.937 88.5556 284.65 81.3421L285.003 80.6688L285.331 79.9846L285.985 78.6165L286.639 77.2487C286.852 76.791 287.04 76.3237 287.241 75.8618C287.629 74.9328 288.05 74.0149 288.411 73.0777L289.463 70.2565C290.747 66.4626 291.779 62.5999 292.38 58.6797Z" fill="#E5713E"/>
<path d="M200.855 195.73H264.625L276.262 123.107H189.218L200.855 195.73Z" fill="#9A7ED9"/>
<mask id="mask4_1493_50659" style="mask-type:alpha" maskUnits="userSpaceOnUse" x="189" y="123" width="88" height="73">
<path fill-rule="evenodd" clip-rule="evenodd" d="M200.855 195.73H264.625L276.262 123.107H189.218L200.855 195.73Z" fill="white"/>
</mask>
<g mask="url(#mask4_1493_50659)">
<path d="M182.135 131.933C294.857 138.649 256.586 195.73 256.586 195.73L276.262 197.759L292.38 127.519L276.262 113.85L173.683 122.204" fill="#6F4EB9"/>
</g>
<rect x="283.586" y="131.933" width="101.451" height="11.7907" transform="rotate(-180 283.586 131.933)" fill="#9A7ED9"/>
<path d="M220.466 177.586L221.568 178.333C221.776 178.455 222.036 178.438 222.226 178.292C222.417 178.145 222.499 177.898 222.436 177.667C222.389 177.521 222.293 177.396 222.164 177.314L221.062 176.566C220.855 176.445 220.594 176.461 220.404 176.608C220.214 176.754 220.131 177.001 220.195 177.233C220.241 177.379 220.337 177.503 220.466 177.586Z" fill="#D89D35"/>
<path d="M190.47 90.0167C190.966 91.3601 191.608 92.6451 192.385 93.8486C192.553 94.1075 192.916 94.2388 193.193 94.0605C193.451 93.8937 193.584 93.5298 193.405 93.2526C193.033 92.6801 192.692 92.0878 192.385 91.4784C192.231 91.1737 192.086 90.865 191.949 90.5521C191.934 90.5181 191.919 90.4841 191.904 90.45C191.896 90.4296 191.887 90.4092 191.878 90.3887C191.906 90.4546 191.911 90.4674 191.894 90.4272C191.863 90.3519 191.832 90.2765 191.801 90.2008C191.735 90.0357 191.67 89.8697 191.608 89.7027C191.501 89.4141 191.204 89.1861 190.882 89.2903C190.599 89.3818 190.354 89.7067 190.47 90.0166V90.0167Z" fill="#D89D35"/>
<path d="M261.034 36.0777C261.049 36.1699 261.065 36.2621 261.079 36.3544C261.104 36.4608 261.12 36.569 261.127 36.678C261.127 36.674 261.112 36.5675 261.121 36.6368C261.124 36.66 261.127 36.6831 261.13 36.7063C261.136 36.7526 261.142 36.799 261.147 36.8454C261.16 36.9537 261.172 37.062 261.183 37.1705C261.224 37.5734 261.252 37.9773 261.267 38.3823C261.295 39.1842 261.271 39.9871 261.195 40.7859C261.174 41.0094 261.158 41.238 261.118 41.459C261.119 41.4549 261.134 41.3489 261.124 41.4178C261.119 41.4486 261.115 41.4795 261.11 41.5103C261.103 41.5643 261.095 41.6182 261.086 41.6721C261.067 41.7952 261.047 41.9182 261.026 42.0409C260.989 42.1947 261.01 42.3569 261.085 42.4959C261.164 42.6281 261.29 42.7252 261.438 42.7673C261.725 42.8326 262.108 42.6803 262.164 42.3549C262.46 40.6825 262.531 38.978 262.376 37.2868C262.327 36.777 262.259 36.2694 262.172 35.7639C262.12 35.4586 261.729 35.2601 261.446 35.3515C261.117 35.4581 260.978 35.7507 261.034 36.0778L261.034 36.0777Z" fill="#D89D35"/>
<path d="M264.267 99.0004L261.687 102.514C261.607 102.652 261.586 102.816 261.627 102.969C261.669 103.117 261.767 103.244 261.899 103.322C262.206 103.485 262.511 103.377 262.707 103.11L265.287 99.5964C265.367 99.4589 265.388 99.295 265.346 99.1415C265.304 98.9935 265.207 98.8672 265.075 98.7886C264.767 98.626 264.463 98.7337 264.267 99.0004Z" fill="#E5713E"/>
<path d="M183.876 29.2281C183.774 26.4114 183.078 23.6479 181.835 21.1185C181.362 20.1582 180.813 19.2377 180.192 18.366C175.558 11.8498 167.248 8.49461 159.027 10.5638C150.805 12.633 145.074 19.5221 144.076 27.456C143.942 28.5177 143.894 29.5886 143.932 30.6581C144.034 33.4748 144.73 36.2383 145.973 38.7677C150.851 38.6109 157.402 37.7598 165.367 35.7551C173.332 33.7504 179.505 31.3991 183.876 29.2281Z" fill="#9A7ED9"/>
<mask id="mask5_1493_50659" style="mask-type:alpha" maskUnits="userSpaceOnUse" x="143" y="9" width="41" height="30">
<path fill-rule="evenodd" clip-rule="evenodd" d="M183.876 29.2281C183.774 26.4114 183.078 23.6479 181.835 21.1185C181.362 20.1582 180.813 19.2377 180.192 18.366C175.558 11.8498 167.248 8.49461 159.027 10.5638C150.805 12.633 145.074 19.5221 144.076 27.456C143.942 28.5177 143.894 29.5886 143.932 30.6581C144.034 33.4748 144.73 36.2383 145.973 38.7677C150.851 38.6109 157.402 37.7598 165.367 35.7551C173.332 33.7504 179.505 31.3991 183.876 29.2281Z" fill="white"/>
</mask>
<g mask="url(#mask5_1493_50659)">
<path d="M151.04 7.26906C193.573 9.78741 184.84 33.1155 154.512 37.954C124.184 42.7926 194.594 34.7609 194.594 34.7609L193.444 11.6067L161.192 5.34277L152.582 9.69184" fill="#6F4EB9"/>
</g>
<path d="M147.616 41.5205C152.251 48.0369 160.56 51.392 168.782 49.3228C177.003 47.2535 182.735 40.3644 183.732 32.4307C178.81 34.7105 172.661 36.824 166.055 38.4868C159.448 40.1495 153.031 41.1988 147.616 41.5205Z" fill="#9A7ED9"/>
<mask id="mask6_1493_50659" style="mask-type:alpha" maskUnits="userSpaceOnUse" x="147" y="32" width="37" height="18">
<path fill-rule="evenodd" clip-rule="evenodd" d="M147.616 41.5205C152.251 48.0369 160.56 51.392 168.782 49.3228C177.003 47.2535 182.735 40.3644 183.732 32.4307C178.81 34.7105 172.661 36.824 166.055 38.4868C159.448 40.1495 153.031 41.1988 147.616 41.5205Z" fill="white"/>
</mask>
<g mask="url(#mask6_1493_50659)">
<path d="M156.714 51.7611C144.526 41.6274 168.408 39.5541 179.073 33.6822C189.738 27.8102 137.665 38.0573 137.665 38.0573L147.077 49.2693" fill="#6F4EB9"/>
</g>
<path d="M194.493 22.2442C193.817 19.561 190.046 18.2196 183.283 18.2586C182.297 18.2643 181.263 18.3023 180.192 18.3658C180.813 19.2374 181.363 20.158 181.835 21.1183C187.995 20.9204 191.484 21.8307 191.761 22.9317C192.039 24.0326 189.396 26.4861 183.876 29.2279C179.506 31.3988 173.332 33.7502 165.367 35.7548C157.402 37.7595 150.851 38.6107 145.974 38.7674C139.814 38.9655 136.325 38.0551 136.047 36.9542C135.77 35.8532 138.413 33.3996 143.933 30.6578C143.894 29.5883 143.942 28.5174 144.077 27.4557C143.104 27.9063 142.174 28.3627 141.304 28.8242C135.328 31.9914 132.641 34.9583 133.316 37.6415C133.992 40.3248 137.763 41.6661 144.526 41.627C145.512 41.6214 146.546 41.5836 147.616 41.5199C153.031 41.1982 159.448 40.1489 166.055 38.4861C172.661 36.8234 178.81 34.7099 183.732 32.4301C184.705 31.9794 185.634 31.523 186.505 31.0616C192.481 27.8943 195.168 24.9274 194.493 22.2442Z" fill="#97CC64"/>
<mask id="mask7_1493_50659" style="mask-type:alpha" maskUnits="userSpaceOnUse" x="133" y="18" width="62" height="24">
<path fill-rule="evenodd" clip-rule="evenodd" d="M194.493 22.2442C193.817 19.561 190.046 18.2196 183.283 18.2586C182.297 18.2643 181.263 18.3023 180.192 18.3658C180.813 19.2374 181.363 20.158 181.835 21.1183C187.995 20.9204 191.484 21.8307 191.761 22.9317C192.039 24.0326 189.396 26.4861 183.876 29.2279C179.506 31.3988 173.332 33.7502 165.367 35.7548C157.402 37.7595 150.851 38.6107 145.974 38.7674C139.814 38.9655 136.325 38.0551 136.047 36.9542C135.77 35.8532 138.413 33.3996 143.933 30.6578C143.894 29.5883 143.942 28.5174 144.077 27.4557C143.104 27.9063 142.174 28.3627 141.304 28.8242C135.328 31.9914 132.641 34.9583 133.316 37.6415C133.992 40.3248 137.763 41.6661 144.526 41.627C145.512 41.6214 146.546 41.5836 147.616 41.5199C153.031 41.1982 159.448 40.1489 166.055 38.4861C172.661 36.8234 178.81 34.7099 183.732 32.4301C184.705 31.9794 185.634 31.523 186.505 31.0616C192.481 27.8943 195.168 24.9274 194.493 22.2442Z" fill="white"/>
</mask>
<g mask="url(#mask7_1493_50659)">
<path d="M128.682 29.9421C147.443 26.9867 145.644 35.4133 145.644 35.4133L150.27 24.9484L142.817 23.4043" fill="#75AA3C"/>
<path d="M175.069 15.4268C184.45 16.7071 185.478 23.4044 185.478 23.4044L177.511 24.9485L174.941 22.4895" fill="#75AA3C"/>
</g>
<path d="M163.349 19.2686C162.59 20.5678 161.528 21.664 160.253 22.4635L163.349 19.2686Z" fill="#190000"/>
<path d="M163.172 19.1645C162.429 20.4323 161.393 21.5028 160.149 22.2858C159.926 22.4261 160.132 22.7817 160.357 22.6405C161.66 21.8207 162.747 20.6997 163.527 19.3718C163.661 19.1433 163.306 18.9363 163.172 19.1645H163.172Z" fill="#6F4EB9"/>
<path d="M173.755 43.4248C173.448 43.8467 173.054 44.1975 172.599 44.4534L173.755 43.4248Z" fill="#190000"/>
<path d="M173.578 43.3205C173.559 43.3464 173.54 43.3722 173.52 43.3976C173.538 43.3748 173.518 43.3992 173.511 43.409C173.501 43.4216 173.49 43.434 173.48 43.4465C173.44 43.4961 173.398 43.5445 173.354 43.5919C173.27 43.6843 173.181 43.7723 173.087 43.8555C173.042 43.896 172.995 43.9353 172.948 43.9736C172.935 43.9836 172.922 43.9935 172.91 44.0034C172.893 44.0171 172.927 43.9907 172.898 44.0124C172.872 44.0314 172.846 44.0506 172.82 44.0692C172.716 44.1435 172.607 44.2124 172.495 44.2754C172.397 44.3326 172.364 44.4584 172.422 44.5563C172.479 44.6543 172.605 44.6873 172.703 44.63C173.186 44.3545 173.606 43.9786 173.932 43.5278C173.989 43.4298 173.956 43.3043 173.859 43.2468C173.76 43.1928 173.637 43.2252 173.578 43.3205H173.578Z" fill="#6F4EB9"/>
<path d="M140.594 39.8174L139.443 40.8513L140.594 39.8174Z" fill="#190000"/>
<path d="M140.449 39.6725L139.298 40.7065C139.219 40.787 139.219 40.9164 139.298 40.9969C139.38 41.0746 139.508 41.0746 139.589 40.9969L140.74 39.963C140.819 39.8824 140.819 39.753 140.74 39.6725C140.659 39.5948 140.531 39.5948 140.449 39.6725Z" fill="#75AA3C"/>
<rect x="48.6792" y="68.8193" width="181.063" height="127.029" rx="3.40295" fill="#516DDB"/>
<mask id="mask8_1493_50659" style="mask-type:alpha" maskUnits="userSpaceOnUse" x="48" y="68" width="182" height="128">
<rect x="48.6792" y="68.8193" width="181.063" height="127.029" rx="3.40295" fill="white"/>
</mask>
<g mask="url(#mask8_1493_50659)">
<path d="M38.312 176.933C40.898 162.894 207.881 192.818 238.175 165.48C268.468 138.142 248.15 206.487 248.15 206.487L80.4273 239.736" fill="#3152BA"/>
</g>
<rect x="56.5522" y="79.0371" width="165.317" height="102.894" rx="3.10039" fill="#97CC64"/>
<mask id="mask9_1493_50659" style="mask-type:alpha" maskUnits="userSpaceOnUse" x="56" y="79" width="166" height="103">
<rect x="56.5522" y="79.0371" width="165.317" height="102.894" rx="3.10039" fill="white"/>
</mask>
<g mask="url(#mask9_1493_50659)">
<path d="M218.825 68.8193C209.723 196.91 14.6467 242.337 -130.574 246.972C-275.795 251.608 234.133 220.493 234.133 220.493L263.094 139.815L241.166 76.1069L214.687 72.9075" fill="#75AA3C"/>
<path d="M87.8139 108.685C88.1504 114.721 88.4195 120.761 88.6211 126.803C88.8224 132.846 88.9559 138.89 89.0215 144.935C89.0584 148.328 89.0738 151.721 89.0679 155.114C89.0668 155.747 90.0509 155.748 90.052 155.114C90.0622 149.068 90.0049 143.023 89.88 136.978C89.7549 130.934 89.5619 124.892 89.3011 118.851C89.1548 115.461 88.987 112.073 88.798 108.685C88.7629 108.055 87.7786 108.051 87.8139 108.685H87.8139Z" fill="white"/>
<path d="M68.654 142.194C79.8968 141.689 91.1425 141.184 102.363 140.296C113.494 139.415 124.591 138.14 135.729 137.346C141.997 136.9 148.278 136.61 154.563 136.625C155.196 136.627 155.197 135.643 154.563 135.641C143.4 135.614 132.268 136.558 121.163 137.604C110.003 138.655 98.851 139.664 87.6566 140.288C81.3247 140.641 74.9893 140.926 68.654 141.21C68.0233 141.239 68.0198 142.223 68.654 142.194V142.194Z" fill="white"/>
<path d="M152.417 132.195L156.171 135.33L157.096 136.102C157.245 136.227 157.402 136.347 157.543 136.481C157.57 136.506 157.594 136.536 157.622 136.561C157.665 136.601 157.596 136.536 157.602 136.533C157.613 136.547 157.623 136.562 157.631 136.578C157.636 136.585 157.65 136.621 157.657 136.624C157.655 136.624 157.619 136.535 157.636 136.587C157.653 136.638 157.629 136.542 157.629 136.539C157.629 136.505 157.651 136.45 157.629 136.514C157.63 136.511 157.663 136.43 157.638 136.48C157.61 136.533 157.657 136.451 157.658 136.456C157.66 136.47 157.588 136.528 157.577 136.538C157.508 136.603 157.438 136.666 157.368 136.729C157.225 136.858 157.08 136.986 156.934 137.112C156.653 137.354 156.367 137.59 156.076 137.82C156.029 137.857 155.982 137.893 155.936 137.93C155.892 137.965 155.941 137.926 155.947 137.921C155.924 137.939 155.9 137.957 155.877 137.975C155.794 138.038 155.712 138.101 155.628 138.163C155.462 138.287 155.294 138.41 155.124 138.53C154.773 138.778 154.416 139.018 154.053 139.249C153.836 139.387 153.729 139.693 153.876 139.922C154.016 140.153 154.314 140.231 154.55 140.099C155.231 139.665 155.891 139.201 156.529 138.705C156.851 138.456 157.167 138.201 157.478 137.938C157.63 137.808 157.782 137.677 157.931 137.544C158.08 137.422 158.221 137.291 158.353 137.152C158.552 136.945 158.641 136.657 158.594 136.375C158.545 136.158 158.43 135.961 158.266 135.811C158.125 135.671 157.963 135.549 157.81 135.422L157.311 135.005L155.35 133.367L153.112 131.499C152.915 131.334 152.607 131.291 152.417 131.499C152.25 131.68 152.206 132.018 152.417 132.194L152.417 132.195Z" fill="white"/>
<path d="M85.9529 144.149C87.5981 140.146 89.3238 136.177 91.1303 132.242C92.8996 128.388 94.6961 124.526 96.6763 120.775C97.3861 119.43 98.2437 117.977 99.6008 117.197C100.274 116.806 101.06 116.651 101.831 116.759C102.725 116.89 103.542 117.33 104.27 117.848C105.769 118.912 107.037 120.378 108.193 121.795C109.38 123.263 110.457 124.817 111.415 126.444C113.338 129.68 114.763 133.128 116.131 136.625C117.418 139.918 118.847 143.316 121.471 145.786C121.817 146.111 122.201 146.455 122.674 146.573C123.164 146.696 123.62 146.542 123.985 146.207C124.323 145.896 124.594 145.49 124.868 145.124C125.155 144.741 125.43 144.348 125.691 143.946C126.746 142.328 127.593 140.588 128.341 138.81C129.083 137.042 129.72 135.232 130.348 133.421C131.076 131.325 131.803 129.229 132.53 127.133L133.626 123.973L134.174 122.394L134.448 121.604C134.506 121.435 134.557 121.101 134.698 120.976C134.907 120.792 135.418 121.087 135.614 121.201C135.954 121.408 136.257 121.668 136.512 121.973C137.095 122.637 137.515 123.44 137.95 124.203C140.03 127.848 141.912 131.604 143.587 135.452C143.998 136.397 144.395 137.347 144.78 138.302C144.879 138.549 145.108 138.722 145.385 138.646C145.619 138.582 145.829 138.289 145.729 138.041C144.125 134.055 142.304 130.16 140.276 126.373C139.778 125.445 139.267 124.523 138.744 123.608C138.289 122.813 137.838 122.008 137.238 121.311C136.69 120.676 135.939 120.099 135.089 119.97C134.596 119.895 134.128 120.05 133.848 120.479C133.568 120.908 133.45 121.483 133.283 121.963C131.831 126.151 130.398 130.347 128.922 134.527C127.629 138.185 126.183 141.907 123.75 144.976C123.551 145.228 123.272 145.727 122.889 145.612C122.475 145.489 122.121 145.056 121.827 144.758C121.207 144.126 120.648 143.436 120.157 142.699C119.159 141.214 118.39 139.585 117.709 137.935C117.001 136.222 116.371 134.478 115.654 132.769C114.907 130.971 114.07 129.211 113.146 127.497C111.313 124.128 109.066 120.922 106.286 118.264C104.954 116.991 103.273 115.75 101.347 115.742C99.6309 115.736 98.225 116.769 97.2121 118.075C96.0809 119.532 95.3223 121.255 94.5064 122.898C93.526 124.873 92.566 126.858 91.6263 128.852C89.7552 132.824 87.9658 136.832 86.258 140.878C85.8352 141.879 85.4172 142.882 85.004 143.888C84.903 144.134 85.1135 144.429 85.3477 144.493C85.63 144.57 85.8515 144.396 85.9529 144.149L85.9529 144.149Z" fill="white"/>
<path d="M153.166 107.683L152.374 112.341C152.332 112.586 152.418 112.82 152.659 112.921C152.885 113.015 153.146 112.93 153.273 112.72C154.717 110.557 155.963 108.269 156.997 105.883C157.301 105.18 157.588 104.47 157.858 103.753L156.892 103.622C156.831 104.79 156.725 105.954 156.575 107.114C156.571 107.145 156.567 107.176 156.562 107.207C156.549 107.306 156.559 107.236 156.561 107.215C156.551 107.293 156.54 107.37 156.53 107.447C156.51 107.586 156.49 107.725 156.469 107.864C156.425 108.156 156.378 108.449 156.329 108.741C156.232 109.31 156.124 109.876 156.006 110.441C155.776 111.537 155.523 112.639 155.185 113.708C155.114 113.934 155.036 114.158 154.948 114.378C154.947 114.38 154.899 114.5 154.928 114.429C154.957 114.358 154.907 114.477 154.906 114.479C154.885 114.526 154.863 114.574 154.841 114.621C154.786 114.739 154.727 114.855 154.663 114.969C154.607 115.07 154.546 115.17 154.482 115.267C154.453 115.31 154.424 115.353 154.394 115.395C154.375 115.421 154.356 115.447 154.337 115.473C154.315 115.502 154.321 115.494 154.355 115.451C154.343 115.466 154.33 115.481 154.318 115.496C154.244 115.587 154.166 115.674 154.084 115.757C154.047 115.794 154.009 115.831 153.97 115.866C153.937 115.896 153.857 115.94 153.838 115.978C153.859 115.934 153.902 115.932 153.855 115.965C153.826 115.985 153.798 116.006 153.769 116.026C153.717 116.062 153.662 116.097 153.607 116.129C153.552 116.162 153.496 116.193 153.438 116.222C153.383 116.242 153.33 116.267 153.28 116.297C153.339 116.249 153.344 116.272 153.301 116.288C153.268 116.3 153.235 116.313 153.203 116.324C153.142 116.346 153.082 116.365 153.02 116.382C152.965 116.397 152.909 116.411 152.852 116.423C152.824 116.428 152.796 116.434 152.768 116.439L152.734 116.445C152.679 116.453 152.689 116.452 152.763 116.441C152.733 116.464 152.634 116.454 152.594 116.456C152.538 116.459 152.482 116.459 152.425 116.458C152.364 116.457 152.303 116.451 152.242 116.446C152.168 116.44 152.367 116.47 152.257 116.447C152.224 116.441 152.191 116.436 152.159 116.428C152.105 116.416 152.051 116.402 151.998 116.386C151.977 116.379 151.956 116.372 151.935 116.365C151.895 116.35 151.834 116.304 151.929 116.365C151.825 116.299 151.709 116.254 151.607 116.181C151.396 116.033 151.05 116.137 150.933 116.358C150.804 116.593 150.881 116.889 151.11 117.031C151.963 117.632 153.118 117.514 153.997 117.04C154.953 116.524 155.533 115.568 155.918 114.585C156.099 114.103 156.253 113.612 156.379 113.113C156.537 112.526 156.682 111.936 156.816 111.342C157.081 110.164 157.298 108.975 157.469 107.778C157.665 106.399 157.803 105.013 157.876 103.622C157.875 103.377 157.692 103.17 157.449 103.139C157.207 103.108 156.979 103.257 156.909 103.491C156.795 103.795 156.678 104.098 156.557 104.4C156.497 104.551 156.436 104.701 156.374 104.851C156.346 104.919 156.317 104.988 156.289 105.056C156.234 105.187 156.312 105.002 156.278 105.081C156.258 105.128 156.237 105.176 156.217 105.224C155.965 105.814 155.699 106.399 155.42 106.978C154.859 108.141 154.247 109.279 153.583 110.389C153.212 111.01 152.826 111.622 152.423 112.223L153.323 112.603L154.115 107.945C154.158 107.692 154.048 107.403 153.771 107.34C153.533 107.285 153.212 107.412 153.166 107.683H153.166Z" fill="white"/>
<path d="M161.047 106.98L166.038 106.442L167.446 106.29C167.702 106.262 167.951 106.083 167.939 105.798C167.928 105.555 167.721 105.276 167.446 105.306L162.456 105.844L161.047 105.996C160.792 106.024 160.542 106.203 160.555 106.488C160.566 106.731 160.773 107.01 161.047 106.98Z" fill="white"/>
<path d="M160.893 112.06C162.628 111.811 164.345 111.447 166.031 110.97C166.509 110.835 166.984 110.691 167.456 110.538C167.7 110.459 167.884 110.194 167.799 109.933C167.72 109.688 167.456 109.505 167.194 109.589C165.526 110.129 163.825 110.558 162.101 110.873C161.612 110.961 161.123 111.041 160.631 111.112C160.376 111.148 160.213 111.486 160.288 111.717C160.378 111.997 160.619 112.1 160.893 112.06L160.893 112.06Z" fill="white"/>
<path d="M172.906 107.655C174.618 107.155 176.291 106.527 177.911 105.777C178.364 105.567 178.813 105.347 179.257 105.118C179.49 104.98 179.568 104.68 179.433 104.445C179.292 104.215 178.996 104.138 178.76 104.268C177.993 104.664 177.212 105.031 176.418 105.369C176.329 105.407 176.391 105.38 176.41 105.373C176.389 105.381 176.368 105.39 176.347 105.399C176.298 105.419 176.249 105.44 176.2 105.46C176.095 105.503 175.99 105.546 175.884 105.588C175.681 105.67 175.476 105.75 175.271 105.828C174.867 105.981 174.461 106.126 174.052 106.264C173.586 106.421 173.117 106.569 172.644 106.706C172.474 106.752 172.342 106.886 172.297 107.057C172.253 107.227 172.303 107.408 172.428 107.532C172.554 107.655 172.736 107.702 172.906 107.655L172.906 107.655Z" fill="white"/>
<path d="M175.534 110.787C176.212 110.548 176.904 110.353 177.607 110.201C177.95 110.127 178.296 110.064 178.644 110.011C178.69 110.004 178.735 109.998 178.78 109.991C178.789 109.99 178.938 109.97 178.831 109.984C178.922 109.972 179.013 109.961 179.104 109.95C179.287 109.929 179.469 109.911 179.652 109.896L179.227 109.156C178.784 110.108 178.253 111.018 177.641 111.871C177.565 111.976 177.489 112.081 177.411 112.184C177.376 112.23 177.341 112.276 177.306 112.321C177.361 112.25 177.315 112.31 177.304 112.324C177.277 112.358 177.25 112.392 177.224 112.425C177.048 112.646 176.857 112.854 176.687 113.079C176.506 113.302 176.432 113.594 176.486 113.876C176.531 114.043 176.638 114.188 176.785 114.28C176.977 114.407 177.219 114.39 177.433 114.341C177.71 114.279 177.987 114.206 178.263 114.139L178.656 114.043C178.718 114.028 178.781 114.014 178.843 113.998C178.943 113.974 178.827 114.006 178.823 113.998C178.821 113.995 178.931 113.996 178.932 113.995C178.909 114.011 178.841 113.98 178.819 113.965L178.779 113.929C178.81 113.962 178.813 113.964 178.788 113.935C178.751 113.88 178.79 113.951 178.799 113.964C178.839 114.022 178.766 113.856 178.803 113.97C178.818 114.019 178.835 114.067 178.847 114.117C178.853 114.142 178.857 114.167 178.863 114.191C178.89 114.301 178.861 114.105 178.866 114.208C178.868 114.264 178.871 114.319 178.869 114.375C178.868 114.406 178.865 114.437 178.863 114.468C178.861 114.507 178.877 114.538 178.867 114.449C178.86 114.564 178.831 114.677 178.783 114.782C178.772 114.813 178.761 114.843 178.75 114.874C178.74 114.9 178.701 114.981 178.746 114.884C178.724 114.933 178.701 114.981 178.677 115.029C178.618 115.144 178.553 115.256 178.482 115.366C178.419 115.465 178.352 115.561 178.282 115.656C178.283 115.655 178.201 115.764 178.245 115.705C178.282 115.657 178.229 115.726 178.22 115.737C178.173 115.796 178.126 115.854 178.077 115.912C177.762 116.289 177.434 116.657 177.101 117.018C176.725 117.434 176.324 117.827 175.902 118.195C175.798 118.284 175.694 118.37 175.587 118.454C175.514 118.511 175.576 118.462 175.59 118.451C175.557 118.476 175.525 118.501 175.492 118.525C175.438 118.565 175.383 118.605 175.327 118.644C175.094 118.807 174.851 118.957 174.599 119.092C174.367 119.231 174.288 119.53 174.423 119.765C174.564 119.995 174.86 120.073 175.096 119.942C176.01 119.452 176.801 118.759 177.515 118.014C177.862 117.653 178.193 117.277 178.522 116.9C178.881 116.512 179.199 116.087 179.469 115.633C179.748 115.13 179.911 114.579 179.824 114.003C179.792 113.716 179.67 113.447 179.474 113.233C179.194 112.959 178.811 112.993 178.463 113.077C178.186 113.144 177.909 113.212 177.632 113.28C177.494 113.314 177.356 113.347 177.217 113.381C177.207 113.384 177.13 113.399 177.13 113.402C177.134 113.384 177.214 113.404 177.226 113.408C177.316 113.435 177.388 113.502 177.422 113.59C177.441 113.626 177.45 113.667 177.447 113.708C177.449 113.669 177.447 113.673 177.442 113.719C177.424 113.812 177.448 113.716 177.452 113.701C177.469 113.629 177.462 113.738 177.437 113.733C177.44 113.733 177.493 113.637 177.501 113.624C177.555 113.534 177.435 113.696 177.493 113.636C177.518 113.61 177.54 113.582 177.563 113.554C177.61 113.5 177.656 113.445 177.702 113.389C177.885 113.169 178.061 112.943 178.234 112.715C178.955 111.762 179.573 110.736 180.077 109.653C180.163 109.498 180.163 109.31 180.077 109.156C179.99 109.004 179.827 108.911 179.652 108.912C178.159 109.033 176.687 109.344 175.272 109.838C175.03 109.923 174.843 110.178 174.929 110.443C175.006 110.682 175.274 110.878 175.534 110.787L175.534 110.787Z" fill="white"/>
<path d="M175.594 101.457C175.612 101.495 175.629 101.533 175.646 101.571C175.696 101.676 175.623 101.51 175.662 101.608C175.693 101.686 175.724 101.764 175.752 101.843C175.808 102.001 175.857 102.161 175.898 102.324C175.939 102.487 175.973 102.651 176 102.817C176.006 102.858 176.018 102.94 176.006 102.852C176.012 102.893 176.017 102.935 176.021 102.977C176.031 103.067 176.038 103.157 176.043 103.248C176.059 103.583 176.049 103.919 176.012 104.252C176.008 104.289 176.009 104.28 176.016 104.225C176.014 104.246 176.011 104.267 176.007 104.288C176.001 104.329 175.994 104.37 175.987 104.412C175.973 104.494 175.956 104.576 175.938 104.658C175.9 104.829 175.853 104.997 175.799 105.163C175.729 105.425 175.882 105.694 176.142 105.768C176.404 105.834 176.671 105.683 176.748 105.425C177.214 103.952 177.105 102.357 176.444 100.96C176.334 100.727 175.98 100.649 175.77 100.784C175.542 100.926 175.464 101.222 175.594 101.457Z" fill="white"/>
<path d="M183.855 107.998C183.891 107.953 183.929 107.91 183.969 107.869C183.994 107.845 184.02 107.823 184.045 107.799C184.111 107.737 184.031 107.805 184.026 107.812C184.068 107.772 184.117 107.74 184.17 107.718C184.2 107.701 184.231 107.686 184.261 107.67C184.347 107.622 184.169 107.699 184.27 107.664C184.325 107.646 184.378 107.626 184.434 107.612C184.462 107.605 184.49 107.598 184.518 107.592C184.567 107.583 184.599 107.548 184.506 107.591C184.563 107.578 184.621 107.574 184.678 107.579C184.707 107.579 184.735 107.58 184.764 107.581C184.781 107.582 184.798 107.583 184.816 107.584C184.871 107.59 184.861 107.588 184.787 107.579C184.837 107.599 184.902 107.601 184.955 107.616C184.977 107.622 184.999 107.629 185.021 107.637L185.053 107.648C185.104 107.668 185.097 107.665 185.033 107.639C185.071 107.636 185.155 107.703 185.186 107.723C185.206 107.736 185.225 107.749 185.245 107.762C185.326 107.816 185.174 107.699 185.269 107.782C185.313 107.821 185.355 107.862 185.394 107.905C185.416 107.925 185.435 107.947 185.451 107.972C185.411 107.879 185.425 107.938 185.448 107.971C185.478 108.014 185.505 108.059 185.531 108.105C185.548 108.136 185.563 108.168 185.578 108.199C185.63 108.304 185.548 108.1 185.582 108.212C185.599 108.268 185.618 108.323 185.631 108.38C185.643 108.413 185.65 108.448 185.65 108.483C185.652 108.478 185.642 108.36 185.645 108.456C185.646 108.515 185.65 108.573 185.647 108.632C185.645 108.674 185.64 108.716 185.636 108.758C185.645 108.669 185.635 108.758 185.629 108.797C185.568 109.184 185.519 109.548 185.685 109.918C185.912 110.423 186.518 110.668 187.046 110.61C187.747 110.532 188.234 110.036 188.657 109.516C188.819 109.316 188.867 109.012 188.657 108.82C188.477 108.655 188.135 108.607 187.961 108.82C187.797 109.033 187.615 109.231 187.416 109.412C187.414 109.415 187.317 109.492 187.378 109.446C187.439 109.399 187.339 109.472 187.336 109.474C187.284 109.509 187.231 109.541 187.175 109.57C187.17 109.573 187.058 109.621 187.131 109.593C187.198 109.567 187.103 109.601 187.097 109.603C187.072 109.611 187.047 109.618 187.022 109.624C187.007 109.627 186.992 109.631 186.977 109.633C186.923 109.642 186.936 109.641 187.015 109.629C186.992 109.615 186.887 109.635 186.86 109.634C186.839 109.631 186.819 109.63 186.798 109.63L186.867 109.64C186.847 109.637 186.827 109.633 186.807 109.629C186.777 109.622 186.683 109.577 186.661 109.586C186.671 109.582 186.768 109.641 186.696 109.599C186.668 109.579 186.638 109.562 186.607 109.546C186.552 109.525 186.692 109.629 186.626 109.56C186.611 109.542 186.593 109.524 186.575 109.509C186.528 109.477 186.634 109.61 186.59 109.527C186.579 109.505 186.567 109.483 186.553 109.462C186.524 109.423 186.58 109.574 186.558 109.46C186.551 109.434 186.545 109.407 186.541 109.38C186.547 109.506 186.547 109.366 186.547 109.347C186.547 109.306 186.551 109.264 186.554 109.223C186.562 109.083 186.535 109.324 186.557 109.185C186.562 109.157 186.566 109.129 186.571 109.101C186.587 109.001 186.602 108.901 186.614 108.8C186.633 108.663 186.636 108.524 186.622 108.387C186.591 108.078 186.49 107.781 186.327 107.518C185.995 106.984 185.426 106.642 184.798 106.599C184.171 106.557 183.561 106.818 183.159 107.302C182.999 107.503 182.948 107.804 183.159 107.998C183.338 108.162 183.684 108.213 183.855 107.998L183.855 107.998Z" fill="white"/>
<path d="M186.316 104.633C186.086 105.195 185.853 105.757 185.617 106.317C185.59 106.382 185.562 106.448 185.534 106.513C185.567 106.435 185.528 106.529 185.52 106.548C185.504 106.585 185.489 106.621 185.473 106.657C185.412 106.803 185.35 106.948 185.288 107.093C185.171 107.369 185.052 107.645 184.933 107.92C184.454 109.028 183.965 110.132 183.465 111.232C183.181 111.857 182.893 112.48 182.603 113.102C182.494 113.335 182.53 113.643 182.779 113.775C182.997 113.89 183.336 113.848 183.452 113.599C184.5 111.358 185.504 109.098 186.465 106.819C186.735 106.179 187.002 105.537 187.265 104.895C187.363 104.656 187.159 104.344 186.921 104.289C186.635 104.224 186.421 104.377 186.316 104.633V104.633Z" fill="white"/>
<path d="M145.767 150.738L145.76 155.374C145.76 155.549 145.853 155.71 146.003 155.799C146.156 155.891 146.347 155.891 146.5 155.799C148.038 154.63 149.656 153.315 150.356 151.451C150.546 150.94 150.644 150.4 150.644 149.855H149.66C149.699 151.264 149.738 152.674 149.663 154.082C149.644 154.425 149.619 154.767 149.586 155.109C149.569 155.28 149.55 155.451 149.529 155.621C149.525 155.652 149.521 155.683 149.517 155.714C149.516 155.732 149.513 155.75 149.51 155.768C149.496 155.861 149.483 155.954 149.468 156.046C149.374 156.665 149.24 157.276 149.067 157.878C148.987 158.152 148.898 158.424 148.801 158.693C148.752 158.827 148.7 158.96 148.647 159.092C148.632 159.128 148.619 159.165 148.602 159.2C148.646 159.105 148.616 159.17 148.607 159.19C148.57 159.273 148.534 159.356 148.496 159.439C148.262 159.956 147.985 160.452 147.668 160.923C147.589 161.04 147.508 161.155 147.423 161.268C147.401 161.299 147.378 161.331 147.354 161.361C147.364 161.348 147.416 161.281 147.36 161.352C147.309 161.417 147.257 161.482 147.203 161.546C147.019 161.768 146.823 161.98 146.617 162.181C146.516 162.28 146.412 162.375 146.306 162.468C146.257 162.511 146.208 162.553 146.159 162.594C146.128 162.619 146.098 162.643 146.067 162.668C145.987 162.735 146.131 162.625 146.039 162.691C145.92 162.78 145.792 162.857 145.659 162.921C145.766 162.872 145.646 162.923 145.627 162.929C145.601 162.937 145.575 162.944 145.549 162.95C145.518 162.953 145.488 162.959 145.459 162.968C145.54 162.958 145.555 162.956 145.501 162.962C145.487 162.963 145.472 162.964 145.457 162.965C145.395 162.96 145.332 162.958 145.27 162.96C145.347 162.946 145.366 162.976 145.315 162.966C145.277 162.958 145.24 162.952 145.203 162.942C145.146 162.928 145.091 162.911 145.036 162.891C144.995 162.876 144.937 162.829 145.044 162.897C145.013 162.88 144.981 162.866 144.949 162.853C144.715 162.733 144.491 162.597 144.277 162.444C143.815 162.131 143.326 161.792 142.761 161.708C142.633 161.678 142.498 161.695 142.382 161.758C142.272 161.823 142.191 161.928 142.156 162.052C142.103 162.285 142.227 162.617 142.5 162.657C142.617 162.674 142.732 162.703 142.844 162.742C142.868 162.751 142.892 162.761 142.917 162.77C143.021 162.808 142.814 162.72 142.914 162.769C142.971 162.797 143.028 162.823 143.084 162.853C143.301 162.974 143.511 163.106 143.713 163.249C144.12 163.525 144.558 163.831 145.053 163.915C145.357 163.974 145.671 163.953 145.964 163.852C146.302 163.711 146.614 163.512 146.884 163.265C147.335 162.883 147.743 162.455 148.103 161.987C149.717 159.909 150.394 157.321 150.603 154.736C150.734 153.113 150.689 151.482 150.644 149.855C150.644 149.584 150.424 149.363 150.152 149.363C149.88 149.363 149.66 149.584 149.66 149.855C149.66 149.963 149.656 150.071 149.648 150.179C149.643 150.232 149.637 150.285 149.632 150.338C149.624 150.414 149.652 150.213 149.633 150.33C149.628 150.359 149.624 150.388 149.619 150.416C149.582 150.628 149.529 150.837 149.46 151.041C149.431 151.142 149.394 151.24 149.35 151.335C149.356 151.323 149.394 151.233 149.358 151.313C149.349 151.335 149.339 151.356 149.329 151.377C149.303 151.436 149.275 151.494 149.246 151.551C149.147 151.746 149.037 151.935 148.917 152.117C148.861 152.202 148.804 152.286 148.744 152.368C148.712 152.412 148.68 152.455 148.647 152.499C148.594 152.569 148.649 152.497 148.657 152.485C148.637 152.515 148.612 152.543 148.589 152.571C148.447 152.748 148.297 152.918 148.142 153.084C147.828 153.415 147.498 153.729 147.151 154.026C146.952 154.197 146.75 154.365 146.545 154.528C146.448 154.606 146.351 154.682 146.253 154.758C146.249 154.761 146.153 154.835 146.215 154.787C146.272 154.743 146.189 154.808 146.178 154.816C146.12 154.861 146.061 154.905 146.003 154.949L146.744 155.374L146.751 150.738C146.751 150.467 146.53 150.246 146.259 150.246C145.987 150.246 145.767 150.467 145.767 150.738L145.767 150.738Z" fill="white"/>
<path d="M156.706 156.511L158.658 155.954C158.919 155.881 159.072 155.61 159 155.349C158.928 155.087 158.658 154.934 158.397 155.005L156.444 155.562C156.182 155.635 156.029 155.906 156.101 156.168C156.173 156.43 156.444 156.584 156.706 156.511Z" fill="white"/>
<path d="M165.528 156.208C166.106 155.328 165.569 154.211 164.758 153.701C164.331 153.426 163.81 153.339 163.316 153.461C162.839 153.601 162.426 153.904 162.149 154.317C161.599 155.092 161.55 156.202 161.991 157.035C162.281 157.581 162.787 157.999 163.412 158.064C163.955 158.12 164.484 157.819 164.821 157.41C165.222 156.924 165.411 156.362 165.548 155.756C165.605 155.471 165.679 155.189 165.767 154.912C165.777 154.883 165.787 154.854 165.798 154.825C165.817 154.774 165.829 154.728 165.804 154.805C165.83 154.737 165.862 154.671 165.9 154.608C165.935 154.543 165.976 154.484 166.016 154.422C166.03 154.4 166.057 154.344 166.005 154.433C166.034 154.393 166.067 154.355 166.103 154.322L165.281 154.105C165.492 155.268 166.027 156.348 166.824 157.221C167.017 157.412 167.327 157.412 167.52 157.221C167.706 157.027 167.706 156.72 167.52 156.526C167.429 156.426 167.343 156.323 167.259 156.218C167.301 156.271 167.277 156.242 167.25 156.205C167.229 156.178 167.209 156.151 167.19 156.124C167.15 156.069 167.112 156.014 167.074 155.958C166.928 155.74 166.797 155.512 166.682 155.276C166.655 155.222 166.63 155.167 166.605 155.112C166.605 155.112 166.553 154.997 166.581 155.06C166.608 155.122 166.564 155.019 166.559 155.006C166.509 154.881 166.464 154.755 166.422 154.627C166.34 154.37 166.276 154.108 166.23 153.843C166.166 153.476 165.645 153.373 165.407 153.626C165.048 154.009 164.847 154.491 164.716 154.993C164.659 155.215 164.613 155.439 164.561 155.662C164.535 155.772 164.508 155.882 164.477 155.992C164.458 156.093 164.425 156.192 164.377 156.284C164.438 156.195 164.394 156.244 164.378 156.279C164.366 156.306 164.353 156.332 164.34 156.359C164.319 156.401 164.297 156.442 164.274 156.483C164.248 156.529 164.221 156.574 164.192 156.618C164.176 156.642 164.16 156.666 164.143 156.69C164.133 156.703 164.069 156.779 164.119 156.723C164.173 156.663 164.097 156.747 164.092 156.753C164.078 156.77 164.062 156.787 164.047 156.803C164.013 156.84 163.977 156.875 163.94 156.909C163.924 156.924 163.906 156.937 163.89 156.952C163.838 156.999 163.99 156.887 163.899 156.945C163.854 156.973 163.81 157.003 163.763 157.028C163.756 157.032 163.707 157.056 163.707 157.057C163.704 157.041 163.809 157.021 163.737 157.043C163.687 157.059 163.637 157.072 163.586 157.085C163.516 157.103 163.604 157.06 163.623 157.082C163.602 157.082 163.581 157.083 163.56 157.086C163.538 157.087 163.516 157.087 163.495 157.086C163.473 157.085 163.451 157.084 163.429 157.082L163.491 157.09C163.442 157.071 163.39 157.058 163.338 157.051L163.321 157.045C163.271 157.026 163.278 157.029 163.342 157.055C163.32 157.047 163.299 157.036 163.28 157.023C163.252 157.007 163.175 156.976 163.16 156.948L163.203 156.982C163.189 156.971 163.176 156.96 163.162 156.948C163.135 156.924 163.109 156.9 163.083 156.875C163.045 156.836 163.01 156.796 162.974 156.755C162.923 156.696 162.984 156.768 162.984 156.768C162.982 156.769 162.948 156.717 162.943 156.709C162.913 156.664 162.885 156.617 162.858 156.57C162.837 156.514 162.81 156.46 162.779 156.409C162.785 156.416 162.821 156.522 162.794 156.444C162.788 156.425 162.78 156.406 162.774 156.387C162.759 156.345 162.746 156.302 162.734 156.259C162.723 156.216 162.712 156.172 162.703 156.128C162.699 156.108 162.695 156.088 162.692 156.069C162.681 156.004 162.707 155.987 162.693 156.081C162.694 155.99 162.689 155.9 162.678 155.81C162.679 155.72 162.697 155.629 162.696 155.54C162.697 155.665 162.685 155.609 162.694 155.566C162.699 155.542 162.703 155.517 162.708 155.493C162.716 155.454 162.725 155.415 162.735 155.376C162.76 155.284 162.794 155.197 162.824 155.107C162.846 155.043 162.77 155.221 162.816 155.13C162.825 155.112 162.833 155.094 162.841 155.077C162.859 155.042 162.877 155.007 162.897 154.973C162.921 154.931 162.946 154.89 162.974 154.849C162.984 154.833 162.996 154.818 163.007 154.802C163.058 154.725 162.935 154.884 163 154.81C163.053 154.747 163.109 154.688 163.168 154.632C163.186 154.616 163.204 154.601 163.222 154.585C163.255 154.555 163.271 154.573 163.19 154.609C163.231 154.584 163.27 154.557 163.308 154.528C163.345 154.505 163.383 154.484 163.422 154.465C163.445 154.457 163.467 154.447 163.487 154.434C163.48 154.441 163.374 154.476 163.451 154.451C163.533 154.424 163.627 154.413 163.707 154.383C163.603 154.422 163.623 154.39 163.676 154.389C163.7 154.389 163.724 154.387 163.748 154.387C163.786 154.387 163.824 154.39 163.862 154.392C163.944 154.395 163.825 154.388 163.817 154.385C163.84 154.391 163.863 154.395 163.887 154.398C163.934 154.407 163.98 154.42 164.025 154.434C164.048 154.442 164.071 154.45 164.093 154.458C164.181 154.488 163.994 154.408 164.082 154.453C164.126 154.475 164.169 154.496 164.211 154.521C164.253 154.545 164.294 154.571 164.334 154.599C164.349 154.612 164.365 154.624 164.382 154.634C164.277 154.59 164.336 154.598 164.373 154.631C164.446 154.696 164.514 154.765 164.578 154.839C164.645 154.914 164.529 154.763 164.564 154.819C164.579 154.844 164.597 154.866 164.613 154.89C164.639 154.93 164.664 154.971 164.687 155.013C164.698 155.034 164.709 155.055 164.719 155.076C164.743 155.125 164.728 155.174 164.715 155.062C164.726 155.107 164.741 155.151 164.759 155.193C164.767 155.238 164.777 155.283 164.789 155.327C164.754 155.239 164.779 155.229 164.782 155.277C164.784 155.304 164.786 155.331 164.787 155.358C164.788 155.402 164.777 155.45 164.782 155.493C164.771 155.396 164.798 155.396 164.788 155.442C164.782 155.469 164.777 155.495 164.77 155.522C164.764 155.544 164.756 155.565 164.75 155.587C164.721 155.69 164.781 155.534 164.757 155.573C164.73 155.619 164.708 155.666 164.679 155.711C164.544 155.946 164.622 156.246 164.855 156.384C165.091 156.515 165.387 156.437 165.528 156.208L165.528 156.208Z" fill="white"/>
<path d="M168.168 152.648C168.206 152.727 168.242 152.807 168.278 152.887C168.296 152.927 168.313 152.967 168.33 153.007C168.29 152.912 168.339 153.031 168.348 153.051C168.413 153.214 168.473 153.378 168.529 153.544C168.639 153.876 168.731 154.215 168.801 154.558C168.837 154.729 168.865 154.902 168.893 155.075C168.91 155.183 168.884 154.998 168.899 155.117C168.904 155.161 168.909 155.204 168.914 155.248C168.924 155.335 168.932 155.422 168.939 155.509C168.967 155.858 168.974 156.209 168.961 156.559H169.945C169.932 156.397 169.927 156.235 169.931 156.073C169.933 155.995 169.938 155.917 169.944 155.839C169.947 155.797 169.951 155.755 169.955 155.714C169.957 155.696 169.959 155.678 169.961 155.66C169.969 155.593 169.968 155.656 169.958 155.684C169.977 155.608 169.99 155.531 169.997 155.453C170.013 155.37 170.031 155.288 170.051 155.207C170.091 155.05 170.138 154.894 170.193 154.742C170.208 154.702 170.222 154.663 170.238 154.624C170.244 154.607 170.286 154.503 170.26 154.566C170.236 154.626 170.284 154.514 170.293 154.492C170.311 154.454 170.329 154.416 170.347 154.378C170.418 154.232 170.497 154.09 170.582 153.952C170.623 153.885 170.666 153.82 170.71 153.755C170.734 153.72 170.758 153.686 170.783 153.652C170.795 153.635 170.869 153.536 170.831 153.586C170.789 153.641 170.87 153.538 170.882 153.523C170.905 153.496 170.928 153.468 170.951 153.441C171.006 153.377 171.062 153.315 171.121 153.254C171.249 153.12 171.386 152.993 171.53 152.876C171.565 152.847 171.628 152.785 171.558 152.852C171.594 152.821 171.633 152.793 171.674 152.767C171.752 152.712 171.833 152.659 171.915 152.608C172.148 152.471 172.226 152.17 172.089 151.936C171.953 151.702 171.652 151.623 171.418 151.759C170.157 152.548 169.29 153.833 169.028 155.298C168.953 155.713 168.931 156.137 168.961 156.559C168.982 156.814 169.173 157.063 169.453 157.051C169.723 157.045 169.94 156.828 169.945 156.559C169.996 155.036 169.677 153.524 169.018 152.151C168.907 151.918 168.555 151.839 168.345 151.975C168.116 152.116 168.038 152.412 168.168 152.648L168.168 152.648Z" fill="white"/>
<path d="M175.551 151.611C174.606 152.108 173.807 153.002 173.709 154.098C173.622 155.061 174.315 155.952 175.232 156.206C175.759 156.362 176.33 156.234 176.74 155.868C176.93 155.676 176.93 155.365 176.74 155.173C176.545 154.987 176.239 154.987 176.044 155.173C176.028 155.184 176.014 155.196 176.001 155.21C176.032 155.154 176.079 155.156 176.033 155.184C175.998 155.205 175.963 155.226 175.927 155.247C175.829 155.302 176.028 155.217 175.921 155.25C175.883 155.261 175.846 155.273 175.807 155.282C175.673 155.311 175.902 155.28 175.793 155.285C175.757 155.287 175.722 155.289 175.686 155.288C175.65 155.288 175.615 155.283 175.578 155.281C175.512 155.278 175.711 155.307 175.615 155.285C175.593 155.28 175.57 155.276 175.548 155.271C175.511 155.263 175.476 155.253 175.44 155.241C175.421 155.235 175.303 155.184 175.38 155.223C175.459 155.263 175.33 155.198 175.31 155.188C175.272 155.168 175.234 155.147 175.197 155.124C175.165 155.103 175.133 155.081 175.101 155.059C175.047 155.022 175.083 155.01 175.12 155.075C175.106 155.061 175.091 155.048 175.075 155.037C175.009 154.98 174.947 154.918 174.891 154.851C174.88 154.835 174.867 154.82 174.854 154.806C174.862 154.813 174.922 154.903 174.879 154.836C174.858 154.804 174.835 154.772 174.815 154.739C174.795 154.706 174.777 154.672 174.76 154.638C174.753 154.62 174.745 154.602 174.735 154.586C174.79 154.649 174.765 154.662 174.742 154.597C174.718 154.527 174.715 154.44 174.685 154.374C174.719 154.451 174.695 154.47 174.692 154.419C174.691 154.395 174.688 154.371 174.687 154.347C174.684 154.287 174.685 154.228 174.688 154.168C174.689 154.145 174.691 154.121 174.693 154.098C174.696 154.056 174.719 154.038 174.688 154.124C174.699 154.078 174.708 154.032 174.714 153.986C174.726 153.88 174.758 153.778 174.808 153.684C174.758 153.744 174.781 153.743 174.8 153.704C174.81 153.683 174.82 153.661 174.83 153.64C174.851 153.597 174.873 153.555 174.897 153.514C174.943 153.416 175.003 153.324 175.075 153.243C175.004 153.308 175.045 153.28 175.065 153.256C175.088 153.228 175.111 153.2 175.135 153.172C175.176 153.126 175.217 153.081 175.26 153.037C175.338 152.958 175.419 152.883 175.505 152.811C175.528 152.792 175.553 152.773 175.577 152.753C175.623 152.715 175.504 152.805 175.58 152.751C175.63 152.716 175.68 152.68 175.732 152.646C175.834 152.579 175.939 152.518 176.048 152.461C176.28 152.322 176.359 152.023 176.224 151.788C176.083 151.558 175.786 151.48 175.551 151.611L175.551 151.611Z" fill="white"/>
<path d="M179.016 151.527C178.083 151.739 176.945 152.148 176.674 153.183C176.519 153.773 176.725 154.357 177.115 154.805C177.52 155.271 178.1 155.51 178.704 155.573C179.438 155.649 180.175 155.428 180.867 155.212C181.13 155.14 181.283 154.869 181.211 154.607C181.139 154.345 180.868 154.191 180.606 154.263C180.331 154.349 180.055 154.434 179.774 154.5C179.649 154.529 179.523 154.555 179.396 154.575C179.372 154.579 179.272 154.59 179.371 154.579C179.342 154.583 179.312 154.586 179.282 154.589C179.208 154.596 179.134 154.6 179.059 154.602C178.926 154.606 178.792 154.6 178.659 154.584C178.754 154.596 178.676 154.586 178.657 154.581C178.623 154.574 178.587 154.568 178.552 154.56C178.49 154.546 178.429 154.528 178.369 154.507C178.348 154.496 178.326 154.488 178.304 154.482C178.349 154.477 178.379 154.517 178.325 154.49C178.277 154.467 178.23 154.443 178.184 154.417C178.138 154.391 178.093 154.363 178.05 154.333C178.029 154.321 178.01 154.307 177.993 154.292C178.07 154.381 178.008 154.303 177.983 154.281C177.943 154.246 177.906 154.21 177.869 154.173C177.84 154.142 177.803 154.077 177.766 154.056C177.82 154.087 177.81 154.117 177.782 154.074C177.766 154.05 177.75 154.027 177.735 154.003C177.722 153.983 177.638 153.865 177.647 153.84C177.647 153.84 177.689 153.957 177.659 153.866C177.652 153.845 177.644 153.824 177.638 153.803C177.623 153.756 177.614 153.708 177.603 153.659C177.587 153.591 177.607 153.785 177.606 153.676C177.606 153.654 177.604 153.632 177.603 153.609C177.603 153.587 177.603 153.565 177.605 153.543C177.606 153.52 177.607 153.498 177.61 153.476L177.602 153.539C177.618 153.494 177.629 153.448 177.635 153.4C177.643 153.376 177.652 153.352 177.66 153.328C177.68 153.266 177.677 153.346 177.645 153.363C177.666 153.352 177.696 153.266 177.708 153.246C177.721 153.225 177.735 153.205 177.748 153.184C177.793 153.112 177.692 153.243 177.733 153.202C177.797 153.138 177.855 153.072 177.921 153.011C177.976 152.96 177.964 153.014 177.905 153.021C177.923 153.011 177.939 152.999 177.955 152.985C177.997 152.955 178.041 152.926 178.085 152.9C178.181 152.842 178.281 152.79 178.383 152.745L178.398 152.738C178.447 152.717 178.438 152.72 178.371 152.749C178.384 152.734 178.429 152.726 178.447 152.719C178.504 152.697 178.56 152.676 178.618 152.657C178.835 152.585 179.055 152.525 179.278 152.476C179.539 152.402 179.692 152.133 179.622 151.871C179.545 151.613 179.278 151.461 179.016 151.527V151.527Z" fill="white"/>
<path d="M182.318 152.977C182.258 153.427 182.507 153.868 182.858 154.131C183.078 154.296 183.396 154.416 183.645 154.244C183.811 154.126 183.964 153.992 184.104 153.843C184.62 153.303 184.981 152.634 185.147 151.905C185.233 151.536 185.267 151.156 185.246 150.777C185.216 150.299 185.145 149.732 184.629 149.544C184.246 149.405 183.766 149.62 183.408 149.76C183.031 149.906 182.667 150.082 182.32 150.288C181.578 150.729 180.925 151.305 180.394 151.986C180.306 152.081 180.255 152.205 180.25 152.334C180.251 152.464 180.303 152.589 180.394 152.682C180.57 152.843 180.922 152.899 181.09 152.682C181.263 152.457 181.451 152.244 181.652 152.044C181.752 151.943 181.856 151.847 181.963 151.753C182.011 151.711 182.06 151.669 182.11 151.628C182.14 151.604 182.171 151.58 182.201 151.555C182.288 151.484 182.14 151.599 182.223 151.537C182.45 151.367 182.687 151.211 182.933 151.069C183.056 150.998 183.182 150.932 183.309 150.87C183.367 150.841 183.425 150.814 183.484 150.787C183.519 150.772 183.554 150.754 183.59 150.741C183.475 150.782 183.598 150.737 183.615 150.731C183.747 150.678 183.88 150.629 184.015 150.585C184.076 150.565 184.138 150.545 184.2 150.527C184.236 150.516 184.272 150.505 184.309 150.496C184.327 150.491 184.345 150.487 184.363 150.483C184.401 150.476 184.387 150.477 184.324 150.487C184.35 150.465 184.476 150.515 184.334 150.481C184.278 150.466 184.23 150.43 184.199 150.382C184.239 150.435 184.212 150.372 184.193 150.36C184.208 150.37 184.218 150.446 184.221 150.464C184.238 150.521 184.248 150.58 184.252 150.64C184.253 150.508 184.249 150.621 184.252 150.652C184.255 150.688 184.259 150.723 184.261 150.759C184.27 150.89 184.271 151.022 184.265 151.153C184.262 151.213 184.258 151.272 184.252 151.332C184.25 151.368 184.246 151.403 184.24 151.439C184.269 151.305 184.241 151.425 184.237 151.45C184.191 151.71 184.12 151.964 184.023 152.209C183.978 152.324 184.069 152.112 184.016 152.224C184.001 152.256 183.986 152.289 183.971 152.321C183.934 152.397 183.895 152.471 183.854 152.544C183.783 152.669 183.702 152.787 183.619 152.905C183.551 153.001 183.668 152.847 183.62 152.905C183.593 152.937 183.567 152.97 183.54 153.001C183.493 153.056 183.445 153.109 183.395 153.16C183.345 153.212 183.294 153.262 183.241 153.31C183.214 153.334 183.187 153.358 183.16 153.381C183.14 153.397 183.013 153.498 183.119 153.417L183.498 153.367C183.477 153.361 183.456 153.354 183.436 153.346C183.502 153.376 183.512 153.378 183.464 153.355C183.449 153.344 183.387 153.321 183.381 153.302C183.437 153.345 183.445 153.35 183.405 153.315C183.389 153.3 183.374 153.284 183.359 153.268C183.291 153.202 183.411 153.352 183.347 153.249C183.338 153.235 183.33 153.22 183.322 153.206C183.299 153.158 183.301 153.167 183.33 153.233C183.313 153.225 183.3 153.142 183.296 153.123C183.267 153.002 183.287 153.205 183.294 153.108C183.297 153.064 183.296 153.021 183.302 152.977C183.336 152.72 183.051 152.474 182.81 152.485C182.514 152.498 182.354 152.702 182.318 152.977L182.318 152.977Z" fill="white"/>
<path d="M189.074 146.438C188.604 148.016 188.308 149.639 188.192 151.281C188.134 152.083 188.121 152.888 188.152 153.691C188.181 154.431 188.242 155.277 188.804 155.828C189.094 156.106 189.476 156.265 189.877 156.275C190.303 156.289 190.707 156.083 190.946 155.729C191.081 155.494 191.002 155.194 190.769 155.056C190.534 154.926 190.237 155.003 190.096 155.232C190.037 155.318 190.177 155.158 190.1 155.224L190.08 155.244C190.041 155.278 190.053 155.27 190.114 155.221C190.089 155.233 190.065 155.248 190.043 155.266C189.961 155.321 190.154 155.234 190.058 155.262C190.031 155.27 190.005 155.279 189.977 155.286L189.949 155.292C189.896 155.301 189.911 155.299 189.994 155.287C189.965 155.285 189.935 155.286 189.906 155.291C189.867 155.286 189.827 155.284 189.788 155.284C189.882 155.267 189.873 155.301 189.815 155.285C189.79 155.278 189.765 155.274 189.741 155.267C189.712 155.258 189.683 155.248 189.654 155.238C189.552 155.204 189.752 155.293 189.66 155.239C189.63 155.221 189.533 155.143 189.504 155.143L189.556 155.183C189.541 155.17 189.526 155.156 189.511 155.143C189.477 155.116 189.448 155.084 189.424 155.048C189.473 155.151 189.427 155.049 189.412 155.026C189.395 155 189.379 154.973 189.364 154.945C189.348 154.918 189.335 154.89 189.32 154.862C189.26 154.754 189.351 154.959 189.31 154.842C189.254 154.686 189.212 154.525 189.185 154.361C189.181 154.337 189.15 154.213 189.181 154.338C189.174 154.3 189.17 154.261 189.168 154.222C189.162 154.158 189.157 154.093 189.153 154.029C189.141 153.84 189.134 153.651 189.129 153.462C189.108 152.727 189.124 151.991 189.177 151.258C189.204 150.892 189.24 150.526 189.285 150.161C189.291 150.116 189.297 150.07 189.303 150.024C189.304 150.007 189.306 149.99 189.31 149.973C189.322 149.882 189.335 149.791 189.349 149.7C189.377 149.519 189.406 149.337 189.439 149.156C189.586 148.327 189.781 147.507 190.023 146.7C190.093 146.438 189.94 146.169 189.68 146.095C189.418 146.028 189.151 146.18 189.074 146.438V146.438Z" fill="white"/>
<path d="M194.674 151.431C194.711 151.385 194.752 151.342 194.795 151.302C194.81 151.289 194.884 151.228 194.818 151.281C194.753 151.333 194.846 151.265 194.868 151.252C194.891 151.238 194.915 151.225 194.938 151.213C194.95 151.207 194.962 151.201 194.974 151.195C195.014 151.174 195.026 151.196 194.93 151.213C194.99 151.202 195.05 151.171 195.11 151.157C195.136 151.151 195.163 151.146 195.189 151.141C195.275 151.122 195.079 151.149 195.166 151.143C195.23 151.139 195.293 151.135 195.357 151.137C195.389 151.138 195.421 151.14 195.453 151.142C195.466 151.145 195.48 151.146 195.494 151.147C195.498 151.146 195.38 151.126 195.431 151.138C195.493 151.153 195.556 151.162 195.618 151.18C195.644 151.188 195.67 151.196 195.696 151.205C195.709 151.21 195.721 151.215 195.734 151.219C195.809 151.245 195.698 151.205 195.692 151.201C195.741 151.236 195.808 151.257 195.86 151.289C195.883 151.303 195.905 151.319 195.927 151.333C195.998 151.379 195.85 151.265 195.913 151.322C195.96 151.363 196.004 151.406 196.046 151.453C196.057 151.467 196.068 151.481 196.081 151.494C196.081 151.494 196.021 151.405 196.044 151.448C196.056 151.471 196.074 151.493 196.087 151.516C196.104 151.543 196.117 151.571 196.133 151.599C196.14 151.613 196.16 151.661 196.13 151.591C196.096 151.511 196.131 151.599 196.137 151.615C196.191 151.794 196.229 151.976 196.251 152.162C196.31 152.558 196.417 152.917 196.673 153.233C196.891 153.486 197.175 153.673 197.493 153.774C198.133 153.976 198.828 153.901 199.409 153.567C200.149 153.152 200.654 152.443 201.128 151.762C201.276 151.55 201.174 151.206 200.952 151.089C200.716 150.959 200.42 151.037 200.279 151.266C200.178 151.409 200.078 151.553 199.974 151.694C199.95 151.726 199.927 151.757 199.903 151.788C199.892 151.804 199.88 151.819 199.868 151.835C199.871 151.831 199.92 151.77 199.885 151.813C199.828 151.883 199.771 151.955 199.712 152.024C199.599 152.156 199.479 152.282 199.351 152.399C199.3 152.458 199.242 152.508 199.176 152.548C199.188 152.544 199.262 152.486 199.185 152.541C199.17 152.552 199.154 152.563 199.139 152.574C199.102 152.6 199.065 152.625 199.028 152.648C198.957 152.693 198.885 152.734 198.811 152.771C198.79 152.781 198.688 152.818 198.761 152.796C198.837 152.774 198.707 152.815 198.689 152.821C198.63 152.841 198.569 152.858 198.508 152.872C198.472 152.88 198.436 152.886 198.4 152.893C198.318 152.909 198.505 152.885 198.391 152.894C198.322 152.899 198.255 152.903 198.186 152.902C198.155 152.902 198.124 152.901 198.092 152.899C198.077 152.898 198.061 152.896 198.045 152.895C197.961 152.89 198.033 152.883 198.068 152.9C198.009 152.883 197.948 152.871 197.886 152.864C197.822 152.834 197.754 152.812 197.684 152.798C197.687 152.798 197.775 152.844 197.733 152.818C197.72 152.811 197.705 152.805 197.692 152.799C197.661 152.783 197.631 152.767 197.601 152.749C197.575 152.734 197.551 152.717 197.526 152.701C197.436 152.642 197.588 152.761 197.51 152.687C197.467 152.646 197.429 152.602 197.387 152.56C197.343 152.516 197.44 152.644 197.41 152.589C197.403 152.576 197.393 152.565 197.385 152.552C197.365 152.522 197.349 152.492 197.331 152.461C197.282 152.373 197.344 152.515 197.314 152.423C197.301 152.384 197.288 152.345 197.277 152.306C197.253 152.213 197.233 152.118 197.219 152.023C197.19 151.846 197.17 151.667 197.127 151.492C196.964 150.864 196.47 150.375 195.84 150.221C195.194 150.051 194.417 150.2 193.978 150.735C193.815 150.934 193.769 151.239 193.978 151.431C194.158 151.596 194.499 151.643 194.674 151.431L194.674 151.431Z" fill="white"/>
<path d="M199.145 147.852C197.556 149.412 196.165 151.162 195.005 153.063C194.682 153.592 194.379 154.132 194.094 154.682C193.976 154.911 194.027 155.227 194.271 155.356C194.496 155.475 194.817 155.423 194.944 155.179C195.442 154.216 195.999 153.284 196.611 152.389C196.766 152.163 196.925 151.939 197.087 151.717C197.166 151.609 197.246 151.502 197.327 151.395C197.365 151.345 197.403 151.294 197.442 151.244C197.456 151.225 197.515 151.15 197.455 151.226C197.481 151.193 197.507 151.16 197.533 151.126C197.863 150.705 198.205 150.294 198.56 149.894C198.971 149.43 199.398 148.982 199.841 148.548C200.033 148.356 200.033 148.044 199.841 147.852C199.649 147.66 199.338 147.66 199.145 147.852V147.852Z" fill="white"/>
</g>
<path d="M25.0586 188.382H253.363V189.955C253.363 194.976 249.292 199.047 244.271 199.047H34.1499C29.1289 199.047 25.0586 194.976 25.0586 189.955V188.382H25.0586Z" fill="#589BF7"/>
<mask id="mask10_1493_50659" style="mask-type:alpha" maskUnits="userSpaceOnUse" x="25" y="188" width="229" height="12">
<path fill-rule="evenodd" clip-rule="evenodd" d="M25.0586 188.382H253.363V189.955C253.363 194.976 249.292 199.047 244.271 199.047H34.1499C29.1289 199.047 25.0586 194.976 25.0586 189.955V188.382H25.0586Z" fill="white"/>
</mask>
<g mask="url(#mask10_1493_50659)">
<path d="M13.985 204.95C12.821 180.995 188.485 202.103 216.378 200.575C244.271 199.046 70.7368 229.021 70.7368 229.021L7.24463 213.135" fill="#2976DF"/>
</g>
<circle cx="139.211" cy="74.5067" r="1.99495" fill="#3152BA"/>
<path d="M96.0186 188.382H182.403V188.408C182.403 191.338 180.027 193.714 177.096 193.714H101.325C98.3944 193.714 96.0186 191.338 96.0186 188.408V188.382H96.0186Z" fill="#2976DF"/>
<path d="M82.6162 94.9767L80.3996 96.4544C80.2254 96.5617 80.0967 96.7291 80.0378 96.9249C79.9833 97.1297 80.0118 97.3477 80.1171 97.5315C80.337 97.8726 80.8278 98.0583 81.1942 97.814L83.4108 96.3362C83.585 96.229 83.7137 96.0616 83.7726 95.8658C83.8271 95.661 83.7986 95.443 83.6933 95.2591C83.4734 94.9181 82.9826 94.7324 82.6162 94.9767Z" fill="#75AA3C"/>
<path d="M209.019 169.706L204.378 172.236L199.738 174.765L197.11 176.197C196.738 176.419 196.613 176.898 196.828 177.274C197.053 177.642 197.528 177.767 197.905 177.557L202.545 175.028L207.186 172.498L209.813 171.066C210.185 170.844 210.311 170.365 210.096 169.989C209.871 169.621 209.395 169.496 209.019 169.706V169.706Z" fill="#75AA3C"/>
<ellipse cx="99.6425" cy="116.569" rx="8.78168" ry="12.2533" transform="rotate(-44.4573 99.6425 116.569)" fill="#3A3530"/>
<path d="M116.39 98.6524C115.588 95.0861 112.018 92.4985 108.417 92.8729C107.12 92.9944 105.9 93.5438 104.949 94.4347C102.921 93.5164 100.678 93.0866 98.4242 93.321C92.0262 93.9861 87.9954 99.6614 89.4209 105.997C90.8461 112.333 98.3551 115.163 104.753 114.498C110.514 113.899 113.397 110.664 112.876 105.401C115.537 104.397 117.068 101.668 116.39 98.6524Z" fill="#3A3530"/>
<path d="M144.456 137.656L150.748 118.161C151.122 117.004 152.174 116.16 153.39 116.147C153.399 116.147 153.408 116.147 153.417 116.147L168.087 116.104C168.087 116.104 174.483 110.61 174.483 113.655L169.526 118.633C169.295 118.86 169.006 119.018 168.69 119.089L157.746 121.762L153.391 144.404L144.456 137.656Z" fill="#FF9763"/>
<mask id="mask11_1493_50659" style="mask-type:alpha" maskUnits="userSpaceOnUse" x="144" y="112" width="31" height="33">
<path fill-rule="evenodd" clip-rule="evenodd" d="M144.456 137.656L150.748 118.161C151.122 117.004 152.174 116.16 153.39 116.147C153.399 116.147 153.408 116.147 153.417 116.147L168.087 116.104C168.087 116.104 174.483 110.61 174.483 113.655L169.526 118.633C169.295 118.86 169.006 119.018 168.69 119.089L157.746 121.762L153.391 144.404L144.456 137.656Z" fill="white"/>
</mask>
<g mask="url(#mask11_1493_50659)">
<path d="M145.881 123.616C154.088 122.353 158.845 125.678 158.845 125.678L157.321 128.57L149.978 127.11" fill="#E84B23"/>
</g>
<path d="M148.642 122.8C148.642 122.8 155.784 124.532 160.016 128.028L149.332 169.02C148.378 172.68 144.1 174.948 139.862 174.041C135.588 173.126 133.05 169.35 134.268 165.716L148.642 122.8Z" fill="#BB393C"/>
<path d="M145.881 155.826L121.822 124.248L108.207 135.388L135.229 171.209L145.881 155.826Z" fill="#BB393C"/>
<mask id="mask12_1493_50659" style="mask-type:alpha" maskUnits="userSpaceOnUse" x="108" y="124" width="38" height="48">
<path fill-rule="evenodd" clip-rule="evenodd" d="M145.881 155.826L121.822 124.248L108.207 135.388L135.229 171.209L145.881 155.826Z" fill="white"/>
</mask>
<g mask="url(#mask12_1493_50659)">
<path d="M138.103 173.463C127.138 166.345 128.522 152.704 126.325 144.555C124.367 137.296 109.87 150.934 109.87 150.934L111.104 157.906L112.232 160.663" fill="#90282A"/>
</g>
<path d="M119.065 126.504C119.065 126.504 108.051 121.113 86.832 127.964L83.311 140.12C83.311 140.12 91.3307 163.511 89.1587 172.7L121.739 177.378C125.414 167.02 124.579 156.16 124.579 156.16C124.579 156.16 127.496 150.838 125.789 139.722" fill="#BB393C"/>
<mask id="mask13_1493_50659" style="mask-type:alpha" maskUnits="userSpaceOnUse" x="83" y="124" width="44" height="54">
<path fill-rule="evenodd" clip-rule="evenodd" d="M119.065 126.504C119.065 126.504 108.051 121.113 86.832 127.964L83.311 140.12C83.311 140.12 91.3307 163.511 89.1587 172.7L121.739 177.378C125.414 167.02 124.579 156.16 124.579 156.16C124.579 156.16 127.496 150.838 125.789 139.722" fill="white"/>
</mask>
<g mask="url(#mask13_1493_50659)">
<ellipse cx="104.784" cy="126.964" rx="7.74616" ry="12.2544" transform="rotate(-69.9099 104.784 126.964)" fill="#FF9763"/>
<path d="M109.173 133.701C108.795 141.6 96.4557 140.468 89.0981 126.966C89.0981 126.966 96.4578 122.853 96.6307 125.226C97.1826 132.799 109.173 133.701 109.173 133.701Z" fill="#F0F3FC"/>
<path d="M109.173 133.701C111.101 139.114 118.799 139.058 117.083 128.96C117.083 128.96 109.778 122.797 110.811 124.941C113.75 131.046 109.173 133.701 109.173 133.701Z" fill="#F0F3FC"/>
<path d="M93.6779 139.238C96.2035 152.999 82.055 166.909 112.276 169.423C135.255 171.335 75.3916 171.209 75.3916 171.209C75.3916 171.209 76.8953 155.525 77.6472 154.523C78.399 153.52 93.6779 139.238 93.6779 139.238Z" fill="#90282A"/>
<path d="M129.991 158.997L123.778 153.994L118.79 160.189L112.595 155.201L107.608 161.396L101.413 156.409L96.4251 162.603L90.2301 157.616L85.2275 163.829L91.3645 168.77L86.4234 174.907L92.6369 179.91L97.6247 173.715L103.82 178.703L108.807 172.508L115.002 177.495L119.99 171.301L126.184 176.288L131.187 170.075L125.05 165.134L129.991 158.997Z" fill="#BB393C"/>
<rect x="91.5024" y="168.756" width="7.85498" height="7.85498" transform="rotate(-51.1615 91.5024 168.756)" fill="#9A7ED9"/>
<rect x="102.685" y="167.548" width="7.85498" height="7.85498" transform="rotate(-51.1615 102.685 167.548)" fill="#9A7ED9"/>
<rect x="113.868" y="166.341" width="7.85504" height="7.85504" transform="rotate(-51.1624 113.868 166.341)" fill="#9A7ED9"/>
</g>
<path d="M180.951 179.668H129.241L143.914 145.611C144.256 144.818 145.037 144.304 145.901 144.304H194.427C194.817 144.304 195.18 144.5 195.395 144.825C195.609 145.151 195.645 145.563 195.491 145.921L180.951 179.668Z" fill="#F0F3FC"/>
<path d="M182.324 179.668H130.613L145.286 145.611C145.628 144.818 146.409 144.304 147.273 144.304H195.799C196.189 144.304 196.553 144.5 196.767 144.825C196.981 145.151 197.017 145.563 196.863 145.921L182.324 179.668Z" fill="#F0F3FC"/>
<mask id="mask14_1493_50659" style="mask-type:alpha" maskUnits="userSpaceOnUse" x="130" y="144" width="67" height="36">
<path fill-rule="evenodd" clip-rule="evenodd" d="M182.324 179.668H130.613L145.286 145.611C145.628 144.818 146.409 144.304 147.273 144.304H195.799C196.189 144.304 196.553 144.5 196.767 144.825C196.981 145.151 197.017 145.563 196.863 145.921L182.324 179.668Z" fill="white"/>
</mask>
<g mask="url(#mask14_1493_50659)">
<path d="M136.743 154.132C129.241 179.667 200.285 181.889 200.285 181.889L119.881 197.212L111.657 174.802" fill="#D6DCF2"/>
</g>
<ellipse cx="116.654" cy="123.617" rx="11.0665" ry="12.7038" transform="rotate(-44.4573 116.654 123.617)" fill="#3A3530"/>
<path d="M97.2557 126.652L96.29 109.777L106.928 115.917C106.693 116.769 109.173 132.427 109.173 132.427" fill="#FF9763"/>
<mask id="mask15_1493_50659" style="mask-type:alpha" maskUnits="userSpaceOnUse" x="96" y="109" width="14" height="24">
<path fill-rule="evenodd" clip-rule="evenodd" d="M97.2557 126.652L96.29 109.777L106.928 115.917C106.693 116.769 109.173 132.427 109.173 132.427" fill="white"/>
</mask>
<g mask="url(#mask15_1493_50659)">
<path d="M113.991 129.834C105.382 127.188 102.282 121.684 102.43 117.304C102.521 114.592 111.962 116.08 111.962 116.08L115.421 119.445L115.575 124.692" fill="#E84B23"/>
</g>
<path d="M102.43 117.305C109.656 121.222 118.192 120.114 112.688 103.249C107.931 103.286 105.415 99.6868 104.777 98.6221L104.599 98.6162C104.539 100.284 103.814 109.209 95.6777 109.845" fill="#FF9763"/>
<mask id="mask16_1493_50659" style="mask-type:alpha" maskUnits="userSpaceOnUse" x="95" y="98" width="20" height="22">
<path fill-rule="evenodd" clip-rule="evenodd" d="M102.43 117.305C109.656 121.222 118.192 120.114 112.688 103.249C107.931 103.286 105.415 99.6868 104.777 98.6221L104.599 98.6162C104.539 100.284 103.814 109.209 95.6777 109.845" fill="white"/>
</mask>
<g mask="url(#mask16_1493_50659)">
<ellipse opacity="0.27" cx="115.688" cy="109.617" rx="2.33127" ry="3.1448" transform="rotate(-81.8339 115.688 109.617)" fill="#E84B23"/>
<ellipse opacity="0.27" cx="103.777" cy="110.223" rx="2.80533" ry="2.07961" transform="rotate(-8.9777 103.777 110.223)" fill="#E84B23"/>
<path d="M112.164 107.276C111.724 107.395 111.271 107.135 111.152 106.696L110.787 105.351C110.668 104.912 110.927 104.459 111.367 104.339C111.807 104.22 112.26 104.48 112.379 104.919L112.744 106.264C112.801 106.475 112.772 106.7 112.664 106.89C112.555 107.08 112.375 107.218 112.164 107.276L112.164 107.276Z" fill="#190000"/>
<path d="M106.525 108.318C106.086 108.437 105.633 108.177 105.513 107.738L105.148 106.393C105.029 105.954 105.289 105.501 105.728 105.381C106.168 105.262 106.621 105.522 106.74 105.961L107.105 107.306C107.225 107.745 106.965 108.198 106.525 108.318V108.318Z" fill="#190000"/>
<path d="M111.056 102.409C112.809 102.442 112.602 103.449 111.505 103.5C110.408 103.551 109.911 102.388 111.056 102.409Z" fill="#190000"/>
<path d="M105.25 103.43C103.754 104.344 104.3 105.074 105.273 104.563C106.245 104.052 106.227 102.832 105.25 103.43Z" fill="#190000"/>
<path d="M108.379 108.099C108.477 108.739 109.033 108.394 109.766 108.282C110.5 108.169 111.134 108.332 111.036 107.692C110.938 107.052 110.264 106.623 109.53 106.736C108.796 106.848 108.281 107.458 108.379 108.099Z" fill="#E84B23"/>
<path d="M111.87 111.163C111.824 115.251 107.802 114.25 107.304 111.801C107.28 111.674 107.339 111.546 107.45 111.48C107.918 111.196 109.307 110.527 111.6 110.851C111.755 110.873 111.87 111.006 111.87 111.163Z" fill="#C1525F"/>
<mask id="mask17_1493_50659" style="mask-type:alpha" maskUnits="userSpaceOnUse" x="107" y="110" width="5" height="4">
<path fill-rule="evenodd" clip-rule="evenodd" d="M111.87 111.163C111.824 115.251 107.802 114.25 107.304 111.801C107.28 111.674 107.339 111.546 107.45 111.48C107.918 111.196 109.307 110.527 111.6 110.851C111.755 110.873 111.87 111.006 111.87 111.163Z" fill="white"/>
</mask>
<g mask="url(#mask17_1493_50659)">
<ellipse cx="109.42" cy="113.842" rx="1.82948" ry="2.04975" transform="rotate(-80.7582 109.42 113.842)" fill="#993443"/>
<path d="M111.064 110.646C111.103 110.909 111.132 111.27 111.073 111.346C110.712 111.81 108.636 111.945 108.321 111.758C108.233 111.707 108.094 110.861 108.094 110.861L110.731 110.551" fill="#F0F3FC"/>
</g>
</g>
<path d="M96.9799 109.671C87.0668 105.38 89.2703 117.674 97.4221 115.305L96.9799 109.671Z" fill="#FF9763"/>
<path d="M91.9013 114.359C90.101 116.006 89.7628 118.716 91.1033 120.755C92.4438 122.794 95.0663 123.558 97.2921 122.558C99.5178 121.558 100.688 119.09 100.054 116.734C99.4202 114.378 97.1693 112.83 94.7423 113.082" stroke="white" stroke-width="0.984064"/>
<path d="M127.044 171.927C127.044 171.927 139.947 171.908 142.498 172.993C145.859 174.422 151.514 177.728 152.718 178.512C152.83 178.584 152.878 178.724 152.834 178.849C152.599 179.505 151.631 181.278 148.45 178.945C148.45 178.945 150.016 180.824 150.141 183.456C150.267 186.087 147.447 186.025 147.573 183.456C147.573 183.456 146.695 186.964 144.001 183.331C144.001 183.331 143.157 185.949 141.746 183.832C140.608 182.124 140.187 180.698 137.363 180.615C133.745 180.508 123.329 180.865 123.329 180.865L128.338 172.303" fill="#FF9763"/>
<mask id="mask18_1493_50659" style="mask-type:alpha" maskUnits="userSpaceOnUse" x="123" y="171" width="30" height="15">
<path fill-rule="evenodd" clip-rule="evenodd" d="M127.044 171.927C127.044 171.927 139.947 171.908 142.498 172.993C145.859 174.422 151.514 177.728 152.718 178.512C152.83 178.584 152.878 178.724 152.834 178.849C152.599 179.505 151.631 181.278 148.45 178.945C148.45 178.945 150.016 180.824 150.141 183.456C150.267 186.087 147.447 186.025 147.573 183.456C147.573 183.456 146.695 186.964 144.001 183.331C144.001 183.331 143.157 185.949 141.746 183.832C140.608 182.124 140.187 180.698 137.363 180.615C133.745 180.508 123.329 180.865 123.329 180.865L128.338 172.303" fill="white"/>
</mask>
<g mask="url(#mask18_1493_50659)">
<path d="M137.141 183.586C124.949 183.032 135.538 177.31 132.045 171.997C128.551 166.685 126.15 180.169 126.15 180.169L129.241 183.032L135.293 184.602" fill="#E84B23"/>
</g>
<path d="M86.8316 127.964C83.0042 127.465 79.3255 129.623 77.8936 133.208L62.1699 172.566L80.2197 176.126L93.6774 139.238" fill="#BB393C"/>
<path d="M65.1785 165.036L61.7996 173.446C60.2814 177.538 63.3087 181.89 67.6737 181.89H129.842C129.842 181.89 131.847 176.878 132.348 168.608L79.6789 165.807" fill="#BB393C"/>
<mask id="mask19_1493_50659" style="mask-type:alpha" maskUnits="userSpaceOnUse" x="61" y="165" width="72" height="17">
<path fill-rule="evenodd" clip-rule="evenodd" d="M65.1785 165.036L61.7996 173.446C60.2814 177.538 63.3087 181.89 67.6737 181.89H129.842C129.842 181.89 131.847 176.878 132.348 168.608L79.6789 165.807" fill="white"/>
</mask>
<g mask="url(#mask19_1493_50659)">
<circle cx="61.4026" cy="181.89" r="13.7497" fill="#9A7ED9"/>
<circle cx="61.4028" cy="181.89" r="16.521" stroke="#90282A" stroke-width="0.656046" stroke-linecap="round" stroke-linejoin="round" stroke-dasharray="1.31"/>
</g>
<path d="M123.88 165.844C123.88 165.844 124.804 178.91 122.587 181.89H129.842C129.842 181.89 132.996 173.033 132.348 168.607L123.88 165.844Z" fill="#9A7ED9"/>
<path d="M145.881 130.501L148.642 122.8C148.642 122.8 155.822 123.83 160.016 128.028V134.565C160.016 134.565 151.812 129.147 145.881 130.501Z" fill="#9A7ED9"/>
<circle cx="110.05" cy="138.844" r="0.877402" fill="#190000"/>
<circle cx="110.78" cy="144.555" r="0.877402" fill="#190000"/>
<ellipse cx="168.417" cy="158.923" rx="7.16084" ry="5.58231" transform="rotate(-39.9628 168.417 158.923)" fill="#9A7ED9"/>
<path d="M187.106 156.474L177.71 160.154L176.081 151.79L185.477 148.11L187.106 156.474Z" fill="#589BF7"/>
<path d="M177.161 167.702L174.237 165.459L177.374 162.017L180.297 164.26L177.161 167.702Z" fill="#F0F3FC"/>
<path d="M114.313 124.669C115.398 125.93 116.84 126.833 118.448 127.257C118.918 127.379 119.398 127.46 119.882 127.498C120.142 127.52 120.391 127.254 120.38 127C120.373 126.728 120.154 126.509 119.882 126.503C119.793 126.495 119.704 126.486 119.615 126.476C119.59 126.473 119.563 126.471 119.539 126.467C119.554 126.469 119.65 126.483 119.557 126.469C119.507 126.461 119.456 126.454 119.406 126.445C119.217 126.414 119.029 126.375 118.843 126.33C118.471 126.237 118.106 126.118 117.75 125.974C117.724 125.963 117.666 125.953 117.763 125.979C117.745 125.973 117.728 125.965 117.71 125.957C117.669 125.939 117.629 125.921 117.588 125.902C117.495 125.859 117.403 125.815 117.311 125.769C117.14 125.683 116.973 125.59 116.808 125.491C116.644 125.392 116.483 125.288 116.327 125.177C116.253 125.125 116.182 125.072 116.11 125.018C116.037 124.964 116.107 125.017 116.12 125.026C116.099 125.012 116.079 124.994 116.06 124.979C116.02 124.947 115.98 124.914 115.941 124.882C115.607 124.603 115.298 124.297 115.017 123.965C114.847 123.766 114.484 123.778 114.313 123.965C114.125 124.162 114.125 124.472 114.313 124.669L114.313 124.669Z" fill="#190000"/>
<path d="M96.6629 98.3356C95.8502 98.5926 95.1248 99.0703 94.5677 99.7154C94.4772 99.8107 94.4253 99.9362 94.4219 100.068C94.4228 100.199 94.4751 100.326 94.5677 100.42C94.7533 100.59 95.0917 100.632 95.2719 100.42C95.3901 100.28 95.5174 100.149 95.653 100.026C95.721 99.9648 95.794 99.9097 95.8627 99.8495C95.7506 99.9479 95.8771 99.8398 95.9081 99.8175C95.9452 99.7909 95.9828 99.7649 96.0208 99.7396C96.1729 99.6381 96.3316 99.5468 96.4958 99.4665C96.5369 99.4464 96.5782 99.427 96.6199 99.4083C96.6384 99.4001 96.6574 99.3926 96.6757 99.3838C96.5533 99.4425 96.6253 99.4052 96.6553 99.3933C96.7449 99.3575 96.8358 99.3253 96.9277 99.2958C97.1753 99.2163 97.3607 98.9467 97.2755 98.6833C97.1952 98.4354 96.9285 98.2502 96.6629 98.3355V98.3356Z" fill="#190000"/>
<path d="M79.1628 147.633C79.7356 148.599 80.6329 149.33 81.6946 149.696C81.9595 149.768 82.2325 149.613 82.3071 149.348C82.3733 149.084 82.2202 148.815 81.9593 148.736C81.9046 148.717 81.8502 148.697 81.7963 148.676C81.7585 148.661 81.6908 148.611 81.7869 148.673C81.7664 148.662 81.7452 148.653 81.7234 148.645C81.6127 148.595 81.5044 148.54 81.3984 148.48C81.2976 148.423 81.1993 148.362 81.1035 148.297C81.0508 148.261 80.9993 148.224 80.9479 148.186C80.8958 148.148 80.9487 148.178 80.966 148.2C80.941 148.176 80.9139 148.154 80.8849 148.135C80.7064 147.987 80.5404 147.825 80.3887 147.65C80.3508 147.606 80.3142 147.562 80.2778 147.517C80.2023 147.423 80.341 147.605 80.271 147.507C80.2542 147.484 80.2368 147.461 80.2201 147.437C80.1497 147.338 80.0843 147.235 80.0227 147.13C79.9329 146.977 79.768 146.883 79.5901 146.884C79.4121 146.885 79.2482 146.981 79.1601 147.135C79.072 147.29 79.073 147.48 79.1628 147.633L79.1628 147.633Z" fill="#90282A"/>
<path d="M155.175 120.523C155.748 121.579 156.75 122.333 157.923 122.592C158.177 122.645 158.473 122.517 158.536 122.244C158.593 121.994 158.46 121.689 158.188 121.631C158.063 121.605 157.94 121.573 157.819 121.534C157.756 121.513 157.693 121.491 157.631 121.467C157.616 121.461 157.519 121.421 157.589 121.451C157.659 121.481 157.563 121.438 157.549 121.432C157.318 121.324 157.098 121.194 156.893 121.043C156.817 120.988 156.94 121.082 156.893 121.043C156.87 121.024 156.846 121.005 156.822 120.986C156.776 120.947 156.731 120.907 156.686 120.865C156.593 120.779 156.504 120.688 156.42 120.592C156.409 120.58 156.296 120.436 156.292 120.438C156.299 120.435 156.357 120.524 156.294 120.437C156.276 120.412 156.259 120.388 156.241 120.363C156.166 120.253 156.097 120.138 156.035 120.021C155.894 119.785 155.591 119.706 155.353 119.842C155.121 119.985 155.042 120.285 155.175 120.523L155.175 120.523Z" fill="#E84B23"/>
<path d="M138.793 177.765L138.552 178.752C138.519 178.881 138.537 179.019 138.603 179.135C138.704 179.308 138.898 179.404 139.097 179.378C139.296 179.352 139.459 179.209 139.513 179.016L139.753 178.03C139.786 177.9 139.768 177.763 139.703 177.646C139.602 177.473 139.407 177.378 139.208 177.404C139.01 177.43 138.846 177.572 138.793 177.765Z" fill="#E84B23"/>
<path d="M98.3446 174.323L98.8371 174.816C99.0346 175.003 99.3438 175.003 99.5413 174.816C99.6344 174.722 99.6868 174.595 99.6872 174.463L99.6694 174.331C99.6464 174.248 99.6023 174.172 99.5413 174.111L99.0487 173.619C98.8513 173.432 98.542 173.432 98.3446 173.619C98.2515 173.712 98.1991 173.839 98.1987 173.971L98.2165 174.103C98.2394 174.186 98.2836 174.262 98.3446 174.323Z" fill="#90282A"/>
<path d="M150.92 155.482C150.117 156.383 149.565 157.479 149.319 158.66C149.268 158.914 149.393 159.21 149.667 159.272C149.915 159.329 150.224 159.198 150.28 158.925C150.333 158.658 150.404 158.395 150.491 158.138C150.535 158.009 150.583 157.882 150.634 157.756C150.608 157.82 150.62 157.789 150.64 157.744C150.654 157.713 150.668 157.682 150.682 157.651C150.71 157.589 150.739 157.528 150.77 157.467C150.888 157.23 151.021 157 151.167 156.779C151.205 156.723 151.244 156.667 151.283 156.611C151.303 156.584 151.323 156.556 151.343 156.529C151.343 156.529 151.418 156.428 151.378 156.482C151.337 156.536 151.406 156.446 151.414 156.436C151.435 156.409 151.457 156.383 151.478 156.357C151.526 156.299 151.575 156.242 151.624 156.186C151.797 155.991 151.831 155.672 151.624 155.482C151.436 155.309 151.105 155.274 150.92 155.482L150.92 155.482Z" fill="#D6DCF2"/>
<path d="M89.0345 36.1083C89.0345 33.9834 87.3119 32.2608 85.1869 32.2607H3.84756C1.72262 32.2607 5.34407e-06 33.9834 0 36.1083V40.8279H89.0345L89.0345 36.1083Z" fill="#EFF3FC"/>
<mask id="mask20_1493_50659" style="mask-type:alpha" maskUnits="userSpaceOnUse" x="0" y="32" width="90" height="9">
<path fill-rule="evenodd" clip-rule="evenodd" d="M89.0345 36.1083C89.0345 33.9834 87.3119 32.2608 85.1869 32.2607H3.84756C1.72262 32.2607 5.34407e-06 33.9834 0 36.1083V40.8279H89.0345L89.0345 36.1083Z" fill="white"/>
</mask>
<g mask="url(#mask20_1493_50659)">
<path d="M42.1206 30.0876C27.4652 34.6287 91.6601 29.6539 91.2473 37.5081C90.8344 45.3623 90.0088 25.7529 90.0088 25.7529L58.2209 26.5786" fill="#D6DCF2"/>
</g>
<path d="M0 40.8281V87.9337C1.06881e-05 90.0587 1.72262 91.7813 3.84756 91.7813H85.187C87.3119 91.7813 89.0345 90.0587 89.0345 87.9337V40.8281H0Z" fill="#D6DCF2"/>
<mask id="mask21_1493_50659" style="mask-type:alpha" maskUnits="userSpaceOnUse" x="0" y="40" width="90" height="52">
<path fill-rule="evenodd" clip-rule="evenodd" d="M0 40.8281V87.9337C1.06881e-05 90.0587 1.72262 91.7813 3.84756 91.7813H85.187C87.3119 91.7813 89.0345 90.0587 89.0345 87.9337V40.8281H0Z" fill="white"/>
</mask>
<g mask="url(#mask21_1493_50659)">
<path d="M-1.84546 81.873C-2.1551 94.5918 85.187 91.7811 85.187 91.7811L1.25075 106.977L-12.063 97.9977" fill="#BFC8E2"/>
</g>
<circle cx="4.83728" cy="36.4418" r="1.06579" fill="#BB393C"/>
<circle cx="9.3153" cy="36.4418" r="1.06579" fill="#FFC562"/>
<circle cx="13.7938" cy="36.4418" r="1.06579" fill="#75AA3C"/>
<rect x="7.00488" y="45.5742" width="75.0243" height="40.6422" rx="1.61114" fill="#9A7ED9"/>
<mask id="mask22_1493_50659" style="mask-type:alpha" maskUnits="userSpaceOnUse" x="7" y="45" width="76" height="42">
<rect x="7.00488" y="45.5742" width="75.0243" height="40.6422" rx="1.61114" fill="white"/>
</mask>
<g mask="url(#mask22_1493_50659)">
<path d="M80.2038 41.4541C82.029 84.6053 -3.08447 87.9662 -3.08447 87.9662L93.208 103.261L99.5002 62.0208" fill="#6F4EB9"/>
</g>
<ellipse opacity="0.36" cx="44.5173" cy="64.0223" rx="11.8992" ry="11.9139" fill="#EFF3FC"/>
<path d="M41.2021 64.0232V59.6335C41.2019 59.3668 41.3439 59.1203 41.5748 58.9869C41.8056 58.8534 42.0901 58.8533 42.321 58.9867L46.118 61.1815L49.9149 63.3764C50.1457 63.51 50.2879 63.7565 50.2879 64.0232C50.2879 64.2899 50.1457 64.5364 49.9149 64.67L46.118 66.8648L42.321 69.0597C42.0901 69.193 41.8056 69.193 41.5748 69.0595C41.3439 68.9261 41.2019 68.6796 41.2021 68.4129V64.0232Z" fill="#EFF3FC"/>
<path d="M19.2773 56.2683C18.6153 57.0391 17.804 57.6679 16.8923 58.1166C16.7365 58.2097 16.6839 58.4104 16.7739 58.5679C16.8682 58.7222 17.0675 58.7744 17.2253 58.6863C18.1868 58.2106 19.0431 57.547 19.7438 56.7348C19.8682 56.6042 19.8682 56.3989 19.7438 56.2683C19.6143 56.141 19.4068 56.141 19.2773 56.2683H19.2773Z" fill="#6F4EB9"/>
<path d="M74.2339 78.4826L72.3762 79.1019C72.2005 79.1504 72.0973 79.3321 72.1457 79.5078C72.1942 79.6834 72.3759 79.7866 72.5516 79.7382L74.4093 79.1189C74.585 79.0704 74.6881 78.8888 74.6397 78.7131C74.5913 78.5374 74.4096 78.4342 74.2339 78.4827V78.4826Z" fill="#6F4EB9"/>
</svg>
