<svg width="300" height="267" viewBox="0 0 300 267" fill="none" xmlns="http://www.w3.org/2000/svg">
<ellipse cx="212.741" cy="38.624" rx="38.624" ry="38.624" fill="#6F4EB9"/>
<ellipse cx="212.741" cy="38.6241" rx="36.3595" ry="36.3595" fill="#9A7ED9"/>
<ellipse cx="212.741" cy="38.6246" rx="32.2975" ry="32.2974" fill="#2976DF"/>
<mask id="mask0_1493_50466" style="mask-type:alpha" maskUnits="userSpaceOnUse" x="180" y="6" width="66" height="65">
<ellipse cx="212.741" cy="38.6236" rx="32.2975" ry="32.2974" fill="white"/>
</mask>
<g mask="url(#mask0_1493_50466)">
<ellipse cx="208.679" cy="36.5963" rx="32.2975" ry="32.2974" fill="#589BF7"/>
</g>
<path d="M200.75 37.4878L200.945 36.2598L213.08 37.5751L212.698 39.9898L200.75 37.4878V37.4878Z" fill="#F0F3FC"/>
<path d="M227.933 27.3506L228.664 28.3566L213.066 40.4284L211.629 38.4503L227.933 27.3506V27.3506Z" fill="#F0F3FC"/>
<rect x="211.706" y="10.5039" width="2.06871" height="4.32493" fill="#F0F3FC"/>
<rect x="211.706" y="62.4199" width="2.06871" height="4.32493" fill="#F0F3FC"/>
<rect x="236.536" y="37.5898" width="4.32493" height="2.06871" fill="#F0F3FC"/>
<rect x="184.62" y="37.5898" width="4.32493" height="2.06871" fill="#F0F3FC"/>
<ellipse cx="212.741" cy="38.624" rx="4.73439" ry="4.73438" fill="#D6DCF2"/>
<mask id="mask1_1493_50466" style="mask-type:alpha" maskUnits="userSpaceOnUse" x="208" y="33" width="10" height="11">
<ellipse cx="212.741" cy="38.624" rx="4.73439" ry="4.73438" fill="white"/>
</mask>
<g mask="url(#mask1_1493_50466)">
<ellipse cx="210.855" cy="39.4268" rx="4.73439" ry="4.73438" fill="#F0F3FC"/>
</g>
<path d="M199.019 20.4081C198.402 21.7035 197.649 22.9299 196.774 24.0668C196.658 24.1905 196.658 24.383 196.774 24.5067C196.881 24.6138 197.111 24.6404 197.214 24.5067C198.126 23.3316 198.911 22.063 199.556 20.7221C199.638 20.5731 199.589 20.386 199.444 20.2965C199.296 20.2113 199.106 20.261 199.019 20.4081H199.019Z" fill="#2976DF"/>
<path d="M234.142 48.6049C234.193 50.3857 233.687 52.138 232.695 53.6177C232.418 54.0298 232.104 54.4159 231.757 54.7712C231.478 55.0584 231.918 55.4988 232.197 55.2111C233.908 53.4448 234.833 51.0628 234.764 48.6049C234.751 48.2055 234.129 48.2037 234.142 48.6049L234.142 48.6049Z" fill="#2976DF"/>
<path d="M171.225 63.763C178.149 59.4429 182.127 52.454 183.841 51.1223C185.556 49.7907 197.303 50.646 198.222 49.6478C199.14 48.6496 197.34 53.0765 193.02 53.8322C188.699 54.588 187.823 55.0724 187.823 55.0724C187.823 55.0724 183.901 65.4117 181.676 67.2963C179.45 69.1809 166.31 77.9196 166.31 77.9196L171.225 63.763Z" fill="#FF9763"/>
<path d="M175.086 60.3381C175.086 60.3381 182.556 70.0177 180.99 75.4589L134.521 95.8164L99.7451 49.9291C99.7451 49.9291 115.659 48.7749 119.785 48.3443C124.221 47.8815 138.478 72.8109 143.454 72.6075C145.94 72.5059 175.086 60.3381 175.086 60.3381Z" fill="#FE7578"/>
<mask id="mask2_1493_50466" style="mask-type:alpha" maskUnits="userSpaceOnUse" x="99" y="48" width="83" height="48">
<path fill-rule="evenodd" clip-rule="evenodd" d="M175.086 60.3381C175.086 60.3381 182.556 70.0177 180.99 75.4589L134.521 95.8164L99.7451 49.9291C99.7451 49.9291 115.659 48.7749 119.785 48.3443C124.221 47.8815 138.478 72.8109 143.454 72.6075C145.94 72.5059 175.086 60.3381 175.086 60.3381Z" fill="white"/>
</mask>
<g mask="url(#mask2_1493_50466)">
<path d="M124.579 64.8359C138.894 88.717 148.387 101.66 163.77 83.5909C169.868 76.428 148.387 101.66 148.387 101.66L114.875 97.4969V90.1139" fill="#BA393C"/>
<ellipse cx="143.738" cy="72.0776" rx="1.12443" ry="1.12442" fill="#190000"/>
<ellipse cx="175.035" cy="74.3373" rx="1.12443" ry="1.12442" fill="#BA393C"/>
</g>
<path d="M231.822 215.098L243.001 211.404L232.266 189.01L218.661 193.505L231.822 215.098V215.098Z" fill="#FF9763"/>
<mask id="mask3_1493_50466" style="mask-type:alpha" maskUnits="userSpaceOnUse" x="218" y="189" width="26" height="27">
<path fill-rule="evenodd" clip-rule="evenodd" d="M231.822 215.098L243.001 211.404L232.266 189.01L218.661 193.505L231.822 215.098V215.098Z" fill="white"/>
</mask>
<g mask="url(#mask3_1493_50466)">
<path d="M212.595 211.285C237.038 203.373 236.462 197.763 236.462 197.763L226.967 196.733L218.661 203.232" fill="#E84B23"/>
</g>
<path d="M273.743 210.63C271.629 206.739 268.242 206.255 264.042 206.79C254.77 207.971 243.744 208.54 240.719 204.913L226.967 208.796L233.383 220.209C234.26 221.769 236.291 222.639 237.853 222.123L273.743 210.63Z" fill="#3A3530"/>
<path d="M214.222 205.135C228.622 203.846 238.205 196.6 238.205 196.6L212.129 139.281C210.62 135.866 207.766 133.118 204.151 131.596L130.555 105.291L132.218 110.556L135.512 130.063L189.329 152.132L214.222 205.135Z" fill="#589BF7"/>
<mask id="mask4_1493_50466" style="mask-type:alpha" maskUnits="userSpaceOnUse" x="130" y="105" width="109" height="101">
<path fill-rule="evenodd" clip-rule="evenodd" d="M214.222 205.135C228.622 203.846 238.205 196.6 238.205 196.6L212.129 139.281C210.62 135.866 207.766 133.118 204.151 131.596L130.555 105.291L132.218 110.556L135.512 130.063L189.329 152.132L214.222 205.135Z" fill="white"/>
</mask>
<g mask="url(#mask4_1493_50466)">
<path d="M205.071 197.517C224.629 201.402 236.827 185.251 236.827 185.251" stroke="#2976DF" stroke-width="1.08914" stroke-linecap="round" stroke-linejoin="round"/>
<path d="M223.539 192.883L199.88 144.656C199.145 143.157 197.852 142.006 196.278 141.449L137.503 120.647" stroke="#2976DF" stroke-width="1.08914" stroke-linecap="round" stroke-linejoin="round"/>
<path d="M194.765 178.122C205.911 156.95 204.151 131.596 170.931 132.478C126.085 133.67 158.649 180.647 158.649 180.647H184.38" fill="#2976DF"/>
</g>
<path d="M166.188 238.35L176.415 243.934L181.635 216.33L169.343 208.602L166.188 238.35V238.35Z" fill="#FF9763"/>
<mask id="mask5_1493_50466" style="mask-type:alpha" maskUnits="userSpaceOnUse" x="166" y="208" width="16" height="36">
<path fill-rule="evenodd" clip-rule="evenodd" d="M166.188 238.35L176.415 243.934L181.635 216.33L169.343 208.602L166.188 238.35V238.35Z" fill="white"/>
</mask>
<g mask="url(#mask5_1493_50466)">
<path d="M160.89 224.495C175.787 230.076 180.27 227.237 180.27 227.237L172.026 220.822L161.107 221.599" fill="#E84B23"/>
</g>
<path d="M194.698 266.815C196.462 262.843 194.685 259.952 191.573 257.051C184.703 250.648 177.203 242.529 178.172 238.017L166.277 229.807L163.663 243.934C162.974 245.549 163.576 247.632 164.987 248.52L194.698 266.815Z" fill="#3A3530"/>
<path d="M161.307 219.661C161.307 219.661 176.812 230.659 184.241 226.153L194.644 148.997C195.397 143.705 192.57 138.385 187.543 135.635L130.555 105.291L104.076 110.567L102.395 117.096C99.6541 127.736 106.302 138.901 117.555 142.559L168.019 156.776L161.307 219.661Z" fill="#589BF7"/>
<mask id="mask6_1493_50466" style="mask-type:alpha" maskUnits="userSpaceOnUse" x="101" y="105" width="94" height="123">
<path fill-rule="evenodd" clip-rule="evenodd" d="M161.307 219.661C161.307 219.661 176.812 230.659 184.241 226.153L194.644 148.997C195.397 143.705 192.57 138.385 187.543 135.635L130.555 105.291L104.076 110.567L102.395 117.096C99.6541 127.736 106.302 138.901 117.555 142.559L168.019 156.776L161.307 219.661Z" fill="white"/>
</mask>
<g mask="url(#mask6_1493_50466)">
<path d="M147.39 109.356C100.418 123.928 124.706 143.451 147.39 152.257C170.074 161.063 95.6614 161.911 95.6614 161.911L87.4175 134.998L112.954 116.985L133.627 100.465" fill="#2976DF"/>
<ellipse cx="196.007" cy="146.067" rx="8.99537" ry="2.65773" fill="#FF9763"/>
<path d="M162.17 199.153C145.815 212.334 189.874 218.1 189.874 218.1" stroke="#2976DF" stroke-width="1.08914" stroke-linecap="round" stroke-linejoin="round"/>
<path d="M129.223 121.875C129.36 131.552 121.313 133.074 121.313 133.074Z" fill="#589BF7"/>
<path d="M130.555 128.365L172.571 144.189C177.672 146.11 180.862 151.202 180.365 156.63L175.154 213.592" stroke="#2976DF" stroke-width="1.08914" stroke-linecap="round" stroke-linejoin="round"/>
</g>
<path d="M116.234 49.2839C111.315 47.8901 91.7461 48.7633 89.4004 55.1674C88.4358 57.8008 81.548 77.5619 94.4167 131.611C102.62 136.831 137.921 105.586 137.921 105.586C138.02 105.54 131.334 82.5866 125.025 65.9954" fill="#FE7578"/>
<mask id="mask7_1493_50466" style="mask-type:alpha" maskUnits="userSpaceOnUse" x="86" y="48" width="52" height="85">
<path fill-rule="evenodd" clip-rule="evenodd" d="M116.234 49.2839C111.315 47.8901 91.7461 48.7633 89.4004 55.1674C88.4358 57.8008 81.548 77.5619 94.4167 131.611C102.62 136.831 137.921 105.586 137.921 105.586C138.02 105.54 131.334 82.5866 125.025 65.9954" fill="white"/>
</mask>
<g mask="url(#mask7_1493_50466)">
<path d="M137.92 105.586C87.0112 103.016 87.7928 146.616 114.856 128.866C141.919 111.116 109.478 138.679 108.343 139.352C107.208 140.026 82.9719 144.065 82.9719 144.065L71.9248 114.1C71.9248 114.1 88.3577 92.9787 90.7139 94.791C93.0702 96.6032 131.778 96.9857 131.778 96.9857" fill="#BA393C"/>
<path d="M132.495 116.15C135.221 105.382 114.364 55.1592 114.364 55.1592Z" fill="#FE7578"/>
<path d="M84.3833 121.465C90.9254 135.639 136.379 101.736 136.379 101.736" stroke="#BA393C" stroke-width="1.08914" stroke-linecap="round" stroke-linejoin="round"/>
</g>
<path d="M105.381 74.3359C103.559 86.6701 119.411 87.5164 127.712 88.2507C136.014 88.985 116.938 88.8912 125.053 89.1635C133.168 89.4358 112.447 94.7906 112.447 94.7906L91.7461 93.0038L94.01 76.747L105.381 74.3359Z" fill="#BA393C"/>
<path d="M138.865 90.6249C147.016 90.1959 153.879 86.0053 156.024 85.6699C158.168 85.3345 168.034 91.7688 169.321 91.3399C170.608 90.9109 166.891 93.9136 162.744 92.4837C158.597 91.0539 157.596 91.0539 157.596 91.0539C157.596 91.0539 149.16 98.2032 146.301 98.7751C143.441 99.3471 127.712 100.634 127.712 100.634L138.865 90.6249Z" fill="#FF9763"/>
<mask id="mask8_1493_50466" style="mask-type:alpha" maskUnits="userSpaceOnUse" x="127" y="85" width="43" height="16">
<path fill-rule="evenodd" clip-rule="evenodd" d="M138.865 90.6249C147.016 90.1959 153.879 86.0053 156.024 85.6699C158.168 85.3345 168.034 91.7688 169.321 91.3399C170.608 90.9109 166.891 93.9136 162.744 92.4837C158.597 91.0539 157.596 91.0539 157.596 91.0539C157.596 91.0539 149.16 98.2032 146.301 98.7751C143.441 99.3471 127.712 100.634 127.712 100.634L138.865 90.6249Z" fill="white"/>
</mask>
<g mask="url(#mask8_1493_50466)">
<path d="M145.94 102.772C147.227 92.9586 144.61 88.1416 144.61 88.1416L138.947 99.603L144.761 103.385" fill="#E84B23"/>
</g>
<path d="M105.381 74.3369C103.692 80.7914 96.697 87.7331 96.697 87.7331L144.61 88.1425C144.61 88.1425 145.754 101.583 141.75 105.587H82.0874C77.6383 105.587 73.7064 102.693 72.3841 98.4447V98.4447C71.6511 96.09 71.7993 93.5491 72.8012 91.2956L89.4003 55.168" fill="#FE7578"/>
<mask id="mask9_1493_50466" style="mask-type:alpha" maskUnits="userSpaceOnUse" x="71" y="55" width="74" height="51">
<path fill-rule="evenodd" clip-rule="evenodd" d="M105.381 74.3369C103.692 80.7914 96.697 87.7331 96.697 87.7331L144.61 88.1425C144.61 88.1425 145.754 101.583 141.75 105.587H82.0874C77.6383 105.587 73.7064 102.693 72.3841 98.4447V98.4447C71.6511 96.09 71.7993 93.5491 72.8012 91.2956L89.4003 55.168" fill="white"/>
</mask>
<g mask="url(#mask9_1493_50466)">
<ellipse cx="71.0934" cy="105.407" rx="15.6046" ry="11.97" fill="#BA393C"/>
<ellipse opacity="0.4" cx="72.8078" cy="103.693" rx="15.6046" ry="11.97" stroke="#EA71A2" stroke-width="0.726104" stroke-linecap="round" stroke-linejoin="round" stroke-dasharray="1.45"/>
</g>
<path d="M150.91 99.4828L145.94 100.104V98.6286L178.401 83.7959V85.815L150.91 99.4828V99.4828Z" fill="#FFC562"/>
<path d="M178.401 39.22V85.8154H214.124V50.4316C214.124 48.3658 212.824 46.5232 210.878 45.8295L183.082 35.9193C182.009 35.5368 180.817 35.6997 179.886 36.3562C178.955 37.0127 178.401 38.0808 178.401 39.22H178.401Z" fill="#FFC562"/>
<mask id="mask10_1493_50466" style="mask-type:alpha" maskUnits="userSpaceOnUse" x="178" y="35" width="37" height="51">
<path fill-rule="evenodd" clip-rule="evenodd" d="M178.401 39.22V85.8154H214.124V50.4316C214.124 48.3658 212.824 46.5232 210.878 45.8295L183.082 35.9193C182.009 35.5368 180.817 35.6997 179.886 36.3562C178.955 37.0127 178.401 38.0808 178.401 39.22H178.401Z" fill="white"/>
</mask>
<g mask="url(#mask10_1493_50466)">
<path d="M206.344 31.9434C241.78 69.0743 190.806 88.7005 190.806 88.7005L227.878 98.241L232.239 62.7688L216.975 43.5517" fill="#D89D35"/>
<ellipse cx="189.994" cy="61.9053" rx="7.04301" ry="7.04301" fill="#935738"/>
<rect x="196.496" y="53.9082" width="10.245" height="10.245" transform="rotate(-23.7494 196.496 53.9082)" fill="#FE7578"/>
<rect x="200.775" y="65.3701" width="4.60651" height="4.6065" transform="rotate(33.0926 200.775 65.3701)" fill="#F0F3FC"/>
</g>
<path d="M145.94 100.105L178.401 85.8154H214.124L180.886 100.881L145.94 100.105V100.105Z" fill="#D89D35"/>
<path d="M114.364 55.159L112.712 41.4379L99.7451 31.9424V49.9283" fill="#FF9763"/>
<mask id="mask11_1493_50466" style="mask-type:alpha" maskUnits="userSpaceOnUse" x="99" y="31" width="16" height="25">
<path fill-rule="evenodd" clip-rule="evenodd" d="M114.364 55.159L112.712 41.4379L99.7451 31.9424V49.9283" fill="white"/>
</mask>
<g mask="url(#mask11_1493_50466)">
<path d="M116.147 55.6268C112.31 49.7466 103.023 36.7852 103.023 36.7852L115.007 43.1771C115.007 43.1771 117.784 58.1359 116.147 55.6268Z" fill="#E84B23"/>
</g>
<path d="M99.0051 33.8511L97.4019 24.2695L118.975 21.4756C118.975 21.4756 121.308 36.4673 117.188 43.1018C114.69 47.1243 108.816 44.5314 104.577 41.8661" fill="#FF9763"/>
<mask id="mask12_1493_50466" style="mask-type:alpha" maskUnits="userSpaceOnUse" x="97" y="21" width="23" height="25">
<path fill-rule="evenodd" clip-rule="evenodd" d="M99.0051 33.8511L97.4019 24.2695L118.975 21.4756C118.975 21.4756 121.308 36.4673 117.188 43.1018C114.69 47.1243 108.816 44.5314 104.577 41.8661" fill="white"/>
</mask>
<g mask="url(#mask12_1493_50466)">
<ellipse opacity="0.27" cx="121.868" cy="36.1305" rx="2.44273" ry="3.29515" transform="rotate(-68.8498 121.868 36.1305)" fill="#E84B23"/>
<ellipse opacity="0.27" cx="109.102" cy="34.5511" rx="1.85572" ry="3.05498" transform="rotate(-85.8807 109.102 34.5511)" fill="#E84B23"/>
<ellipse opacity="0.27" cx="121.011" cy="35.4203" rx="1.85572" ry="3.05498" transform="rotate(-85.8807 121.011 35.4203)" fill="#E84B23"/>
<path d="M117.409 32.6201V32.6201C117.18 32.6289 116.957 32.5464 116.788 32.3906C116.62 32.2349 116.521 32.0187 116.512 31.7897L116.456 30.3311C116.447 30.1021 116.53 29.8789 116.685 29.7107C116.841 29.5425 117.057 29.4431 117.286 29.4343V29.4343C117.515 29.4255 117.739 29.5081 117.907 29.6638C118.075 29.8195 118.174 30.0357 118.183 30.2648L118.239 31.7233C118.258 32.2003 117.886 32.6018 117.409 32.6201L117.409 32.6201Z" fill="#190000"/>
<path d="M111.781 32.6024V32.6024C112.325 32.6379 112.787 32.2723 112.815 31.7858L112.899 30.2981C112.927 29.8116 112.509 29.3885 111.966 29.353V29.353C111.422 29.3175 110.96 29.6831 110.932 30.1695L110.847 31.6572C110.82 32.1437 111.238 32.5669 111.781 32.6024Z" fill="#190000"/>
<path d="M117.423 27.3909C119.206 27.8372 118.757 28.8165 117.625 28.6102C116.493 28.4039 116.259 27.0993 117.423 27.3909Z" fill="#190000"/>
<path d="M112.147 27.2117C110.11 27.6048 110.459 28.5356 111.752 28.3647C113.046 28.1938 113.478 26.9548 112.147 27.2117Z" fill="#190000"/>
<path d="M113.75 32.8955C113.689 33.5161 114.29 33.327 115.001 33.3972C115.712 33.4674 116.264 33.7703 116.326 33.1497C116.387 32.5291 115.86 31.9691 115.149 31.8989C114.438 31.8287 113.812 32.2749 113.75 32.8955Z" fill="#E84B23"/>
<path d="M117.24 35.9205C116.378 40.2529 112.306 38.3896 112.264 35.6906C112.264 35.5508 112.352 35.4261 112.483 35.3784C113.037 35.1699 114.644 34.736 117.015 35.5357C117.175 35.59 117.271 35.7541 117.24 35.9205V35.9205Z" fill="#C1525F"/>
<mask id="mask13_1493_50466" style="mask-type:alpha" maskUnits="userSpaceOnUse" x="112" y="35" width="6" height="4">
<path fill-rule="evenodd" clip-rule="evenodd" d="M117.24 35.9205C116.378 40.2529 112.306 38.3896 112.264 35.6906C112.264 35.5508 112.352 35.4261 112.483 35.3784C113.037 35.1699 114.644 34.736 117.015 35.5357C117.175 35.59 117.271 35.7541 117.24 35.9205V35.9205Z" fill="white"/>
</mask>
<g mask="url(#mask13_1493_50466)">
<ellipse cx="114.105" cy="38.2775" rx="1.9765" ry="2.21446" transform="rotate(-70.1528 114.105 38.2775)" fill="#993443"/>
<path d="M116.486 35.2113C116.476 35.4984 116.434 35.8876 116.357 35.9559C115.88 36.3774 113.649 36.1073 113.352 35.8471C113.269 35.7747 113.289 34.8486 113.289 34.8486L116.151 35.0438" fill="#F0F3FC"/>
</g>
</g>
<path d="M100.96 32.8328C113.408 34.241 102.442 20.9832 118.975 22.7787C139.904 25.0517 134.782 14.1776 129.324 14.6952C119.26 15.6497 134.261 12.0812 117.864 11.8161C110.557 11.698 88.1051 15.5648 97.4019 31.943C100.931 38.1601 100.61 35.7047 100.96 32.8328Z" fill="#3A3530"/>
<path d="M105.224 32.7395C104.985 32.1211 104.644 31.5476 104.214 31.0431C102.469 28.9746 99.6692 28.321 97.9602 29.5835C96.2512 30.8459 96.2803 33.5462 98.0253 35.6148C99.1392 36.9352 100.683 37.679 102.098 37.716" fill="#FF9763"/>
<path d="M97.7393 50.1923C97.7393 50.1923 98.5325 47.1598 99.745 46.5723L114.364 55.1596L113.135 57.67L97.7393 50.1923Z" fill="#F0F3FC"/>
<path d="M116.233 56.9755L114.364 55.1595L113.689 46.0664C115.557 46.3115 116.923 48.3375 116.923 48.3375L116.233 56.9755Z" fill="#F0F3FC"/>
<ellipse cx="137.503" cy="101.737" rx="1.12443" ry="1.12442" fill="#BA393C"/>
<ellipse cx="130.979" cy="101.737" rx="1.12443" ry="1.12442" fill="#BA393C"/>
<path d="M100.631 31.3433C100.216 31.5273 99.9259 31.9258 99.783 32.3452C99.6382 32.7825 99.6802 33.2601 99.899 33.6655C100.054 33.926 100.39 34.0139 100.653 33.8632C100.91 33.7055 100.998 33.3729 100.851 33.1092C100.835 33.0799 100.82 33.0501 100.807 33.0196L100.862 33.1512C100.827 33.0658 100.803 32.9763 100.79 32.8847L100.81 33.0312C100.797 32.9327 100.797 32.833 100.809 32.7344L100.79 32.8809C100.805 32.7687 100.834 32.6588 100.878 32.5542L100.822 32.6858C100.864 32.5882 100.918 32.4961 100.983 32.4119L100.897 32.5234C100.955 32.4511 101.02 32.3858 101.093 32.3291L100.982 32.4153C101.046 32.3677 101.114 32.3274 101.187 32.2951C101.311 32.2225 101.402 32.1043 101.44 31.9657C101.478 31.8224 101.459 31.6698 101.385 31.5411C101.312 31.4173 101.194 31.3265 101.055 31.2878C100.912 31.2568 100.762 31.2764 100.631 31.3434L100.631 31.3433Z" fill="#190000"/>
<path d="M102.972 23.2129L103.381 23.6218C103.6 23.8287 103.942 23.8287 104.161 23.6218L104.247 23.5102C104.296 23.4259 104.322 23.3299 104.322 23.2321L104.302 23.0856C104.277 22.9936 104.228 22.9098 104.161 22.8424L103.752 22.4336C103.533 22.2266 103.191 22.2266 102.972 22.4336L102.886 22.5451C102.837 22.6294 102.811 22.7255 102.811 22.8232L102.831 22.9697C102.856 23.0617 102.905 23.1455 102.972 23.2129V23.2129Z" fill="#190000"/>
<path d="M117.423 17.632C119.492 18.2451 121.664 18.4234 123.805 18.1556C124.09 18.1193 124.371 17.9281 124.356 17.6045C124.344 17.3371 124.111 17.0144 123.805 17.0534C122.771 17.1854 121.726 17.2108 120.687 17.1292C120.427 17.1087 120.168 17.0815 119.91 17.0476C120.029 17.0633 119.819 17.0343 119.799 17.0312C119.747 17.0236 119.696 17.0157 119.644 17.0075C119.507 16.9856 119.37 16.9619 119.234 16.9363C118.722 16.8399 118.215 16.7174 117.716 16.5692C117.423 16.4897 117.121 16.6621 117.04 16.9547C116.96 17.2473 117.131 17.5501 117.423 17.632H117.423Z" fill="#190000"/>
<path d="M93.9164 88.0529C94.8549 88.4276 95.8841 88.5129 96.8714 88.2977C97.1636 88.2151 97.3351 87.913 97.2563 87.6198C97.1695 87.331 96.8709 87.1614 96.5784 87.2349C96.5163 87.2479 96.454 87.2603 96.3914 87.2709C96.3752 87.2737 96.2173 87.2952 96.3495 87.2791C96.2391 87.2925 96.1286 87.3027 96.0175 87.3083C95.8034 87.3191 95.5888 87.3147 95.3753 87.295C95.3488 87.2925 95.1765 87.2717 95.3089 87.2901C95.2618 87.2835 95.2147 87.2762 95.1678 87.2681C95.0583 87.2493 94.9496 87.2264 94.8417 87.1994C94.6261 87.1451 94.4148 87.0751 94.2094 86.9901C93.942 86.8802 93.5921 87.109 93.5315 87.375C93.4584 87.6958 93.63 87.9352 93.9164 88.0529V88.0529Z" fill="#BA393C"/>
<path d="M143.04 72.9437L143.605 74.7982C143.658 74.9881 143.807 75.1356 143.998 75.1852C144.189 75.2348 144.391 75.1789 144.529 75.0387C144.668 74.8984 144.72 74.6951 144.668 74.5052L144.103 72.6507C144.021 72.3584 143.718 72.1873 143.425 72.268C143.133 72.3487 142.96 72.6507 143.04 72.9437V72.9437Z" fill="#BA393C"/>
<path d="M168.748 157.296C170.329 156.577 171.743 155.539 172.903 154.247C173.248 153.86 173.57 153.454 173.868 153.029C174.035 152.793 173.918 152.406 173.67 152.275C173.406 152.13 173.075 152.217 172.916 152.473C172.86 152.553 172.803 152.631 172.746 152.71C172.715 152.752 172.683 152.794 172.651 152.835C172.646 152.843 172.6 152.903 172.64 152.851C172.686 152.791 172.609 152.89 172.6 152.901C172.475 153.06 172.346 153.215 172.213 153.367C171.936 153.682 171.644 153.982 171.337 154.267C171.189 154.404 171.037 154.538 170.883 154.668C170.802 154.735 170.721 154.801 170.639 154.867C170.604 154.895 170.569 154.922 170.534 154.95C170.622 154.881 170.499 154.976 170.467 155C169.76 155.53 168.997 155.981 168.192 156.344C167.928 156.463 167.845 156.866 167.994 157.098C168.17 157.37 168.466 157.423 168.748 157.296H168.748Z" fill="#2976DF"/>
<path d="M243 206.452C244.528 187.499 252.668 200.939 244.713 206.996C244.713 206.996 254.136 203.036 255.159 203.65" stroke="#190000" stroke-width="1.08914" stroke-linecap="round" stroke-linejoin="round"/>
<path d="M178.301 243.39C179.828 224.436 187.968 237.876 180.014 243.934C180.014 243.934 189.437 239.974 190.459 240.587" stroke="#190000" stroke-width="1.08914" stroke-linecap="round" stroke-linejoin="round"/>
<path d="M102.485 38.6391L102.692 40.0697C102.731 40.2084 102.821 40.3266 102.946 40.3991C103.072 40.4729 103.222 40.4935 103.364 40.4564C103.505 40.4194 103.626 40.3276 103.7 40.2014L103.755 40.0697C103.781 39.9738 103.781 39.8726 103.755 39.7767L103.547 38.3462C103.509 38.2075 103.418 38.0892 103.294 38.0168C103.168 37.943 103.018 37.9223 102.876 37.9594C102.735 37.9965 102.614 38.0883 102.54 38.2145L102.485 38.3461C102.458 38.442 102.458 38.5432 102.485 38.6391V38.6391Z" fill="#E84B23"/>
<path d="M158.11 91.1666V90.6214C158.102 90.3204 157.86 90.0783 157.559 90.0703L157.412 90.09C157.32 90.1154 157.237 90.1642 157.169 90.2317C157.068 90.3364 157.01 90.4757 157.008 90.6214V91.1666C157.016 91.4676 157.258 91.7096 157.559 91.7177L157.705 91.698C157.797 91.6726 157.881 91.6238 157.949 91.5563C158.05 91.4516 158.108 91.3123 158.11 91.1666V91.1666Z" fill="#E84B23"/>
<path d="M158.211 118.378L157.791 118.983C157.751 119.045 157.729 119.115 157.725 119.188C157.699 119.407 157.801 119.621 157.988 119.737C158.117 119.812 158.27 119.832 158.413 119.793L158.545 119.737C158.626 119.69 158.694 119.621 158.742 119.54L159.163 118.934C159.202 118.873 159.225 118.802 159.228 118.73C159.255 118.511 159.152 118.297 158.965 118.18C158.837 118.106 158.684 118.086 158.541 118.125L158.409 118.18C158.327 118.228 158.259 118.296 158.211 118.378V118.378Z" fill="#2976DF"/>
<path fill-rule="evenodd" clip-rule="evenodd" d="M58.6617 23.1245L77.5899 81.3466C77.6181 81.4333 77.5913 81.5284 77.522 81.5876C77.4527 81.6468 77.3546 81.6584 77.2734 81.617L0.123051 42.3231C0.0418516 42.2818 -0.00643981 42.1956 0.000694943 42.1047C0.0078297 42.0139 0.0689856 41.9363 0.155646 41.9081L58.3778 22.9798C58.4961 22.9414 58.6232 23.0061 58.6617 23.1245ZM29.1092 44.28L58.6452 59.3232C58.7265 59.3645 58.8246 59.3529 58.8939 59.2937C58.9631 59.2345 58.9899 59.1394 58.9618 59.0527L51.7153 36.7631C51.6768 36.6448 51.5497 36.5801 51.4314 36.6185L29.1418 43.865C29.0552 43.8931 28.994 43.9707 28.9869 44.0616C28.9798 44.1524 29.028 44.2386 29.1092 44.28Z" fill="#97CC64"/>
<mask id="mask14_1493_50466" style="mask-type:alpha" maskUnits="userSpaceOnUse" x="0" y="22" width="78" height="60">
<path fill-rule="evenodd" clip-rule="evenodd" d="M77.5899 81.3466L58.6617 23.1245C58.6232 23.0061 58.4961 22.9414 58.3778 22.9798L0.155646 41.9081C0.0689856 41.9363 0.0078297 42.0139 0.000694943 42.1047C-0.00643981 42.1956 0.0418516 42.2818 0.123051 42.3231L77.2734 81.617C77.3546 81.6584 77.4527 81.6468 77.522 81.5876C77.5913 81.5284 77.6181 81.4333 77.5899 81.3466ZM58.6452 59.3232L29.1092 44.28C29.028 44.2386 28.9798 44.1524 28.9869 44.0616C28.994 43.9707 29.0552 43.8931 29.1418 43.865L51.4314 36.6185C51.5497 36.5801 51.6768 36.6448 51.7153 36.7631L58.9618 59.0527C58.9899 59.1394 58.9631 59.2345 58.8939 59.2937C58.8246 59.3529 58.7265 59.3645 58.6452 59.3232Z" fill="white"/>
</mask>
<g mask="url(#mask14_1493_50466)">
<path d="M7.00403 36.2793C-3.23539 48.0404 43.572 54.9118 55.446 70.5001C67.3199 86.0885 1.38211 64.294 1.38211 64.294L-2.49658 39.4439" fill="#75AA3C"/>
</g>
<path d="M58.9134 28.875L56.9644 29.5086" stroke="#75AA3C" stroke-width="0.552641"/>
<path d="M60.2927 33.1191L58.3438 33.7528" stroke="#75AA3C" stroke-width="0.552641"/>
<path d="M64.4319 45.8506L62.4829 46.4842" stroke="#75AA3C" stroke-width="0.552641"/>
<path d="M65.8118 50.0947L63.8628 50.7284" stroke="#75AA3C" stroke-width="0.552641"/>
<path d="M61.6726 37.3633L59.7236 37.9969" stroke="#75AA3C" stroke-width="0.552641"/>
<path d="M63.0525 41.6064L61.1035 42.2401" stroke="#75AA3C" stroke-width="0.552641"/>
<path d="M68.5711 58.582L66.6221 59.2157" stroke="#75AA3C" stroke-width="0.552641"/>
<path d="M71.3308 67.0703L69.3818 67.7039" stroke="#75AA3C" stroke-width="0.552641"/>
<path d="M67.1917 54.3389L65.2427 54.9725" stroke="#75AA3C" stroke-width="0.552641"/>
<path d="M69.951 62.8262L68.002 63.4598" stroke="#75AA3C" stroke-width="0.552641"/>
<path d="M72.7102 71.3145L70.7612 71.9481" stroke="#75AA3C" stroke-width="0.552641"/>
<path d="M74.0901 75.5586L72.1411 76.1922" stroke="#75AA3C" stroke-width="0.552641"/>
<path d="M6.6875 41.2285L7.32114 43.1775" stroke="#75AA3C" stroke-width="0.552641"/>
<path d="M10.9312 39.8496L11.5648 41.7986" stroke="#75AA3C" stroke-width="0.552641"/>
<path d="M23.6631 35.71L24.2967 37.659" stroke="#75AA3C" stroke-width="0.552641"/>
<path d="M27.9067 34.3301L28.5404 36.2791" stroke="#75AA3C" stroke-width="0.552641"/>
<path d="M15.1753 38.4697L15.8089 40.4187" stroke="#75AA3C" stroke-width="0.552641"/>
<path d="M19.4189 37.0898L20.0526 39.0388" stroke="#75AA3C" stroke-width="0.552641"/>
<path d="M36.395 31.5713L37.0286 33.5203" stroke="#75AA3C" stroke-width="0.552641"/>
<path d="M44.8828 28.8115L45.5164 30.7605" stroke="#75AA3C" stroke-width="0.552641"/>
<path d="M32.1509 32.9502L32.7845 34.8992" stroke="#75AA3C" stroke-width="0.552641"/>
<path d="M40.6387 30.1914L41.2723 32.1404" stroke="#75AA3C" stroke-width="0.552641"/>
<path d="M49.1265 27.4316L49.7601 29.3806" stroke="#75AA3C" stroke-width="0.552641"/>
<path d="M53.3706 26.0518L54.0042 28.0008" stroke="#75AA3C" stroke-width="0.552641"/>
<path d="M34.0676 51.469C34.3362 53.2287 36.0019 54.6219 37.7682 54.6396C37.9856 54.6396 38.1618 54.4634 38.1618 54.246C38.1618 54.0286 37.9856 53.8524 37.7682 53.8524C37.6635 53.8513 37.5599 53.8442 37.4557 53.835C37.3319 53.824 37.5279 53.85 37.4057 53.8283C37.3545 53.8193 37.3034 53.8107 37.2525 53.8C37.0749 53.7608 36.9005 53.7084 36.7308 53.6433C36.6872 53.6255 36.6825 53.6239 36.7166 53.6384C36.6927 53.6281 36.669 53.6175 36.6454 53.6066C36.598 53.5848 36.5513 53.562 36.505 53.5382C36.4239 53.4963 36.3445 53.4515 36.2668 53.4035C36.189 53.3556 36.1132 53.3047 36.0393 53.2509C36.0181 53.2355 35.9972 53.2199 35.9764 53.2041C36.0045 53.2256 36.0002 53.2219 35.9636 53.193C35.9287 53.1635 35.8933 53.1347 35.8589 53.1045C35.584 52.874 35.3535 52.5952 35.1787 52.2818C35.1302 52.1973 35.0854 52.1109 35.0443 52.0224C35.0402 52.0134 34.9971 51.9128 35.022 51.9736C35.0023 51.9255 34.984 51.8769 34.9669 51.8279C34.9027 51.6432 34.8558 51.453 34.8268 51.2597C34.7947 51.0494 34.5303 50.9333 34.3426 50.9848C34.1179 51.0466 34.0356 51.2581 34.0677 51.4689L34.0676 51.469Z" fill="#75AA3C"/>
<path d="M100.06 144.033C99.8642 138.634 98.5312 133.338 96.1479 128.491C95.2427 126.65 94.1899 124.886 92.9999 123.215C84.1183 110.727 68.1924 104.297 52.4358 108.262C36.6794 112.228 25.6951 125.431 23.7834 140.636C23.526 142.671 23.4337 144.723 23.5075 146.773C23.7029 152.171 25.0359 157.468 27.4193 162.315C36.7674 162.015 49.3223 160.384 64.5871 156.542C79.852 152.7 91.6834 148.193 100.06 144.033Z" fill="#9A7ED9"/>
<mask id="mask15_1493_50466" style="mask-type:alpha" maskUnits="userSpaceOnUse" x="23" y="107" width="78" height="56">
<path fill-rule="evenodd" clip-rule="evenodd" d="M100.06 144.032C99.8642 138.633 98.5312 133.337 96.1479 128.49C95.2427 126.649 94.1899 124.885 92.9999 123.214C84.1183 110.726 68.1924 104.296 52.4358 108.261C36.6794 112.227 25.6951 125.43 23.7834 140.635C23.526 142.67 23.4337 144.722 23.5075 146.772C23.7029 152.17 25.0359 157.467 27.4193 162.314C36.7674 162.014 49.3223 160.383 64.5871 156.541C79.852 152.699 91.6834 148.192 100.06 144.032Z" fill="white"/>
</mask>
<g mask="url(#mask15_1493_50466)">
<path d="M37.1304 101.948C118.644 106.774 101.909 151.483 43.7847 160.756C-14.3393 170.029 120.602 154.636 120.602 154.636L118.398 110.261L56.5854 98.2559L40.0856 106.591" fill="#6F4EB9"/>
</g>
<path d="M30.5674 167.59C39.4492 180.078 55.3751 186.509 71.1315 182.543C86.8881 178.577 97.8724 165.374 99.7841 150.169C90.3506 154.538 78.5664 158.589 65.9047 161.776C53.2431 164.962 40.945 166.973 30.5674 167.59Z" fill="#9A7ED9"/>
<mask id="mask16_1493_50466" style="mask-type:alpha" maskUnits="userSpaceOnUse" x="30" y="150" width="70" height="34">
<path fill-rule="evenodd" clip-rule="evenodd" d="M30.5674 167.59C39.4492 180.078 55.3751 186.509 71.1315 182.543C86.8881 178.577 97.8724 165.374 99.7841 150.169C90.3506 154.538 78.5664 158.589 65.9047 161.776C53.2431 164.962 40.945 166.973 30.5674 167.59Z" fill="white"/>
</mask>
<g mask="url(#mask16_1493_50466)">
<path d="M48.0046 187.217C24.6455 167.795 70.4149 163.822 90.8549 152.568C111.295 141.315 11.4956 160.953 11.4956 160.953L29.5347 182.441" fill="#6F4EB9"/>
</g>
<path d="M120.406 130.648C119.112 125.505 111.884 122.935 98.9222 123.009C97.034 123.02 95.051 123.093 92.9999 123.215C94.1899 124.885 95.2427 126.649 96.148 128.49C107.954 128.111 114.641 129.855 115.172 131.965C115.703 134.075 110.639 138.777 100.06 144.032C91.6834 148.193 79.852 152.699 64.5872 156.541C49.3224 160.383 36.7675 162.014 27.4194 162.315C15.6135 162.694 8.92669 160.949 8.39527 158.84C7.86448 156.73 12.9286 152.027 23.5075 146.773C23.4338 144.723 23.5261 142.671 23.7835 140.636C21.9193 141.499 20.1379 142.374 18.4698 143.259C7.01685 149.328 1.86655 155.015 3.16095 160.157C4.4553 165.3 11.6838 167.87 24.6454 167.795C26.5336 167.784 28.5167 167.712 30.5674 167.59C40.945 166.973 53.2432 164.962 65.9048 161.776C78.5664 158.589 90.3506 154.539 99.7841 150.169C101.648 149.305 103.429 148.431 105.098 147.546C116.55 141.476 121.701 135.79 120.406 130.648Z" fill="#97CC64"/>
<mask id="mask17_1493_50466" style="mask-type:alpha" maskUnits="userSpaceOnUse" x="2" y="123" width="119" height="45">
<path fill-rule="evenodd" clip-rule="evenodd" d="M120.406 130.648C119.112 125.505 111.884 122.935 98.9222 123.009C97.034 123.02 95.051 123.093 92.9999 123.215C94.1899 124.885 95.2427 126.649 96.148 128.49C107.954 128.111 114.641 129.855 115.172 131.965C115.703 134.075 110.639 138.777 100.06 144.032C91.6834 148.193 79.852 152.699 64.5872 156.541C49.3224 160.383 36.7675 162.014 27.4194 162.315C15.6135 162.694 8.92669 160.949 8.39527 158.84C7.86448 156.73 12.9286 152.027 23.5075 146.773C23.4338 144.723 23.5261 142.671 23.7835 140.636C21.9193 141.499 20.1379 142.374 18.4698 143.259C7.01685 149.328 1.86655 155.015 3.16095 160.157C4.4553 165.3 11.6838 167.87 24.6454 167.795C26.5336 167.784 28.5167 167.712 30.5674 167.59C40.945 166.973 53.2432 164.962 65.9048 161.776C78.5664 158.589 90.3506 154.539 99.7841 150.169C101.648 149.305 103.429 148.431 105.098 147.546C116.55 141.476 121.701 135.79 120.406 130.648Z" fill="white"/>
</mask>
<g mask="url(#mask17_1493_50466)">
<path d="M-5.72021 145.403C30.2346 139.739 26.7869 155.888 26.7869 155.888L35.6525 135.832L21.3691 132.873" fill="#75AA3C"/>
<path d="M83.1818 117.584C101.159 120.038 103.129 132.873 103.129 132.873L87.8609 135.832L82.9355 131.12" fill="#75AA3C"/>
</g>
<path d="M60.7206 124.944C59.2657 127.434 57.2298 129.535 54.7866 131.067Z" fill="#190000"/>
<path d="M60.3809 124.746C58.9654 127.181 56.977 129.235 54.5881 130.728C54.4004 130.837 54.3372 131.078 54.4469 131.266C54.5566 131.454 54.7978 131.517 54.9855 131.407C56.9372 130.18 58.6413 128.597 60.0094 126.741C60.3881 126.227 60.7391 125.694 61.0607 125.143C61.3168 124.705 60.6367 124.308 60.3809 124.746L60.3809 124.746Z" fill="#6F4EB9"/>
<path d="M80.6631 171.24C80.0748 172.049 79.3192 172.721 78.4478 173.212Z" fill="#190000"/>
<path d="M80.3234 171.042C80.2871 171.091 80.2507 171.141 80.213 171.19C80.2468 171.146 80.21 171.193 80.1949 171.211C80.1757 171.236 80.1564 171.259 80.1369 171.283C80.0589 171.378 79.9784 171.471 79.8953 171.562C79.7335 171.739 79.5626 171.908 79.3834 172.067C79.2961 172.145 79.207 172.22 79.1159 172.293C79.0919 172.313 79.0677 172.332 79.0436 172.351C79.0106 172.377 79.0771 172.326 79.0208 172.368C78.9713 172.404 78.9221 172.441 78.872 172.477C78.6714 172.619 78.4635 172.751 78.2492 172.872C78.1278 172.943 78.0535 173.073 78.0542 173.214C78.055 173.354 78.1307 173.484 78.2529 173.554C78.375 173.623 78.5251 173.623 78.6465 173.552C79.5737 173.023 80.3771 172.303 81.0031 171.439C81.112 171.251 81.0489 171.011 80.8619 170.901C80.6734 170.797 80.4369 170.859 80.3234 171.042V171.042Z" fill="#6F4EB9"/>
<path d="M17.1109 164.326L14.9048 166.308Z" fill="#190000"/>
<path d="M16.8321 164.048L14.6259 166.03C14.4737 166.184 14.4737 166.432 14.6259 166.586C14.7816 166.735 15.0269 166.735 15.1826 166.586L17.3887 164.605C17.541 164.451 17.541 164.202 17.3887 164.048C17.233 163.899 16.9877 163.899 16.8321 164.048V164.048Z" fill="#75AA3C"/>
<path d="M300 128.56C300 125.766 297.735 123.501 294.941 123.501H188.001C185.207 123.501 182.942 125.766 182.942 128.56V134.765H300V128.56Z" fill="#EFF3FC"/>
<mask id="mask18_1493_50466" style="mask-type:alpha" maskUnits="userSpaceOnUse" x="182" y="123" width="118" height="12">
<path fill-rule="evenodd" clip-rule="evenodd" d="M300 128.56C300 125.766 297.735 123.501 294.941 123.501H188.001C185.207 123.501 182.942 125.766 182.942 128.56V134.765H300V128.56Z" fill="white"/>
</mask>
<g mask="url(#mask18_1493_50466)">
<path d="M238.321 120.643C219.052 126.614 303.452 120.073 302.909 130.399C302.367 140.726 301.281 114.944 301.281 114.944L259.488 116.03" fill="#D6DCF2"/>
</g>
<path d="M182.942 134.765V196.696C182.942 199.49 185.207 201.755 188.001 201.755H294.941C297.735 201.755 300 199.49 300 196.696V134.765H182.942Z" fill="#D6DCF2"/>
<mask id="mask19_1493_50466" style="mask-type:alpha" maskUnits="userSpaceOnUse" x="182" y="134" width="118" height="68">
<path fill-rule="evenodd" clip-rule="evenodd" d="M182.942 134.765V196.696C182.942 199.49 185.207 201.755 188.001 201.755H294.941C297.735 201.755 300 199.49 300 196.696V134.765H182.942Z" fill="white"/>
</mask>
<g mask="url(#mask19_1493_50466)">
<path d="M180.516 188.729C180.109 205.45 294.941 201.755 294.941 201.755L184.587 221.733L167.083 209.928" fill="#BFC8E2"/>
</g>
<ellipse cx="189.302" cy="128.998" rx="1.40124" ry="1.40124" fill="#BB393C"/>
<ellipse cx="195.19" cy="128.998" rx="1.40124" ry="1.40124" fill="#FFC562"/>
<ellipse cx="201.078" cy="128.998" rx="1.40124" ry="1.40124" fill="#75AA3C"/>
<rect x="192.152" y="141.005" width="98.6377" height="53.4341" rx="2.11824" fill="#9A7ED9"/>
<mask id="mask20_1493_50466" style="mask-type:alpha" maskUnits="userSpaceOnUse" x="192" y="141" width="99" height="54">
<rect x="192.152" y="141.005" width="98.6377" height="53.4341" rx="2.11824" fill="white"/>
</mask>
<g mask="url(#mask20_1493_50466)">
<path d="M288.39 135.588C290.79 192.321 178.888 196.739 178.888 196.739L305.487 216.848L313.76 162.628" fill="#6F4EB9"/>
</g>
<ellipse opacity="0.36" cx="241.471" cy="165.26" rx="15.6443" ry="15.6637" fill="#EFF3FC"/>
<path d="M237.112 165.26V159.489C237.112 159.138 237.299 158.814 237.602 158.638C237.906 158.463 238.28 158.463 238.583 158.638L243.575 161.524L248.567 164.41C248.871 164.585 249.058 164.909 249.058 165.26C249.058 165.611 248.871 165.935 248.567 166.11L243.575 168.996L238.583 171.882C238.28 172.057 237.906 172.057 237.602 171.882C237.299 171.706 237.112 171.382 237.112 171.031V165.26Z" fill="#EFF3FC"/>
<path d="M208.287 155.065C207.42 156.082 206.353 156.909 205.152 157.495C204.946 157.616 204.877 157.881 204.996 158.088C205.121 158.29 205.382 158.358 205.589 158.244C206.854 157.619 207.98 156.746 208.901 155.678C209.065 155.507 209.065 155.236 208.901 155.065C208.738 154.915 208.445 154.881 208.287 155.065L208.287 155.065Z" fill="#6F4EB9"/>
<path d="M280.541 184.272L278.098 185.086C277.867 185.15 277.732 185.389 277.795 185.62C277.859 185.851 278.098 185.986 278.329 185.923L280.771 185.108C280.922 185.068 281.038 184.95 281.078 184.8C281.117 184.649 281.073 184.489 280.962 184.38C280.851 184.271 280.691 184.23 280.541 184.272V184.272Z" fill="#6F4EB9"/>
</svg>
